G75*
%MOIN*%
%OFA0B0*%
%FSLAX25Y25*%
%IPPOS*%
%LPD*%
%AMOC8*
5,1,8,0,0,1.08239X$1,22.5*
%
%ADD10R,0.03543X0.03937*%
%ADD11R,0.02165X0.04724*%
%ADD12R,0.05512X0.04134*%
%ADD13R,0.04724X0.02362*%
%ADD14R,0.03346X0.03346*%
%ADD15R,0.02362X0.02559*%
%ADD16R,0.03150X0.07480*%
%ADD17R,0.04134X0.05512*%
%ADD18R,0.01969X0.03937*%
%ADD19R,0.05906X0.01181*%
%ADD20R,0.01181X0.05906*%
%ADD21R,0.06800X0.07700*%
%ADD22R,0.03740X0.02756*%
%ADD23R,0.03937X0.03543*%
%ADD24R,0.08661X0.11024*%
%ADD25R,0.11024X0.11024*%
%ADD26R,0.01772X0.05906*%
%ADD27R,0.02900X0.11000*%
%ADD28R,0.04724X0.05512*%
%ADD29R,0.07874X0.01969*%
%ADD30R,0.08661X0.09843*%
%ADD31R,0.04331X0.02362*%
D10*
X0084946Y0115933D03*
X0091245Y0115933D03*
X0121946Y0158433D03*
X0128245Y0158433D03*
X0134446Y0158433D03*
X0140745Y0158433D03*
X0128745Y0181433D03*
X0122446Y0181433D03*
X0123245Y0214933D03*
X0116946Y0214933D03*
X0116946Y0221433D03*
X0123245Y0221433D03*
X0123245Y0227433D03*
X0116946Y0227433D03*
X0199446Y0213933D03*
X0205745Y0213933D03*
X0208946Y0203433D03*
X0215245Y0203433D03*
X0234446Y0150933D03*
X0240745Y0150933D03*
X0232245Y0144433D03*
X0225946Y0144433D03*
X0220245Y0144433D03*
X0213946Y0144433D03*
X0271946Y0111433D03*
X0278245Y0111433D03*
X0278245Y0105433D03*
X0271946Y0105433D03*
X0290446Y0090433D03*
X0296745Y0090433D03*
X0296745Y0084433D03*
X0290446Y0084433D03*
X0290946Y0127433D03*
X0285245Y0127433D03*
X0278946Y0127433D03*
X0297245Y0127433D03*
X0297745Y0148433D03*
X0291446Y0148433D03*
X0313946Y0233433D03*
X0320245Y0233433D03*
X0325946Y0233433D03*
X0332245Y0233433D03*
D11*
X0136835Y0175052D03*
X0129355Y0175052D03*
X0129355Y0164815D03*
X0133095Y0164815D03*
X0136835Y0164815D03*
D12*
X0123095Y0164693D03*
X0123095Y0172173D03*
X0174095Y0203693D03*
X0174095Y0211173D03*
D13*
X0089623Y0110173D03*
X0089623Y0106433D03*
X0089623Y0102693D03*
X0080568Y0102693D03*
X0080568Y0106433D03*
X0080568Y0110173D03*
D14*
X0120095Y0137339D03*
X0130095Y0137339D03*
X0140095Y0137339D03*
X0140095Y0150528D03*
X0130095Y0150528D03*
X0120095Y0150528D03*
D15*
X0271040Y0157142D03*
X0275371Y0157142D03*
X0279701Y0157142D03*
X0284032Y0157142D03*
X0288363Y0157142D03*
X0292694Y0157142D03*
X0297024Y0157142D03*
X0301355Y0157142D03*
X0316316Y0157142D03*
X0320646Y0157142D03*
X0324977Y0157142D03*
X0329308Y0157142D03*
X0333638Y0157142D03*
X0337969Y0157142D03*
X0337969Y0221512D03*
X0333638Y0221512D03*
X0329308Y0221512D03*
X0324977Y0221512D03*
X0320646Y0221512D03*
X0316316Y0221512D03*
X0301355Y0221512D03*
X0297024Y0221512D03*
X0292694Y0221512D03*
X0288363Y0221512D03*
X0284032Y0221512D03*
X0279701Y0221512D03*
X0275371Y0221512D03*
X0271040Y0221512D03*
D16*
X0271040Y0226531D03*
X0275371Y0226531D03*
X0279701Y0226531D03*
X0284032Y0226531D03*
X0288363Y0226531D03*
X0292694Y0226531D03*
X0297024Y0226531D03*
X0301355Y0226531D03*
X0316316Y0226531D03*
X0320646Y0226531D03*
X0324977Y0226531D03*
X0329308Y0226531D03*
X0333638Y0226531D03*
X0337969Y0226531D03*
X0337969Y0152122D03*
X0333638Y0152122D03*
X0329308Y0152122D03*
X0324977Y0152122D03*
X0320646Y0152122D03*
X0316316Y0152122D03*
X0301355Y0152122D03*
X0297024Y0152122D03*
X0292694Y0152122D03*
X0288363Y0152122D03*
X0284032Y0152122D03*
X0279701Y0152122D03*
X0275371Y0152122D03*
X0271040Y0152122D03*
D17*
X0290355Y0141433D03*
X0297835Y0141433D03*
X0318764Y0242433D03*
X0327426Y0242433D03*
D18*
X0323095Y0238496D03*
X0323095Y0246370D03*
D19*
X0222536Y0188697D03*
X0222536Y0186728D03*
X0222536Y0184760D03*
X0222536Y0182791D03*
X0222536Y0180823D03*
X0222536Y0178854D03*
X0222536Y0176886D03*
X0222536Y0174917D03*
X0222536Y0172949D03*
X0222536Y0170980D03*
X0222536Y0169012D03*
X0222536Y0167043D03*
X0222536Y0165075D03*
X0222536Y0163106D03*
X0222536Y0161138D03*
X0222536Y0159169D03*
X0177654Y0159169D03*
X0177654Y0161138D03*
X0177654Y0163106D03*
X0177654Y0165075D03*
X0177654Y0167043D03*
X0177654Y0169012D03*
X0177654Y0170980D03*
X0177654Y0172949D03*
X0177654Y0174917D03*
X0177654Y0176886D03*
X0177654Y0178854D03*
X0177654Y0180823D03*
X0177654Y0182791D03*
X0177654Y0184760D03*
X0177654Y0186728D03*
X0177654Y0188697D03*
D20*
X0185331Y0196374D03*
X0187300Y0196374D03*
X0189268Y0196374D03*
X0191237Y0196374D03*
X0193205Y0196374D03*
X0195174Y0196374D03*
X0197142Y0196374D03*
X0199111Y0196374D03*
X0201079Y0196374D03*
X0203048Y0196374D03*
X0205016Y0196374D03*
X0206985Y0196374D03*
X0208953Y0196374D03*
X0210922Y0196374D03*
X0212890Y0196374D03*
X0214859Y0196374D03*
X0214859Y0151492D03*
X0212890Y0151492D03*
X0210922Y0151492D03*
X0208953Y0151492D03*
X0206985Y0151492D03*
X0205016Y0151492D03*
X0203048Y0151492D03*
X0201079Y0151492D03*
X0199111Y0151492D03*
X0197142Y0151492D03*
X0195174Y0151492D03*
X0193205Y0151492D03*
X0191237Y0151492D03*
X0189268Y0151492D03*
X0187300Y0151492D03*
X0185331Y0151492D03*
D21*
X0204795Y0136283D03*
D22*
X0135942Y0214933D03*
X0129249Y0214933D03*
X0129249Y0221433D03*
X0129249Y0227433D03*
X0135942Y0227433D03*
X0135942Y0221433D03*
D23*
X0141595Y0235783D03*
X0147595Y0235783D03*
X0153595Y0235783D03*
X0153595Y0242083D03*
X0147595Y0242083D03*
X0141595Y0242083D03*
X0172595Y0242083D03*
X0172595Y0235783D03*
X0202595Y0235783D03*
X0202595Y0242083D03*
X0214095Y0228083D03*
X0220095Y0228083D03*
X0220095Y0221783D03*
X0214095Y0221783D03*
X0214095Y0216083D03*
X0220095Y0216083D03*
X0220095Y0209783D03*
X0214095Y0209783D03*
X0181095Y0209583D03*
X0181095Y0203283D03*
X0233595Y0181583D03*
X0239595Y0181583D03*
X0239595Y0175283D03*
X0233595Y0175283D03*
X0170595Y0160083D03*
X0170595Y0153783D03*
X0172595Y0092083D03*
X0172595Y0085783D03*
X0182595Y0085783D03*
X0182595Y0092083D03*
X0197595Y0092083D03*
X0203595Y0092083D03*
X0203595Y0085783D03*
X0197595Y0085783D03*
X0222595Y0085783D03*
X0222595Y0092083D03*
X0232595Y0092083D03*
X0241095Y0092083D03*
X0247095Y0092083D03*
X0253095Y0092083D03*
X0259095Y0092083D03*
X0265095Y0092083D03*
X0271095Y0092083D03*
X0277095Y0092083D03*
X0277095Y0085783D03*
X0271095Y0085783D03*
X0265095Y0085783D03*
X0259095Y0085783D03*
X0253095Y0085783D03*
X0247095Y0085783D03*
X0241095Y0085783D03*
X0232595Y0085783D03*
X0309095Y0119283D03*
X0309095Y0125583D03*
X0317595Y0092083D03*
X0317595Y0085783D03*
D24*
X0355036Y0108795D03*
X0362910Y0137929D03*
D25*
X0325902Y0137929D03*
D26*
X0300272Y0120350D03*
X0297713Y0120350D03*
X0295154Y0120350D03*
X0292595Y0120350D03*
X0290036Y0120350D03*
X0287477Y0120350D03*
X0284918Y0120350D03*
X0284918Y0097516D03*
X0287477Y0097516D03*
X0290036Y0097516D03*
X0292595Y0097516D03*
X0295154Y0097516D03*
X0297713Y0097516D03*
X0300272Y0097516D03*
D27*
X0147595Y0100933D03*
X0142595Y0100933D03*
X0137595Y0100933D03*
X0132595Y0100933D03*
X0127595Y0100933D03*
X0127595Y0116933D03*
X0132595Y0116933D03*
X0137595Y0116933D03*
X0142595Y0116933D03*
X0147595Y0116933D03*
D28*
X0234249Y0157102D03*
X0240942Y0157102D03*
X0240942Y0165764D03*
X0234249Y0165764D03*
D29*
X0066729Y0111157D03*
X0066729Y0108008D03*
X0066729Y0104858D03*
X0066729Y0101709D03*
X0066729Y0098559D03*
D30*
X0044879Y0088323D03*
X0065745Y0088323D03*
X0065745Y0121394D03*
X0044879Y0121394D03*
D31*
X0197280Y0220193D03*
X0197280Y0223933D03*
X0197280Y0227673D03*
X0207910Y0227673D03*
X0207910Y0223933D03*
X0207910Y0220193D03*
M02*
