G75*
%MOIN*%
%OFA0B0*%
%FSLAX25Y25*%
%IPPOS*%
%LPD*%
%AMOC8*
5,1,8,0,0,1.08239X$1,22.5*
%
%ADD10C,0.00800*%
%ADD11R,0.42500X0.10000*%
%ADD12C,0.00600*%
%ADD13C,0.00500*%
%ADD14C,0.01200*%
%ADD15C,0.03937*%
%ADD16C,0.03150*%
%ADD17C,0.02235*%
%ADD18C,0.01575*%
%ADD19C,0.00400*%
%ADD20R,0.00140X0.00035*%
%ADD21R,0.00490X0.00035*%
%ADD22R,0.00630X0.00035*%
%ADD23R,0.00595X0.00035*%
%ADD24R,0.00980X0.00035*%
%ADD25R,0.01155X0.00035*%
%ADD26R,0.00700X0.00035*%
%ADD27R,0.00385X0.00035*%
%ADD28R,0.00910X0.00035*%
%ADD29R,0.00665X0.00035*%
%ADD30R,0.01120X0.00035*%
%ADD31R,0.00735X0.00035*%
%ADD32R,0.00175X0.00035*%
%ADD33R,0.01085X0.00035*%
%ADD34R,0.00455X0.00035*%
%ADD35R,0.01015X0.00035*%
%ADD36R,0.00210X0.00035*%
%ADD37R,0.01155X0.00035*%
%ADD38R,0.00490X0.00035*%
%ADD39R,0.01085X0.00035*%
%ADD40R,0.00245X0.00035*%
%ADD41R,0.00210X0.00035*%
%ADD42R,0.01050X0.00035*%
%ADD43R,0.00350X0.00035*%
%ADD44R,0.00280X0.00035*%
%ADD45R,0.00175X0.00035*%
%ADD46R,0.00315X0.00035*%
%ADD47R,0.00140X0.00035*%
%ADD48R,0.00350X0.00035*%
%ADD49R,0.00140X0.00035*%
%ADD50R,0.00315X0.00035*%
%ADD51R,0.00175X0.00035*%
%ADD52R,0.00385X0.00035*%
%ADD53R,0.00105X0.00035*%
%ADD54R,0.00140X0.00035*%
%ADD55R,0.00420X0.00035*%
%ADD56R,0.00315X0.00035*%
%ADD57R,0.00105X0.00035*%
%ADD58R,0.00035X0.00035*%
%ADD59R,0.00525X0.00035*%
%ADD60R,0.00560X0.00035*%
%ADD61R,0.00910X0.00035*%
%ADD62R,0.00105X0.00035*%
%ADD63R,0.00875X0.00035*%
%ADD64R,0.00875X0.00035*%
%ADD65R,0.00420X0.00035*%
%ADD66R,0.00105X0.00035*%
%ADD67R,0.00840X0.00035*%
%ADD68R,0.00770X0.00035*%
%ADD69R,0.00805X0.00035*%
%ADD70R,0.00805X0.00035*%
%ADD71R,0.00420X0.00035*%
%ADD72R,0.00280X0.00035*%
%ADD73R,0.00385X0.00035*%
%ADD74R,0.00245X0.00035*%
%ADD75R,0.00945X0.00035*%
%ADD76R,0.01400X0.00035*%
%ADD77R,0.00665X0.00035*%
%ADD78R,0.00525X0.00035*%
%ADD79R,0.00595X0.00035*%
%ADD80R,0.01120X0.00035*%
%ADD81R,0.00980X0.00035*%
%ADD82R,0.00875X0.00035*%
%ADD83R,0.15995X0.00035*%
%ADD84R,0.15995X0.00035*%
%ADD85R,0.06545X0.00035*%
%ADD86R,0.06510X0.00035*%
%ADD87R,0.06475X0.00035*%
%ADD88R,0.06440X0.00035*%
%ADD89R,0.06440X0.00035*%
%ADD90R,0.06405X0.00035*%
%ADD91R,0.06370X0.00035*%
%ADD92R,0.06335X0.00035*%
%ADD93R,0.06300X0.00035*%
%ADD94R,0.06300X0.00035*%
%ADD95R,0.06265X0.00035*%
%ADD96R,0.06230X0.00035*%
%ADD97R,0.06195X0.00035*%
%ADD98R,0.06160X0.00035*%
%ADD99R,0.06160X0.00035*%
%ADD100R,0.06125X0.00035*%
%ADD101R,0.06090X0.00035*%
%ADD102R,0.06055X0.00035*%
%ADD103R,0.06020X0.00035*%
%ADD104R,0.06020X0.00035*%
%ADD105R,0.05985X0.00035*%
%ADD106R,0.05950X0.00035*%
%ADD107R,0.05915X0.00035*%
%ADD108R,0.05880X0.00035*%
%ADD109R,0.05880X0.00035*%
%ADD110R,0.05845X0.00035*%
%ADD111R,0.05810X0.00035*%
%ADD112R,0.05775X0.00035*%
%ADD113R,0.05740X0.00035*%
%ADD114R,0.05740X0.00035*%
%ADD115R,0.05705X0.00035*%
%ADD116R,0.05670X0.00035*%
%ADD117R,0.05635X0.00035*%
%ADD118R,0.05600X0.00035*%
%ADD119R,0.05600X0.00035*%
%ADD120R,0.05565X0.00035*%
%ADD121R,0.00560X0.00035*%
%ADD122R,0.05530X0.00035*%
%ADD123R,0.05495X0.00035*%
%ADD124R,0.05460X0.00035*%
%ADD125R,0.00560X0.00035*%
%ADD126R,0.05460X0.00035*%
%ADD127R,0.05425X0.00035*%
%ADD128R,0.05390X0.00035*%
%ADD129R,0.05355X0.00035*%
%ADD130R,0.05320X0.00035*%
%ADD131R,0.00595X0.00035*%
%ADD132R,0.05355X0.00035*%
%ADD133R,0.05320X0.00035*%
%ADD134R,0.05285X0.00035*%
%ADD135R,0.05250X0.00035*%
%ADD136R,0.05215X0.00035*%
%ADD137R,0.00630X0.00035*%
%ADD138R,0.05180X0.00035*%
%ADD139R,0.00630X0.00035*%
%ADD140R,0.05180X0.00035*%
%ADD141R,0.05145X0.00035*%
%ADD142R,0.05110X0.00035*%
%ADD143R,0.05075X0.00035*%
%ADD144R,0.05075X0.00035*%
%ADD145R,0.00770X0.00035*%
%ADD146R,0.05040X0.00035*%
%ADD147R,0.00840X0.00035*%
%ADD148R,0.05005X0.00035*%
%ADD149R,0.04970X0.00035*%
%ADD150R,0.04935X0.00035*%
%ADD151R,0.01225X0.00035*%
%ADD152R,0.01295X0.00035*%
%ADD153R,0.04935X0.00035*%
%ADD154R,0.00840X0.00035*%
%ADD155R,0.01435X0.00035*%
%ADD156R,0.04900X0.00035*%
%ADD157R,0.01505X0.00035*%
%ADD158R,0.01680X0.00035*%
%ADD159R,0.01855X0.00035*%
%ADD160R,0.04865X0.00035*%
%ADD161R,0.02835X0.00035*%
%ADD162R,0.04830X0.00035*%
%ADD163R,0.00770X0.00035*%
%ADD164R,0.02870X0.00035*%
%ADD165R,0.04795X0.00035*%
%ADD166R,0.04795X0.00035*%
%ADD167R,0.01015X0.00035*%
%ADD168R,0.02905X0.00035*%
%ADD169R,0.04760X0.00035*%
%ADD170R,0.02940X0.00035*%
%ADD171R,0.01330X0.00035*%
%ADD172R,0.01505X0.00035*%
%ADD173R,0.04725X0.00035*%
%ADD174R,0.01575X0.00035*%
%ADD175R,0.01610X0.00035*%
%ADD176R,0.01190X0.00035*%
%ADD177R,0.01645X0.00035*%
%ADD178R,0.04690X0.00035*%
%ADD179R,0.01715X0.00035*%
%ADD180R,0.01750X0.00035*%
%ADD181R,0.01225X0.00035*%
%ADD182R,0.01820X0.00035*%
%ADD183R,0.04655X0.00035*%
%ADD184R,0.01260X0.00035*%
%ADD185R,0.04655X0.00035*%
%ADD186R,0.01295X0.00035*%
%ADD187R,0.00805X0.00035*%
%ADD188R,0.01890X0.00035*%
%ADD189R,0.01925X0.00035*%
%ADD190R,0.04620X0.00035*%
%ADD191R,0.01960X0.00035*%
%ADD192R,0.01995X0.00035*%
%ADD193R,0.04585X0.00035*%
%ADD194R,0.02065X0.00035*%
%ADD195R,0.02100X0.00035*%
%ADD196R,0.02135X0.00035*%
%ADD197R,0.04550X0.00035*%
%ADD198R,0.02205X0.00035*%
%ADD199R,0.02240X0.00035*%
%ADD200R,0.04515X0.00035*%
%ADD201R,0.04515X0.00035*%
%ADD202R,0.01295X0.00035*%
%ADD203R,0.00595X0.00035*%
%ADD204R,0.02345X0.00035*%
%ADD205R,0.04480X0.00035*%
%ADD206R,0.01295X0.00035*%
%ADD207R,0.02345X0.00035*%
%ADD208R,0.02415X0.00035*%
%ADD209R,0.01260X0.00035*%
%ADD210R,0.02450X0.00035*%
%ADD211R,0.04445X0.00035*%
%ADD212R,0.02520X0.00035*%
%ADD213R,0.04410X0.00035*%
%ADD214R,0.02590X0.00035*%
%ADD215R,0.02625X0.00035*%
%ADD216R,0.04375X0.00035*%
%ADD217R,0.04375X0.00035*%
%ADD218R,0.00735X0.00035*%
%ADD219R,0.02660X0.00035*%
%ADD220R,0.02695X0.00035*%
%ADD221R,0.04340X0.00035*%
%ADD222R,0.02765X0.00035*%
%ADD223R,0.02800X0.00035*%
%ADD224R,0.04305X0.00035*%
%ADD225R,0.04270X0.00035*%
%ADD226R,0.02905X0.00035*%
%ADD227R,0.04235X0.00035*%
%ADD228R,0.04235X0.00035*%
%ADD229R,0.02940X0.00035*%
%ADD230R,0.02975X0.00035*%
%ADD231R,0.04200X0.00035*%
%ADD232R,0.01890X0.00035*%
%ADD233R,0.04165X0.00035*%
%ADD234R,0.01890X0.00035*%
%ADD235R,0.01925X0.00035*%
%ADD236R,0.04130X0.00035*%
%ADD237R,0.02030X0.00035*%
%ADD238R,0.04095X0.00035*%
%ADD239R,0.02100X0.00035*%
%ADD240R,0.00245X0.00035*%
%ADD241R,0.04095X0.00035*%
%ADD242R,0.02170X0.00035*%
%ADD243R,0.04060X0.00035*%
%ADD244R,0.02240X0.00035*%
%ADD245R,0.04025X0.00035*%
%ADD246R,0.02275X0.00035*%
%ADD247R,0.02380X0.00035*%
%ADD248R,0.03990X0.00035*%
%ADD249R,0.02520X0.00035*%
%ADD250R,0.02660X0.00035*%
%ADD251R,0.03955X0.00035*%
%ADD252R,0.02765X0.00035*%
%ADD253R,0.03955X0.00035*%
%ADD254R,0.03920X0.00035*%
%ADD255R,0.03080X0.00035*%
%ADD256R,0.03185X0.00035*%
%ADD257R,0.03885X0.00035*%
%ADD258R,0.03325X0.00035*%
%ADD259R,0.03360X0.00035*%
%ADD260R,0.03465X0.00035*%
%ADD261R,0.03850X0.00035*%
%ADD262R,0.03570X0.00035*%
%ADD263R,0.03815X0.00035*%
%ADD264R,0.03640X0.00035*%
%ADD265R,0.03815X0.00035*%
%ADD266R,0.03745X0.00035*%
%ADD267R,0.03780X0.00035*%
%ADD268R,0.03745X0.00035*%
%ADD269R,0.04130X0.00035*%
%ADD270R,0.03710X0.00035*%
%ADD271R,0.04375X0.00035*%
%ADD272R,0.03675X0.00035*%
%ADD273R,0.04445X0.00035*%
%ADD274R,0.03710X0.00035*%
%ADD275R,0.03675X0.00035*%
%ADD276R,0.03640X0.00035*%
%ADD277R,0.03605X0.00035*%
%ADD278R,0.03570X0.00035*%
%ADD279R,0.03535X0.00035*%
%ADD280R,0.04970X0.00035*%
%ADD281R,0.03570X0.00035*%
%ADD282R,0.03535X0.00035*%
%ADD283R,0.05005X0.00035*%
%ADD284R,0.03500X0.00035*%
%ADD285R,0.05040X0.00035*%
%ADD286R,0.05075X0.00035*%
%ADD287R,0.03430X0.00035*%
%ADD288R,0.03430X0.00035*%
%ADD289R,0.01365X0.00035*%
%ADD290R,0.03395X0.00035*%
%ADD291R,0.03360X0.00035*%
%ADD292R,0.03430X0.00035*%
%ADD293R,0.01190X0.00035*%
%ADD294R,0.03360X0.00035*%
%ADD295R,0.03395X0.00035*%
%ADD296R,0.00945X0.00035*%
%ADD297R,0.01540X0.00035*%
%ADD298R,0.01470X0.00035*%
%ADD299R,0.01540X0.00035*%
%ADD300R,0.01435X0.00035*%
%ADD301R,0.03290X0.00035*%
%ADD302R,0.03290X0.00035*%
%ADD303R,0.01575X0.00035*%
%ADD304R,0.01190X0.00035*%
%ADD305R,0.03255X0.00035*%
%ADD306R,0.03220X0.00035*%
%ADD307R,0.01785X0.00035*%
%ADD308R,0.03150X0.00035*%
%ADD309R,0.03150X0.00035*%
%ADD310R,0.00525X0.00035*%
%ADD311R,0.03115X0.00035*%
%ADD312R,0.00455X0.00035*%
%ADD313R,0.03080X0.00035*%
%ADD314R,0.03045X0.00035*%
%ADD315R,0.02275X0.00035*%
%ADD316R,0.03010X0.00035*%
%ADD317R,0.02485X0.00035*%
%ADD318R,0.03010X0.00035*%
%ADD319R,0.02555X0.00035*%
%ADD320R,0.02730X0.00035*%
%ADD321R,0.02940X0.00035*%
%ADD322R,0.03045X0.00035*%
%ADD323R,0.02835X0.00035*%
%ADD324R,0.03220X0.00035*%
%ADD325R,0.02870X0.00035*%
%ADD326R,0.02730X0.00035*%
%ADD327R,0.02695X0.00035*%
%ADD328R,0.03675X0.00035*%
%ADD329R,0.03710X0.00035*%
%ADD330R,0.02660X0.00035*%
%ADD331R,0.02625X0.00035*%
%ADD332R,0.03780X0.00035*%
%ADD333R,0.02590X0.00035*%
%ADD334R,0.02555X0.00035*%
%ADD335R,0.02415X0.00035*%
%ADD336R,0.02380X0.00035*%
%ADD337R,0.03780X0.00035*%
%ADD338R,0.02310X0.00035*%
%ADD339R,0.02310X0.00035*%
%ADD340R,0.03745X0.00035*%
%ADD341R,0.03605X0.00035*%
%ADD342R,0.01995X0.00035*%
%ADD343R,0.01960X0.00035*%
%ADD344R,0.03010X0.00035*%
%ADD345R,0.01610X0.00035*%
%ADD346R,0.01540X0.00035*%
%ADD347R,0.33400X0.00100*%
%ADD348R,0.35600X0.00100*%
%ADD349R,0.36600X0.00100*%
%ADD350R,0.37400X0.00100*%
%ADD351R,0.38000X0.00100*%
%ADD352R,0.38600X0.00100*%
%ADD353R,0.39100X0.00100*%
%ADD354R,0.39500X0.00100*%
%ADD355R,0.39900X0.00100*%
%ADD356R,0.40300X0.00100*%
%ADD357R,0.40700X0.00100*%
%ADD358R,0.40900X0.00100*%
%ADD359R,0.41300X0.00100*%
%ADD360R,0.41500X0.00100*%
%ADD361R,0.41800X0.00100*%
%ADD362R,0.42000X0.00100*%
%ADD363R,0.42300X0.00100*%
%ADD364R,0.42500X0.00100*%
%ADD365R,0.42700X0.00100*%
%ADD366R,0.42900X0.00100*%
%ADD367R,0.43100X0.00100*%
%ADD368R,0.43200X0.00100*%
%ADD369R,0.03600X0.00100*%
%ADD370R,0.18400X0.00100*%
%ADD371R,0.13700X0.00100*%
%ADD372R,0.03300X0.00100*%
%ADD373R,0.01700X0.00100*%
%ADD374R,0.01300X0.00100*%
%ADD375R,0.02000X0.00100*%
%ADD376R,0.01800X0.00100*%
%ADD377R,0.02800X0.00100*%
%ADD378R,0.02500X0.00100*%
%ADD379R,0.03400X0.00100*%
%ADD380R,0.03000X0.00100*%
%ADD381R,0.01900X0.00100*%
%ADD382R,0.04600X0.00100*%
%ADD383R,0.03100X0.00100*%
%ADD384R,0.01200X0.00100*%
%ADD385R,0.02600X0.00100*%
%ADD386R,0.02400X0.00100*%
%ADD387R,0.03200X0.00100*%
%ADD388R,0.02900X0.00100*%
%ADD389R,0.02300X0.00100*%
%ADD390R,0.02200X0.00100*%
%ADD391R,0.02700X0.00100*%
%ADD392R,0.03500X0.00100*%
%ADD393R,0.02100X0.00100*%
%ADD394R,0.03700X0.00100*%
%ADD395R,0.01600X0.00100*%
%ADD396R,0.03800X0.00100*%
%ADD397R,0.03900X0.00100*%
%ADD398R,0.04000X0.00100*%
%ADD399R,0.04100X0.00100*%
%ADD400R,0.01500X0.00100*%
%ADD401R,0.04200X0.00100*%
%ADD402R,0.04300X0.00100*%
%ADD403R,0.04400X0.00100*%
%ADD404R,0.01400X0.00100*%
%ADD405R,0.00300X0.00100*%
%ADD406R,0.04500X0.00100*%
%ADD407R,0.00800X0.00100*%
%ADD408R,0.01000X0.00100*%
%ADD409R,0.05600X0.00100*%
%ADD410R,0.05500X0.00100*%
%ADD411R,0.05400X0.00100*%
%ADD412R,0.05300X0.00100*%
%ADD413R,0.05200X0.00100*%
%ADD414R,0.01100X0.00100*%
%ADD415R,0.05100X0.00100*%
%ADD416R,0.00100X0.00100*%
%ADD417R,0.05000X0.00100*%
%ADD418R,0.00900X0.00100*%
%ADD419R,0.00200X0.00100*%
%ADD420R,0.00500X0.00100*%
%ADD421R,0.00700X0.00100*%
%ADD422R,0.00400X0.00100*%
%ADD423R,0.00600X0.00100*%
%ADD424R,0.04700X0.00100*%
%ADD425R,0.04800X0.00100*%
%ADD426R,0.04900X0.00100*%
%ADD427R,0.05800X0.00100*%
%ADD428R,0.18500X0.00100*%
%ADD429R,0.06200X0.00100*%
%ADD430R,0.44000X0.00100*%
%ADD431R,0.06500X0.00100*%
%ADD432R,0.43800X0.00100*%
%ADD433R,0.06900X0.00100*%
%ADD434R,0.43600X0.00100*%
%ADD435R,0.07100X0.00100*%
%ADD436R,0.43400X0.00100*%
%ADD437R,0.07400X0.00100*%
%ADD438R,0.07600X0.00100*%
%ADD439R,0.07300X0.00100*%
%ADD440R,0.07000X0.00100*%
%ADD441R,0.06700X0.00100*%
%ADD442R,0.06400X0.00100*%
%ADD443R,0.06100X0.00100*%
%ADD444R,0.05700X0.00100*%
D10*
X0097992Y0064729D02*
X0097992Y0066831D01*
X0098692Y0067532D01*
X0100093Y0067532D01*
X0100794Y0066831D01*
X0100794Y0064729D01*
X0102195Y0064729D02*
X0097992Y0064729D01*
X0098692Y0069333D02*
X0099393Y0069333D01*
X0100093Y0070034D01*
X0100093Y0072135D01*
X0098692Y0072135D02*
X0097992Y0071435D01*
X0097992Y0070034D01*
X0098692Y0069333D01*
X0098692Y0072135D02*
X0101495Y0072135D01*
X0102195Y0071435D01*
X0102195Y0070034D01*
X0101495Y0069333D01*
X0093095Y0079933D02*
X0093095Y0099933D01*
X0078790Y0113323D02*
X0078792Y0113363D01*
X0078798Y0113402D01*
X0078808Y0113441D01*
X0078821Y0113478D01*
X0078839Y0113514D01*
X0078860Y0113548D01*
X0078884Y0113580D01*
X0078911Y0113609D01*
X0078941Y0113636D01*
X0078973Y0113659D01*
X0079008Y0113679D01*
X0079044Y0113695D01*
X0079082Y0113708D01*
X0079121Y0113717D01*
X0079160Y0113722D01*
X0079200Y0113723D01*
X0079240Y0113720D01*
X0079279Y0113713D01*
X0079317Y0113702D01*
X0079355Y0113688D01*
X0079390Y0113669D01*
X0079423Y0113648D01*
X0079455Y0113623D01*
X0079483Y0113595D01*
X0079509Y0113565D01*
X0079531Y0113532D01*
X0079550Y0113497D01*
X0079566Y0113460D01*
X0079578Y0113422D01*
X0079586Y0113383D01*
X0079590Y0113343D01*
X0079590Y0113303D01*
X0079586Y0113263D01*
X0079578Y0113224D01*
X0079566Y0113186D01*
X0079550Y0113149D01*
X0079531Y0113114D01*
X0079509Y0113081D01*
X0079483Y0113051D01*
X0079455Y0113023D01*
X0079423Y0112998D01*
X0079390Y0112977D01*
X0079355Y0112958D01*
X0079317Y0112944D01*
X0079279Y0112933D01*
X0079240Y0112926D01*
X0079200Y0112923D01*
X0079160Y0112924D01*
X0079121Y0112929D01*
X0079082Y0112938D01*
X0079044Y0112951D01*
X0079008Y0112967D01*
X0078973Y0112987D01*
X0078941Y0113010D01*
X0078911Y0113037D01*
X0078884Y0113066D01*
X0078860Y0113098D01*
X0078839Y0113132D01*
X0078821Y0113168D01*
X0078808Y0113205D01*
X0078798Y0113244D01*
X0078792Y0113283D01*
X0078790Y0113323D01*
X0093095Y0079933D02*
X0117595Y0079933D01*
X0156595Y0155433D02*
X0159095Y0155433D01*
X0159095Y0164933D01*
X0156595Y0164933D01*
X0156595Y0167433D02*
X0159095Y0167433D01*
X0159095Y0176433D01*
X0156595Y0176433D01*
X0180410Y0189681D02*
X0180410Y0193618D01*
X0184347Y0193618D01*
X0215843Y0193618D02*
X0219780Y0193618D01*
X0219780Y0189681D01*
X0235095Y0205154D02*
X0245095Y0205154D01*
X0253875Y0213933D02*
X0253875Y0223933D01*
X0245095Y0232713D02*
X0235095Y0232713D01*
X0226316Y0223933D02*
X0226316Y0213933D01*
X0208101Y0217043D02*
X0208103Y0217083D01*
X0208109Y0217122D01*
X0208119Y0217161D01*
X0208132Y0217198D01*
X0208150Y0217234D01*
X0208171Y0217268D01*
X0208195Y0217300D01*
X0208222Y0217329D01*
X0208252Y0217356D01*
X0208284Y0217379D01*
X0208319Y0217399D01*
X0208355Y0217415D01*
X0208393Y0217428D01*
X0208432Y0217437D01*
X0208471Y0217442D01*
X0208511Y0217443D01*
X0208551Y0217440D01*
X0208590Y0217433D01*
X0208628Y0217422D01*
X0208666Y0217408D01*
X0208701Y0217389D01*
X0208734Y0217368D01*
X0208766Y0217343D01*
X0208794Y0217315D01*
X0208820Y0217285D01*
X0208842Y0217252D01*
X0208861Y0217217D01*
X0208877Y0217180D01*
X0208889Y0217142D01*
X0208897Y0217103D01*
X0208901Y0217063D01*
X0208901Y0217023D01*
X0208897Y0216983D01*
X0208889Y0216944D01*
X0208877Y0216906D01*
X0208861Y0216869D01*
X0208842Y0216834D01*
X0208820Y0216801D01*
X0208794Y0216771D01*
X0208766Y0216743D01*
X0208734Y0216718D01*
X0208701Y0216697D01*
X0208666Y0216678D01*
X0208628Y0216664D01*
X0208590Y0216653D01*
X0208551Y0216646D01*
X0208511Y0216643D01*
X0208471Y0216644D01*
X0208432Y0216649D01*
X0208393Y0216658D01*
X0208355Y0216671D01*
X0208319Y0216687D01*
X0208284Y0216707D01*
X0208252Y0216730D01*
X0208222Y0216757D01*
X0208195Y0216786D01*
X0208171Y0216818D01*
X0208150Y0216852D01*
X0208132Y0216888D01*
X0208119Y0216925D01*
X0208109Y0216964D01*
X0208103Y0217003D01*
X0208101Y0217043D01*
X0112595Y0211433D02*
X0057595Y0211433D01*
X0057595Y0231433D01*
X0112595Y0231433D01*
X0112595Y0211433D01*
X0080298Y0224333D02*
X0080298Y0227135D01*
X0078896Y0228537D01*
X0077495Y0227135D01*
X0077495Y0224333D01*
X0077495Y0226435D02*
X0080298Y0226435D01*
X0072505Y0225734D02*
X0072505Y0228537D01*
X0069703Y0228537D02*
X0069703Y0225734D01*
X0071104Y0224333D01*
X0072505Y0225734D01*
X0067901Y0224333D02*
X0065099Y0224333D01*
X0065099Y0228537D01*
X0067901Y0228537D01*
X0066500Y0226435D02*
X0065099Y0226435D01*
X0063298Y0226435D02*
X0063298Y0227836D01*
X0062597Y0228537D01*
X0060495Y0228537D01*
X0060495Y0224333D01*
X0060495Y0225734D02*
X0062597Y0225734D01*
X0063298Y0226435D01*
X0061896Y0225734D02*
X0063298Y0224333D01*
X0062097Y0218037D02*
X0060696Y0218037D01*
X0059995Y0217336D01*
X0059995Y0216635D01*
X0060696Y0215935D01*
X0062097Y0215935D01*
X0062798Y0215234D01*
X0062798Y0214534D01*
X0062097Y0213833D01*
X0060696Y0213833D01*
X0059995Y0214534D01*
X0062798Y0217336D02*
X0062097Y0218037D01*
X0064599Y0218037D02*
X0067401Y0213833D01*
X0067401Y0218037D01*
X0064599Y0218037D02*
X0064599Y0213833D01*
X0102992Y0253432D02*
X0107195Y0253432D01*
X0107195Y0252031D02*
X0107195Y0254834D01*
X0104393Y0252031D02*
X0102992Y0253432D01*
X0102195Y0254729D02*
X0097992Y0254729D01*
X0097992Y0256831D01*
X0098692Y0257532D01*
X0100093Y0257532D01*
X0100794Y0256831D01*
X0100794Y0254729D01*
X0100794Y0259333D02*
X0100093Y0260034D01*
X0100093Y0261435D01*
X0100794Y0262135D01*
X0101495Y0262135D01*
X0102195Y0261435D01*
X0102195Y0260034D01*
X0101495Y0259333D01*
X0100794Y0259333D01*
X0100093Y0260034D02*
X0099393Y0259333D01*
X0098692Y0259333D01*
X0097992Y0260034D01*
X0097992Y0261435D01*
X0098692Y0262135D01*
X0099393Y0262135D01*
X0100093Y0261435D01*
X0180410Y0158185D02*
X0180410Y0154248D01*
X0184347Y0154248D01*
X0215843Y0154248D02*
X0219780Y0158185D01*
X0282753Y0116118D02*
X0302438Y0116118D01*
X0302438Y0101748D01*
X0282753Y0101748D01*
X0282753Y0116118D01*
X0315272Y0111551D02*
X0315272Y0135173D01*
X0319209Y0135173D01*
X0334957Y0135173D02*
X0354642Y0135173D01*
X0370390Y0135173D02*
X0372359Y0135173D01*
X0372359Y0111551D01*
X0362516Y0111551D01*
X0346768Y0111551D02*
X0315272Y0111551D01*
D11*
X0091345Y0216433D03*
D12*
X0103892Y0063526D02*
X0105027Y0062391D01*
X0103892Y0063526D02*
X0107295Y0063526D01*
X0107295Y0064660D02*
X0107295Y0062391D01*
X0107295Y0072391D02*
X0105027Y0074660D01*
X0104459Y0074660D01*
X0103892Y0074093D01*
X0103892Y0072959D01*
X0104459Y0072391D01*
X0107295Y0072391D02*
X0107295Y0074660D01*
X0117595Y0083933D02*
X0120095Y0081433D01*
X0125095Y0081433D01*
X0127595Y0083933D01*
X0130095Y0081433D01*
X0135095Y0081433D01*
X0137595Y0083933D01*
X0137595Y0088933D01*
X0135095Y0091433D01*
X0130095Y0091433D01*
X0127595Y0088933D01*
X0127595Y0083933D01*
X0127595Y0088933D02*
X0125095Y0091433D01*
X0120095Y0091433D01*
X0117595Y0088933D01*
X0117595Y0083933D01*
X0115295Y0084300D02*
X0115295Y0085435D01*
X0114728Y0086002D01*
X0113594Y0086002D01*
X0113027Y0085435D01*
X0113027Y0084867D01*
X0113594Y0083733D01*
X0111892Y0083733D01*
X0111892Y0086002D01*
X0111892Y0087416D02*
X0114161Y0087416D01*
X0115295Y0088551D01*
X0114161Y0089685D01*
X0111892Y0089685D01*
X0110295Y0089685D02*
X0106892Y0089685D01*
X0107459Y0091099D02*
X0109728Y0091099D01*
X0110295Y0091667D01*
X0110295Y0092801D01*
X0109728Y0093368D01*
X0110295Y0094783D02*
X0110295Y0097051D01*
X0110295Y0098466D02*
X0106892Y0098466D01*
X0108594Y0099033D02*
X0110295Y0100734D01*
X0109161Y0098466D02*
X0106892Y0100734D01*
X0106892Y0094783D02*
X0110295Y0094783D01*
X0107459Y0093368D02*
X0106892Y0092801D01*
X0106892Y0091667D01*
X0107459Y0091099D01*
X0105295Y0091099D02*
X0105295Y0092801D01*
X0104728Y0093368D01*
X0102459Y0093368D01*
X0101892Y0092801D01*
X0101892Y0091099D01*
X0105295Y0091099D01*
X0105295Y0089685D02*
X0101892Y0089685D01*
X0100295Y0089685D02*
X0096892Y0089685D01*
X0096892Y0091099D02*
X0096892Y0092801D01*
X0097459Y0093368D01*
X0099728Y0093368D01*
X0100295Y0092801D01*
X0100295Y0091099D01*
X0096892Y0091099D01*
X0099161Y0088551D02*
X0100295Y0089685D01*
X0099161Y0088551D02*
X0100295Y0087416D01*
X0096892Y0087416D01*
X0097459Y0086002D02*
X0096892Y0085435D01*
X0096892Y0084300D01*
X0097459Y0083733D01*
X0098027Y0083733D01*
X0098594Y0084300D01*
X0098594Y0085435D01*
X0099161Y0086002D01*
X0099728Y0086002D01*
X0100295Y0085435D01*
X0100295Y0084300D01*
X0099728Y0083733D01*
X0101892Y0084300D02*
X0102459Y0083733D01*
X0104728Y0083733D01*
X0105295Y0084300D01*
X0105295Y0085435D01*
X0104728Y0086002D01*
X0103594Y0086002D01*
X0103594Y0084867D01*
X0102459Y0086002D02*
X0101892Y0085435D01*
X0101892Y0084300D01*
X0101892Y0087416D02*
X0105295Y0089685D01*
X0105295Y0087416D02*
X0101892Y0087416D01*
X0106892Y0087416D02*
X0110295Y0087416D01*
X0109161Y0088551D01*
X0110295Y0089685D01*
X0109728Y0086002D02*
X0110295Y0085435D01*
X0110295Y0084300D01*
X0109728Y0083733D01*
X0108594Y0084300D02*
X0108594Y0085435D01*
X0109161Y0086002D01*
X0109728Y0086002D01*
X0108594Y0084300D02*
X0108027Y0083733D01*
X0107459Y0083733D01*
X0106892Y0084300D01*
X0106892Y0085435D01*
X0107459Y0086002D01*
X0114728Y0083733D02*
X0115295Y0084300D01*
X0100295Y0094783D02*
X0100295Y0095917D01*
X0100295Y0095350D02*
X0096892Y0095350D01*
X0096892Y0094783D02*
X0096892Y0095917D01*
X0097459Y0097238D02*
X0096892Y0097805D01*
X0096892Y0098939D01*
X0097459Y0099507D01*
X0099728Y0099507D01*
X0100295Y0098939D01*
X0100295Y0097805D01*
X0099728Y0097238D01*
X0097459Y0097238D01*
X0090476Y0098134D02*
X0088742Y0098134D01*
X0090043Y0099435D01*
X0090043Y0096833D01*
X0087530Y0097267D02*
X0087530Y0099435D01*
X0088284Y0100835D02*
X0081906Y0100835D01*
X0085795Y0099435D02*
X0085795Y0097267D01*
X0086229Y0096833D01*
X0087096Y0096833D01*
X0087530Y0097267D01*
X0088284Y0112031D02*
X0081906Y0112031D01*
X0083371Y0113571D02*
X0092820Y0113571D01*
X0092820Y0118295D02*
X0083371Y0118295D01*
X0084895Y0120167D02*
X0085329Y0119733D01*
X0086196Y0119733D01*
X0086630Y0120167D01*
X0087842Y0119733D02*
X0089576Y0119733D01*
X0088709Y0119733D02*
X0088709Y0122335D01*
X0087842Y0121468D01*
X0086630Y0121902D02*
X0086196Y0122335D01*
X0085329Y0122335D01*
X0084895Y0121902D01*
X0084895Y0120167D01*
X0090788Y0120167D02*
X0091222Y0119733D01*
X0092089Y0119733D01*
X0092523Y0120167D01*
X0092523Y0121902D01*
X0090788Y0120167D01*
X0090788Y0121902D01*
X0091222Y0122335D01*
X0092089Y0122335D01*
X0092523Y0121902D01*
X0067884Y0129092D02*
X0067450Y0128658D01*
X0066582Y0128658D01*
X0066149Y0129092D01*
X0066149Y0129959D02*
X0067016Y0130393D01*
X0067450Y0130393D01*
X0067884Y0129959D01*
X0067884Y0129092D01*
X0066149Y0129959D02*
X0066149Y0131260D01*
X0067884Y0131260D01*
X0064937Y0131260D02*
X0064070Y0131260D01*
X0064503Y0131260D02*
X0064503Y0129092D01*
X0064070Y0128658D01*
X0063636Y0128658D01*
X0063202Y0129092D01*
X0116595Y0117933D02*
X0116595Y0099933D01*
X0125095Y0099933D01*
X0137595Y0088933D02*
X0140095Y0091433D01*
X0145095Y0091433D01*
X0147595Y0088933D01*
X0150095Y0091433D01*
X0155095Y0091433D01*
X0157595Y0088933D01*
X0157595Y0083933D01*
X0155095Y0081433D01*
X0150095Y0081433D01*
X0147595Y0083933D01*
X0145095Y0081433D01*
X0140095Y0081433D01*
X0137595Y0083933D01*
X0147595Y0083933D02*
X0147595Y0088933D01*
X0153302Y0093267D02*
X0153736Y0092833D01*
X0154170Y0092833D01*
X0154603Y0093267D01*
X0154603Y0095435D01*
X0154170Y0095435D02*
X0155037Y0095435D01*
X0156249Y0094134D02*
X0157983Y0094134D01*
X0157550Y0092833D02*
X0157550Y0095435D01*
X0156249Y0094134D01*
X0158595Y0099933D02*
X0150095Y0099933D01*
X0158595Y0099933D02*
X0158595Y0117933D01*
X0150095Y0117933D01*
X0153502Y0119967D02*
X0153936Y0119533D01*
X0154370Y0119533D01*
X0154803Y0119967D01*
X0154803Y0122135D01*
X0154370Y0122135D02*
X0155237Y0122135D01*
X0156449Y0121702D02*
X0156882Y0122135D01*
X0157750Y0122135D01*
X0158183Y0121702D01*
X0158183Y0121268D01*
X0157750Y0120834D01*
X0158183Y0120400D01*
X0158183Y0119967D01*
X0157750Y0119533D01*
X0156882Y0119533D01*
X0156449Y0119967D01*
X0157316Y0120834D02*
X0157750Y0120834D01*
X0141295Y0129733D02*
X0141295Y0131034D01*
X0140861Y0131468D01*
X0139127Y0131468D01*
X0138693Y0131034D01*
X0138693Y0129733D01*
X0141295Y0129733D01*
X0140861Y0132680D02*
X0141295Y0133113D01*
X0141295Y0133981D01*
X0140861Y0134414D01*
X0139994Y0134414D01*
X0139560Y0133981D01*
X0139560Y0133547D01*
X0139994Y0132680D01*
X0138693Y0132680D01*
X0138693Y0134414D01*
X0137339Y0138323D02*
X0137339Y0146965D01*
X0137339Y0149543D01*
X0137339Y0146965D02*
X0142851Y0146965D01*
X0142851Y0138323D01*
X0132851Y0138323D02*
X0132851Y0146965D01*
X0132851Y0149543D01*
X0132851Y0146965D02*
X0127339Y0146965D01*
X0127339Y0149543D01*
X0127339Y0146965D02*
X0127339Y0138323D01*
X0128693Y0134414D02*
X0129127Y0133547D01*
X0129994Y0132680D01*
X0129994Y0133981D01*
X0130428Y0134414D01*
X0130861Y0134414D01*
X0131295Y0133981D01*
X0131295Y0133113D01*
X0130861Y0132680D01*
X0129994Y0132680D01*
X0130861Y0131468D02*
X0129127Y0131468D01*
X0128693Y0131034D01*
X0128693Y0129733D01*
X0131295Y0129733D01*
X0131295Y0131034D01*
X0130861Y0131468D01*
X0121295Y0131034D02*
X0121295Y0129733D01*
X0118693Y0129733D01*
X0118693Y0131034D01*
X0119127Y0131468D01*
X0120861Y0131468D01*
X0121295Y0131034D01*
X0119994Y0132680D02*
X0119994Y0134414D01*
X0118693Y0133981D02*
X0119994Y0132680D01*
X0121295Y0133981D02*
X0118693Y0133981D01*
X0117339Y0138323D02*
X0117339Y0146965D01*
X0117339Y0149543D01*
X0117339Y0146965D02*
X0122851Y0146965D01*
X0122851Y0138323D01*
X0122851Y0146965D02*
X0122851Y0149543D01*
X0123395Y0152233D02*
X0125130Y0152233D01*
X0123395Y0152233D02*
X0123395Y0154835D01*
X0126342Y0153534D02*
X0128076Y0153534D01*
X0127643Y0152233D02*
X0127643Y0154835D01*
X0126342Y0153534D01*
X0129820Y0156071D02*
X0120371Y0156071D01*
X0120371Y0160795D02*
X0129820Y0160795D01*
X0132871Y0160795D02*
X0142320Y0160795D01*
X0145095Y0158433D02*
X0147595Y0160933D01*
X0145095Y0163433D01*
X0145095Y0168433D01*
X0147595Y0170933D01*
X0145095Y0173433D01*
X0145095Y0178433D01*
X0147595Y0180933D01*
X0152595Y0180933D01*
X0155095Y0178433D01*
X0155095Y0173433D01*
X0152595Y0170933D01*
X0155095Y0168433D01*
X0155095Y0163433D01*
X0152595Y0160933D01*
X0155095Y0158433D01*
X0155095Y0153433D01*
X0152595Y0150933D01*
X0147595Y0150933D01*
X0145095Y0153433D01*
X0145095Y0158433D01*
X0147595Y0160933D02*
X0152595Y0160933D01*
X0143183Y0154702D02*
X0143183Y0154268D01*
X0142750Y0153834D01*
X0141882Y0153834D01*
X0141449Y0154268D01*
X0141449Y0154702D01*
X0141882Y0155135D01*
X0142750Y0155135D01*
X0143183Y0154702D01*
X0142750Y0153834D02*
X0143183Y0153400D01*
X0143183Y0152967D01*
X0142750Y0152533D01*
X0141882Y0152533D01*
X0141449Y0152967D01*
X0141449Y0153400D01*
X0141882Y0153834D01*
X0140237Y0154268D02*
X0140237Y0154702D01*
X0139803Y0155135D01*
X0138936Y0155135D01*
X0138502Y0154702D01*
X0137290Y0154702D02*
X0137290Y0153834D01*
X0136857Y0153400D01*
X0135556Y0153400D01*
X0135556Y0152533D02*
X0135556Y0155135D01*
X0136857Y0155135D01*
X0137290Y0154702D01*
X0136423Y0153400D02*
X0137290Y0152533D01*
X0138502Y0152533D02*
X0140237Y0154268D01*
X0140237Y0152533D02*
X0138502Y0152533D01*
X0142851Y0149543D02*
X0142851Y0146965D01*
X0142320Y0156071D02*
X0132871Y0156071D01*
X0126245Y0162921D02*
X0126245Y0173945D01*
X0127495Y0171624D02*
X0127495Y0168243D01*
X0132038Y0173124D02*
X0134152Y0173124D01*
X0138695Y0171624D02*
X0138695Y0168243D01*
X0140193Y0167933D02*
X0142361Y0167933D01*
X0142795Y0168367D01*
X0142795Y0169234D01*
X0142361Y0169668D01*
X0140193Y0169668D01*
X0141494Y0170880D02*
X0141494Y0172181D01*
X0141928Y0172614D01*
X0142361Y0172614D01*
X0142795Y0172181D01*
X0142795Y0171313D01*
X0142361Y0170880D01*
X0141494Y0170880D01*
X0140627Y0171747D01*
X0140193Y0172614D01*
X0147595Y0170933D02*
X0152595Y0170933D01*
X0168233Y0161657D02*
X0168233Y0152209D01*
X0169193Y0150427D02*
X0170494Y0149126D01*
X0170494Y0150861D01*
X0171795Y0150427D02*
X0169193Y0150427D01*
X0171795Y0147914D02*
X0171795Y0146180D01*
X0171795Y0147047D02*
X0169193Y0147047D01*
X0170060Y0146180D01*
X0169627Y0144968D02*
X0169193Y0144534D01*
X0169193Y0143667D01*
X0169627Y0143233D01*
X0171361Y0143233D01*
X0171795Y0143667D01*
X0171795Y0144534D01*
X0171361Y0144968D01*
X0172957Y0152209D02*
X0172957Y0161657D01*
X0151095Y0183867D02*
X0151095Y0184300D01*
X0150661Y0184734D01*
X0148493Y0184734D01*
X0148493Y0184300D02*
X0148493Y0185168D01*
X0148493Y0186380D02*
X0148493Y0187681D01*
X0148927Y0188114D01*
X0149794Y0188114D01*
X0150228Y0187681D01*
X0150228Y0186380D01*
X0151095Y0186380D02*
X0148493Y0186380D01*
X0148927Y0189326D02*
X0148493Y0189760D01*
X0148493Y0190627D01*
X0148927Y0191061D01*
X0149360Y0191061D01*
X0151095Y0189326D01*
X0151095Y0191061D01*
X0151095Y0183867D02*
X0150661Y0183433D01*
X0130320Y0183795D02*
X0120871Y0183795D01*
X0122489Y0185533D02*
X0123357Y0185533D01*
X0123790Y0185967D01*
X0125002Y0185533D02*
X0126737Y0187268D01*
X0126737Y0187702D01*
X0126303Y0188135D01*
X0125436Y0188135D01*
X0125002Y0187702D01*
X0123790Y0187702D02*
X0123357Y0188135D01*
X0122489Y0188135D01*
X0122056Y0187702D01*
X0122056Y0185967D01*
X0122489Y0185533D01*
X0125002Y0185533D02*
X0126737Y0185533D01*
X0127949Y0185533D02*
X0129683Y0185533D01*
X0128816Y0185533D02*
X0128816Y0188135D01*
X0127949Y0187268D01*
X0130320Y0179071D02*
X0120871Y0179071D01*
X0119946Y0173945D02*
X0119946Y0162921D01*
X0117861Y0165233D02*
X0118295Y0165667D01*
X0118295Y0166534D01*
X0117861Y0166968D01*
X0118295Y0168180D02*
X0116560Y0169914D01*
X0116127Y0169914D01*
X0115693Y0169481D01*
X0115693Y0168613D01*
X0116127Y0168180D01*
X0116127Y0166968D02*
X0115693Y0166534D01*
X0115693Y0165667D01*
X0116127Y0165233D01*
X0117861Y0165233D01*
X0118295Y0168180D02*
X0118295Y0169914D01*
X0117861Y0171126D02*
X0116127Y0172861D01*
X0117861Y0172861D01*
X0118295Y0172427D01*
X0118295Y0171560D01*
X0117861Y0171126D01*
X0116127Y0171126D01*
X0115693Y0171560D01*
X0115693Y0172427D01*
X0116127Y0172861D01*
X0170946Y0201921D02*
X0170946Y0212945D01*
X0168861Y0209914D02*
X0167127Y0209914D01*
X0166693Y0209481D01*
X0166693Y0208613D01*
X0167127Y0208180D01*
X0167560Y0208180D01*
X0167994Y0208613D01*
X0167994Y0209914D01*
X0168861Y0209914D02*
X0169295Y0209481D01*
X0169295Y0208613D01*
X0168861Y0208180D01*
X0168861Y0206968D02*
X0169295Y0206534D01*
X0169295Y0205667D01*
X0168861Y0205233D01*
X0167127Y0205233D01*
X0166693Y0205667D01*
X0166693Y0206534D01*
X0167127Y0206968D01*
X0177245Y0201921D02*
X0177245Y0212945D01*
X0178733Y0211157D02*
X0178733Y0201709D01*
X0183457Y0201709D02*
X0183457Y0211157D01*
X0184693Y0209994D02*
X0187295Y0209994D01*
X0187295Y0210861D02*
X0187295Y0209126D01*
X0187295Y0207914D02*
X0187295Y0206180D01*
X0187295Y0207047D02*
X0184693Y0207047D01*
X0185560Y0206180D01*
X0185127Y0204968D02*
X0184693Y0204534D01*
X0184693Y0203667D01*
X0185127Y0203233D01*
X0186861Y0203233D01*
X0187295Y0203667D01*
X0187295Y0204534D01*
X0186861Y0204968D01*
X0185560Y0209126D02*
X0184693Y0209994D01*
X0197871Y0211571D02*
X0207320Y0211571D01*
X0204576Y0210335D02*
X0203709Y0209902D01*
X0202842Y0209034D01*
X0204143Y0209034D01*
X0204576Y0208600D01*
X0204576Y0208167D01*
X0204143Y0207733D01*
X0203275Y0207733D01*
X0202842Y0208167D01*
X0202842Y0209034D01*
X0201630Y0208167D02*
X0201196Y0207733D01*
X0200329Y0207733D01*
X0199895Y0208167D01*
X0199895Y0209902D01*
X0200329Y0210335D01*
X0201196Y0210335D01*
X0201630Y0209902D01*
X0207371Y0205795D02*
X0216820Y0205795D01*
X0216457Y0208209D02*
X0216457Y0217657D01*
X0217733Y0217657D02*
X0217733Y0208209D01*
X0222457Y0208209D02*
X0222457Y0217657D01*
X0222457Y0220209D02*
X0222457Y0229657D01*
X0221495Y0230840D02*
X0218893Y0230840D01*
X0218893Y0232141D01*
X0219327Y0232575D01*
X0220194Y0232575D01*
X0220628Y0232141D01*
X0220628Y0230840D01*
X0220628Y0231707D02*
X0221495Y0232575D01*
X0221495Y0233787D02*
X0219760Y0235521D01*
X0219327Y0235521D01*
X0218893Y0235088D01*
X0218893Y0234220D01*
X0219327Y0233787D01*
X0221495Y0233787D02*
X0221495Y0235521D01*
X0221061Y0238340D02*
X0221495Y0238774D01*
X0221495Y0239641D01*
X0221061Y0240075D01*
X0221495Y0241287D02*
X0219760Y0243021D01*
X0219327Y0243021D01*
X0218893Y0242588D01*
X0218893Y0241720D01*
X0219327Y0241287D01*
X0219327Y0240075D02*
X0218893Y0239641D01*
X0218893Y0238774D01*
X0219327Y0238340D01*
X0221061Y0238340D01*
X0221495Y0241287D02*
X0221495Y0243021D01*
X0222095Y0244933D02*
X0223595Y0243433D01*
X0223595Y0231933D01*
X0217733Y0229657D02*
X0217733Y0220209D01*
X0216457Y0220209D02*
X0216457Y0229657D01*
X0215495Y0230840D02*
X0212893Y0230840D01*
X0212893Y0232141D01*
X0213327Y0232575D01*
X0214194Y0232575D01*
X0214628Y0232141D01*
X0214628Y0230840D01*
X0214628Y0231707D02*
X0215495Y0232575D01*
X0215061Y0233787D02*
X0215495Y0234220D01*
X0215495Y0235088D01*
X0215061Y0235521D01*
X0214628Y0235521D01*
X0214194Y0235088D01*
X0214194Y0234654D01*
X0214194Y0235088D02*
X0213760Y0235521D01*
X0213327Y0235521D01*
X0212893Y0235088D01*
X0212893Y0234220D01*
X0213327Y0233787D01*
X0211095Y0231933D02*
X0211095Y0243433D01*
X0212595Y0244933D01*
X0222095Y0244933D01*
X0215495Y0242588D02*
X0212893Y0242588D01*
X0214194Y0241287D01*
X0214194Y0243021D01*
X0214194Y0240075D02*
X0213327Y0240075D01*
X0212893Y0239641D01*
X0212893Y0238340D01*
X0215495Y0238340D01*
X0214628Y0238340D02*
X0214628Y0239641D01*
X0214194Y0240075D01*
X0214628Y0239207D02*
X0215495Y0240075D01*
X0204957Y0243657D02*
X0204957Y0234209D01*
X0204465Y0229642D02*
X0200725Y0229642D01*
X0200725Y0218224D01*
X0204465Y0218224D01*
X0204465Y0229642D01*
X0200233Y0234209D02*
X0200233Y0243657D01*
X0198061Y0241021D02*
X0197628Y0241021D01*
X0197194Y0240588D01*
X0197194Y0239287D01*
X0198061Y0239287D01*
X0198495Y0239720D01*
X0198495Y0240588D01*
X0198061Y0241021D01*
X0196327Y0240154D02*
X0195893Y0241021D01*
X0196327Y0240154D02*
X0197194Y0239287D01*
X0197194Y0238075D02*
X0197628Y0237641D01*
X0197628Y0236340D01*
X0198495Y0236340D02*
X0195893Y0236340D01*
X0195893Y0237641D01*
X0196327Y0238075D01*
X0197194Y0238075D01*
X0197628Y0237207D02*
X0198495Y0238075D01*
X0197416Y0232535D02*
X0197416Y0229933D01*
X0196549Y0229933D02*
X0198283Y0229933D01*
X0196549Y0231668D02*
X0197416Y0232535D01*
X0195337Y0232535D02*
X0195337Y0230367D01*
X0194903Y0229933D01*
X0194036Y0229933D01*
X0193602Y0230367D01*
X0193602Y0232535D01*
X0211733Y0229657D02*
X0211733Y0220209D01*
X0211733Y0217657D02*
X0211733Y0208209D01*
X0207371Y0201071D02*
X0216820Y0201071D01*
X0217829Y0200335D02*
X0217395Y0199902D01*
X0217395Y0198167D01*
X0217829Y0197733D01*
X0218696Y0197733D01*
X0219130Y0198167D01*
X0220342Y0197733D02*
X0222076Y0197733D01*
X0221209Y0197733D02*
X0221209Y0200335D01*
X0220342Y0199468D01*
X0219130Y0199902D02*
X0218696Y0200335D01*
X0217829Y0200335D01*
X0223288Y0199902D02*
X0223722Y0200335D01*
X0224589Y0200335D01*
X0225023Y0199902D01*
X0225023Y0199468D01*
X0223288Y0197733D01*
X0225023Y0197733D01*
X0232193Y0189414D02*
X0232627Y0189414D01*
X0234361Y0187680D01*
X0234795Y0187680D01*
X0234361Y0186468D02*
X0234795Y0186034D01*
X0234795Y0185167D01*
X0234361Y0184733D01*
X0232627Y0184733D01*
X0232193Y0185167D01*
X0232193Y0186034D01*
X0232627Y0186468D01*
X0232193Y0187680D02*
X0232193Y0189414D01*
X0237693Y0188981D02*
X0237693Y0188113D01*
X0238127Y0187680D01*
X0237693Y0188981D02*
X0238127Y0189414D01*
X0238560Y0189414D01*
X0240295Y0187680D01*
X0240295Y0189414D01*
X0240295Y0186468D02*
X0240295Y0184733D01*
X0237693Y0184733D01*
X0237233Y0183157D02*
X0237233Y0173709D01*
X0235957Y0173709D02*
X0235957Y0183157D01*
X0231233Y0183157D02*
X0231233Y0173709D01*
X0241957Y0173709D02*
X0241957Y0183157D01*
X0247295Y0163914D02*
X0247295Y0162180D01*
X0247295Y0163047D02*
X0244693Y0163047D01*
X0245560Y0162180D01*
X0245127Y0160968D02*
X0244693Y0160968D01*
X0245127Y0160968D02*
X0245994Y0160100D01*
X0247295Y0160100D01*
X0245994Y0160100D02*
X0245127Y0159233D01*
X0244693Y0159233D01*
X0242320Y0153295D02*
X0232871Y0153295D01*
X0232871Y0148571D02*
X0242320Y0148571D01*
X0244395Y0148902D02*
X0244395Y0147167D01*
X0244829Y0146733D01*
X0245696Y0146733D01*
X0246130Y0147167D01*
X0247342Y0148034D02*
X0249076Y0148034D01*
X0248643Y0146733D02*
X0248643Y0149335D01*
X0247342Y0148034D01*
X0246130Y0148902D02*
X0245696Y0149335D01*
X0244829Y0149335D01*
X0244395Y0148902D01*
X0233820Y0146795D02*
X0224371Y0146795D01*
X0221820Y0146795D02*
X0212371Y0146795D01*
X0212371Y0142071D02*
X0221820Y0142071D01*
X0221250Y0140635D02*
X0221683Y0140202D01*
X0221683Y0139768D01*
X0221250Y0139334D01*
X0221683Y0138900D01*
X0221683Y0138467D01*
X0221250Y0138033D01*
X0220382Y0138033D01*
X0219949Y0138467D01*
X0220816Y0139334D02*
X0221250Y0139334D01*
X0221250Y0140635D02*
X0220382Y0140635D01*
X0219949Y0140202D01*
X0217870Y0140635D02*
X0217870Y0138033D01*
X0218737Y0138033D02*
X0217002Y0138033D01*
X0215790Y0138467D02*
X0215357Y0138033D01*
X0214489Y0138033D01*
X0214056Y0138467D01*
X0214056Y0140202D01*
X0214489Y0140635D01*
X0215357Y0140635D01*
X0215790Y0140202D01*
X0217002Y0139768D02*
X0217870Y0140635D01*
X0213095Y0139433D02*
X0213095Y0133433D01*
X0213093Y0133373D01*
X0213088Y0133312D01*
X0213079Y0133253D01*
X0213066Y0133194D01*
X0213050Y0133135D01*
X0213030Y0133078D01*
X0213007Y0133023D01*
X0212980Y0132968D01*
X0212951Y0132916D01*
X0212918Y0132865D01*
X0212882Y0132816D01*
X0212844Y0132770D01*
X0212802Y0132726D01*
X0212758Y0132684D01*
X0212712Y0132646D01*
X0212663Y0132610D01*
X0212612Y0132577D01*
X0212560Y0132548D01*
X0212505Y0132521D01*
X0212450Y0132498D01*
X0212393Y0132478D01*
X0212334Y0132462D01*
X0212275Y0132449D01*
X0212216Y0132440D01*
X0212155Y0132435D01*
X0212095Y0132433D01*
X0202095Y0132433D01*
X0202035Y0132435D01*
X0201974Y0132440D01*
X0201915Y0132449D01*
X0201856Y0132462D01*
X0201797Y0132478D01*
X0201740Y0132498D01*
X0201685Y0132521D01*
X0201630Y0132548D01*
X0201578Y0132577D01*
X0201527Y0132610D01*
X0201478Y0132646D01*
X0201432Y0132684D01*
X0201388Y0132726D01*
X0201346Y0132770D01*
X0201308Y0132816D01*
X0201272Y0132865D01*
X0201239Y0132916D01*
X0201210Y0132968D01*
X0201183Y0133023D01*
X0201160Y0133078D01*
X0201140Y0133135D01*
X0201124Y0133194D01*
X0201111Y0133253D01*
X0201102Y0133312D01*
X0201097Y0133373D01*
X0201095Y0133433D01*
X0201095Y0139433D01*
X0201097Y0139493D01*
X0201102Y0139554D01*
X0201111Y0139613D01*
X0201124Y0139672D01*
X0201140Y0139731D01*
X0201160Y0139788D01*
X0201183Y0139843D01*
X0201210Y0139898D01*
X0201239Y0139950D01*
X0201272Y0140001D01*
X0201308Y0140050D01*
X0201346Y0140096D01*
X0201388Y0140140D01*
X0201432Y0140182D01*
X0201478Y0140220D01*
X0201527Y0140256D01*
X0201578Y0140289D01*
X0201630Y0140318D01*
X0201685Y0140345D01*
X0201740Y0140368D01*
X0201797Y0140388D01*
X0201856Y0140404D01*
X0201915Y0140417D01*
X0201974Y0140426D01*
X0202035Y0140431D01*
X0202095Y0140433D01*
X0212095Y0140433D01*
X0212155Y0140431D01*
X0212216Y0140426D01*
X0212275Y0140417D01*
X0212334Y0140404D01*
X0212393Y0140388D01*
X0212450Y0140368D01*
X0212505Y0140345D01*
X0212560Y0140318D01*
X0212612Y0140289D01*
X0212663Y0140256D01*
X0212712Y0140220D01*
X0212758Y0140182D01*
X0212802Y0140140D01*
X0212844Y0140096D01*
X0212882Y0140050D01*
X0212918Y0140001D01*
X0212951Y0139950D01*
X0212980Y0139898D01*
X0213007Y0139843D01*
X0213030Y0139788D01*
X0213050Y0139731D01*
X0213066Y0139672D01*
X0213079Y0139613D01*
X0213088Y0139554D01*
X0213093Y0139493D01*
X0213095Y0139433D01*
X0224371Y0142071D02*
X0233820Y0142071D01*
X0233250Y0140635D02*
X0233683Y0140202D01*
X0233683Y0139768D01*
X0233250Y0139334D01*
X0232382Y0139334D01*
X0231949Y0139768D01*
X0231949Y0140202D01*
X0232382Y0140635D01*
X0233250Y0140635D01*
X0233250Y0139334D02*
X0233683Y0138900D01*
X0233683Y0138467D01*
X0233250Y0138033D01*
X0232382Y0138033D01*
X0231949Y0138467D01*
X0231949Y0138900D01*
X0232382Y0139334D01*
X0230737Y0138467D02*
X0230303Y0138033D01*
X0229436Y0138033D01*
X0229002Y0138467D01*
X0229002Y0140202D01*
X0229436Y0140635D01*
X0230303Y0140635D01*
X0230737Y0140202D01*
X0212656Y0130835D02*
X0212656Y0128233D01*
X0213523Y0128233D02*
X0211788Y0128233D01*
X0210143Y0128667D02*
X0209709Y0128233D01*
X0209275Y0128233D01*
X0208842Y0128667D01*
X0207630Y0128667D02*
X0207196Y0128233D01*
X0206329Y0128233D01*
X0205895Y0128667D01*
X0206329Y0129534D02*
X0207196Y0129534D01*
X0207630Y0129100D01*
X0207630Y0128667D01*
X0206329Y0129534D02*
X0205895Y0129968D01*
X0205895Y0130402D01*
X0206329Y0130835D01*
X0207196Y0130835D01*
X0207630Y0130402D01*
X0209709Y0130835D02*
X0210576Y0130835D01*
X0210143Y0130835D02*
X0210143Y0128667D01*
X0211788Y0129968D02*
X0212656Y0130835D01*
X0205361Y0102861D02*
X0205795Y0102427D01*
X0205795Y0101560D01*
X0205361Y0101126D01*
X0204928Y0101126D01*
X0204494Y0101560D01*
X0204494Y0102427D01*
X0204928Y0102861D01*
X0205361Y0102861D01*
X0204494Y0102427D02*
X0204060Y0102861D01*
X0203627Y0102861D01*
X0203193Y0102427D01*
X0203193Y0101560D01*
X0203627Y0101126D01*
X0204060Y0101126D01*
X0204494Y0101560D01*
X0205795Y0099914D02*
X0205795Y0098180D01*
X0205795Y0099047D02*
X0203193Y0099047D01*
X0204060Y0098180D01*
X0203627Y0096968D02*
X0204494Y0096968D01*
X0204928Y0096534D01*
X0204928Y0095233D01*
X0205795Y0095233D02*
X0203193Y0095233D01*
X0203193Y0096534D01*
X0203627Y0096968D01*
X0204928Y0096100D02*
X0205795Y0096968D01*
X0205957Y0093657D02*
X0205957Y0084209D01*
X0201233Y0084209D02*
X0201233Y0093657D01*
X0199957Y0093657D02*
X0199957Y0084209D01*
X0195233Y0084209D02*
X0195233Y0093657D01*
X0195193Y0095233D02*
X0195193Y0096534D01*
X0195627Y0096968D01*
X0196494Y0096968D01*
X0196928Y0096534D01*
X0196928Y0095233D01*
X0197795Y0095233D02*
X0195193Y0095233D01*
X0196928Y0096100D02*
X0197795Y0096968D01*
X0197795Y0098180D02*
X0197795Y0099914D01*
X0197795Y0099047D02*
X0195193Y0099047D01*
X0196060Y0098180D01*
X0196060Y0101126D02*
X0196494Y0101560D01*
X0196494Y0102861D01*
X0195627Y0102861D02*
X0195193Y0102427D01*
X0195193Y0101560D01*
X0195627Y0101126D01*
X0196060Y0101126D01*
X0197361Y0101126D02*
X0197795Y0101560D01*
X0197795Y0102427D01*
X0197361Y0102861D01*
X0195627Y0102861D01*
X0185295Y0102427D02*
X0184861Y0102861D01*
X0184428Y0102861D01*
X0183994Y0102427D01*
X0183994Y0101126D01*
X0184861Y0101126D01*
X0185295Y0101560D01*
X0185295Y0102427D01*
X0183994Y0101126D02*
X0183127Y0101994D01*
X0182693Y0102861D01*
X0182693Y0099047D02*
X0185295Y0099047D01*
X0185295Y0098180D02*
X0185295Y0099914D01*
X0183560Y0098180D02*
X0182693Y0099047D01*
X0183127Y0096968D02*
X0183994Y0096968D01*
X0184428Y0096534D01*
X0184428Y0095233D01*
X0185295Y0095233D02*
X0182693Y0095233D01*
X0182693Y0096534D01*
X0183127Y0096968D01*
X0184428Y0096100D02*
X0185295Y0096968D01*
X0184957Y0093657D02*
X0184957Y0084209D01*
X0180233Y0084209D02*
X0180233Y0093657D01*
X0174957Y0093657D02*
X0174957Y0084209D01*
X0170233Y0084209D02*
X0170233Y0093657D01*
X0170693Y0095233D02*
X0170693Y0096534D01*
X0171127Y0096968D01*
X0171994Y0096968D01*
X0172428Y0096534D01*
X0172428Y0095233D01*
X0173295Y0095233D02*
X0170693Y0095233D01*
X0172428Y0096100D02*
X0173295Y0096968D01*
X0173295Y0098180D02*
X0173295Y0099914D01*
X0173295Y0099047D02*
X0170693Y0099047D01*
X0171560Y0098180D01*
X0171127Y0101126D02*
X0170693Y0101560D01*
X0170693Y0102427D01*
X0171127Y0102861D01*
X0172861Y0101126D01*
X0173295Y0101560D01*
X0173295Y0102427D01*
X0172861Y0102861D01*
X0171127Y0102861D01*
X0171127Y0101126D02*
X0172861Y0101126D01*
X0220693Y0101560D02*
X0221127Y0101126D01*
X0220693Y0101560D02*
X0220693Y0102427D01*
X0221127Y0102861D01*
X0221560Y0102861D01*
X0223295Y0101126D01*
X0223295Y0102861D01*
X0223295Y0099914D02*
X0223295Y0098180D01*
X0223295Y0099047D02*
X0220693Y0099047D01*
X0221560Y0098180D01*
X0221127Y0096968D02*
X0221994Y0096968D01*
X0222428Y0096534D01*
X0222428Y0095233D01*
X0223295Y0095233D02*
X0220693Y0095233D01*
X0220693Y0096534D01*
X0221127Y0096968D01*
X0222428Y0096100D02*
X0223295Y0096968D01*
X0224957Y0093657D02*
X0224957Y0084209D01*
X0220233Y0084209D02*
X0220233Y0093657D01*
X0230233Y0093657D02*
X0230233Y0084209D01*
X0234957Y0084209D02*
X0234957Y0093657D01*
X0233295Y0095233D02*
X0230693Y0095233D01*
X0230693Y0096534D01*
X0231127Y0096968D01*
X0231994Y0096968D01*
X0232428Y0096534D01*
X0232428Y0095233D01*
X0232428Y0096100D02*
X0233295Y0096968D01*
X0233295Y0098180D02*
X0233295Y0099914D01*
X0233295Y0099047D02*
X0230693Y0099047D01*
X0231560Y0098180D01*
X0231560Y0101126D02*
X0230693Y0101994D01*
X0233295Y0101994D01*
X0233295Y0102861D02*
X0233295Y0101126D01*
X0239693Y0101613D02*
X0239693Y0102481D01*
X0240127Y0102914D01*
X0240560Y0102914D01*
X0240994Y0102481D01*
X0241428Y0102914D01*
X0241861Y0102914D01*
X0242295Y0102481D01*
X0242295Y0101613D01*
X0241861Y0101180D01*
X0240994Y0102047D02*
X0240994Y0102481D01*
X0240127Y0101180D02*
X0239693Y0101613D01*
X0242295Y0099968D02*
X0242295Y0098233D01*
X0239693Y0098233D01*
X0238733Y0093657D02*
X0238733Y0084209D01*
X0243457Y0084209D02*
X0243457Y0093657D01*
X0244733Y0093657D02*
X0244733Y0084209D01*
X0249457Y0084209D02*
X0249457Y0093657D01*
X0250733Y0093657D02*
X0250733Y0084209D01*
X0255457Y0084209D02*
X0255457Y0093657D01*
X0256733Y0093657D02*
X0256733Y0084209D01*
X0261457Y0084209D02*
X0261457Y0093657D01*
X0262733Y0093657D02*
X0262733Y0084209D01*
X0267457Y0084209D02*
X0267457Y0093657D01*
X0268733Y0093657D02*
X0268733Y0084209D01*
X0273457Y0084209D02*
X0273457Y0093657D01*
X0274733Y0093657D02*
X0274733Y0084209D01*
X0279457Y0084209D02*
X0279457Y0093657D01*
X0279295Y0094733D02*
X0276693Y0094733D01*
X0276693Y0096034D01*
X0277127Y0096468D01*
X0277994Y0096468D01*
X0278428Y0096034D01*
X0278428Y0094733D01*
X0278428Y0095600D02*
X0279295Y0096468D01*
X0279295Y0097680D02*
X0277560Y0099414D01*
X0277127Y0099414D01*
X0276693Y0098981D01*
X0276693Y0098113D01*
X0277127Y0097680D01*
X0279295Y0097680D02*
X0279295Y0099414D01*
X0277994Y0100626D02*
X0277994Y0102361D01*
X0276693Y0101927D02*
X0277994Y0100626D01*
X0279295Y0101927D02*
X0276693Y0101927D01*
X0279820Y0103071D02*
X0270371Y0103071D01*
X0270994Y0102361D02*
X0271861Y0102361D01*
X0272295Y0101927D01*
X0272295Y0101060D01*
X0271861Y0100626D01*
X0270994Y0100626D02*
X0270560Y0101494D01*
X0270560Y0101927D01*
X0270994Y0102361D01*
X0269693Y0102361D02*
X0269693Y0100626D01*
X0270994Y0100626D01*
X0270560Y0099414D02*
X0270127Y0099414D01*
X0269693Y0098981D01*
X0269693Y0098113D01*
X0270127Y0097680D01*
X0270127Y0096468D02*
X0270994Y0096468D01*
X0271428Y0096034D01*
X0271428Y0094733D01*
X0272295Y0094733D02*
X0269693Y0094733D01*
X0269693Y0096034D01*
X0270127Y0096468D01*
X0271428Y0095600D02*
X0272295Y0096468D01*
X0272295Y0097680D02*
X0270560Y0099414D01*
X0272295Y0099414D02*
X0272295Y0097680D01*
X0266295Y0098180D02*
X0266295Y0099914D01*
X0266295Y0099047D02*
X0263693Y0099047D01*
X0264560Y0098180D01*
X0264127Y0096968D02*
X0263693Y0096534D01*
X0263693Y0095667D01*
X0264127Y0095233D01*
X0265861Y0095233D01*
X0266295Y0095667D01*
X0266295Y0096534D01*
X0265861Y0096968D01*
X0265861Y0101126D02*
X0265428Y0101126D01*
X0264994Y0101560D01*
X0264994Y0102427D01*
X0265428Y0102861D01*
X0265861Y0102861D01*
X0266295Y0102427D01*
X0266295Y0101560D01*
X0265861Y0101126D01*
X0264994Y0101560D02*
X0264560Y0101126D01*
X0264127Y0101126D01*
X0263693Y0101560D01*
X0263693Y0102427D01*
X0264127Y0102861D01*
X0264560Y0102861D01*
X0264994Y0102427D01*
X0264342Y0104233D02*
X0266076Y0105968D01*
X0266076Y0106402D01*
X0265643Y0106835D01*
X0264775Y0106835D01*
X0264342Y0106402D01*
X0263130Y0106402D02*
X0263130Y0105534D01*
X0262696Y0105100D01*
X0261395Y0105100D01*
X0261395Y0104233D02*
X0261395Y0106835D01*
X0262696Y0106835D01*
X0263130Y0106402D01*
X0262263Y0105100D02*
X0263130Y0104233D01*
X0264342Y0104233D02*
X0266076Y0104233D01*
X0267288Y0104667D02*
X0269023Y0106402D01*
X0269023Y0104667D01*
X0268589Y0104233D01*
X0267722Y0104233D01*
X0267288Y0104667D01*
X0267288Y0106402D01*
X0267722Y0106835D01*
X0268589Y0106835D01*
X0269023Y0106402D01*
X0270371Y0107795D02*
X0279820Y0107795D01*
X0279820Y0109071D02*
X0270371Y0109071D01*
X0270371Y0113795D02*
X0279820Y0113795D01*
X0278523Y0115233D02*
X0276788Y0115233D01*
X0277656Y0115233D02*
X0277656Y0117835D01*
X0276788Y0116968D01*
X0275576Y0116968D02*
X0275576Y0117402D01*
X0275143Y0117835D01*
X0274275Y0117835D01*
X0273842Y0117402D01*
X0272630Y0117402D02*
X0272630Y0116534D01*
X0272196Y0116100D01*
X0270895Y0116100D01*
X0270895Y0115233D02*
X0270895Y0117835D01*
X0272196Y0117835D01*
X0272630Y0117402D01*
X0271763Y0116100D02*
X0272630Y0115233D01*
X0273842Y0115233D02*
X0275576Y0116968D01*
X0275576Y0115233D02*
X0273842Y0115233D01*
X0277371Y0125071D02*
X0286820Y0125071D01*
X0289371Y0125071D02*
X0298820Y0125071D01*
X0298820Y0129795D02*
X0289371Y0129795D01*
X0290989Y0131533D02*
X0291857Y0131533D01*
X0292290Y0131967D01*
X0293502Y0131533D02*
X0295237Y0131533D01*
X0294370Y0131533D02*
X0294370Y0134135D01*
X0293502Y0133268D01*
X0292290Y0133702D02*
X0291857Y0134135D01*
X0290989Y0134135D01*
X0290556Y0133702D01*
X0290556Y0131967D01*
X0290989Y0131533D01*
X0286820Y0129795D02*
X0277371Y0129795D01*
X0278989Y0131533D02*
X0279857Y0131533D01*
X0280290Y0131967D01*
X0281502Y0131533D02*
X0283237Y0131533D01*
X0282370Y0131533D02*
X0282370Y0134135D01*
X0281502Y0133268D01*
X0280290Y0133702D02*
X0279857Y0134135D01*
X0278989Y0134135D01*
X0278556Y0133702D01*
X0278556Y0131967D01*
X0278989Y0131533D01*
X0284449Y0131967D02*
X0284882Y0131533D01*
X0285750Y0131533D01*
X0286183Y0131967D01*
X0286183Y0133702D01*
X0285750Y0134135D01*
X0284882Y0134135D01*
X0284449Y0133702D01*
X0284449Y0133268D01*
X0284882Y0132834D01*
X0286183Y0132834D01*
X0288583Y0138283D02*
X0299607Y0138283D01*
X0298183Y0134135D02*
X0297316Y0133702D01*
X0296449Y0132834D01*
X0297750Y0132834D01*
X0298183Y0132400D01*
X0298183Y0131967D01*
X0297750Y0131533D01*
X0296882Y0131533D01*
X0296449Y0131967D01*
X0296449Y0132834D01*
X0307693Y0133034D02*
X0307693Y0132167D01*
X0308127Y0131733D01*
X0309861Y0131733D01*
X0310295Y0132167D01*
X0310295Y0133034D01*
X0309861Y0133468D01*
X0310295Y0134680D02*
X0310295Y0136414D01*
X0310295Y0135547D02*
X0307693Y0135547D01*
X0308560Y0134680D01*
X0308127Y0133468D02*
X0307693Y0133034D01*
X0307693Y0137626D02*
X0308994Y0137626D01*
X0308560Y0138494D01*
X0308560Y0138927D01*
X0308994Y0139361D01*
X0309861Y0139361D01*
X0310295Y0138927D01*
X0310295Y0138060D01*
X0309861Y0137626D01*
X0307693Y0137626D02*
X0307693Y0139361D01*
X0299607Y0144583D02*
X0288583Y0144583D01*
X0289871Y0146071D02*
X0299320Y0146071D01*
X0299320Y0150795D02*
X0289871Y0150795D01*
X0284076Y0149402D02*
X0284076Y0148968D01*
X0283643Y0148534D01*
X0284076Y0148100D01*
X0284076Y0147667D01*
X0283643Y0147233D01*
X0282775Y0147233D01*
X0282342Y0147667D01*
X0281130Y0147667D02*
X0280696Y0147233D01*
X0279829Y0147233D01*
X0279395Y0147667D01*
X0279395Y0149402D01*
X0279829Y0149835D01*
X0280696Y0149835D01*
X0281130Y0149402D01*
X0282342Y0149402D02*
X0282775Y0149835D01*
X0283643Y0149835D01*
X0284076Y0149402D01*
X0283643Y0148534D02*
X0283209Y0148534D01*
X0283196Y0142835D02*
X0282329Y0142835D01*
X0281895Y0142402D01*
X0281895Y0140667D01*
X0282329Y0140233D01*
X0283196Y0140233D01*
X0283630Y0140667D01*
X0284842Y0140667D02*
X0285275Y0140233D01*
X0286143Y0140233D01*
X0286576Y0140667D01*
X0286576Y0141534D01*
X0286143Y0141968D01*
X0285709Y0141968D01*
X0284842Y0141534D01*
X0284842Y0142835D01*
X0286576Y0142835D01*
X0283630Y0142402D02*
X0283196Y0142835D01*
X0267694Y0155862D02*
X0261001Y0155862D01*
X0261001Y0222791D01*
X0267694Y0222791D01*
X0262431Y0228474D02*
X0260697Y0228474D01*
X0261564Y0228474D02*
X0261564Y0231076D01*
X0260697Y0230209D01*
X0259485Y0231076D02*
X0258618Y0231076D01*
X0259051Y0231076D02*
X0259051Y0228908D01*
X0258618Y0228474D01*
X0258184Y0228474D01*
X0257750Y0228908D01*
X0251695Y0236733D02*
X0250561Y0236733D01*
X0249994Y0237300D01*
X0249994Y0239569D01*
X0250561Y0240136D01*
X0251695Y0240136D01*
X0252263Y0239569D01*
X0252263Y0237300D02*
X0251695Y0236733D01*
X0248579Y0236733D02*
X0248579Y0240136D01*
X0246311Y0240136D02*
X0248579Y0236733D01*
X0246311Y0236733D02*
X0246311Y0240136D01*
X0244896Y0240136D02*
X0244896Y0239569D01*
X0243762Y0238435D01*
X0243762Y0236733D01*
X0243762Y0238435D02*
X0242628Y0239569D01*
X0242628Y0240136D01*
X0241213Y0239569D02*
X0240646Y0240136D01*
X0239512Y0240136D01*
X0238945Y0239569D01*
X0238945Y0239002D01*
X0239512Y0238435D01*
X0240646Y0238435D01*
X0241213Y0237867D01*
X0241213Y0237300D01*
X0240646Y0236733D01*
X0239512Y0236733D01*
X0238945Y0237300D01*
X0236396Y0236733D02*
X0236396Y0240136D01*
X0237530Y0240136D02*
X0235261Y0240136D01*
X0233847Y0240136D02*
X0231578Y0236733D01*
X0230164Y0236733D02*
X0227895Y0236733D01*
X0227895Y0240136D01*
X0230164Y0240136D01*
X0231578Y0240136D02*
X0233847Y0236733D01*
X0229029Y0238435D02*
X0227895Y0238435D01*
X0207320Y0216295D02*
X0197871Y0216295D01*
X0173995Y0227840D02*
X0171393Y0227840D01*
X0171393Y0229141D01*
X0171827Y0229575D01*
X0172694Y0229575D01*
X0173128Y0229141D01*
X0173128Y0227840D01*
X0173128Y0228707D02*
X0173995Y0229575D01*
X0173995Y0230787D02*
X0173561Y0230787D01*
X0171827Y0232521D01*
X0171393Y0232521D01*
X0171393Y0230787D01*
X0170233Y0234209D02*
X0170233Y0243657D01*
X0174957Y0243657D02*
X0174957Y0234209D01*
X0155957Y0234209D02*
X0155957Y0243657D01*
X0151233Y0243657D02*
X0151233Y0234209D01*
X0149957Y0234209D02*
X0149957Y0243657D01*
X0145233Y0243657D02*
X0145233Y0234209D01*
X0143957Y0234209D02*
X0143957Y0243657D01*
X0139233Y0243657D02*
X0139233Y0234209D01*
X0140393Y0232521D02*
X0140393Y0230787D01*
X0141694Y0230787D01*
X0141260Y0231654D01*
X0141260Y0232088D01*
X0141694Y0232521D01*
X0142561Y0232521D01*
X0142995Y0232088D01*
X0142995Y0231220D01*
X0142561Y0230787D01*
X0142995Y0229575D02*
X0142128Y0228707D01*
X0142128Y0229141D02*
X0142128Y0227840D01*
X0142995Y0227840D02*
X0140393Y0227840D01*
X0140393Y0229141D01*
X0140827Y0229575D01*
X0141694Y0229575D01*
X0142128Y0229141D01*
X0146393Y0228707D02*
X0148995Y0228707D01*
X0148995Y0227840D02*
X0148995Y0229575D01*
X0148995Y0230787D02*
X0148561Y0230787D01*
X0146827Y0232521D01*
X0146393Y0232521D01*
X0146393Y0230787D01*
X0146393Y0228707D02*
X0147260Y0227840D01*
X0146827Y0226628D02*
X0147694Y0226628D01*
X0148128Y0226195D01*
X0148128Y0224894D01*
X0148128Y0225761D02*
X0148995Y0226628D01*
X0148995Y0224894D02*
X0146393Y0224894D01*
X0146393Y0226195D01*
X0146827Y0226628D01*
X0152393Y0227840D02*
X0152393Y0229141D01*
X0152827Y0229575D01*
X0153694Y0229575D01*
X0154128Y0229141D01*
X0154128Y0227840D01*
X0154995Y0227840D02*
X0152393Y0227840D01*
X0154128Y0228707D02*
X0154995Y0229575D01*
X0154561Y0230787D02*
X0154995Y0231220D01*
X0154995Y0232088D01*
X0154561Y0232521D01*
X0152827Y0232521D01*
X0152393Y0232088D01*
X0152393Y0231220D01*
X0152827Y0230787D01*
X0153260Y0230787D01*
X0153694Y0231220D01*
X0153694Y0232521D01*
X0137095Y0231433D02*
X0137095Y0243433D01*
X0135095Y0245433D01*
X0117095Y0245433D01*
X0115095Y0243433D01*
X0115095Y0231433D01*
X0115371Y0229795D02*
X0124820Y0229795D01*
X0124250Y0232033D02*
X0123382Y0232033D01*
X0122949Y0232467D01*
X0123816Y0233334D02*
X0124250Y0233334D01*
X0124683Y0232900D01*
X0124683Y0232467D01*
X0124250Y0232033D01*
X0124250Y0233334D02*
X0124683Y0233768D01*
X0124683Y0234202D01*
X0124250Y0234635D01*
X0123382Y0234635D01*
X0122949Y0234202D01*
X0120870Y0234635D02*
X0120870Y0232033D01*
X0121737Y0232033D02*
X0120002Y0232033D01*
X0118790Y0232033D02*
X0117923Y0232900D01*
X0118357Y0232900D02*
X0117056Y0232900D01*
X0117056Y0232033D02*
X0117056Y0234635D01*
X0118357Y0234635D01*
X0118790Y0234202D01*
X0118790Y0233334D01*
X0118357Y0232900D01*
X0120002Y0233768D02*
X0120870Y0234635D01*
X0120870Y0236033D02*
X0120870Y0238635D01*
X0120002Y0237768D01*
X0118790Y0238202D02*
X0118790Y0237334D01*
X0118357Y0236900D01*
X0117056Y0236900D01*
X0117056Y0236033D02*
X0117056Y0238635D01*
X0118357Y0238635D01*
X0118790Y0238202D01*
X0117923Y0236900D02*
X0118790Y0236033D01*
X0120002Y0236033D02*
X0121737Y0236033D01*
X0122949Y0237334D02*
X0124683Y0237334D01*
X0124250Y0236033D02*
X0124250Y0238635D01*
X0122949Y0237334D01*
X0129502Y0238604D02*
X0130803Y0238604D01*
X0131237Y0238170D01*
X0131237Y0236435D01*
X0130803Y0236002D01*
X0129502Y0236002D01*
X0129502Y0238604D01*
X0129502Y0240502D02*
X0130803Y0240502D01*
X0131237Y0240935D01*
X0131237Y0242670D01*
X0130803Y0243104D01*
X0129502Y0243104D01*
X0129502Y0240502D01*
X0132449Y0240935D02*
X0132882Y0240502D01*
X0133750Y0240502D01*
X0134183Y0240935D01*
X0134183Y0241369D01*
X0133750Y0241803D01*
X0133316Y0241803D01*
X0133750Y0241803D02*
X0134183Y0242236D01*
X0134183Y0242670D01*
X0133750Y0243104D01*
X0132882Y0243104D01*
X0132449Y0242670D01*
X0132882Y0238604D02*
X0132449Y0238170D01*
X0132882Y0238604D02*
X0133750Y0238604D01*
X0134183Y0238170D01*
X0134183Y0237736D01*
X0132449Y0236002D01*
X0134183Y0236002D01*
X0133316Y0234604D02*
X0133316Y0232002D01*
X0132449Y0232002D02*
X0134183Y0232002D01*
X0132449Y0233736D02*
X0133316Y0234604D01*
X0131237Y0234170D02*
X0130803Y0234604D01*
X0129502Y0234604D01*
X0129502Y0232002D01*
X0130803Y0232002D01*
X0131237Y0232435D01*
X0131237Y0234170D01*
X0127871Y0229402D02*
X0137320Y0229402D01*
X0132989Y0227433D02*
X0132201Y0226646D01*
X0132201Y0228220D01*
X0132989Y0227433D01*
X0137320Y0225465D02*
X0127871Y0225465D01*
X0127871Y0223402D02*
X0137320Y0223402D01*
X0137320Y0219465D02*
X0127871Y0219465D01*
X0127871Y0216902D02*
X0137320Y0216902D01*
X0137320Y0212965D02*
X0127871Y0212965D01*
X0124820Y0212571D02*
X0115371Y0212571D01*
X0115371Y0217295D02*
X0124820Y0217295D01*
X0124820Y0219071D02*
X0115371Y0219071D01*
X0115371Y0223795D02*
X0124820Y0223795D01*
X0124820Y0225071D02*
X0115371Y0225071D01*
X0132201Y0222220D02*
X0132201Y0220646D01*
X0132989Y0221433D01*
X0132201Y0222220D01*
X0132201Y0215720D02*
X0132989Y0214933D01*
X0132201Y0214146D01*
X0132201Y0215720D01*
X0124250Y0240533D02*
X0123382Y0240533D01*
X0122949Y0240967D01*
X0122949Y0241834D02*
X0123816Y0242268D01*
X0124250Y0242268D01*
X0124683Y0241834D01*
X0124683Y0240967D01*
X0124250Y0240533D01*
X0122949Y0241834D02*
X0122949Y0243135D01*
X0124683Y0243135D01*
X0120870Y0243135D02*
X0120870Y0240533D01*
X0121737Y0240533D02*
X0120002Y0240533D01*
X0118790Y0240533D02*
X0117923Y0241400D01*
X0118357Y0241400D02*
X0117056Y0241400D01*
X0117056Y0240533D02*
X0117056Y0243135D01*
X0118357Y0243135D01*
X0118790Y0242702D01*
X0118790Y0241834D01*
X0118357Y0241400D01*
X0120002Y0242268D02*
X0120870Y0243135D01*
X0107295Y0262391D02*
X0105027Y0264660D01*
X0104459Y0264660D01*
X0103892Y0264093D01*
X0103892Y0262959D01*
X0104459Y0262391D01*
X0107295Y0262391D02*
X0107295Y0264660D01*
X0173750Y0195576D02*
X0173750Y0193408D01*
X0174184Y0192974D01*
X0175051Y0192974D01*
X0175485Y0193408D01*
X0175485Y0195576D01*
X0176697Y0195143D02*
X0177130Y0195576D01*
X0177998Y0195576D01*
X0178431Y0195143D01*
X0178431Y0194709D01*
X0177998Y0194275D01*
X0178431Y0193841D01*
X0178431Y0193408D01*
X0177998Y0192974D01*
X0177130Y0192974D01*
X0176697Y0193408D01*
X0177564Y0194275D02*
X0177998Y0194275D01*
X0305095Y0222791D02*
X0312182Y0222791D01*
X0312371Y0231071D02*
X0321820Y0231071D01*
X0324371Y0231071D02*
X0333820Y0231071D01*
X0336002Y0232033D02*
X0337737Y0232033D01*
X0338949Y0232033D02*
X0340683Y0232033D01*
X0339816Y0232033D02*
X0339816Y0234635D01*
X0338949Y0233768D01*
X0336002Y0234635D02*
X0336002Y0232033D01*
X0333820Y0235795D02*
X0324371Y0235795D01*
X0321820Y0235795D02*
X0312371Y0235795D01*
X0309316Y0234635D02*
X0309316Y0232033D01*
X0308449Y0232033D02*
X0310183Y0232033D01*
X0308449Y0233768D02*
X0309316Y0234635D01*
X0307237Y0234202D02*
X0307237Y0233334D01*
X0306803Y0232900D01*
X0305502Y0232900D01*
X0305502Y0232033D02*
X0305502Y0234635D01*
X0306803Y0234635D01*
X0307237Y0234202D01*
X0306370Y0232900D02*
X0307237Y0232033D01*
X0317583Y0239283D02*
X0321095Y0239283D01*
X0325095Y0239283D02*
X0328607Y0239283D01*
X0331108Y0241954D02*
X0331541Y0241520D01*
X0332409Y0241520D01*
X0332843Y0241954D01*
X0334054Y0241520D02*
X0335789Y0241520D01*
X0334922Y0241520D02*
X0334922Y0244123D01*
X0334054Y0243255D01*
X0332843Y0243689D02*
X0332409Y0244123D01*
X0331541Y0244123D01*
X0331108Y0243689D01*
X0331108Y0241954D01*
X0328607Y0245583D02*
X0325095Y0245583D01*
X0321095Y0245583D02*
X0317583Y0245583D01*
X0338892Y0252251D02*
X0340594Y0250550D01*
X0340594Y0252819D01*
X0340594Y0254233D02*
X0340027Y0255367D01*
X0340027Y0255935D01*
X0340594Y0256502D01*
X0341728Y0256502D01*
X0342295Y0255935D01*
X0342295Y0254800D01*
X0341728Y0254233D01*
X0340594Y0254233D02*
X0338892Y0254233D01*
X0338892Y0256502D01*
X0338892Y0252251D02*
X0342295Y0252251D01*
X0340594Y0260550D02*
X0340594Y0262819D01*
X0340594Y0264233D02*
X0340594Y0265935D01*
X0341161Y0266502D01*
X0341728Y0266502D01*
X0342295Y0265935D01*
X0342295Y0264800D01*
X0341728Y0264233D01*
X0340594Y0264233D01*
X0339459Y0265367D01*
X0338892Y0266502D01*
X0338892Y0262251D02*
X0340594Y0260550D01*
X0342295Y0262251D02*
X0338892Y0262251D01*
X0342890Y0222791D02*
X0349190Y0222791D01*
X0349190Y0155862D01*
X0342890Y0155862D01*
X0352967Y0158011D02*
X0353400Y0157577D01*
X0354268Y0157577D01*
X0354701Y0158011D01*
X0354701Y0160179D01*
X0355913Y0159746D02*
X0356347Y0160179D01*
X0357214Y0160179D01*
X0357648Y0159746D01*
X0357648Y0159312D01*
X0355913Y0157577D01*
X0357648Y0157577D01*
X0352967Y0158011D02*
X0352967Y0160179D01*
X0347492Y0141806D02*
X0346625Y0141372D01*
X0345757Y0140505D01*
X0347059Y0140505D01*
X0347492Y0140071D01*
X0347492Y0139638D01*
X0347059Y0139204D01*
X0346191Y0139204D01*
X0345757Y0139638D01*
X0345757Y0140505D01*
X0344546Y0141806D02*
X0343678Y0141806D01*
X0344112Y0141806D02*
X0344112Y0139638D01*
X0343678Y0139204D01*
X0343245Y0139204D01*
X0342811Y0139638D01*
X0311457Y0127157D02*
X0311457Y0117709D01*
X0306733Y0117709D02*
X0306733Y0127157D01*
X0306512Y0105351D02*
X0306512Y0103183D01*
X0306078Y0102749D01*
X0305211Y0102749D01*
X0304777Y0103183D01*
X0304777Y0105351D01*
X0307724Y0105351D02*
X0307724Y0104050D01*
X0308591Y0104484D01*
X0309025Y0104484D01*
X0309458Y0104050D01*
X0309458Y0103183D01*
X0309025Y0102749D01*
X0308157Y0102749D01*
X0307724Y0103183D01*
X0307724Y0105351D02*
X0309458Y0105351D01*
X0315233Y0093657D02*
X0315233Y0084209D01*
X0319957Y0084209D02*
X0319957Y0093657D01*
X0321627Y0091414D02*
X0322060Y0091414D01*
X0322494Y0090981D01*
X0322494Y0090113D01*
X0322060Y0089680D01*
X0321627Y0089680D01*
X0321193Y0090113D01*
X0321193Y0090981D01*
X0321627Y0091414D01*
X0322494Y0090981D02*
X0322928Y0091414D01*
X0323361Y0091414D01*
X0323795Y0090981D01*
X0323795Y0090113D01*
X0323361Y0089680D01*
X0322928Y0089680D01*
X0322494Y0090113D01*
X0322494Y0088468D02*
X0322928Y0088034D01*
X0322928Y0086733D01*
X0323795Y0086733D02*
X0321193Y0086733D01*
X0321193Y0088034D01*
X0321627Y0088468D01*
X0322494Y0088468D01*
X0322928Y0087600D02*
X0323795Y0088468D01*
X0307523Y0089667D02*
X0307523Y0090100D01*
X0307089Y0090534D01*
X0305788Y0090534D01*
X0305788Y0089667D01*
X0306222Y0089233D01*
X0307089Y0089233D01*
X0307523Y0089667D01*
X0306656Y0091402D02*
X0305788Y0090534D01*
X0306656Y0091402D02*
X0307523Y0091835D01*
X0304576Y0091402D02*
X0304143Y0091835D01*
X0303275Y0091835D01*
X0302842Y0091402D01*
X0301630Y0091402D02*
X0301630Y0090534D01*
X0301196Y0090100D01*
X0299895Y0090100D01*
X0299895Y0089233D02*
X0299895Y0091835D01*
X0301196Y0091835D01*
X0301630Y0091402D01*
X0300763Y0090100D02*
X0301630Y0089233D01*
X0302842Y0089233D02*
X0304576Y0090968D01*
X0304576Y0091402D01*
X0304576Y0089233D02*
X0302842Y0089233D01*
X0303275Y0085835D02*
X0302842Y0085402D01*
X0303275Y0085835D02*
X0304143Y0085835D01*
X0304576Y0085402D01*
X0304576Y0084968D01*
X0302842Y0083233D01*
X0304576Y0083233D01*
X0305788Y0083233D02*
X0305788Y0083667D01*
X0307523Y0085402D01*
X0307523Y0085835D01*
X0305788Y0085835D01*
X0301630Y0085402D02*
X0301630Y0084534D01*
X0301196Y0084100D01*
X0299895Y0084100D01*
X0299895Y0083233D02*
X0299895Y0085835D01*
X0301196Y0085835D01*
X0301630Y0085402D01*
X0300763Y0084100D02*
X0301630Y0083233D01*
X0298320Y0082071D02*
X0288871Y0082071D01*
X0288871Y0086795D02*
X0298320Y0086795D01*
X0298320Y0088071D02*
X0288871Y0088071D01*
X0288871Y0092795D02*
X0298320Y0092795D01*
X0259795Y0095233D02*
X0257193Y0095233D01*
X0257193Y0096534D01*
X0257627Y0096968D01*
X0258494Y0096968D01*
X0258928Y0096534D01*
X0258928Y0095233D01*
X0258928Y0096100D02*
X0259795Y0096968D01*
X0259795Y0098180D02*
X0258060Y0099914D01*
X0257627Y0099914D01*
X0257193Y0099481D01*
X0257193Y0098613D01*
X0257627Y0098180D01*
X0259795Y0098180D02*
X0259795Y0099914D01*
X0259795Y0101126D02*
X0258060Y0102861D01*
X0257627Y0102861D01*
X0257193Y0102427D01*
X0257193Y0101560D01*
X0257627Y0101126D01*
X0259795Y0101126D02*
X0259795Y0102861D01*
X0254295Y0102427D02*
X0254295Y0101560D01*
X0253861Y0101126D01*
X0252994Y0101994D02*
X0252994Y0102427D01*
X0253428Y0102861D01*
X0253861Y0102861D01*
X0254295Y0102427D01*
X0252994Y0102427D02*
X0252560Y0102861D01*
X0252127Y0102861D01*
X0251693Y0102427D01*
X0251693Y0101560D01*
X0252127Y0101126D01*
X0252127Y0099914D02*
X0251693Y0099481D01*
X0251693Y0098613D01*
X0252127Y0098180D01*
X0252127Y0096968D02*
X0252994Y0096968D01*
X0253428Y0096534D01*
X0253428Y0095233D01*
X0254295Y0095233D02*
X0251693Y0095233D01*
X0251693Y0096534D01*
X0252127Y0096968D01*
X0253428Y0096100D02*
X0254295Y0096968D01*
X0254295Y0098180D02*
X0252560Y0099914D01*
X0252127Y0099914D01*
X0254295Y0099914D02*
X0254295Y0098180D01*
X0248295Y0098180D02*
X0248295Y0099914D01*
X0248295Y0099047D02*
X0245693Y0099047D01*
X0246560Y0098180D01*
X0246127Y0096968D02*
X0245693Y0096534D01*
X0245693Y0095667D01*
X0246127Y0095233D01*
X0247861Y0095233D01*
X0248295Y0095667D01*
X0248295Y0096534D01*
X0247861Y0096968D01*
X0247861Y0101126D02*
X0248295Y0101126D01*
X0247861Y0101126D02*
X0246127Y0102861D01*
X0245693Y0102861D01*
X0245693Y0101126D01*
X0305095Y0155862D02*
X0312182Y0155862D01*
X0338892Y0076502D02*
X0339459Y0075367D01*
X0340594Y0074233D01*
X0340594Y0075935D01*
X0341161Y0076502D01*
X0341728Y0076502D01*
X0342295Y0075935D01*
X0342295Y0074800D01*
X0341728Y0074233D01*
X0340594Y0074233D01*
X0340594Y0072819D02*
X0340594Y0070550D01*
X0338892Y0072251D01*
X0342295Y0072251D01*
X0341728Y0066502D02*
X0342295Y0065935D01*
X0342295Y0064800D01*
X0341728Y0064233D01*
X0340594Y0064233D02*
X0340027Y0065367D01*
X0340027Y0065935D01*
X0340594Y0066502D01*
X0341728Y0066502D01*
X0340594Y0064233D02*
X0338892Y0064233D01*
X0338892Y0066502D01*
X0340594Y0062819D02*
X0340594Y0060550D01*
X0338892Y0062251D01*
X0342295Y0062251D01*
X0125095Y0117933D02*
X0116595Y0117933D01*
D13*
X0116552Y0144327D02*
X0116552Y0148264D01*
X0115764Y0148264D01*
X0116552Y0149051D01*
X0116552Y0148264D01*
X0123638Y0148264D02*
X0124426Y0148264D01*
X0123638Y0149051D01*
X0123638Y0148264D01*
X0123638Y0144327D01*
X0126552Y0144327D02*
X0126552Y0148264D01*
X0125764Y0148264D01*
X0126552Y0149051D01*
X0126552Y0148264D01*
X0133638Y0148264D02*
X0134426Y0148264D01*
X0133638Y0149051D01*
X0133638Y0148264D01*
X0133638Y0144327D01*
X0136552Y0144327D02*
X0136552Y0148264D01*
X0135764Y0148264D01*
X0136552Y0149051D01*
X0136552Y0148264D01*
X0143638Y0148264D02*
X0144426Y0148264D01*
X0143638Y0149051D01*
X0143638Y0148264D01*
X0143638Y0144327D01*
X0161143Y0156183D02*
X0161143Y0157534D01*
X0161593Y0157985D01*
X0162044Y0157985D01*
X0162494Y0157534D01*
X0162494Y0156183D01*
X0163845Y0156183D02*
X0163845Y0157534D01*
X0163395Y0157985D01*
X0162944Y0157985D01*
X0162494Y0157534D01*
X0162494Y0159130D02*
X0162494Y0160481D01*
X0162944Y0160931D01*
X0163395Y0160931D01*
X0163845Y0160481D01*
X0163845Y0159130D01*
X0161143Y0159130D01*
X0161143Y0160481D01*
X0161593Y0160931D01*
X0162044Y0160931D01*
X0162494Y0160481D01*
X0162494Y0162076D02*
X0162494Y0163427D01*
X0162944Y0163878D01*
X0163395Y0163878D01*
X0163845Y0163427D01*
X0163845Y0162076D01*
X0161143Y0162076D01*
X0161143Y0163427D01*
X0161593Y0163878D01*
X0162044Y0163878D01*
X0162494Y0163427D01*
X0162044Y0166683D02*
X0162494Y0167133D01*
X0162494Y0168034D01*
X0162944Y0168485D01*
X0163395Y0168485D01*
X0163845Y0168034D01*
X0163845Y0167133D01*
X0163395Y0166683D01*
X0162044Y0166683D02*
X0161593Y0166683D01*
X0161143Y0167133D01*
X0161143Y0168034D01*
X0161593Y0168485D01*
X0161143Y0169630D02*
X0163845Y0169630D01*
X0163845Y0171431D01*
X0163845Y0172576D02*
X0161143Y0172576D01*
X0161143Y0171431D02*
X0161143Y0169630D01*
X0162494Y0169630D02*
X0162494Y0170530D01*
X0163845Y0172576D02*
X0163845Y0174378D01*
X0163845Y0175523D02*
X0161143Y0175523D01*
X0161143Y0177324D01*
X0162494Y0176423D02*
X0162494Y0175523D01*
X0163845Y0156183D02*
X0161143Y0156183D01*
D14*
X0125295Y0163933D02*
X0125297Y0163982D01*
X0125303Y0164030D01*
X0125313Y0164078D01*
X0125327Y0164125D01*
X0125344Y0164171D01*
X0125365Y0164215D01*
X0125390Y0164257D01*
X0125418Y0164297D01*
X0125450Y0164335D01*
X0125484Y0164370D01*
X0125521Y0164402D01*
X0125560Y0164431D01*
X0125602Y0164457D01*
X0125646Y0164479D01*
X0125691Y0164497D01*
X0125738Y0164512D01*
X0125785Y0164523D01*
X0125834Y0164530D01*
X0125883Y0164533D01*
X0125932Y0164532D01*
X0125980Y0164527D01*
X0126029Y0164518D01*
X0126076Y0164505D01*
X0126122Y0164488D01*
X0126166Y0164468D01*
X0126209Y0164444D01*
X0126250Y0164417D01*
X0126288Y0164386D01*
X0126324Y0164353D01*
X0126356Y0164317D01*
X0126386Y0164278D01*
X0126413Y0164237D01*
X0126436Y0164193D01*
X0126455Y0164148D01*
X0126471Y0164102D01*
X0126483Y0164055D01*
X0126491Y0164006D01*
X0126495Y0163957D01*
X0126495Y0163909D01*
X0126491Y0163860D01*
X0126483Y0163811D01*
X0126471Y0163764D01*
X0126455Y0163718D01*
X0126436Y0163673D01*
X0126413Y0163629D01*
X0126386Y0163588D01*
X0126356Y0163549D01*
X0126324Y0163513D01*
X0126288Y0163480D01*
X0126250Y0163449D01*
X0126209Y0163422D01*
X0126166Y0163398D01*
X0126122Y0163378D01*
X0126076Y0163361D01*
X0126029Y0163348D01*
X0125980Y0163339D01*
X0125932Y0163334D01*
X0125883Y0163333D01*
X0125834Y0163336D01*
X0125785Y0163343D01*
X0125738Y0163354D01*
X0125691Y0163369D01*
X0125646Y0163387D01*
X0125602Y0163409D01*
X0125560Y0163435D01*
X0125521Y0163464D01*
X0125484Y0163496D01*
X0125450Y0163531D01*
X0125418Y0163569D01*
X0125390Y0163609D01*
X0125365Y0163651D01*
X0125344Y0163695D01*
X0125327Y0163741D01*
X0125313Y0163788D01*
X0125303Y0163836D01*
X0125297Y0163884D01*
X0125295Y0163933D01*
X0139195Y0211333D02*
X0139197Y0211382D01*
X0139203Y0211430D01*
X0139213Y0211478D01*
X0139227Y0211525D01*
X0139244Y0211571D01*
X0139265Y0211615D01*
X0139290Y0211657D01*
X0139318Y0211697D01*
X0139350Y0211735D01*
X0139384Y0211770D01*
X0139421Y0211802D01*
X0139460Y0211831D01*
X0139502Y0211857D01*
X0139546Y0211879D01*
X0139591Y0211897D01*
X0139638Y0211912D01*
X0139685Y0211923D01*
X0139734Y0211930D01*
X0139783Y0211933D01*
X0139832Y0211932D01*
X0139880Y0211927D01*
X0139929Y0211918D01*
X0139976Y0211905D01*
X0140022Y0211888D01*
X0140066Y0211868D01*
X0140109Y0211844D01*
X0140150Y0211817D01*
X0140188Y0211786D01*
X0140224Y0211753D01*
X0140256Y0211717D01*
X0140286Y0211678D01*
X0140313Y0211637D01*
X0140336Y0211593D01*
X0140355Y0211548D01*
X0140371Y0211502D01*
X0140383Y0211455D01*
X0140391Y0211406D01*
X0140395Y0211357D01*
X0140395Y0211309D01*
X0140391Y0211260D01*
X0140383Y0211211D01*
X0140371Y0211164D01*
X0140355Y0211118D01*
X0140336Y0211073D01*
X0140313Y0211029D01*
X0140286Y0210988D01*
X0140256Y0210949D01*
X0140224Y0210913D01*
X0140188Y0210880D01*
X0140150Y0210849D01*
X0140109Y0210822D01*
X0140066Y0210798D01*
X0140022Y0210778D01*
X0139976Y0210761D01*
X0139929Y0210748D01*
X0139880Y0210739D01*
X0139832Y0210734D01*
X0139783Y0210733D01*
X0139734Y0210736D01*
X0139685Y0210743D01*
X0139638Y0210754D01*
X0139591Y0210769D01*
X0139546Y0210787D01*
X0139502Y0210809D01*
X0139460Y0210835D01*
X0139421Y0210864D01*
X0139384Y0210896D01*
X0139350Y0210931D01*
X0139318Y0210969D01*
X0139290Y0211009D01*
X0139265Y0211051D01*
X0139244Y0211095D01*
X0139227Y0211141D01*
X0139213Y0211188D01*
X0139203Y0211236D01*
X0139197Y0211284D01*
X0139195Y0211333D01*
X0139195Y0217833D02*
X0139197Y0217882D01*
X0139203Y0217930D01*
X0139213Y0217978D01*
X0139227Y0218025D01*
X0139244Y0218071D01*
X0139265Y0218115D01*
X0139290Y0218157D01*
X0139318Y0218197D01*
X0139350Y0218235D01*
X0139384Y0218270D01*
X0139421Y0218302D01*
X0139460Y0218331D01*
X0139502Y0218357D01*
X0139546Y0218379D01*
X0139591Y0218397D01*
X0139638Y0218412D01*
X0139685Y0218423D01*
X0139734Y0218430D01*
X0139783Y0218433D01*
X0139832Y0218432D01*
X0139880Y0218427D01*
X0139929Y0218418D01*
X0139976Y0218405D01*
X0140022Y0218388D01*
X0140066Y0218368D01*
X0140109Y0218344D01*
X0140150Y0218317D01*
X0140188Y0218286D01*
X0140224Y0218253D01*
X0140256Y0218217D01*
X0140286Y0218178D01*
X0140313Y0218137D01*
X0140336Y0218093D01*
X0140355Y0218048D01*
X0140371Y0218002D01*
X0140383Y0217955D01*
X0140391Y0217906D01*
X0140395Y0217857D01*
X0140395Y0217809D01*
X0140391Y0217760D01*
X0140383Y0217711D01*
X0140371Y0217664D01*
X0140355Y0217618D01*
X0140336Y0217573D01*
X0140313Y0217529D01*
X0140286Y0217488D01*
X0140256Y0217449D01*
X0140224Y0217413D01*
X0140188Y0217380D01*
X0140150Y0217349D01*
X0140109Y0217322D01*
X0140066Y0217298D01*
X0140022Y0217278D01*
X0139976Y0217261D01*
X0139929Y0217248D01*
X0139880Y0217239D01*
X0139832Y0217234D01*
X0139783Y0217233D01*
X0139734Y0217236D01*
X0139685Y0217243D01*
X0139638Y0217254D01*
X0139591Y0217269D01*
X0139546Y0217287D01*
X0139502Y0217309D01*
X0139460Y0217335D01*
X0139421Y0217364D01*
X0139384Y0217396D01*
X0139350Y0217431D01*
X0139318Y0217469D01*
X0139290Y0217509D01*
X0139265Y0217551D01*
X0139244Y0217595D01*
X0139227Y0217641D01*
X0139213Y0217688D01*
X0139203Y0217736D01*
X0139197Y0217784D01*
X0139195Y0217833D01*
X0139195Y0223833D02*
X0139197Y0223882D01*
X0139203Y0223930D01*
X0139213Y0223978D01*
X0139227Y0224025D01*
X0139244Y0224071D01*
X0139265Y0224115D01*
X0139290Y0224157D01*
X0139318Y0224197D01*
X0139350Y0224235D01*
X0139384Y0224270D01*
X0139421Y0224302D01*
X0139460Y0224331D01*
X0139502Y0224357D01*
X0139546Y0224379D01*
X0139591Y0224397D01*
X0139638Y0224412D01*
X0139685Y0224423D01*
X0139734Y0224430D01*
X0139783Y0224433D01*
X0139832Y0224432D01*
X0139880Y0224427D01*
X0139929Y0224418D01*
X0139976Y0224405D01*
X0140022Y0224388D01*
X0140066Y0224368D01*
X0140109Y0224344D01*
X0140150Y0224317D01*
X0140188Y0224286D01*
X0140224Y0224253D01*
X0140256Y0224217D01*
X0140286Y0224178D01*
X0140313Y0224137D01*
X0140336Y0224093D01*
X0140355Y0224048D01*
X0140371Y0224002D01*
X0140383Y0223955D01*
X0140391Y0223906D01*
X0140395Y0223857D01*
X0140395Y0223809D01*
X0140391Y0223760D01*
X0140383Y0223711D01*
X0140371Y0223664D01*
X0140355Y0223618D01*
X0140336Y0223573D01*
X0140313Y0223529D01*
X0140286Y0223488D01*
X0140256Y0223449D01*
X0140224Y0223413D01*
X0140188Y0223380D01*
X0140150Y0223349D01*
X0140109Y0223322D01*
X0140066Y0223298D01*
X0140022Y0223278D01*
X0139976Y0223261D01*
X0139929Y0223248D01*
X0139880Y0223239D01*
X0139832Y0223234D01*
X0139783Y0223233D01*
X0139734Y0223236D01*
X0139685Y0223243D01*
X0139638Y0223254D01*
X0139591Y0223269D01*
X0139546Y0223287D01*
X0139502Y0223309D01*
X0139460Y0223335D01*
X0139421Y0223364D01*
X0139384Y0223396D01*
X0139350Y0223431D01*
X0139318Y0223469D01*
X0139290Y0223509D01*
X0139265Y0223551D01*
X0139244Y0223595D01*
X0139227Y0223641D01*
X0139213Y0223688D01*
X0139203Y0223736D01*
X0139197Y0223784D01*
X0139195Y0223833D01*
X0263695Y0159533D02*
X0263697Y0159582D01*
X0263703Y0159630D01*
X0263713Y0159678D01*
X0263727Y0159725D01*
X0263744Y0159771D01*
X0263765Y0159815D01*
X0263790Y0159857D01*
X0263818Y0159897D01*
X0263850Y0159935D01*
X0263884Y0159970D01*
X0263921Y0160002D01*
X0263960Y0160031D01*
X0264002Y0160057D01*
X0264046Y0160079D01*
X0264091Y0160097D01*
X0264138Y0160112D01*
X0264185Y0160123D01*
X0264234Y0160130D01*
X0264283Y0160133D01*
X0264332Y0160132D01*
X0264380Y0160127D01*
X0264429Y0160118D01*
X0264476Y0160105D01*
X0264522Y0160088D01*
X0264566Y0160068D01*
X0264609Y0160044D01*
X0264650Y0160017D01*
X0264688Y0159986D01*
X0264724Y0159953D01*
X0264756Y0159917D01*
X0264786Y0159878D01*
X0264813Y0159837D01*
X0264836Y0159793D01*
X0264855Y0159748D01*
X0264871Y0159702D01*
X0264883Y0159655D01*
X0264891Y0159606D01*
X0264895Y0159557D01*
X0264895Y0159509D01*
X0264891Y0159460D01*
X0264883Y0159411D01*
X0264871Y0159364D01*
X0264855Y0159318D01*
X0264836Y0159273D01*
X0264813Y0159229D01*
X0264786Y0159188D01*
X0264756Y0159149D01*
X0264724Y0159113D01*
X0264688Y0159080D01*
X0264650Y0159049D01*
X0264609Y0159022D01*
X0264566Y0158998D01*
X0264522Y0158978D01*
X0264476Y0158961D01*
X0264429Y0158948D01*
X0264380Y0158939D01*
X0264332Y0158934D01*
X0264283Y0158933D01*
X0264234Y0158936D01*
X0264185Y0158943D01*
X0264138Y0158954D01*
X0264091Y0158969D01*
X0264046Y0158987D01*
X0264002Y0159009D01*
X0263960Y0159035D01*
X0263921Y0159064D01*
X0263884Y0159096D01*
X0263850Y0159131D01*
X0263818Y0159169D01*
X0263790Y0159209D01*
X0263765Y0159251D01*
X0263744Y0159295D01*
X0263727Y0159341D01*
X0263713Y0159388D01*
X0263703Y0159436D01*
X0263697Y0159484D01*
X0263695Y0159533D01*
D15*
X0222536Y0151492D03*
D16*
X0304800Y0120154D03*
D17*
X0155095Y0114933D03*
D18*
X0244682Y0153165D03*
D19*
X0068107Y0115685D02*
X0068107Y0112929D01*
X0060627Y0120016D02*
X0049997Y0120016D01*
X0048945Y0115721D02*
X0048945Y0114903D01*
X0039544Y0113881D01*
X0039544Y0111837D01*
X0048945Y0110816D01*
X0048945Y0109998D01*
X0038113Y0111020D01*
X0038047Y0111027D01*
X0037982Y0111038D01*
X0037917Y0111052D01*
X0037854Y0111070D01*
X0037791Y0111092D01*
X0037730Y0111117D01*
X0037670Y0111145D01*
X0037612Y0111177D01*
X0037556Y0111213D01*
X0037502Y0111251D01*
X0037451Y0111292D01*
X0037402Y0111336D01*
X0037355Y0111383D01*
X0037311Y0111433D01*
X0037270Y0111485D01*
X0037232Y0111539D01*
X0037197Y0111595D01*
X0037166Y0111653D01*
X0037138Y0111713D01*
X0037113Y0111775D01*
X0037092Y0111837D01*
X0037092Y0114086D02*
X0037113Y0114148D01*
X0037138Y0114210D01*
X0037166Y0114270D01*
X0037197Y0114328D01*
X0037232Y0114384D01*
X0037270Y0114438D01*
X0037311Y0114490D01*
X0037355Y0114540D01*
X0037402Y0114587D01*
X0037451Y0114631D01*
X0037502Y0114672D01*
X0037556Y0114710D01*
X0037612Y0114746D01*
X0037670Y0114778D01*
X0037730Y0114806D01*
X0037791Y0114831D01*
X0037854Y0114853D01*
X0037917Y0114871D01*
X0037982Y0114885D01*
X0038047Y0114896D01*
X0038113Y0114903D01*
X0048945Y0115721D01*
X0053858Y0108946D02*
X0037916Y0109763D01*
X0037860Y0109761D01*
X0037805Y0109755D01*
X0037750Y0109746D01*
X0037696Y0109733D01*
X0037642Y0109716D01*
X0037591Y0109695D01*
X0037540Y0109671D01*
X0037491Y0109644D01*
X0037445Y0109613D01*
X0037400Y0109580D01*
X0037358Y0109543D01*
X0037319Y0109504D01*
X0037282Y0109462D01*
X0037249Y0109417D01*
X0037218Y0109371D01*
X0037191Y0109322D01*
X0037167Y0109271D01*
X0037146Y0109220D01*
X0037129Y0109166D01*
X0037116Y0109112D01*
X0037107Y0109057D01*
X0037101Y0109002D01*
X0037099Y0108946D01*
X0037099Y0108946D01*
X0037101Y0108890D01*
X0037107Y0108835D01*
X0037116Y0108780D01*
X0037129Y0108726D01*
X0037146Y0108672D01*
X0037167Y0108621D01*
X0037191Y0108570D01*
X0037218Y0108521D01*
X0037249Y0108475D01*
X0037282Y0108430D01*
X0037319Y0108388D01*
X0037358Y0108349D01*
X0037400Y0108312D01*
X0037445Y0108279D01*
X0037491Y0108248D01*
X0037540Y0108221D01*
X0037591Y0108197D01*
X0037642Y0108176D01*
X0037696Y0108159D01*
X0037750Y0108146D01*
X0037805Y0108137D01*
X0037860Y0108131D01*
X0037916Y0108129D01*
X0037916Y0108128D02*
X0051405Y0107311D01*
X0051405Y0107312D02*
X0051405Y0102406D01*
X0037916Y0101589D01*
X0037860Y0101587D01*
X0037805Y0101581D01*
X0037750Y0101572D01*
X0037696Y0101559D01*
X0037642Y0101542D01*
X0037591Y0101521D01*
X0037540Y0101497D01*
X0037491Y0101470D01*
X0037445Y0101439D01*
X0037400Y0101406D01*
X0037358Y0101369D01*
X0037319Y0101330D01*
X0037282Y0101288D01*
X0037249Y0101243D01*
X0037218Y0101197D01*
X0037191Y0101148D01*
X0037167Y0101097D01*
X0037146Y0101046D01*
X0037129Y0100992D01*
X0037116Y0100938D01*
X0037107Y0100883D01*
X0037101Y0100828D01*
X0037099Y0100772D01*
X0037099Y0100771D02*
X0037101Y0100715D01*
X0037107Y0100660D01*
X0037116Y0100605D01*
X0037129Y0100551D01*
X0037146Y0100497D01*
X0037167Y0100446D01*
X0037191Y0100395D01*
X0037218Y0100346D01*
X0037249Y0100300D01*
X0037282Y0100255D01*
X0037319Y0100213D01*
X0037358Y0100174D01*
X0037400Y0100137D01*
X0037445Y0100104D01*
X0037491Y0100073D01*
X0037540Y0100046D01*
X0037591Y0100022D01*
X0037642Y0100001D01*
X0037696Y0099984D01*
X0037750Y0099971D01*
X0037805Y0099962D01*
X0037860Y0099956D01*
X0037916Y0099954D01*
X0053858Y0100771D01*
X0053915Y0100776D01*
X0053972Y0100785D01*
X0054028Y0100798D01*
X0054083Y0100814D01*
X0054137Y0100834D01*
X0054189Y0100858D01*
X0054240Y0100884D01*
X0054289Y0100915D01*
X0054336Y0100948D01*
X0054381Y0100984D01*
X0054423Y0101024D01*
X0054462Y0101066D01*
X0054498Y0101110D01*
X0054532Y0101157D01*
X0054562Y0101206D01*
X0054589Y0101257D01*
X0054612Y0101309D01*
X0054632Y0101363D01*
X0054648Y0101419D01*
X0054661Y0101475D01*
X0054670Y0101532D01*
X0054675Y0101589D01*
X0054675Y0108129D01*
X0054676Y0108129D02*
X0054671Y0108186D01*
X0054662Y0108243D01*
X0054649Y0108299D01*
X0054633Y0108354D01*
X0054613Y0108408D01*
X0054590Y0108461D01*
X0054563Y0108512D01*
X0054533Y0108561D01*
X0054499Y0108608D01*
X0054463Y0108652D01*
X0054424Y0108694D01*
X0054381Y0108734D01*
X0054337Y0108770D01*
X0054290Y0108803D01*
X0054241Y0108834D01*
X0054190Y0108861D01*
X0054138Y0108884D01*
X0054084Y0108904D01*
X0054029Y0108920D01*
X0053972Y0108933D01*
X0053916Y0108942D01*
X0053858Y0108947D01*
X0048945Y0099719D02*
X0038113Y0098697D01*
X0038047Y0098690D01*
X0037982Y0098679D01*
X0037917Y0098665D01*
X0037854Y0098647D01*
X0037791Y0098625D01*
X0037730Y0098600D01*
X0037670Y0098572D01*
X0037612Y0098540D01*
X0037556Y0098504D01*
X0037502Y0098466D01*
X0037451Y0098425D01*
X0037402Y0098381D01*
X0037355Y0098334D01*
X0037311Y0098284D01*
X0037270Y0098232D01*
X0037232Y0098178D01*
X0037197Y0098122D01*
X0037166Y0098064D01*
X0037138Y0098004D01*
X0037113Y0097942D01*
X0037092Y0097880D01*
X0037092Y0095631D02*
X0037113Y0095569D01*
X0037138Y0095507D01*
X0037166Y0095447D01*
X0037197Y0095389D01*
X0037232Y0095333D01*
X0037270Y0095279D01*
X0037311Y0095227D01*
X0037355Y0095177D01*
X0037402Y0095130D01*
X0037451Y0095086D01*
X0037502Y0095045D01*
X0037556Y0095007D01*
X0037612Y0094971D01*
X0037670Y0094939D01*
X0037730Y0094911D01*
X0037791Y0094886D01*
X0037854Y0094864D01*
X0037917Y0094846D01*
X0037982Y0094832D01*
X0038047Y0094821D01*
X0038113Y0094814D01*
X0048945Y0093996D01*
X0048945Y0094814D01*
X0039544Y0095836D01*
X0039544Y0097880D01*
X0048945Y0098902D01*
X0048945Y0099719D01*
X0037092Y0097880D02*
X0037058Y0097765D01*
X0037028Y0097648D01*
X0037002Y0097531D01*
X0036980Y0097413D01*
X0036961Y0097295D01*
X0036946Y0097175D01*
X0036935Y0097056D01*
X0036927Y0096936D01*
X0036923Y0096816D01*
X0036923Y0096696D01*
X0036927Y0096576D01*
X0036935Y0096456D01*
X0036946Y0096337D01*
X0036961Y0096217D01*
X0036980Y0096099D01*
X0037002Y0095981D01*
X0037028Y0095864D01*
X0037058Y0095747D01*
X0037092Y0095632D01*
X0039760Y0089701D02*
X0032674Y0089701D01*
X0032674Y0120016D01*
X0039760Y0120016D01*
X0037092Y0114086D02*
X0037058Y0113971D01*
X0037028Y0113854D01*
X0037002Y0113737D01*
X0036980Y0113619D01*
X0036961Y0113501D01*
X0036946Y0113381D01*
X0036935Y0113262D01*
X0036927Y0113142D01*
X0036923Y0113022D01*
X0036923Y0112902D01*
X0036927Y0112782D01*
X0036935Y0112662D01*
X0036946Y0112543D01*
X0036961Y0112423D01*
X0036980Y0112305D01*
X0037002Y0112187D01*
X0037028Y0112070D01*
X0037058Y0111953D01*
X0037092Y0111838D01*
X0068107Y0096787D02*
X0068107Y0094031D01*
X0060627Y0089701D02*
X0049997Y0089701D01*
D20*
X0063190Y0243375D03*
X0063190Y0243410D03*
X0063540Y0244251D03*
X0063540Y0244286D03*
X0063610Y0244460D03*
X0063645Y0244531D03*
X0064310Y0243901D03*
X0064310Y0243866D03*
X0064275Y0243795D03*
X0064275Y0243760D03*
X0064240Y0243690D03*
X0067145Y0243901D03*
X0067145Y0243936D03*
X0067145Y0243971D03*
X0067145Y0243410D03*
X0067145Y0243375D03*
X0070610Y0244075D03*
X0070610Y0244286D03*
X0077295Y0244601D03*
X0078590Y0244671D03*
D21*
X0066130Y0244636D03*
X0065955Y0244845D03*
X0064205Y0243481D03*
X0064205Y0243445D03*
X0064205Y0243410D03*
X0063190Y0243795D03*
X0069840Y0252825D03*
X0070260Y0254295D03*
X0070260Y0254331D03*
X0070260Y0254366D03*
X0069175Y0254540D03*
D22*
X0070295Y0254121D03*
X0070295Y0254086D03*
X0071940Y0252475D03*
X0071940Y0252440D03*
X0073235Y0257621D03*
X0068930Y0257095D03*
X0065150Y0243481D03*
X0065150Y0243445D03*
X0065150Y0243410D03*
D23*
X0065973Y0243410D03*
X0065973Y0243445D03*
X0065973Y0243481D03*
X0066183Y0244531D03*
X0072273Y0251460D03*
X0072238Y0251566D03*
X0072203Y0251671D03*
X0072168Y0251775D03*
X0072133Y0251845D03*
X0072133Y0251881D03*
X0072098Y0251951D03*
X0072098Y0251986D03*
X0073288Y0255101D03*
D24*
X0073130Y0257445D03*
X0069280Y0254471D03*
X0069140Y0253421D03*
X0070365Y0253631D03*
X0071870Y0252931D03*
X0070365Y0243516D03*
X0068265Y0243410D03*
X0076630Y0243516D03*
D25*
X0076543Y0243481D03*
X0076543Y0243445D03*
X0070278Y0243445D03*
X0070278Y0243410D03*
X0070278Y0243481D03*
X0069263Y0254366D03*
X0073078Y0257340D03*
D26*
X0073235Y0257586D03*
X0070295Y0254016D03*
X0070295Y0253981D03*
X0070295Y0253945D03*
X0069945Y0252966D03*
X0069210Y0253281D03*
X0071905Y0252616D03*
X0076315Y0244881D03*
X0076315Y0244845D03*
X0076315Y0244810D03*
X0071660Y0243481D03*
X0071660Y0243445D03*
X0071660Y0243410D03*
D27*
X0071643Y0243516D03*
X0072273Y0243795D03*
X0072483Y0243516D03*
X0072623Y0243410D03*
X0073463Y0243516D03*
X0074023Y0243516D03*
X0074093Y0243551D03*
X0074058Y0244110D03*
X0075143Y0244775D03*
X0076298Y0244775D03*
X0072238Y0244740D03*
X0068878Y0243551D03*
X0066638Y0244110D03*
X0066603Y0244145D03*
X0066323Y0244460D03*
X0065133Y0243516D03*
X0064713Y0244671D03*
X0063173Y0243690D03*
X0069823Y0252790D03*
D28*
X0070120Y0253175D03*
X0071870Y0252895D03*
X0073165Y0257481D03*
X0073550Y0243410D03*
D29*
X0075143Y0243410D03*
X0075143Y0243445D03*
X0075143Y0243481D03*
X0075143Y0244810D03*
X0075143Y0244845D03*
X0075143Y0244881D03*
D30*
X0076525Y0243410D03*
X0069105Y0253560D03*
X0069105Y0253595D03*
X0069280Y0254401D03*
D31*
X0070313Y0253910D03*
X0069963Y0253001D03*
X0071923Y0252686D03*
X0071923Y0252651D03*
X0073253Y0255031D03*
X0073638Y0244216D03*
X0071853Y0244110D03*
X0071853Y0244075D03*
X0077978Y0243481D03*
X0077978Y0243445D03*
X0077978Y0243410D03*
D32*
X0067128Y0243445D03*
X0067128Y0244040D03*
X0067128Y0244075D03*
X0067128Y0244110D03*
X0067128Y0244145D03*
X0067128Y0244181D03*
X0067128Y0244216D03*
X0067128Y0244251D03*
X0067128Y0244286D03*
X0067128Y0244321D03*
X0067128Y0244390D03*
X0067128Y0244425D03*
X0067128Y0244460D03*
X0067128Y0244495D03*
X0067128Y0244531D03*
X0067128Y0244566D03*
X0067128Y0244601D03*
X0067128Y0244636D03*
X0067128Y0244671D03*
X0065973Y0244495D03*
X0065973Y0244460D03*
X0065973Y0244425D03*
X0065973Y0244390D03*
X0065973Y0244321D03*
X0065973Y0244286D03*
X0065973Y0244251D03*
X0065973Y0244216D03*
X0065973Y0244181D03*
X0065973Y0244145D03*
X0065973Y0244110D03*
X0065973Y0244075D03*
X0065973Y0244040D03*
X0065973Y0243971D03*
X0065973Y0243936D03*
X0065973Y0243901D03*
X0065973Y0243866D03*
X0065973Y0243831D03*
X0065973Y0243795D03*
X0065973Y0243760D03*
X0065973Y0243725D03*
X0065973Y0243690D03*
X0065973Y0243621D03*
X0065973Y0243586D03*
X0065973Y0243551D03*
X0064293Y0243831D03*
X0064258Y0243725D03*
X0064223Y0243621D03*
X0063523Y0244216D03*
X0063558Y0244321D03*
X0063593Y0244390D03*
X0063593Y0244425D03*
X0063628Y0244495D03*
X0063663Y0244566D03*
X0063173Y0243445D03*
X0069473Y0259336D03*
D33*
X0068318Y0243445D03*
D34*
X0066988Y0243725D03*
X0066988Y0243760D03*
X0066113Y0244671D03*
X0064713Y0244601D03*
X0064713Y0244566D03*
X0063698Y0244810D03*
X0063698Y0244845D03*
X0063698Y0244881D03*
X0072588Y0243445D03*
X0069263Y0253210D03*
X0070243Y0254401D03*
X0068913Y0257131D03*
D35*
X0069123Y0253490D03*
X0073603Y0244845D03*
X0073603Y0243445D03*
D36*
X0070575Y0244110D03*
X0070575Y0244251D03*
X0070680Y0244740D03*
X0067110Y0243481D03*
X0063190Y0243481D03*
X0078555Y0244740D03*
X0070225Y0254540D03*
D37*
X0068353Y0243481D03*
D38*
X0066970Y0243795D03*
X0065920Y0244881D03*
X0072570Y0243481D03*
D39*
X0073638Y0243481D03*
X0070243Y0244810D03*
X0070243Y0244845D03*
X0070243Y0244881D03*
X0069123Y0253525D03*
X0069298Y0254436D03*
X0069053Y0256990D03*
X0073113Y0257375D03*
D40*
X0067128Y0244740D03*
X0067093Y0243516D03*
X0065973Y0243516D03*
X0064713Y0244845D03*
X0064713Y0244881D03*
X0063173Y0243516D03*
D41*
X0064170Y0243516D03*
X0077015Y0243551D03*
X0077365Y0244740D03*
D42*
X0073620Y0244810D03*
X0071835Y0244810D03*
X0068440Y0244775D03*
X0068300Y0244845D03*
X0068475Y0243516D03*
X0071870Y0252966D03*
X0073130Y0257410D03*
D43*
X0070225Y0254471D03*
X0069315Y0253175D03*
X0068965Y0244671D03*
X0069000Y0244636D03*
X0069070Y0244531D03*
X0069105Y0244460D03*
X0069140Y0244390D03*
X0069140Y0244321D03*
X0069175Y0244181D03*
X0069175Y0244145D03*
X0069175Y0244110D03*
X0069140Y0243936D03*
X0068965Y0243621D03*
X0068930Y0243586D03*
X0068125Y0243551D03*
X0067040Y0243621D03*
X0065115Y0243621D03*
X0065115Y0243586D03*
X0065115Y0243551D03*
X0065080Y0243690D03*
X0065045Y0243795D03*
X0065010Y0243901D03*
X0064940Y0244110D03*
X0064905Y0244181D03*
X0064905Y0244216D03*
X0064870Y0244286D03*
X0064870Y0244321D03*
X0063190Y0243621D03*
X0063015Y0244040D03*
X0062980Y0244110D03*
X0062980Y0244145D03*
X0062910Y0244286D03*
X0062875Y0244390D03*
X0062840Y0244460D03*
X0062805Y0244566D03*
X0062770Y0244636D03*
X0062770Y0244671D03*
X0062735Y0244740D03*
X0070050Y0243551D03*
X0072150Y0243971D03*
X0072185Y0243936D03*
X0072220Y0243901D03*
X0072220Y0243866D03*
X0072255Y0243831D03*
X0072290Y0243760D03*
X0072325Y0243725D03*
X0072360Y0243690D03*
X0072395Y0243621D03*
X0072430Y0243586D03*
X0072465Y0243551D03*
X0073445Y0243551D03*
X0074110Y0244075D03*
X0074145Y0244040D03*
X0074110Y0244601D03*
X0074110Y0244636D03*
X0074040Y0244740D03*
X0075125Y0243516D03*
X0076315Y0243551D03*
X0076315Y0243586D03*
X0076315Y0244740D03*
X0077960Y0243551D03*
X0077960Y0243516D03*
X0072325Y0244636D03*
D44*
X0072290Y0244286D03*
X0074005Y0244286D03*
X0074040Y0244321D03*
X0069105Y0243831D03*
X0069070Y0243760D03*
X0067075Y0243551D03*
X0063190Y0243551D03*
X0063190Y0243586D03*
X0069140Y0254575D03*
X0073270Y0257725D03*
D45*
X0070768Y0243551D03*
X0077068Y0243586D03*
X0064188Y0243551D03*
X0063383Y0243901D03*
X0063698Y0244671D03*
X0063733Y0244740D03*
D46*
X0062858Y0244425D03*
X0062823Y0244495D03*
X0062823Y0244531D03*
X0062788Y0244601D03*
X0062893Y0244321D03*
X0062928Y0244251D03*
X0062928Y0244216D03*
X0062963Y0244181D03*
X0062998Y0244075D03*
X0063033Y0243971D03*
X0063103Y0243866D03*
X0063103Y0243831D03*
X0064783Y0244531D03*
X0064853Y0244390D03*
X0064888Y0244251D03*
X0064923Y0244145D03*
X0064958Y0244075D03*
X0065028Y0243866D03*
X0065028Y0243831D03*
X0065063Y0243760D03*
X0065063Y0243725D03*
X0064713Y0244740D03*
X0064713Y0244775D03*
X0064713Y0244810D03*
X0067128Y0244775D03*
X0068108Y0244740D03*
X0068108Y0244671D03*
X0068108Y0244636D03*
X0068108Y0244601D03*
X0068108Y0244566D03*
X0068108Y0244531D03*
X0068108Y0244495D03*
X0068108Y0244460D03*
X0068108Y0244425D03*
X0068108Y0244390D03*
X0068108Y0244321D03*
X0068108Y0244286D03*
X0068108Y0244251D03*
X0068108Y0244216D03*
X0068108Y0244181D03*
X0068108Y0244145D03*
X0068108Y0244110D03*
X0068108Y0244075D03*
X0068108Y0244040D03*
X0068108Y0243971D03*
X0068108Y0243936D03*
X0068108Y0243901D03*
X0068108Y0243866D03*
X0068108Y0243831D03*
X0068108Y0243795D03*
X0068108Y0243760D03*
X0068108Y0243725D03*
X0068108Y0243690D03*
X0068108Y0243621D03*
X0068108Y0243586D03*
X0069053Y0243725D03*
X0069088Y0243795D03*
X0069123Y0243866D03*
X0069123Y0243901D03*
X0069158Y0243971D03*
X0069158Y0244040D03*
X0069158Y0244075D03*
X0069158Y0244216D03*
X0069158Y0244251D03*
X0069158Y0244286D03*
X0069123Y0244425D03*
X0069088Y0244495D03*
X0069053Y0244566D03*
X0070033Y0244566D03*
X0070033Y0244601D03*
X0070033Y0244636D03*
X0070033Y0244671D03*
X0070033Y0244740D03*
X0070033Y0244531D03*
X0070033Y0244495D03*
X0070033Y0244460D03*
X0070033Y0244425D03*
X0070033Y0244390D03*
X0070033Y0244321D03*
X0070033Y0244286D03*
X0070033Y0244251D03*
X0070033Y0244110D03*
X0070033Y0244075D03*
X0070033Y0244040D03*
X0070033Y0243971D03*
X0070033Y0243936D03*
X0070033Y0243901D03*
X0070033Y0243866D03*
X0070033Y0243831D03*
X0070033Y0243795D03*
X0070033Y0243760D03*
X0070033Y0243725D03*
X0070033Y0243690D03*
X0070033Y0243621D03*
X0070033Y0243586D03*
X0071643Y0243586D03*
X0071643Y0243621D03*
X0071643Y0243690D03*
X0071643Y0243725D03*
X0071643Y0243760D03*
X0071643Y0243795D03*
X0071643Y0243831D03*
X0071643Y0243866D03*
X0071643Y0243901D03*
X0071643Y0243936D03*
X0071643Y0243971D03*
X0071643Y0244181D03*
X0071643Y0244216D03*
X0071643Y0244251D03*
X0071643Y0244286D03*
X0071643Y0244321D03*
X0071643Y0244390D03*
X0071643Y0244425D03*
X0071643Y0244460D03*
X0071643Y0244495D03*
X0071643Y0244531D03*
X0071643Y0244566D03*
X0071643Y0244601D03*
X0071643Y0244636D03*
X0071643Y0244671D03*
X0071643Y0244740D03*
X0072308Y0244671D03*
X0072343Y0244601D03*
X0072343Y0244566D03*
X0072343Y0244531D03*
X0072343Y0244495D03*
X0072343Y0244460D03*
X0072343Y0244425D03*
X0072343Y0244390D03*
X0072308Y0244321D03*
X0072273Y0244251D03*
X0072238Y0244216D03*
X0071643Y0243551D03*
X0073428Y0243586D03*
X0073428Y0243621D03*
X0073428Y0243690D03*
X0073428Y0243725D03*
X0073428Y0243760D03*
X0073428Y0243795D03*
X0073428Y0243831D03*
X0073428Y0243866D03*
X0073428Y0243901D03*
X0073428Y0243936D03*
X0073428Y0243971D03*
X0073428Y0244040D03*
X0073428Y0244075D03*
X0073428Y0244110D03*
X0073428Y0244286D03*
X0073428Y0244321D03*
X0073428Y0244390D03*
X0073428Y0244425D03*
X0073428Y0244460D03*
X0073428Y0244495D03*
X0073428Y0244531D03*
X0073428Y0244566D03*
X0073428Y0244601D03*
X0073428Y0244636D03*
X0073428Y0244671D03*
X0073428Y0244740D03*
X0074093Y0244671D03*
X0074128Y0244566D03*
X0074128Y0244531D03*
X0074128Y0244495D03*
X0074128Y0244460D03*
X0074093Y0244425D03*
X0074093Y0244390D03*
X0074198Y0243971D03*
X0074198Y0243936D03*
X0074198Y0243901D03*
X0074233Y0243866D03*
X0074233Y0243831D03*
X0074233Y0243795D03*
X0074198Y0243760D03*
X0074198Y0243725D03*
X0074198Y0243690D03*
X0074163Y0243621D03*
X0074128Y0243586D03*
X0075143Y0243586D03*
X0075143Y0243621D03*
X0075143Y0243690D03*
X0075143Y0243725D03*
X0075143Y0243760D03*
X0075143Y0243795D03*
X0075143Y0243831D03*
X0075143Y0243866D03*
X0075143Y0243901D03*
X0075143Y0243936D03*
X0075143Y0243971D03*
X0075143Y0244040D03*
X0075143Y0244075D03*
X0075143Y0244110D03*
X0075143Y0244145D03*
X0075143Y0244181D03*
X0075143Y0244216D03*
X0075143Y0244251D03*
X0075143Y0244286D03*
X0075143Y0244321D03*
X0075143Y0244390D03*
X0075143Y0244425D03*
X0075143Y0244460D03*
X0075143Y0244495D03*
X0075143Y0244531D03*
X0075143Y0244566D03*
X0075143Y0244601D03*
X0075143Y0244636D03*
X0075143Y0244671D03*
X0075143Y0244740D03*
X0076298Y0244671D03*
X0076298Y0244636D03*
X0076298Y0244601D03*
X0076298Y0244566D03*
X0076298Y0244531D03*
X0076298Y0244495D03*
X0076298Y0244460D03*
X0076298Y0244425D03*
X0076298Y0244390D03*
X0076298Y0244321D03*
X0076298Y0244286D03*
X0076298Y0244251D03*
X0076298Y0244216D03*
X0076298Y0244181D03*
X0076298Y0244145D03*
X0076298Y0244110D03*
X0076298Y0244075D03*
X0076298Y0244040D03*
X0076298Y0243971D03*
X0076298Y0243936D03*
X0076298Y0243901D03*
X0076298Y0243866D03*
X0076298Y0243831D03*
X0076298Y0243795D03*
X0076298Y0243760D03*
X0076298Y0243725D03*
X0076298Y0243690D03*
X0076298Y0243621D03*
X0075143Y0243551D03*
X0077943Y0243586D03*
X0077943Y0243621D03*
X0077943Y0243690D03*
X0077943Y0243725D03*
X0077943Y0243760D03*
X0077943Y0243795D03*
X0077943Y0243831D03*
X0077943Y0243866D03*
X0077943Y0243901D03*
X0077943Y0243936D03*
X0077943Y0243971D03*
X0077943Y0244040D03*
X0077943Y0244075D03*
X0077943Y0244110D03*
X0077943Y0244145D03*
X0077943Y0244181D03*
X0077943Y0244216D03*
X0077943Y0244251D03*
X0077943Y0244286D03*
X0077943Y0244321D03*
X0077943Y0244390D03*
X0077943Y0244425D03*
X0077943Y0244460D03*
X0077943Y0244495D03*
X0077943Y0244531D03*
X0077943Y0244566D03*
X0077943Y0244601D03*
X0077943Y0244636D03*
X0077943Y0244671D03*
X0077943Y0244740D03*
X0067058Y0243586D03*
X0068878Y0257166D03*
D47*
X0064520Y0244531D03*
X0064520Y0244495D03*
X0064520Y0244460D03*
X0064485Y0244425D03*
X0064485Y0244390D03*
X0064450Y0244321D03*
X0064450Y0244286D03*
X0064415Y0244216D03*
X0064415Y0244181D03*
X0064380Y0244110D03*
X0064380Y0244075D03*
X0064205Y0243586D03*
X0063435Y0243971D03*
X0063400Y0243936D03*
X0063365Y0243866D03*
X0063365Y0243831D03*
X0063435Y0244040D03*
X0063470Y0244075D03*
X0063470Y0244110D03*
X0063470Y0244145D03*
X0063505Y0244181D03*
X0063680Y0244601D03*
X0063680Y0244636D03*
X0070820Y0243621D03*
X0070820Y0243586D03*
X0077085Y0243621D03*
D48*
X0074075Y0244706D03*
X0072395Y0243656D03*
X0069140Y0244356D03*
X0068895Y0244706D03*
X0063190Y0243656D03*
X0062735Y0244706D03*
D49*
X0063575Y0244356D03*
X0064240Y0243656D03*
X0067145Y0244006D03*
D50*
X0068108Y0244006D03*
X0068108Y0244356D03*
X0068108Y0244706D03*
X0068108Y0243656D03*
X0068983Y0243656D03*
X0069158Y0244006D03*
X0070033Y0244006D03*
X0070033Y0244356D03*
X0070033Y0244706D03*
X0070033Y0243656D03*
X0071643Y0243656D03*
X0071643Y0244006D03*
X0071643Y0244356D03*
X0071643Y0244706D03*
X0072133Y0244006D03*
X0073428Y0244006D03*
X0073428Y0244356D03*
X0073428Y0244706D03*
X0074163Y0244006D03*
X0074163Y0243656D03*
X0073428Y0243656D03*
X0075143Y0243656D03*
X0075143Y0244006D03*
X0075143Y0244356D03*
X0075143Y0244706D03*
X0076298Y0244706D03*
X0076298Y0244356D03*
X0076298Y0244006D03*
X0076298Y0243656D03*
X0077943Y0243656D03*
X0077943Y0244006D03*
X0077943Y0244356D03*
X0077943Y0244706D03*
X0065098Y0243656D03*
X0064853Y0244356D03*
X0063033Y0244006D03*
X0062893Y0244356D03*
D51*
X0065973Y0244356D03*
X0065973Y0244006D03*
X0065973Y0243656D03*
X0067128Y0244356D03*
X0067128Y0244706D03*
X0078573Y0244706D03*
D52*
X0072273Y0244706D03*
X0067023Y0243656D03*
X0066428Y0244356D03*
X0064713Y0244706D03*
D53*
X0070838Y0243656D03*
D54*
X0070715Y0244706D03*
X0077085Y0243656D03*
X0077330Y0244706D03*
X0069385Y0253106D03*
X0064485Y0244356D03*
X0063715Y0244706D03*
X0063435Y0244006D03*
D55*
X0063190Y0243760D03*
X0063190Y0243725D03*
X0064695Y0244636D03*
X0066025Y0244775D03*
X0066060Y0244740D03*
X0066305Y0244495D03*
X0066340Y0244425D03*
X0066375Y0244390D03*
X0066445Y0244321D03*
X0066480Y0244286D03*
X0066515Y0244251D03*
X0066655Y0244075D03*
X0066690Y0244040D03*
X0066760Y0243971D03*
X0066795Y0243936D03*
X0066830Y0243901D03*
X0067005Y0243690D03*
X0068825Y0244740D03*
X0070225Y0254436D03*
X0073305Y0255171D03*
D56*
X0072168Y0244181D03*
X0069018Y0244601D03*
X0069018Y0243690D03*
X0064818Y0244425D03*
X0064818Y0244460D03*
X0064818Y0244495D03*
X0063068Y0243936D03*
X0063068Y0243901D03*
D57*
X0064398Y0244145D03*
X0064433Y0244251D03*
X0070733Y0244566D03*
X0070733Y0244601D03*
X0070733Y0244636D03*
X0070733Y0244671D03*
X0070838Y0243725D03*
X0070838Y0243690D03*
X0077103Y0243690D03*
X0077103Y0243725D03*
X0077138Y0243760D03*
X0077313Y0244636D03*
X0077313Y0244671D03*
D58*
X0070838Y0243760D03*
X0070698Y0244531D03*
X0069403Y0253071D03*
D59*
X0073288Y0255136D03*
X0066148Y0244601D03*
X0066148Y0244566D03*
X0066953Y0243831D03*
D60*
X0066935Y0243866D03*
X0072255Y0251495D03*
X0072255Y0251531D03*
X0072220Y0251601D03*
X0072220Y0251636D03*
X0072185Y0251740D03*
X0072150Y0251810D03*
X0072115Y0251916D03*
X0072080Y0252021D03*
D61*
X0070155Y0253210D03*
X0070330Y0253666D03*
X0069140Y0253386D03*
X0068230Y0244881D03*
X0064695Y0243936D03*
X0073725Y0244145D03*
D62*
X0070628Y0244040D03*
X0070628Y0243971D03*
X0070628Y0243936D03*
X0070628Y0244321D03*
X0070628Y0244390D03*
X0077278Y0244566D03*
X0078608Y0244566D03*
X0078608Y0244601D03*
X0078608Y0244636D03*
X0070208Y0254575D03*
D63*
X0070313Y0253701D03*
X0069158Y0253351D03*
X0064713Y0243971D03*
D64*
X0064713Y0244006D03*
D65*
X0066095Y0244706D03*
X0066725Y0244006D03*
D66*
X0070628Y0244006D03*
X0070628Y0244356D03*
D67*
X0073690Y0244251D03*
X0073690Y0244181D03*
X0064695Y0244040D03*
D68*
X0071870Y0244040D03*
X0071905Y0252721D03*
X0069980Y0253036D03*
X0070295Y0253840D03*
X0070295Y0253875D03*
X0073200Y0257551D03*
D69*
X0070278Y0244216D03*
X0070278Y0244181D03*
X0070278Y0244145D03*
D70*
X0071888Y0244145D03*
X0071888Y0252790D03*
X0070313Y0253771D03*
X0070033Y0253071D03*
X0073218Y0254995D03*
D71*
X0066550Y0244216D03*
X0066585Y0244181D03*
D72*
X0072325Y0244356D03*
X0074075Y0244356D03*
X0069805Y0252756D03*
X0070225Y0254506D03*
D73*
X0062718Y0244775D03*
D74*
X0063733Y0244775D03*
X0069333Y0253140D03*
D75*
X0073148Y0254925D03*
X0073708Y0244775D03*
X0071923Y0244775D03*
X0070313Y0244775D03*
D76*
X0077960Y0244775D03*
X0077960Y0244810D03*
X0077960Y0244845D03*
X0077960Y0244881D03*
X0072955Y0257166D03*
D77*
X0073253Y0255066D03*
X0071923Y0252581D03*
X0071923Y0252545D03*
X0071923Y0252510D03*
X0070278Y0254051D03*
X0062718Y0244881D03*
X0062718Y0244845D03*
X0062718Y0244810D03*
D78*
X0065973Y0244810D03*
D79*
X0067128Y0244810D03*
X0067128Y0244845D03*
X0067128Y0244881D03*
X0069228Y0253245D03*
X0070278Y0254190D03*
X0071958Y0252371D03*
X0071993Y0252301D03*
X0071993Y0252266D03*
X0071993Y0252231D03*
X0072028Y0252195D03*
X0072028Y0252160D03*
X0072028Y0252125D03*
D80*
X0071835Y0253001D03*
X0070400Y0253595D03*
X0068335Y0244810D03*
D81*
X0071800Y0244845D03*
D82*
X0071748Y0244881D03*
X0073533Y0244881D03*
X0071888Y0252860D03*
X0073183Y0257516D03*
D83*
X0070593Y0260106D03*
X0070593Y0260456D03*
X0070593Y0260806D03*
X0070593Y0261156D03*
X0070593Y0261506D03*
X0070593Y0261856D03*
X0070593Y0262206D03*
X0070593Y0248906D03*
X0070593Y0248556D03*
X0070593Y0248206D03*
X0070593Y0247856D03*
X0070593Y0247506D03*
X0070593Y0247156D03*
X0070593Y0246806D03*
X0070593Y0246456D03*
D84*
X0070593Y0246490D03*
X0070593Y0246525D03*
X0070593Y0246560D03*
X0070593Y0246595D03*
X0070593Y0246631D03*
X0070593Y0246666D03*
X0070593Y0246701D03*
X0070593Y0246736D03*
X0070593Y0246771D03*
X0070593Y0246840D03*
X0070593Y0246875D03*
X0070593Y0246910D03*
X0070593Y0246945D03*
X0070593Y0246981D03*
X0070593Y0247016D03*
X0070593Y0247051D03*
X0070593Y0247086D03*
X0070593Y0247121D03*
X0070593Y0247190D03*
X0070593Y0247225D03*
X0070593Y0247260D03*
X0070593Y0247295D03*
X0070593Y0247331D03*
X0070593Y0247366D03*
X0070593Y0247401D03*
X0070593Y0247436D03*
X0070593Y0247471D03*
X0070593Y0247540D03*
X0070593Y0247575D03*
X0070593Y0247610D03*
X0070593Y0247645D03*
X0070593Y0247681D03*
X0070593Y0247716D03*
X0070593Y0247751D03*
X0070593Y0247786D03*
X0070593Y0247821D03*
X0070593Y0247890D03*
X0070593Y0247925D03*
X0070593Y0247960D03*
X0070593Y0247995D03*
X0070593Y0248031D03*
X0070593Y0248066D03*
X0070593Y0248101D03*
X0070593Y0248136D03*
X0070593Y0248171D03*
X0070593Y0248240D03*
X0070593Y0248275D03*
X0070593Y0248310D03*
X0070593Y0248345D03*
X0070593Y0248381D03*
X0070593Y0248416D03*
X0070593Y0248451D03*
X0070593Y0248486D03*
X0070593Y0248521D03*
X0070593Y0248590D03*
X0070593Y0248625D03*
X0070593Y0248660D03*
X0070593Y0248695D03*
X0070593Y0248731D03*
X0070593Y0248766D03*
X0070593Y0248801D03*
X0070593Y0248836D03*
X0070593Y0248871D03*
X0070593Y0260001D03*
X0070593Y0260036D03*
X0070593Y0260071D03*
X0070593Y0260140D03*
X0070593Y0260175D03*
X0070593Y0260210D03*
X0070593Y0260245D03*
X0070593Y0260281D03*
X0070593Y0260316D03*
X0070593Y0260351D03*
X0070593Y0260386D03*
X0070593Y0260421D03*
X0070593Y0260490D03*
X0070593Y0260525D03*
X0070593Y0260560D03*
X0070593Y0260595D03*
X0070593Y0260631D03*
X0070593Y0260666D03*
X0070593Y0260701D03*
X0070593Y0260736D03*
X0070593Y0260771D03*
X0070593Y0260840D03*
X0070593Y0260875D03*
X0070593Y0260910D03*
X0070593Y0260945D03*
X0070593Y0260981D03*
X0070593Y0261016D03*
X0070593Y0261051D03*
X0070593Y0261086D03*
X0070593Y0261121D03*
X0070593Y0261190D03*
X0070593Y0261225D03*
X0070593Y0261260D03*
X0070593Y0261295D03*
X0070593Y0261331D03*
X0070593Y0261366D03*
X0070593Y0261401D03*
X0070593Y0261436D03*
X0070593Y0261471D03*
X0070593Y0261540D03*
X0070593Y0261575D03*
X0070593Y0261610D03*
X0070593Y0261645D03*
X0070593Y0261681D03*
X0070593Y0261716D03*
X0070593Y0261751D03*
X0070593Y0261786D03*
X0070593Y0261821D03*
X0070593Y0261890D03*
X0070593Y0261925D03*
X0070593Y0261960D03*
X0070593Y0261995D03*
X0070593Y0262031D03*
X0070593Y0262066D03*
X0070593Y0262101D03*
X0070593Y0262136D03*
X0070593Y0262171D03*
X0070593Y0262240D03*
X0070593Y0262275D03*
X0070593Y0262310D03*
X0070593Y0262345D03*
X0070593Y0262381D03*
X0070593Y0262416D03*
D85*
X0065868Y0249010D03*
X0065868Y0248975D03*
X0065868Y0248940D03*
X0075318Y0248940D03*
X0075318Y0248975D03*
D86*
X0075335Y0249010D03*
X0075335Y0249045D03*
X0075335Y0249081D03*
X0065850Y0249081D03*
X0065850Y0249116D03*
X0065850Y0249045D03*
D87*
X0065833Y0249151D03*
X0065833Y0249186D03*
X0075353Y0249151D03*
X0075353Y0249116D03*
D88*
X0075370Y0249186D03*
X0075370Y0249221D03*
X0065815Y0249221D03*
D89*
X0065815Y0249256D03*
X0075370Y0249256D03*
D90*
X0075388Y0249290D03*
X0075388Y0249325D03*
X0075388Y0249360D03*
X0065798Y0249360D03*
X0065798Y0249325D03*
X0065798Y0249290D03*
D91*
X0065780Y0249395D03*
X0065780Y0249431D03*
X0075405Y0249431D03*
X0075405Y0249395D03*
D92*
X0075423Y0249466D03*
X0075423Y0249501D03*
X0075423Y0249536D03*
X0065763Y0249536D03*
X0065763Y0249501D03*
X0065763Y0249466D03*
D93*
X0065745Y0249571D03*
X0065745Y0249640D03*
X0075440Y0249640D03*
X0075440Y0249571D03*
D94*
X0075440Y0249606D03*
X0065745Y0249606D03*
D95*
X0065728Y0249675D03*
X0065728Y0249710D03*
X0075458Y0249710D03*
X0075458Y0249675D03*
D96*
X0075475Y0249745D03*
X0075475Y0249781D03*
X0065710Y0249781D03*
X0065710Y0249816D03*
X0065710Y0249745D03*
D97*
X0065693Y0249851D03*
X0065693Y0249886D03*
X0075493Y0249886D03*
X0075493Y0249851D03*
X0075493Y0249816D03*
D98*
X0075510Y0249921D03*
X0065675Y0249921D03*
D99*
X0065675Y0249956D03*
X0075510Y0249956D03*
D100*
X0075528Y0249990D03*
X0075528Y0250025D03*
X0075528Y0250060D03*
X0065658Y0250060D03*
X0065658Y0250025D03*
X0065658Y0249990D03*
D101*
X0065640Y0250095D03*
X0065640Y0250131D03*
X0065640Y0250166D03*
X0075545Y0250166D03*
X0075545Y0250131D03*
X0075545Y0250095D03*
D102*
X0075563Y0250201D03*
X0075563Y0250236D03*
X0065623Y0250236D03*
X0065623Y0250201D03*
D103*
X0065605Y0250271D03*
X0065605Y0250340D03*
X0075580Y0250340D03*
X0075580Y0250271D03*
D104*
X0075580Y0250306D03*
X0065605Y0250306D03*
D105*
X0065588Y0250375D03*
X0065588Y0250410D03*
X0075598Y0250410D03*
X0075598Y0250375D03*
D106*
X0075615Y0250445D03*
X0075615Y0250481D03*
X0075615Y0250516D03*
X0065570Y0250516D03*
X0065570Y0250481D03*
X0065570Y0250445D03*
D107*
X0065553Y0250551D03*
X0065553Y0250586D03*
X0075633Y0250586D03*
X0075633Y0250551D03*
D108*
X0075650Y0250621D03*
X0075650Y0250690D03*
X0065535Y0250690D03*
X0065535Y0250621D03*
D109*
X0065535Y0250656D03*
X0075650Y0250656D03*
D110*
X0075668Y0250725D03*
X0075668Y0250760D03*
X0075668Y0250795D03*
X0065518Y0250795D03*
X0065518Y0250760D03*
X0065518Y0250725D03*
D111*
X0065500Y0250831D03*
X0065500Y0250866D03*
X0075685Y0250866D03*
X0075685Y0250831D03*
D112*
X0075703Y0250901D03*
X0075703Y0250936D03*
X0075703Y0250971D03*
X0065483Y0250971D03*
X0065483Y0250936D03*
X0065483Y0250901D03*
D113*
X0065465Y0251006D03*
X0075720Y0251006D03*
D114*
X0075720Y0251040D03*
X0065465Y0251040D03*
D115*
X0065448Y0251075D03*
X0065448Y0251110D03*
X0065448Y0251145D03*
X0075738Y0251145D03*
X0075738Y0251110D03*
X0075738Y0251075D03*
D116*
X0075755Y0251181D03*
X0075755Y0251216D03*
X0065430Y0251216D03*
X0065430Y0251181D03*
D117*
X0065413Y0251251D03*
X0065413Y0251286D03*
X0065413Y0251321D03*
X0075773Y0251321D03*
X0075773Y0251286D03*
X0075773Y0251251D03*
D118*
X0075790Y0251356D03*
X0065395Y0251356D03*
D119*
X0065395Y0251390D03*
X0075790Y0251390D03*
X0075790Y0251425D03*
D120*
X0075808Y0251460D03*
X0075808Y0251495D03*
X0065378Y0251495D03*
X0065378Y0251460D03*
X0065378Y0251425D03*
D121*
X0069875Y0252860D03*
X0069875Y0252895D03*
X0070260Y0254225D03*
X0070260Y0254260D03*
X0072045Y0252090D03*
X0072290Y0251425D03*
D122*
X0075825Y0251531D03*
X0075825Y0251566D03*
X0065360Y0251566D03*
X0065360Y0251601D03*
X0065360Y0251531D03*
D123*
X0065343Y0251636D03*
X0065343Y0251671D03*
X0075843Y0251671D03*
X0075843Y0251636D03*
X0075843Y0251601D03*
D124*
X0075860Y0251706D03*
X0065325Y0251706D03*
D125*
X0072185Y0251706D03*
D126*
X0075860Y0251740D03*
X0075860Y0251775D03*
X0065325Y0251775D03*
X0065325Y0251740D03*
D127*
X0065308Y0251810D03*
X0065308Y0251845D03*
X0075878Y0251845D03*
X0075878Y0251810D03*
D128*
X0075895Y0251881D03*
X0075895Y0251916D03*
X0075895Y0251951D03*
X0065290Y0251951D03*
X0065290Y0251916D03*
X0065290Y0251881D03*
D129*
X0065273Y0251986D03*
X0065273Y0252021D03*
X0075913Y0252021D03*
X0075913Y0251986D03*
D130*
X0065255Y0252056D03*
D131*
X0072063Y0252056D03*
D132*
X0075913Y0252056D03*
D133*
X0075930Y0252090D03*
X0075930Y0252125D03*
X0065255Y0252125D03*
X0065255Y0252090D03*
D134*
X0065238Y0252160D03*
X0065238Y0252195D03*
X0065238Y0252231D03*
X0075948Y0252195D03*
X0075948Y0252160D03*
D135*
X0075965Y0252231D03*
X0075965Y0252266D03*
X0075965Y0252301D03*
X0065220Y0252301D03*
X0065220Y0252266D03*
D136*
X0065203Y0252336D03*
X0065203Y0252371D03*
X0075983Y0252371D03*
X0075983Y0252336D03*
D137*
X0071975Y0252336D03*
X0069910Y0252931D03*
D138*
X0065185Y0252406D03*
X0076000Y0252406D03*
D139*
X0071940Y0252406D03*
D140*
X0076000Y0252440D03*
X0076000Y0252475D03*
X0065185Y0252475D03*
X0065185Y0252440D03*
D141*
X0065168Y0252510D03*
X0065168Y0252545D03*
X0065168Y0252581D03*
X0076018Y0252581D03*
X0076018Y0252545D03*
X0076018Y0252510D03*
D142*
X0076035Y0252616D03*
X0076035Y0252651D03*
X0076035Y0252686D03*
X0065150Y0252651D03*
X0065150Y0252616D03*
D143*
X0065133Y0252686D03*
X0065133Y0252721D03*
X0076053Y0252721D03*
D144*
X0076053Y0252756D03*
X0065133Y0252756D03*
D145*
X0071905Y0252756D03*
D146*
X0076070Y0252790D03*
X0076070Y0252825D03*
X0065115Y0252825D03*
X0065115Y0252790D03*
X0065115Y0252860D03*
D147*
X0070085Y0253140D03*
X0070330Y0253736D03*
X0071905Y0252825D03*
X0073200Y0254960D03*
X0068965Y0257060D03*
D148*
X0065098Y0252931D03*
X0065098Y0252895D03*
X0076088Y0252895D03*
X0076088Y0252860D03*
X0076088Y0252931D03*
D149*
X0076105Y0252966D03*
X0076105Y0253001D03*
X0065080Y0253001D03*
X0065080Y0252966D03*
D150*
X0065063Y0253036D03*
X0065063Y0253071D03*
X0076123Y0253071D03*
X0076123Y0253036D03*
D151*
X0071818Y0253036D03*
X0070453Y0253560D03*
D152*
X0069123Y0253840D03*
X0069123Y0253875D03*
X0069123Y0253910D03*
X0069123Y0253945D03*
X0071783Y0253071D03*
X0069123Y0256921D03*
D153*
X0065063Y0253106D03*
X0076123Y0253106D03*
D154*
X0070050Y0253106D03*
D155*
X0071748Y0253106D03*
D156*
X0076140Y0253140D03*
X0076140Y0253175D03*
X0076140Y0253210D03*
X0070925Y0256571D03*
X0065045Y0253210D03*
X0065045Y0253175D03*
X0065045Y0253140D03*
D157*
X0071713Y0253140D03*
X0071013Y0257060D03*
D158*
X0070890Y0257481D03*
X0071660Y0253175D03*
D159*
X0071608Y0253210D03*
X0072063Y0253771D03*
X0071538Y0254960D03*
X0077663Y0259266D03*
D160*
X0070908Y0256536D03*
X0070908Y0256501D03*
X0076158Y0253281D03*
X0076158Y0253245D03*
X0065028Y0253245D03*
X0065028Y0253281D03*
D161*
X0071118Y0253245D03*
X0071153Y0253281D03*
X0070698Y0258145D03*
X0077173Y0258390D03*
X0077173Y0258425D03*
X0064013Y0258390D03*
D162*
X0065010Y0253386D03*
X0065010Y0253351D03*
X0065010Y0253316D03*
X0076175Y0253316D03*
X0076175Y0253351D03*
X0076175Y0253386D03*
D163*
X0069175Y0253316D03*
D164*
X0071170Y0253316D03*
X0071205Y0253351D03*
X0071205Y0253386D03*
X0071240Y0253421D03*
X0072185Y0254716D03*
X0072185Y0254751D03*
X0071100Y0255590D03*
X0077155Y0258286D03*
X0077155Y0258321D03*
X0064030Y0258321D03*
X0064030Y0258286D03*
D165*
X0064993Y0253421D03*
X0076193Y0253421D03*
D166*
X0076193Y0253456D03*
X0064993Y0253456D03*
D167*
X0069123Y0253456D03*
D168*
X0071258Y0253456D03*
D169*
X0070890Y0256431D03*
X0070890Y0256466D03*
X0076210Y0253560D03*
X0076210Y0253525D03*
X0076210Y0253490D03*
X0064975Y0253490D03*
X0064975Y0253525D03*
D170*
X0071275Y0253490D03*
D171*
X0070505Y0253525D03*
X0069140Y0253981D03*
X0069140Y0254016D03*
X0069140Y0254051D03*
X0069140Y0254086D03*
X0069140Y0254121D03*
D172*
X0069193Y0256851D03*
X0070978Y0257131D03*
X0070978Y0257166D03*
X0071993Y0253525D03*
D173*
X0076228Y0253595D03*
X0076228Y0253631D03*
X0076228Y0253666D03*
X0064958Y0253631D03*
X0064958Y0253595D03*
X0064958Y0253560D03*
D174*
X0071993Y0253560D03*
X0070943Y0257340D03*
D175*
X0070925Y0257375D03*
X0070925Y0257410D03*
X0072010Y0253595D03*
D176*
X0069245Y0254331D03*
X0069105Y0253701D03*
X0069105Y0253666D03*
X0069105Y0253631D03*
D177*
X0072028Y0253631D03*
X0070908Y0257445D03*
D178*
X0070890Y0256395D03*
X0076245Y0253736D03*
X0076245Y0253701D03*
X0064940Y0253701D03*
X0064940Y0253736D03*
X0064940Y0253666D03*
D179*
X0070873Y0257516D03*
X0072028Y0253666D03*
D180*
X0072045Y0253701D03*
D181*
X0069228Y0254295D03*
X0069123Y0253736D03*
X0073043Y0257271D03*
D182*
X0070855Y0257586D03*
X0072045Y0253736D03*
D183*
X0070873Y0256360D03*
X0076263Y0253840D03*
X0076263Y0253771D03*
X0064923Y0253771D03*
X0064923Y0253840D03*
D184*
X0069105Y0253771D03*
D185*
X0064923Y0253806D03*
X0076263Y0253806D03*
D186*
X0069123Y0253806D03*
D187*
X0070313Y0253806D03*
D188*
X0072080Y0253806D03*
X0070855Y0257656D03*
D189*
X0072063Y0253840D03*
D190*
X0076280Y0253875D03*
X0076280Y0253910D03*
X0076280Y0253945D03*
X0064905Y0253910D03*
X0064905Y0253875D03*
D191*
X0071450Y0255101D03*
X0072080Y0253875D03*
D192*
X0072098Y0253910D03*
X0071433Y0255136D03*
D193*
X0070873Y0256325D03*
X0076298Y0253981D03*
X0064888Y0253981D03*
X0064888Y0254016D03*
X0064888Y0253945D03*
D194*
X0063628Y0259231D03*
X0070803Y0257760D03*
X0072098Y0253945D03*
D195*
X0072115Y0253981D03*
X0077540Y0259195D03*
D196*
X0070803Y0257795D03*
X0071363Y0255240D03*
X0072133Y0254016D03*
X0063663Y0259195D03*
D197*
X0064870Y0254086D03*
X0064870Y0254051D03*
X0076315Y0254051D03*
X0076315Y0254086D03*
X0076315Y0254016D03*
D198*
X0072133Y0254051D03*
X0070733Y0259336D03*
X0063698Y0259160D03*
D199*
X0070785Y0257831D03*
X0072150Y0254121D03*
X0072150Y0254086D03*
X0077470Y0259125D03*
D200*
X0076333Y0254190D03*
X0076333Y0254121D03*
X0070873Y0256290D03*
X0064853Y0254121D03*
D201*
X0064853Y0254156D03*
X0076333Y0254156D03*
D202*
X0077943Y0259406D03*
X0077943Y0259756D03*
X0069158Y0254156D03*
X0063243Y0259406D03*
X0063243Y0259756D03*
D203*
X0070278Y0254156D03*
D204*
X0072168Y0254156D03*
X0063768Y0259056D03*
D205*
X0064835Y0254260D03*
X0064835Y0254225D03*
X0064835Y0254190D03*
X0076350Y0254225D03*
X0076350Y0254260D03*
D206*
X0073008Y0257236D03*
X0069193Y0254225D03*
X0069193Y0254190D03*
X0063243Y0259371D03*
X0063243Y0259440D03*
X0063243Y0259475D03*
X0063243Y0259510D03*
X0063243Y0259545D03*
X0063243Y0259581D03*
X0063243Y0259616D03*
X0063243Y0259651D03*
X0063243Y0259686D03*
X0063243Y0259721D03*
X0063243Y0259790D03*
X0063243Y0259825D03*
X0063243Y0259860D03*
X0063243Y0259895D03*
X0063243Y0259931D03*
X0063243Y0259966D03*
X0077943Y0259966D03*
X0077943Y0259931D03*
X0077943Y0259895D03*
X0077943Y0259860D03*
X0077943Y0259825D03*
X0077943Y0259790D03*
X0077943Y0259721D03*
X0077943Y0259686D03*
X0077943Y0259651D03*
X0077943Y0259616D03*
X0077943Y0259581D03*
X0077943Y0259545D03*
X0077943Y0259510D03*
X0077943Y0259475D03*
X0077943Y0259440D03*
X0077943Y0259371D03*
X0077943Y0259336D03*
D207*
X0070768Y0257901D03*
X0072168Y0254190D03*
D208*
X0072168Y0254225D03*
X0070768Y0257936D03*
D209*
X0069210Y0254260D03*
D210*
X0071240Y0255416D03*
X0072185Y0254295D03*
X0072185Y0254260D03*
X0077365Y0258951D03*
X0063820Y0258951D03*
X0063820Y0258986D03*
D211*
X0064818Y0254366D03*
X0064818Y0254331D03*
X0064818Y0254295D03*
X0076368Y0254295D03*
X0076368Y0254331D03*
X0076368Y0254366D03*
D212*
X0072185Y0254366D03*
X0072185Y0254331D03*
D213*
X0076385Y0254401D03*
X0076385Y0254436D03*
X0076385Y0254471D03*
X0064800Y0254436D03*
X0064800Y0254401D03*
D214*
X0072185Y0254401D03*
D215*
X0072203Y0254436D03*
X0072203Y0254471D03*
X0071188Y0255486D03*
X0070733Y0258040D03*
D216*
X0076403Y0254575D03*
X0076403Y0254540D03*
X0064783Y0254540D03*
X0064783Y0254471D03*
D217*
X0064783Y0254506D03*
X0076403Y0254506D03*
D218*
X0069228Y0254506D03*
D219*
X0072185Y0254506D03*
D220*
X0072203Y0254540D03*
D221*
X0076420Y0254610D03*
X0064765Y0254610D03*
X0064765Y0254575D03*
X0064765Y0254645D03*
D222*
X0063978Y0258495D03*
X0063978Y0258531D03*
X0070698Y0258110D03*
X0072203Y0254610D03*
X0072203Y0254575D03*
X0077208Y0258495D03*
X0077208Y0258531D03*
D223*
X0077190Y0258460D03*
X0072185Y0254681D03*
X0072185Y0254645D03*
X0063995Y0258425D03*
X0063995Y0258460D03*
D224*
X0064748Y0254681D03*
X0070873Y0256151D03*
X0076438Y0254716D03*
X0076438Y0254681D03*
X0076438Y0254645D03*
D225*
X0076455Y0254751D03*
X0076455Y0254786D03*
X0076455Y0254821D03*
X0064730Y0254786D03*
X0064730Y0254751D03*
X0064730Y0254716D03*
D226*
X0064048Y0258216D03*
X0064048Y0258251D03*
X0070698Y0258181D03*
X0072168Y0254821D03*
X0072168Y0254786D03*
X0077138Y0258251D03*
D227*
X0076473Y0254890D03*
X0070873Y0256116D03*
X0064713Y0254890D03*
X0064713Y0254821D03*
D228*
X0064713Y0254856D03*
X0076473Y0254856D03*
D229*
X0072150Y0254856D03*
D230*
X0072133Y0254890D03*
X0071083Y0255625D03*
X0070698Y0258216D03*
X0077103Y0258145D03*
X0077103Y0258110D03*
X0077103Y0258075D03*
X0064083Y0258075D03*
X0064083Y0258040D03*
X0064083Y0258110D03*
D231*
X0064695Y0254960D03*
X0064695Y0254925D03*
X0076490Y0254925D03*
X0076490Y0254960D03*
X0076490Y0254995D03*
D232*
X0071590Y0254925D03*
X0070855Y0257621D03*
D233*
X0076508Y0255101D03*
X0076508Y0255066D03*
X0076508Y0255031D03*
X0064678Y0255031D03*
X0064678Y0255066D03*
X0064678Y0254995D03*
D234*
X0071485Y0255031D03*
X0071520Y0254995D03*
D235*
X0071468Y0255066D03*
X0070838Y0257690D03*
D236*
X0076525Y0255171D03*
X0076525Y0255136D03*
X0064660Y0255136D03*
X0064660Y0255171D03*
X0064660Y0255101D03*
D237*
X0070820Y0257725D03*
X0071415Y0255171D03*
D238*
X0076543Y0255206D03*
X0064643Y0255206D03*
D239*
X0071380Y0255206D03*
D240*
X0073323Y0255206D03*
D241*
X0076543Y0255240D03*
X0064643Y0255240D03*
X0064643Y0255275D03*
D242*
X0071345Y0255275D03*
X0077505Y0259160D03*
D243*
X0076560Y0255345D03*
X0076560Y0255310D03*
X0076560Y0255275D03*
X0070890Y0256045D03*
X0064625Y0255310D03*
D244*
X0071310Y0255310D03*
D245*
X0076578Y0255381D03*
X0076578Y0255416D03*
X0076578Y0255451D03*
X0064608Y0255416D03*
X0064608Y0255381D03*
X0064608Y0255345D03*
D246*
X0071293Y0255345D03*
D247*
X0071275Y0255381D03*
D248*
X0070890Y0256010D03*
X0076595Y0255521D03*
X0076595Y0255486D03*
X0064590Y0255486D03*
X0064590Y0255521D03*
X0064590Y0255451D03*
D249*
X0063855Y0258881D03*
X0071205Y0255451D03*
X0077330Y0258881D03*
D250*
X0071170Y0255521D03*
D251*
X0076613Y0255556D03*
X0064573Y0255556D03*
D252*
X0071153Y0255556D03*
D253*
X0076613Y0255590D03*
X0076613Y0255625D03*
X0064573Y0255590D03*
D254*
X0064555Y0255625D03*
X0064555Y0255660D03*
X0064555Y0255695D03*
X0070890Y0255975D03*
X0076630Y0255731D03*
X0076630Y0255695D03*
X0076630Y0255660D03*
D255*
X0071065Y0255660D03*
D256*
X0071048Y0255695D03*
X0070663Y0258321D03*
X0076998Y0257586D03*
X0076998Y0257551D03*
X0064188Y0257551D03*
X0064188Y0257586D03*
X0064188Y0257516D03*
D257*
X0064538Y0255801D03*
X0064538Y0255766D03*
X0064538Y0255731D03*
X0076648Y0255766D03*
X0076648Y0255801D03*
D258*
X0076928Y0257166D03*
X0076928Y0257201D03*
X0076928Y0257236D03*
X0071013Y0255731D03*
X0070663Y0258390D03*
X0070628Y0259266D03*
X0064258Y0257201D03*
X0064258Y0257166D03*
X0064258Y0257131D03*
D259*
X0064275Y0257095D03*
X0064275Y0257060D03*
X0070645Y0258425D03*
X0070995Y0255766D03*
X0076910Y0257060D03*
X0076910Y0257095D03*
X0076910Y0257131D03*
D260*
X0076858Y0256886D03*
X0076858Y0256851D03*
X0076858Y0256816D03*
X0070978Y0255801D03*
X0070663Y0258495D03*
X0070628Y0259231D03*
X0064328Y0256851D03*
X0064328Y0256816D03*
X0064328Y0256781D03*
D261*
X0064520Y0255836D03*
X0070890Y0255940D03*
X0070645Y0258810D03*
X0070645Y0258845D03*
X0070645Y0258881D03*
X0070645Y0258916D03*
X0070645Y0258951D03*
X0070645Y0258986D03*
X0070645Y0259021D03*
X0076665Y0255871D03*
X0076665Y0255836D03*
D262*
X0070960Y0255836D03*
D263*
X0070663Y0258775D03*
X0076683Y0255975D03*
X0076683Y0255940D03*
X0064503Y0255940D03*
X0064503Y0255871D03*
D264*
X0070925Y0255871D03*
D265*
X0076683Y0255906D03*
X0064503Y0255906D03*
D266*
X0070908Y0255906D03*
X0070663Y0258706D03*
D267*
X0076700Y0256081D03*
X0076700Y0256045D03*
X0076700Y0256010D03*
X0064485Y0256010D03*
X0064485Y0255975D03*
X0064485Y0256045D03*
D268*
X0064468Y0256081D03*
X0064468Y0256116D03*
X0076718Y0256116D03*
X0076718Y0256151D03*
D269*
X0070890Y0256081D03*
D270*
X0076735Y0256186D03*
X0076735Y0256221D03*
X0064450Y0256221D03*
X0064450Y0256186D03*
X0064450Y0256151D03*
D271*
X0070873Y0256186D03*
X0070873Y0256221D03*
D272*
X0064433Y0256256D03*
D273*
X0070873Y0256256D03*
D274*
X0076735Y0256256D03*
D275*
X0076753Y0256290D03*
X0076753Y0256325D03*
X0076753Y0256360D03*
X0064433Y0256325D03*
X0064433Y0256290D03*
D276*
X0064415Y0256360D03*
X0064415Y0256395D03*
X0076770Y0256395D03*
X0076770Y0256431D03*
D277*
X0076788Y0256466D03*
X0076788Y0256501D03*
X0070663Y0258566D03*
X0070663Y0258601D03*
X0064398Y0256466D03*
X0064398Y0256431D03*
D278*
X0064380Y0256501D03*
X0064380Y0256536D03*
X0064380Y0256571D03*
X0076805Y0256571D03*
X0076805Y0256536D03*
D279*
X0064363Y0256606D03*
D280*
X0070925Y0256606D03*
D281*
X0076805Y0256606D03*
D282*
X0076823Y0256640D03*
X0076823Y0256675D03*
X0076823Y0256710D03*
X0070663Y0258531D03*
X0064363Y0256675D03*
X0064363Y0256640D03*
D283*
X0070943Y0256640D03*
X0070943Y0256675D03*
D284*
X0076840Y0256745D03*
X0076840Y0256781D03*
X0064345Y0256745D03*
X0064345Y0256710D03*
D285*
X0070960Y0256710D03*
X0070960Y0256745D03*
D286*
X0070978Y0256781D03*
X0070978Y0256816D03*
D287*
X0071835Y0256851D03*
X0070680Y0258460D03*
D288*
X0076875Y0256990D03*
X0076875Y0256921D03*
X0064310Y0256921D03*
X0064310Y0256886D03*
D289*
X0069158Y0256886D03*
X0072973Y0257201D03*
D290*
X0071923Y0256990D03*
X0071888Y0256886D03*
D291*
X0071905Y0256921D03*
D292*
X0076875Y0256956D03*
X0064310Y0256956D03*
D293*
X0069070Y0256956D03*
D294*
X0071905Y0256956D03*
D295*
X0076893Y0257025D03*
X0064293Y0257025D03*
X0064293Y0256990D03*
D296*
X0069018Y0257025D03*
D297*
X0071030Y0257025D03*
X0072850Y0257025D03*
D298*
X0072885Y0257060D03*
D299*
X0070995Y0257095D03*
X0070960Y0257201D03*
X0070960Y0257236D03*
X0070960Y0257271D03*
X0070575Y0259371D03*
X0070575Y0259440D03*
X0070575Y0259475D03*
X0070575Y0259510D03*
X0070575Y0259545D03*
X0070575Y0259581D03*
X0070575Y0259616D03*
X0070575Y0259651D03*
X0070575Y0259686D03*
X0070575Y0259721D03*
X0070575Y0259790D03*
X0070575Y0259825D03*
X0070575Y0259860D03*
X0070575Y0259895D03*
X0070575Y0259931D03*
X0070575Y0259966D03*
D300*
X0072938Y0257131D03*
X0072903Y0257095D03*
X0063313Y0259336D03*
D301*
X0064240Y0257271D03*
X0064240Y0257236D03*
X0076945Y0257271D03*
D302*
X0076945Y0257306D03*
X0064240Y0257306D03*
D303*
X0070943Y0257306D03*
D304*
X0073060Y0257306D03*
D305*
X0076963Y0257340D03*
X0076963Y0257375D03*
X0076963Y0257410D03*
X0064223Y0257375D03*
X0064223Y0257340D03*
D306*
X0064205Y0257410D03*
X0064205Y0257445D03*
X0064205Y0257481D03*
X0076980Y0257481D03*
X0076980Y0257516D03*
X0076980Y0257445D03*
D307*
X0070873Y0257551D03*
X0063488Y0259301D03*
D308*
X0064170Y0257621D03*
X0077015Y0257621D03*
D309*
X0077015Y0257656D03*
X0064170Y0257656D03*
D310*
X0073253Y0257656D03*
D311*
X0070663Y0258286D03*
X0077033Y0257760D03*
X0077033Y0257725D03*
X0077033Y0257690D03*
X0064153Y0257690D03*
X0064153Y0257725D03*
D312*
X0073253Y0257690D03*
D313*
X0077050Y0257795D03*
X0077050Y0257831D03*
X0064135Y0257831D03*
X0064135Y0257795D03*
X0064135Y0257760D03*
D314*
X0064118Y0257866D03*
X0064118Y0257901D03*
X0064118Y0257936D03*
X0077068Y0257936D03*
X0077068Y0257901D03*
X0077068Y0257866D03*
D315*
X0077453Y0259090D03*
X0070768Y0257866D03*
X0063733Y0259125D03*
D316*
X0064100Y0257971D03*
X0077085Y0257971D03*
X0077085Y0258040D03*
D317*
X0077348Y0258916D03*
X0070733Y0257971D03*
X0063838Y0258916D03*
D318*
X0064100Y0258006D03*
X0077085Y0258006D03*
D319*
X0070733Y0258006D03*
D320*
X0070715Y0258075D03*
D321*
X0077120Y0258181D03*
X0077120Y0258216D03*
X0064065Y0258181D03*
X0064065Y0258145D03*
D322*
X0070698Y0258251D03*
D323*
X0064013Y0258356D03*
D324*
X0070680Y0258356D03*
D325*
X0077155Y0258356D03*
D326*
X0077225Y0258566D03*
X0077225Y0258601D03*
X0063960Y0258601D03*
X0063960Y0258566D03*
D327*
X0063943Y0258636D03*
X0063943Y0258671D03*
X0077243Y0258671D03*
X0077243Y0258636D03*
D328*
X0070663Y0258636D03*
X0070628Y0259160D03*
D329*
X0070645Y0258671D03*
D330*
X0077260Y0258706D03*
X0063925Y0258706D03*
D331*
X0063908Y0258740D03*
X0077278Y0258740D03*
D332*
X0070645Y0258740D03*
X0070645Y0259090D03*
D333*
X0077295Y0258775D03*
X0063890Y0258775D03*
X0063890Y0258810D03*
D334*
X0063873Y0258845D03*
X0077313Y0258845D03*
X0077313Y0258810D03*
D335*
X0077383Y0258986D03*
D336*
X0077400Y0259021D03*
X0063785Y0259021D03*
D337*
X0070645Y0259056D03*
D338*
X0077435Y0259056D03*
D339*
X0063750Y0259090D03*
D340*
X0070628Y0259125D03*
D341*
X0070628Y0259195D03*
D342*
X0077593Y0259231D03*
D343*
X0063575Y0259266D03*
D344*
X0070610Y0259301D03*
D345*
X0077785Y0259301D03*
D346*
X0070575Y0259406D03*
X0070575Y0259756D03*
D347*
X0211245Y0125433D03*
X0211245Y0110433D03*
D348*
X0211245Y0110533D03*
X0211245Y0125333D03*
D349*
X0211245Y0125233D03*
X0211245Y0110633D03*
D350*
X0211245Y0110733D03*
X0211245Y0125133D03*
D351*
X0211245Y0125033D03*
X0211245Y0110833D03*
D352*
X0211245Y0110933D03*
X0211245Y0124933D03*
D353*
X0211195Y0124833D03*
X0211195Y0111033D03*
D354*
X0211195Y0111133D03*
X0211195Y0124733D03*
D355*
X0211195Y0124633D03*
X0211195Y0111233D03*
D356*
X0211195Y0111333D03*
X0211195Y0124533D03*
D357*
X0211195Y0124433D03*
X0211195Y0111433D03*
D358*
X0211195Y0111533D03*
X0211195Y0124333D03*
D359*
X0211195Y0124233D03*
X0211195Y0111633D03*
D360*
X0211195Y0111733D03*
X0211195Y0124133D03*
D361*
X0211145Y0124033D03*
X0211145Y0111833D03*
D362*
X0211145Y0111933D03*
X0211145Y0123933D03*
D363*
X0211195Y0123833D03*
X0211195Y0112033D03*
D364*
X0211195Y0112133D03*
X0211195Y0123733D03*
D365*
X0211195Y0123633D03*
X0211195Y0112233D03*
D366*
X0211195Y0112333D03*
X0211195Y0123533D03*
D367*
X0211195Y0123433D03*
X0211195Y0112433D03*
D368*
X0211145Y0112533D03*
X0211145Y0123333D03*
D369*
X0216745Y0112733D03*
X0194745Y0114833D03*
X0191245Y0112633D03*
X0194745Y0120533D03*
X0190645Y0122533D03*
X0238845Y0122033D03*
X0238945Y0122133D03*
X0267045Y0129533D03*
X0267045Y0129633D03*
X0267045Y0129733D03*
D370*
X0204045Y0112633D03*
D371*
X0221395Y0112633D03*
X0221595Y0122833D03*
D372*
X0226195Y0122633D03*
X0216895Y0122633D03*
X0231195Y0112633D03*
X0239095Y0122333D03*
X0244595Y0120733D03*
X0244595Y0120633D03*
X0266895Y0130233D03*
X0266895Y0130333D03*
X0194895Y0120833D03*
X0190295Y0122233D03*
X0190195Y0122133D03*
X0194895Y0114633D03*
X0190995Y0112733D03*
D373*
X0203395Y0112733D03*
X0203395Y0112833D03*
X0203395Y0112933D03*
X0203395Y0113033D03*
X0203395Y0113133D03*
X0203395Y0113233D03*
X0203395Y0113333D03*
X0203395Y0113433D03*
X0203395Y0113533D03*
X0203395Y0113633D03*
X0203395Y0113733D03*
X0203395Y0113833D03*
X0203395Y0113933D03*
X0203395Y0114033D03*
X0203395Y0114133D03*
X0203395Y0114233D03*
X0203395Y0114333D03*
X0203395Y0114433D03*
X0203395Y0114533D03*
X0203395Y0114633D03*
X0203395Y0114733D03*
X0203395Y0114833D03*
X0203395Y0114933D03*
X0203395Y0115033D03*
X0203395Y0115133D03*
X0203395Y0115233D03*
X0203395Y0115333D03*
X0203395Y0115433D03*
X0203395Y0115533D03*
X0203395Y0115633D03*
X0203395Y0115733D03*
X0203395Y0115833D03*
X0203395Y0115933D03*
X0203395Y0116033D03*
X0203395Y0116133D03*
X0203395Y0116233D03*
X0203395Y0116333D03*
X0203395Y0116433D03*
X0203395Y0116533D03*
X0203395Y0116633D03*
X0203395Y0116733D03*
X0203395Y0116833D03*
X0203395Y0116933D03*
X0203395Y0117033D03*
X0203395Y0117133D03*
X0203395Y0117233D03*
X0203395Y0117333D03*
X0203395Y0117433D03*
X0203395Y0117533D03*
X0203395Y0117633D03*
X0203395Y0117733D03*
X0203395Y0117833D03*
X0203395Y0117933D03*
X0203395Y0118033D03*
X0203395Y0118133D03*
X0203395Y0118233D03*
X0203395Y0118333D03*
X0203395Y0118433D03*
X0203395Y0118533D03*
X0203395Y0118633D03*
X0203395Y0118733D03*
X0203395Y0118833D03*
X0203395Y0118933D03*
X0203395Y0119033D03*
X0203395Y0119133D03*
X0203395Y0119233D03*
X0203395Y0119333D03*
X0203395Y0119433D03*
X0203395Y0119533D03*
X0203395Y0119633D03*
X0203395Y0119733D03*
X0203395Y0119833D03*
X0203395Y0119933D03*
X0203395Y0120033D03*
X0203395Y0120133D03*
X0203395Y0120233D03*
X0203395Y0120333D03*
X0203395Y0120433D03*
X0203395Y0120533D03*
X0203395Y0120633D03*
X0203395Y0120733D03*
X0203395Y0120833D03*
X0203395Y0120933D03*
X0203395Y0121033D03*
X0203395Y0121133D03*
X0203395Y0121233D03*
X0203395Y0121333D03*
X0203395Y0121433D03*
X0203395Y0121533D03*
X0203395Y0121633D03*
X0203395Y0121733D03*
X0203395Y0121833D03*
X0203395Y0121933D03*
X0203395Y0122033D03*
X0203395Y0122133D03*
X0203395Y0122233D03*
X0203395Y0122333D03*
X0203395Y0122433D03*
X0203395Y0122533D03*
X0210495Y0121133D03*
X0209795Y0117833D03*
X0209895Y0116833D03*
X0210595Y0114133D03*
X0210695Y0113933D03*
X0210695Y0113833D03*
X0207095Y0113233D03*
X0207095Y0113133D03*
X0207095Y0113033D03*
X0207095Y0112933D03*
X0217695Y0114933D03*
X0217695Y0115033D03*
X0217695Y0115133D03*
X0221095Y0114633D03*
X0221095Y0114533D03*
X0225395Y0114533D03*
X0225395Y0114433D03*
X0225395Y0120733D03*
X0225395Y0120833D03*
X0225395Y0120933D03*
X0221995Y0120833D03*
X0221995Y0120733D03*
X0217695Y0120633D03*
X0217695Y0120533D03*
X0217695Y0120433D03*
X0213995Y0120333D03*
X0228995Y0120333D03*
X0239195Y0112633D03*
X0242995Y0116733D03*
X0242995Y0116833D03*
X0242995Y0116933D03*
X0243095Y0117233D03*
X0243095Y0117333D03*
X0243095Y0117433D03*
X0243095Y0117533D03*
X0243195Y0117633D03*
X0243195Y0117733D03*
X0243195Y0117833D03*
X0243195Y0117933D03*
X0243195Y0118033D03*
X0243295Y0118133D03*
X0243295Y0118233D03*
X0243295Y0118333D03*
X0243295Y0118433D03*
X0243295Y0118533D03*
X0243395Y0118733D03*
X0243395Y0118833D03*
X0243395Y0118933D03*
X0243495Y0119333D03*
X0243495Y0119433D03*
X0245495Y0119933D03*
X0245495Y0120033D03*
X0245495Y0120133D03*
X0245495Y0120233D03*
X0245595Y0119633D03*
X0245595Y0119533D03*
X0245595Y0119433D03*
X0245595Y0119333D03*
X0245595Y0119233D03*
X0245695Y0119133D03*
X0245695Y0119033D03*
X0245695Y0118933D03*
X0245695Y0118833D03*
X0245695Y0118733D03*
X0245795Y0118433D03*
X0245795Y0118333D03*
X0245795Y0118233D03*
X0245895Y0117833D03*
X0245895Y0117733D03*
X0260895Y0124833D03*
X0260995Y0124733D03*
X0261095Y0124633D03*
X0265295Y0124633D03*
X0269595Y0124633D03*
X0269695Y0131833D03*
X0269595Y0131933D03*
X0269495Y0132033D03*
X0266095Y0131733D03*
X0261195Y0132133D03*
X0261095Y0132033D03*
X0260995Y0131933D03*
D374*
X0259895Y0129933D03*
X0259895Y0129833D03*
X0259795Y0129633D03*
X0259795Y0129533D03*
X0259795Y0129433D03*
X0259795Y0129333D03*
X0259695Y0129133D03*
X0259695Y0129033D03*
X0259695Y0128933D03*
X0259695Y0128833D03*
X0259695Y0128733D03*
X0259695Y0128633D03*
X0259695Y0128533D03*
X0259695Y0128433D03*
X0259695Y0128333D03*
X0259695Y0128233D03*
X0259695Y0128133D03*
X0259695Y0128033D03*
X0259695Y0127933D03*
X0259695Y0127833D03*
X0259695Y0127733D03*
X0259695Y0127633D03*
X0259695Y0127533D03*
X0259695Y0127433D03*
X0259795Y0127333D03*
X0259795Y0127233D03*
X0259795Y0127133D03*
X0259795Y0127033D03*
X0259895Y0126833D03*
X0259895Y0126733D03*
X0259995Y0126433D03*
X0270595Y0126333D03*
X0270695Y0126633D03*
X0270795Y0126933D03*
X0270795Y0127033D03*
X0270795Y0127133D03*
X0270895Y0127333D03*
X0270895Y0127433D03*
X0270895Y0127533D03*
X0270895Y0127633D03*
X0270895Y0127733D03*
X0270895Y0127833D03*
X0270895Y0127933D03*
X0270895Y0128733D03*
X0270895Y0128833D03*
X0270895Y0128933D03*
X0270895Y0129033D03*
X0270895Y0129133D03*
X0270895Y0129233D03*
X0270895Y0129333D03*
X0270795Y0129533D03*
X0270795Y0129633D03*
X0270795Y0129733D03*
X0270695Y0129933D03*
X0270695Y0130033D03*
X0228995Y0120733D03*
X0225195Y0119733D03*
X0225195Y0119633D03*
X0225195Y0119533D03*
X0225195Y0119433D03*
X0225195Y0119333D03*
X0222195Y0119733D03*
X0222195Y0119833D03*
X0220895Y0115633D03*
X0220895Y0115533D03*
X0217895Y0117133D03*
X0217895Y0117233D03*
X0217895Y0117333D03*
X0217895Y0117433D03*
X0217895Y0117533D03*
X0217895Y0117633D03*
X0217895Y0117733D03*
X0217895Y0117833D03*
X0217895Y0117933D03*
X0217895Y0118033D03*
X0217895Y0118133D03*
X0217895Y0118233D03*
X0217895Y0118333D03*
X0217895Y0118433D03*
X0217895Y0118533D03*
X0213995Y0120733D03*
X0210495Y0120633D03*
X0210495Y0120533D03*
X0210095Y0118433D03*
X0209995Y0118333D03*
X0209995Y0118233D03*
X0206895Y0118733D03*
X0206895Y0120833D03*
X0206895Y0115533D03*
X0206895Y0115433D03*
X0206895Y0115333D03*
X0206895Y0115233D03*
X0206895Y0115133D03*
X0206895Y0115033D03*
X0213995Y0114733D03*
X0225195Y0115633D03*
X0225195Y0115733D03*
X0225195Y0115833D03*
X0225195Y0115933D03*
X0225195Y0116033D03*
X0228995Y0114733D03*
X0195895Y0114433D03*
X0195895Y0114333D03*
X0195895Y0114233D03*
X0195895Y0114133D03*
X0195895Y0114033D03*
X0195895Y0113933D03*
X0195895Y0113833D03*
X0195895Y0113733D03*
X0195895Y0112733D03*
X0194295Y0114433D03*
X0194295Y0121033D03*
X0195895Y0121133D03*
X0195895Y0121233D03*
X0195895Y0121333D03*
X0195895Y0121433D03*
X0195895Y0121533D03*
X0195895Y0122733D03*
D375*
X0199545Y0122733D03*
X0199545Y0122633D03*
X0199545Y0122533D03*
X0199545Y0122433D03*
X0199545Y0122333D03*
X0199545Y0122233D03*
X0199545Y0122133D03*
X0199545Y0122033D03*
X0199545Y0121933D03*
X0199545Y0121833D03*
X0199545Y0121733D03*
X0199545Y0121633D03*
X0199545Y0121533D03*
X0199545Y0121433D03*
X0199545Y0121333D03*
X0199545Y0121233D03*
X0199545Y0121133D03*
X0199545Y0121033D03*
X0199545Y0120933D03*
X0199545Y0120833D03*
X0199545Y0120733D03*
X0199545Y0120633D03*
X0199545Y0120533D03*
X0199545Y0120433D03*
X0199545Y0120333D03*
X0199545Y0120233D03*
X0199545Y0120133D03*
X0199545Y0120033D03*
X0199545Y0119933D03*
X0199545Y0119833D03*
X0199545Y0119733D03*
X0199545Y0119633D03*
X0199545Y0119533D03*
X0199545Y0119433D03*
X0199545Y0119333D03*
X0199545Y0119233D03*
X0199545Y0119133D03*
X0199545Y0119033D03*
X0199545Y0118933D03*
X0199545Y0118833D03*
X0199545Y0118733D03*
X0199545Y0116833D03*
X0199545Y0116733D03*
X0199545Y0116633D03*
X0199545Y0116533D03*
X0199545Y0116433D03*
X0199545Y0116333D03*
X0199545Y0116233D03*
X0199545Y0116133D03*
X0199545Y0116033D03*
X0199545Y0115933D03*
X0199545Y0115833D03*
X0199545Y0115733D03*
X0199545Y0115633D03*
X0199545Y0115533D03*
X0199545Y0115433D03*
X0199545Y0115333D03*
X0199545Y0115233D03*
X0199545Y0115133D03*
X0199545Y0115033D03*
X0199545Y0114933D03*
X0199545Y0114833D03*
X0199545Y0114733D03*
X0199545Y0114633D03*
X0199545Y0114533D03*
X0199545Y0114433D03*
X0199545Y0114333D03*
X0199545Y0114233D03*
X0199545Y0114133D03*
X0199545Y0114033D03*
X0199545Y0113933D03*
X0199545Y0113833D03*
X0199545Y0113733D03*
X0199545Y0113633D03*
X0199545Y0113533D03*
X0199545Y0113433D03*
X0199545Y0113333D03*
X0199545Y0113233D03*
X0199545Y0113133D03*
X0199545Y0113033D03*
X0199545Y0112933D03*
X0199545Y0112833D03*
X0199545Y0112733D03*
X0209645Y0117233D03*
X0209645Y0117633D03*
X0210545Y0121433D03*
X0213945Y0119933D03*
X0213945Y0119833D03*
X0213945Y0119733D03*
X0213945Y0119633D03*
X0213945Y0115833D03*
X0213945Y0115733D03*
X0213945Y0115633D03*
X0213945Y0115533D03*
X0210945Y0113433D03*
X0217545Y0114233D03*
X0217545Y0114333D03*
X0221245Y0113933D03*
X0221245Y0113833D03*
X0221245Y0113733D03*
X0225545Y0113833D03*
X0225545Y0113933D03*
X0228945Y0115533D03*
X0228945Y0115633D03*
X0228945Y0115733D03*
X0228945Y0115833D03*
X0228945Y0119633D03*
X0228945Y0119733D03*
X0228945Y0119833D03*
X0228945Y0119933D03*
X0225545Y0121433D03*
X0221845Y0121433D03*
X0221845Y0121533D03*
X0221845Y0121633D03*
X0217545Y0121333D03*
X0217545Y0121233D03*
X0242345Y0113433D03*
X0242245Y0112933D03*
X0242245Y0112833D03*
X0246545Y0113933D03*
X0246545Y0114033D03*
X0246445Y0114433D03*
X0246445Y0114533D03*
X0246645Y0113533D03*
X0246645Y0113433D03*
X0246745Y0113033D03*
X0246745Y0112933D03*
X0246745Y0112833D03*
X0249845Y0112833D03*
X0249845Y0112733D03*
X0249845Y0112933D03*
X0249845Y0113033D03*
X0249845Y0113133D03*
X0249845Y0113233D03*
X0249845Y0113333D03*
X0249845Y0113433D03*
X0249845Y0113533D03*
X0249845Y0113633D03*
X0249845Y0113733D03*
X0249845Y0113833D03*
X0249845Y0113933D03*
X0249845Y0114033D03*
X0249845Y0114133D03*
X0249845Y0114233D03*
X0249845Y0114333D03*
X0249845Y0114433D03*
X0249845Y0114533D03*
X0249845Y0114633D03*
X0249845Y0114733D03*
X0249845Y0114833D03*
X0249845Y0114933D03*
X0249845Y0115033D03*
X0249845Y0115133D03*
X0249845Y0115233D03*
X0249845Y0115333D03*
X0249845Y0115433D03*
X0249845Y0115533D03*
X0249845Y0115633D03*
X0249845Y0115733D03*
X0249845Y0115833D03*
X0249845Y0115933D03*
X0249845Y0116033D03*
X0249845Y0116133D03*
X0249845Y0116233D03*
X0249845Y0116333D03*
X0249845Y0118033D03*
X0249845Y0118133D03*
X0249845Y0118233D03*
X0249845Y0118333D03*
X0249845Y0118433D03*
X0249845Y0118533D03*
X0249845Y0118633D03*
X0249845Y0118733D03*
X0249845Y0118833D03*
X0249845Y0118933D03*
X0249845Y0119033D03*
X0249845Y0119133D03*
X0249845Y0119233D03*
X0249845Y0119333D03*
X0249845Y0119433D03*
X0249845Y0119533D03*
X0249845Y0119633D03*
X0249845Y0119733D03*
X0249845Y0119833D03*
X0249845Y0119933D03*
X0249845Y0120033D03*
X0249845Y0120133D03*
X0249845Y0120233D03*
X0249845Y0120333D03*
X0249845Y0120433D03*
X0249845Y0120533D03*
X0249845Y0120633D03*
X0249845Y0120733D03*
X0249845Y0120833D03*
X0249845Y0120933D03*
X0249845Y0121033D03*
X0253445Y0120433D03*
X0253445Y0120333D03*
X0253445Y0120233D03*
X0253545Y0120033D03*
X0253545Y0119933D03*
X0253545Y0119833D03*
X0253545Y0119733D03*
X0253545Y0119633D03*
X0253545Y0119533D03*
X0253545Y0119433D03*
X0253545Y0119333D03*
X0253445Y0119133D03*
X0253445Y0119033D03*
X0253445Y0118933D03*
X0253445Y0118833D03*
X0253345Y0118733D03*
X0253345Y0118633D03*
X0256745Y0118833D03*
X0256745Y0118933D03*
X0256745Y0119033D03*
X0256745Y0119133D03*
X0256745Y0119233D03*
X0256745Y0119333D03*
X0256745Y0119433D03*
X0256745Y0119533D03*
X0256745Y0119633D03*
X0256745Y0119733D03*
X0256745Y0119833D03*
X0256745Y0119933D03*
X0256745Y0120033D03*
X0256745Y0120133D03*
X0256745Y0120233D03*
X0256745Y0120333D03*
X0256745Y0120433D03*
X0256745Y0120533D03*
X0256745Y0120633D03*
X0256745Y0120733D03*
X0256745Y0120833D03*
X0256745Y0120933D03*
X0256745Y0121033D03*
X0261745Y0124033D03*
X0269045Y0124133D03*
X0268945Y0132533D03*
X0268845Y0132633D03*
X0261645Y0132533D03*
X0256745Y0117133D03*
X0256745Y0117033D03*
X0256745Y0116933D03*
X0256745Y0116833D03*
X0256745Y0116733D03*
X0256745Y0116633D03*
X0256745Y0116533D03*
X0256745Y0116433D03*
X0256745Y0116333D03*
X0256745Y0116233D03*
X0256745Y0116133D03*
X0256745Y0116033D03*
X0256745Y0115933D03*
X0256745Y0115833D03*
X0256745Y0115733D03*
X0256745Y0115633D03*
X0256745Y0115533D03*
X0256745Y0115433D03*
X0256745Y0115333D03*
X0256745Y0115233D03*
X0256745Y0115133D03*
X0256745Y0115033D03*
X0256745Y0114933D03*
X0256745Y0114833D03*
X0256745Y0114733D03*
X0256745Y0114633D03*
X0256745Y0114533D03*
X0256745Y0114433D03*
D376*
X0246045Y0116733D03*
X0246045Y0116833D03*
X0246045Y0116933D03*
X0246045Y0117033D03*
X0246045Y0117133D03*
X0245945Y0117233D03*
X0245945Y0117333D03*
X0245945Y0117433D03*
X0245945Y0117533D03*
X0245945Y0117633D03*
X0245845Y0117933D03*
X0245845Y0118033D03*
X0245845Y0118133D03*
X0245745Y0118533D03*
X0245745Y0118633D03*
X0243045Y0117133D03*
X0243045Y0117033D03*
X0242945Y0116633D03*
X0242945Y0116533D03*
X0228945Y0115333D03*
X0228945Y0115233D03*
X0228945Y0115133D03*
X0225445Y0114333D03*
X0225445Y0114233D03*
X0221145Y0114233D03*
X0221145Y0114333D03*
X0221145Y0114433D03*
X0217645Y0114633D03*
X0217645Y0114733D03*
X0217645Y0114833D03*
X0213945Y0115133D03*
X0213945Y0115233D03*
X0213945Y0115333D03*
X0210845Y0113633D03*
X0210745Y0113733D03*
X0209845Y0116933D03*
X0209745Y0117733D03*
X0210545Y0121233D03*
X0210545Y0121333D03*
X0213945Y0120233D03*
X0213945Y0120133D03*
X0217645Y0120733D03*
X0217645Y0120833D03*
X0217645Y0120933D03*
X0221945Y0120933D03*
X0221945Y0121033D03*
X0221945Y0121133D03*
X0225445Y0121133D03*
X0225445Y0121033D03*
X0228945Y0120233D03*
X0228945Y0120133D03*
X0207145Y0112833D03*
X0207145Y0112733D03*
X0203445Y0122633D03*
X0261145Y0124533D03*
X0261245Y0124433D03*
X0261345Y0124333D03*
X0269245Y0124333D03*
X0269345Y0124433D03*
X0269445Y0124533D03*
X0269445Y0132133D03*
X0269345Y0132233D03*
D377*
X0266645Y0130933D03*
X0267845Y0123433D03*
X0237545Y0121033D03*
X0232145Y0122333D03*
X0232045Y0122433D03*
X0225945Y0122333D03*
X0217145Y0122333D03*
X0210545Y0121933D03*
X0211545Y0112733D03*
X0217145Y0113233D03*
X0225945Y0113033D03*
X0231745Y0112933D03*
X0237345Y0114533D03*
X0189545Y0121133D03*
X0189545Y0121233D03*
X0189445Y0121033D03*
D378*
X0188995Y0119733D03*
X0188895Y0119333D03*
X0188895Y0119233D03*
X0188895Y0119133D03*
X0188795Y0118733D03*
X0188795Y0118633D03*
X0188795Y0118533D03*
X0188795Y0118433D03*
X0188795Y0118333D03*
X0188795Y0118233D03*
X0188795Y0118133D03*
X0188795Y0118033D03*
X0188795Y0117933D03*
X0188795Y0117833D03*
X0188795Y0117733D03*
X0188795Y0117633D03*
X0188795Y0117533D03*
X0188795Y0117433D03*
X0188795Y0117333D03*
X0188795Y0117233D03*
X0188795Y0117133D03*
X0188795Y0117033D03*
X0188795Y0116933D03*
X0188795Y0116833D03*
X0188895Y0116333D03*
X0188895Y0116233D03*
X0188995Y0115733D03*
X0189295Y0114833D03*
X0189395Y0114533D03*
X0189495Y0114333D03*
X0189595Y0114233D03*
X0189595Y0114133D03*
X0189695Y0114033D03*
X0189795Y0113833D03*
X0203795Y0122733D03*
X0211295Y0112933D03*
X0217295Y0113533D03*
X0221495Y0112733D03*
X0225795Y0113333D03*
X0232095Y0113333D03*
X0232195Y0113433D03*
X0232295Y0113533D03*
X0237095Y0114733D03*
X0239195Y0112733D03*
X0237195Y0120733D03*
X0237295Y0120833D03*
X0232795Y0121233D03*
X0232695Y0121433D03*
X0232595Y0121633D03*
X0232495Y0121833D03*
X0225795Y0122033D03*
X0221595Y0122733D03*
X0217295Y0122033D03*
X0244595Y0122333D03*
X0244595Y0122433D03*
X0244595Y0122533D03*
X0244595Y0122633D03*
X0253095Y0121033D03*
X0265295Y0124733D03*
X0268295Y0123633D03*
X0266495Y0131233D03*
X0268195Y0133033D03*
X0262395Y0133033D03*
D379*
X0266945Y0130133D03*
X0266945Y0130033D03*
X0265345Y0124933D03*
X0250545Y0116533D03*
X0238945Y0113033D03*
X0226245Y0112733D03*
X0216845Y0112833D03*
X0210545Y0122233D03*
X0194845Y0120733D03*
X0190445Y0122333D03*
X0231445Y0122833D03*
D380*
X0239245Y0122533D03*
X0250345Y0116433D03*
X0237445Y0114433D03*
X0231445Y0112733D03*
X0226045Y0112933D03*
X0217045Y0113033D03*
X0210545Y0122033D03*
X0190645Y0112933D03*
X0189745Y0121533D03*
X0189845Y0121733D03*
X0189945Y0121833D03*
X0265345Y0124833D03*
X0266745Y0130733D03*
D381*
X0266195Y0131633D03*
X0269095Y0132433D03*
X0269195Y0132333D03*
X0265295Y0134533D03*
X0261495Y0132433D03*
X0261395Y0132333D03*
X0261295Y0132233D03*
X0261495Y0124233D03*
X0261595Y0124133D03*
X0269195Y0124233D03*
X0253495Y0119233D03*
X0246095Y0116633D03*
X0246095Y0116533D03*
X0246395Y0114933D03*
X0246395Y0114833D03*
X0246395Y0114733D03*
X0246395Y0114633D03*
X0246495Y0114333D03*
X0246495Y0114233D03*
X0246495Y0114133D03*
X0246595Y0113833D03*
X0246595Y0113733D03*
X0246595Y0113633D03*
X0246695Y0113333D03*
X0246695Y0113233D03*
X0246695Y0113133D03*
X0246795Y0112733D03*
X0242495Y0113933D03*
X0242495Y0114033D03*
X0242495Y0114133D03*
X0242495Y0114233D03*
X0242495Y0114333D03*
X0242595Y0114433D03*
X0242595Y0114533D03*
X0242595Y0114633D03*
X0242595Y0114733D03*
X0242595Y0114833D03*
X0242695Y0114933D03*
X0242395Y0113833D03*
X0242395Y0113733D03*
X0242395Y0113633D03*
X0242395Y0113533D03*
X0242295Y0113333D03*
X0242295Y0113233D03*
X0242295Y0113133D03*
X0242295Y0113033D03*
X0242195Y0112733D03*
X0228995Y0115433D03*
X0225495Y0114133D03*
X0225495Y0114033D03*
X0221195Y0114033D03*
X0221195Y0114133D03*
X0217595Y0114433D03*
X0217595Y0114533D03*
X0213995Y0115433D03*
X0210895Y0113533D03*
X0209795Y0117033D03*
X0209695Y0117133D03*
X0213995Y0120033D03*
X0217595Y0121033D03*
X0217595Y0121133D03*
X0221895Y0121233D03*
X0221895Y0121333D03*
X0225495Y0121333D03*
X0225495Y0121233D03*
X0228995Y0120033D03*
D382*
X0251145Y0117133D03*
X0258045Y0114333D03*
X0258045Y0114233D03*
X0258045Y0114133D03*
X0258045Y0114033D03*
X0258045Y0113933D03*
X0258045Y0113833D03*
X0258045Y0113733D03*
X0258045Y0113633D03*
X0258045Y0113533D03*
X0258045Y0113433D03*
X0258045Y0113333D03*
X0258045Y0113233D03*
X0258045Y0113133D03*
X0258045Y0113033D03*
X0258045Y0112933D03*
X0258045Y0112833D03*
X0258045Y0112733D03*
X0266645Y0127333D03*
D383*
X0266795Y0130533D03*
X0266795Y0130633D03*
X0267695Y0133233D03*
X0262895Y0133233D03*
X0244595Y0121233D03*
X0244595Y0121133D03*
X0244595Y0121033D03*
X0244595Y0120933D03*
X0231795Y0122633D03*
X0226095Y0122533D03*
X0216995Y0122533D03*
X0194995Y0120933D03*
X0189995Y0121933D03*
X0194995Y0114533D03*
X0190795Y0112833D03*
D384*
X0195945Y0112833D03*
X0195945Y0112933D03*
X0195945Y0113033D03*
X0195945Y0113133D03*
X0195945Y0113233D03*
X0195945Y0113333D03*
X0195945Y0113433D03*
X0195945Y0113533D03*
X0195945Y0113633D03*
X0206845Y0115633D03*
X0206845Y0115733D03*
X0206845Y0115833D03*
X0206845Y0115933D03*
X0206845Y0118633D03*
X0206845Y0120933D03*
X0210445Y0120433D03*
X0210445Y0120333D03*
X0210445Y0120233D03*
X0210145Y0118633D03*
X0210145Y0118533D03*
X0213945Y0120833D03*
X0222245Y0119633D03*
X0222245Y0119533D03*
X0222245Y0119433D03*
X0225145Y0119233D03*
X0225145Y0119133D03*
X0225145Y0119033D03*
X0225145Y0118933D03*
X0225145Y0118833D03*
X0225145Y0118733D03*
X0225145Y0118633D03*
X0225145Y0118533D03*
X0225145Y0118433D03*
X0225145Y0117033D03*
X0225145Y0116933D03*
X0225145Y0116833D03*
X0225145Y0116733D03*
X0225145Y0116633D03*
X0225145Y0116533D03*
X0225145Y0116433D03*
X0225145Y0116333D03*
X0225145Y0116233D03*
X0225145Y0116133D03*
X0228945Y0114633D03*
X0228945Y0120833D03*
X0220845Y0115933D03*
X0220845Y0115833D03*
X0220845Y0115733D03*
X0213945Y0114633D03*
X0195945Y0121633D03*
X0195945Y0121733D03*
X0195945Y0121833D03*
X0195945Y0121933D03*
X0195945Y0122033D03*
X0265845Y0131933D03*
X0270945Y0128633D03*
X0270945Y0128533D03*
X0270945Y0128433D03*
X0270945Y0128333D03*
X0270945Y0128233D03*
X0270945Y0128133D03*
X0270945Y0128033D03*
D385*
X0266545Y0131133D03*
X0262545Y0123533D03*
X0252945Y0121133D03*
X0232545Y0121733D03*
X0232445Y0121933D03*
X0232345Y0122033D03*
X0225845Y0122133D03*
X0217245Y0122133D03*
X0210545Y0121833D03*
X0211445Y0112833D03*
X0217245Y0113433D03*
X0225845Y0113233D03*
X0231845Y0113033D03*
X0231945Y0113133D03*
X0232045Y0113233D03*
X0190045Y0113533D03*
X0189945Y0113633D03*
X0189845Y0113733D03*
X0189745Y0113933D03*
X0188845Y0118833D03*
X0188845Y0118933D03*
X0188845Y0119033D03*
X0188945Y0119433D03*
X0188945Y0119533D03*
X0188945Y0119633D03*
X0189045Y0119833D03*
X0189045Y0119933D03*
X0189045Y0120033D03*
X0189145Y0120233D03*
X0189245Y0120533D03*
D386*
X0188845Y0116733D03*
X0188845Y0116633D03*
X0188845Y0116533D03*
X0188845Y0116433D03*
X0188945Y0116133D03*
X0188945Y0116033D03*
X0188945Y0115933D03*
X0188945Y0115833D03*
X0189045Y0115633D03*
X0189045Y0115533D03*
X0189045Y0115433D03*
X0189145Y0115333D03*
X0189145Y0115233D03*
X0189145Y0115133D03*
X0189245Y0115033D03*
X0189245Y0114933D03*
X0189345Y0114733D03*
X0189345Y0114633D03*
X0189445Y0114433D03*
X0210545Y0121733D03*
X0213945Y0118633D03*
X0213945Y0118533D03*
X0213945Y0118433D03*
X0213945Y0118333D03*
X0213945Y0118233D03*
X0213945Y0118133D03*
X0213945Y0118033D03*
X0213945Y0117933D03*
X0213945Y0117833D03*
X0213945Y0117733D03*
X0213945Y0117633D03*
X0213945Y0117533D03*
X0213945Y0117433D03*
X0213945Y0117333D03*
X0213945Y0117233D03*
X0213945Y0117133D03*
X0213945Y0117033D03*
X0213945Y0116933D03*
X0213945Y0116833D03*
X0217345Y0113633D03*
X0221445Y0112933D03*
X0221445Y0112833D03*
X0225745Y0113433D03*
X0228945Y0116833D03*
X0228945Y0116933D03*
X0228945Y0117033D03*
X0228945Y0117133D03*
X0228945Y0117233D03*
X0228945Y0117333D03*
X0228945Y0117433D03*
X0228945Y0117533D03*
X0228945Y0117633D03*
X0228945Y0117733D03*
X0228945Y0117833D03*
X0228945Y0117933D03*
X0228945Y0118033D03*
X0228945Y0118133D03*
X0228945Y0118233D03*
X0228945Y0118333D03*
X0228945Y0118433D03*
X0228945Y0118533D03*
X0228945Y0118633D03*
X0233245Y0119533D03*
X0233245Y0119633D03*
X0233245Y0119733D03*
X0233145Y0120033D03*
X0233145Y0120133D03*
X0233145Y0120233D03*
X0233045Y0120433D03*
X0233045Y0120533D03*
X0233045Y0120633D03*
X0232945Y0120733D03*
X0232945Y0120833D03*
X0232945Y0120933D03*
X0232845Y0121033D03*
X0232845Y0121133D03*
X0232745Y0121333D03*
X0232645Y0121533D03*
X0233345Y0119033D03*
X0233345Y0118933D03*
X0233345Y0118833D03*
X0233345Y0118733D03*
X0233345Y0118633D03*
X0233345Y0117033D03*
X0233345Y0116933D03*
X0233345Y0116833D03*
X0232645Y0114133D03*
X0232545Y0113933D03*
X0232445Y0113733D03*
X0232345Y0113633D03*
X0236945Y0114933D03*
X0236945Y0115033D03*
X0237045Y0114833D03*
X0237045Y0120533D03*
X0237145Y0120633D03*
X0244645Y0122733D03*
X0250845Y0122733D03*
X0252945Y0118133D03*
X0262345Y0123633D03*
X0265345Y0122133D03*
X0262245Y0132933D03*
X0225745Y0121933D03*
X0221645Y0122433D03*
X0221645Y0122533D03*
X0221645Y0122633D03*
X0217345Y0121933D03*
D387*
X0210545Y0122133D03*
X0216945Y0112933D03*
X0226145Y0112833D03*
X0231645Y0122733D03*
X0237845Y0121133D03*
X0239145Y0122433D03*
X0244545Y0120833D03*
X0239045Y0112933D03*
X0265345Y0122233D03*
X0266845Y0130433D03*
X0190145Y0122033D03*
D388*
X0189795Y0121633D03*
X0189695Y0121433D03*
X0189595Y0121333D03*
X0190395Y0113133D03*
X0190495Y0113033D03*
X0217095Y0113133D03*
X0217095Y0122433D03*
X0225995Y0122433D03*
X0231895Y0122533D03*
X0231595Y0112833D03*
X0239195Y0112833D03*
X0244595Y0121333D03*
X0244595Y0121433D03*
X0244595Y0121533D03*
X0244595Y0121633D03*
X0244595Y0121733D03*
X0262795Y0123433D03*
X0266695Y0130833D03*
X0265295Y0134433D03*
D389*
X0266395Y0131333D03*
X0268395Y0132933D03*
X0268495Y0123733D03*
X0262195Y0123733D03*
X0253195Y0120933D03*
X0253095Y0118233D03*
X0236995Y0120433D03*
X0236895Y0120233D03*
X0233295Y0119433D03*
X0233295Y0119333D03*
X0233295Y0119233D03*
X0233295Y0119133D03*
X0233395Y0118533D03*
X0233395Y0118433D03*
X0233395Y0118333D03*
X0233395Y0118233D03*
X0233395Y0118133D03*
X0233395Y0118033D03*
X0233395Y0117933D03*
X0233395Y0117833D03*
X0233395Y0117733D03*
X0233395Y0117633D03*
X0233395Y0117533D03*
X0233395Y0117433D03*
X0233395Y0117333D03*
X0233395Y0117233D03*
X0233395Y0117133D03*
X0233295Y0116733D03*
X0233295Y0116633D03*
X0233295Y0116533D03*
X0233295Y0116433D03*
X0233295Y0116333D03*
X0233295Y0116233D03*
X0233295Y0116133D03*
X0233195Y0116033D03*
X0233195Y0115933D03*
X0233195Y0115833D03*
X0233195Y0115733D03*
X0233195Y0115633D03*
X0233095Y0115533D03*
X0233095Y0115433D03*
X0233095Y0115333D03*
X0233095Y0115233D03*
X0232995Y0115133D03*
X0232995Y0115033D03*
X0232995Y0114933D03*
X0232895Y0114833D03*
X0232895Y0114733D03*
X0232895Y0114633D03*
X0232795Y0114533D03*
X0232795Y0114433D03*
X0232695Y0114333D03*
X0232695Y0114233D03*
X0232595Y0114033D03*
X0232495Y0113833D03*
X0236795Y0115233D03*
X0236795Y0115333D03*
X0236895Y0115133D03*
X0236695Y0115533D03*
X0233195Y0119833D03*
X0233195Y0119933D03*
X0233095Y0120333D03*
X0228995Y0118733D03*
X0225695Y0121833D03*
X0221695Y0122233D03*
X0221695Y0122333D03*
X0217395Y0121833D03*
X0217395Y0121733D03*
X0213995Y0118733D03*
X0209495Y0117433D03*
X0211195Y0113033D03*
X0217395Y0113733D03*
X0221395Y0113233D03*
X0221395Y0113133D03*
X0221395Y0113033D03*
X0225695Y0113533D03*
D390*
X0225645Y0113633D03*
X0228945Y0115933D03*
X0228945Y0116033D03*
X0228945Y0116133D03*
X0228945Y0116233D03*
X0228945Y0116333D03*
X0228945Y0116433D03*
X0228945Y0116533D03*
X0228945Y0116633D03*
X0228945Y0116733D03*
X0228945Y0118833D03*
X0228945Y0118933D03*
X0228945Y0119033D03*
X0228945Y0119133D03*
X0228945Y0119233D03*
X0228945Y0119333D03*
X0228945Y0119433D03*
X0225645Y0121733D03*
X0221745Y0121933D03*
X0221745Y0122033D03*
X0221745Y0122133D03*
X0217445Y0121633D03*
X0213945Y0119433D03*
X0213945Y0119333D03*
X0213945Y0119233D03*
X0213945Y0119133D03*
X0213945Y0119033D03*
X0213945Y0118933D03*
X0213945Y0118833D03*
X0213945Y0116733D03*
X0213945Y0116633D03*
X0213945Y0116533D03*
X0213945Y0116433D03*
X0213945Y0116333D03*
X0213945Y0116233D03*
X0213945Y0116133D03*
X0213945Y0116033D03*
X0213945Y0115933D03*
X0211145Y0113133D03*
X0209545Y0117333D03*
X0217445Y0113933D03*
X0217445Y0113833D03*
X0221345Y0113433D03*
X0221345Y0113333D03*
X0210545Y0121533D03*
X0210545Y0121633D03*
X0236445Y0118733D03*
X0236545Y0119233D03*
X0236645Y0119633D03*
X0236745Y0119933D03*
X0236745Y0120033D03*
X0236845Y0120133D03*
X0236945Y0120333D03*
X0239445Y0122733D03*
X0236445Y0116733D03*
X0236445Y0116633D03*
X0236445Y0116533D03*
X0236545Y0116133D03*
X0236545Y0116033D03*
X0236545Y0115933D03*
X0236645Y0115733D03*
X0236645Y0115633D03*
X0236745Y0115433D03*
X0253145Y0118333D03*
X0253245Y0118433D03*
X0253245Y0120833D03*
X0262045Y0123833D03*
X0268645Y0123833D03*
X0266345Y0131433D03*
X0268545Y0132833D03*
X0262045Y0132833D03*
D391*
X0262595Y0133133D03*
X0266595Y0131033D03*
X0267995Y0133133D03*
X0268095Y0123533D03*
X0252795Y0118033D03*
X0244595Y0121833D03*
X0244595Y0121933D03*
X0244595Y0122033D03*
X0244595Y0122133D03*
X0244595Y0122233D03*
X0239395Y0122633D03*
X0237395Y0120933D03*
X0232295Y0122133D03*
X0232195Y0122233D03*
X0225895Y0122233D03*
X0217195Y0122233D03*
X0217195Y0113333D03*
X0225895Y0113133D03*
X0237195Y0114633D03*
X0190295Y0113233D03*
X0190195Y0113333D03*
X0190095Y0113433D03*
X0189095Y0120133D03*
X0189195Y0120333D03*
X0189195Y0120433D03*
X0189295Y0120633D03*
X0189295Y0120733D03*
X0189395Y0120833D03*
X0189395Y0120933D03*
D392*
X0190495Y0122433D03*
X0194795Y0120633D03*
X0194795Y0114733D03*
X0216795Y0122733D03*
X0226295Y0122733D03*
X0238995Y0122233D03*
X0238895Y0113133D03*
X0250695Y0122633D03*
X0263195Y0123333D03*
X0267395Y0123333D03*
X0266995Y0129833D03*
X0266995Y0129933D03*
D393*
X0266295Y0131533D03*
X0268695Y0132733D03*
X0261895Y0132733D03*
X0261795Y0132633D03*
X0261895Y0123933D03*
X0268795Y0123933D03*
X0268895Y0124033D03*
X0253395Y0120633D03*
X0253395Y0120533D03*
X0253295Y0120733D03*
X0253495Y0120133D03*
X0253295Y0118533D03*
X0249895Y0121133D03*
X0236695Y0119833D03*
X0236695Y0119733D03*
X0236595Y0119533D03*
X0236595Y0119433D03*
X0236595Y0119333D03*
X0236495Y0119133D03*
X0236495Y0119033D03*
X0236495Y0118933D03*
X0236495Y0118833D03*
X0236395Y0118633D03*
X0236395Y0118533D03*
X0236395Y0118433D03*
X0236395Y0118333D03*
X0236395Y0118233D03*
X0236395Y0118133D03*
X0236395Y0118033D03*
X0236395Y0117933D03*
X0236395Y0117833D03*
X0236395Y0117733D03*
X0236395Y0117633D03*
X0236395Y0117533D03*
X0236395Y0117433D03*
X0236395Y0117333D03*
X0236395Y0117233D03*
X0236395Y0117133D03*
X0236395Y0117033D03*
X0236395Y0116933D03*
X0236395Y0116833D03*
X0236495Y0116433D03*
X0236495Y0116333D03*
X0236495Y0116233D03*
X0236595Y0115833D03*
X0228995Y0119533D03*
X0225595Y0121533D03*
X0225595Y0121633D03*
X0221795Y0121733D03*
X0221795Y0121833D03*
X0217495Y0121533D03*
X0217495Y0121433D03*
X0213995Y0119533D03*
X0209595Y0117533D03*
X0210995Y0113333D03*
X0211095Y0113233D03*
X0217495Y0114033D03*
X0217495Y0114133D03*
X0221295Y0113633D03*
X0221295Y0113533D03*
X0225595Y0113733D03*
D394*
X0238795Y0113233D03*
X0250695Y0116633D03*
X0267095Y0129233D03*
X0267095Y0129333D03*
X0267095Y0129433D03*
X0265295Y0134333D03*
X0210495Y0122333D03*
X0194695Y0120433D03*
X0190795Y0122633D03*
X0194695Y0115033D03*
X0194695Y0114933D03*
D395*
X0207045Y0113733D03*
X0207045Y0113633D03*
X0207045Y0113533D03*
X0207045Y0113433D03*
X0207045Y0113333D03*
X0210545Y0114233D03*
X0210545Y0114333D03*
X0210645Y0114033D03*
X0209945Y0116633D03*
X0209945Y0116733D03*
X0209845Y0117933D03*
X0207045Y0119433D03*
X0207045Y0119533D03*
X0207045Y0119633D03*
X0207045Y0119733D03*
X0207045Y0119833D03*
X0207045Y0119933D03*
X0207045Y0120033D03*
X0207045Y0120133D03*
X0210545Y0121033D03*
X0213945Y0120533D03*
X0213945Y0120433D03*
X0217745Y0120333D03*
X0217745Y0120233D03*
X0217745Y0120133D03*
X0217745Y0120033D03*
X0222045Y0120433D03*
X0222045Y0120533D03*
X0222045Y0120633D03*
X0225345Y0120633D03*
X0225345Y0120533D03*
X0228945Y0120533D03*
X0228945Y0120433D03*
X0228945Y0115033D03*
X0228945Y0114933D03*
X0225345Y0114833D03*
X0225345Y0114733D03*
X0225345Y0114633D03*
X0221045Y0114733D03*
X0221045Y0114833D03*
X0221045Y0114933D03*
X0217745Y0115233D03*
X0217745Y0115333D03*
X0217745Y0115433D03*
X0217745Y0115533D03*
X0213945Y0115033D03*
X0213945Y0114933D03*
X0239445Y0122833D03*
X0243645Y0120333D03*
X0243645Y0120233D03*
X0243645Y0120133D03*
X0243645Y0120033D03*
X0243645Y0119933D03*
X0243545Y0119833D03*
X0243545Y0119733D03*
X0243545Y0119633D03*
X0243545Y0119533D03*
X0243445Y0119233D03*
X0243445Y0119133D03*
X0243445Y0119033D03*
X0243345Y0118633D03*
X0245545Y0119733D03*
X0245545Y0119833D03*
X0245445Y0120333D03*
X0245445Y0120433D03*
X0245445Y0120533D03*
X0260545Y0125333D03*
X0260645Y0125133D03*
X0260745Y0125033D03*
X0260845Y0124933D03*
X0269645Y0124733D03*
X0269745Y0124833D03*
X0269845Y0124933D03*
X0269845Y0125033D03*
X0269945Y0125133D03*
X0270045Y0125233D03*
X0270045Y0131333D03*
X0269945Y0131533D03*
X0269845Y0131633D03*
X0269745Y0131733D03*
X0260945Y0131833D03*
X0260845Y0131733D03*
X0260745Y0131633D03*
X0260645Y0131433D03*
X0260545Y0131333D03*
D396*
X0267145Y0129133D03*
X0267145Y0129033D03*
X0267145Y0128933D03*
X0267145Y0128833D03*
X0267145Y0128733D03*
X0267145Y0128633D03*
X0267145Y0128533D03*
X0265345Y0125033D03*
X0238745Y0121933D03*
X0238745Y0113333D03*
X0194645Y0115133D03*
X0194645Y0120233D03*
X0194645Y0120333D03*
D397*
X0194595Y0120133D03*
X0194595Y0115333D03*
X0194595Y0115233D03*
X0238695Y0113433D03*
X0238695Y0121833D03*
X0265295Y0122333D03*
X0267095Y0128133D03*
X0267195Y0128233D03*
X0267195Y0128333D03*
X0267195Y0128433D03*
D398*
X0267045Y0128033D03*
X0250845Y0122533D03*
X0250845Y0116733D03*
X0238645Y0113533D03*
X0238545Y0121533D03*
X0238645Y0121733D03*
X0210445Y0122433D03*
X0194545Y0120033D03*
X0194545Y0119933D03*
X0194545Y0119833D03*
X0194545Y0115533D03*
X0194545Y0115433D03*
X0190945Y0122733D03*
D399*
X0194495Y0119733D03*
X0194495Y0119633D03*
X0194495Y0115733D03*
X0194495Y0115633D03*
X0238495Y0113733D03*
X0238595Y0113633D03*
X0238495Y0121433D03*
X0238595Y0121633D03*
X0265295Y0125133D03*
X0266995Y0127933D03*
D400*
X0270295Y0125733D03*
X0270295Y0125633D03*
X0270195Y0125533D03*
X0270195Y0125433D03*
X0270095Y0125333D03*
X0270395Y0125833D03*
X0270495Y0130533D03*
X0270395Y0130733D03*
X0270295Y0130933D03*
X0270195Y0131133D03*
X0270095Y0131233D03*
X0269995Y0131433D03*
X0260695Y0131533D03*
X0260495Y0131233D03*
X0260395Y0131133D03*
X0260395Y0131033D03*
X0260295Y0130933D03*
X0260295Y0130833D03*
X0260195Y0125933D03*
X0260295Y0125733D03*
X0260395Y0125633D03*
X0260395Y0125533D03*
X0260495Y0125433D03*
X0260595Y0125233D03*
X0243695Y0120533D03*
X0243695Y0120433D03*
X0225295Y0120433D03*
X0225295Y0120333D03*
X0225295Y0120233D03*
X0222095Y0120233D03*
X0222095Y0120333D03*
X0217795Y0119933D03*
X0217795Y0119833D03*
X0217795Y0119733D03*
X0217795Y0119633D03*
X0217795Y0119533D03*
X0217795Y0116033D03*
X0217795Y0115933D03*
X0217795Y0115833D03*
X0217795Y0115733D03*
X0217795Y0115633D03*
X0220995Y0115133D03*
X0220995Y0115033D03*
X0225295Y0115033D03*
X0225295Y0114933D03*
X0225295Y0115133D03*
X0210495Y0114533D03*
X0210495Y0114433D03*
X0210395Y0114633D03*
X0210395Y0114733D03*
X0210395Y0114833D03*
X0210295Y0115133D03*
X0210095Y0116033D03*
X0209995Y0116333D03*
X0209995Y0116433D03*
X0209995Y0116533D03*
X0209895Y0118033D03*
X0210495Y0120833D03*
X0210495Y0120933D03*
X0206995Y0120533D03*
X0206995Y0120433D03*
X0206995Y0120333D03*
X0206995Y0120233D03*
X0206995Y0119333D03*
X0206995Y0119233D03*
X0206995Y0119133D03*
X0206995Y0119033D03*
X0206995Y0114233D03*
X0206995Y0114133D03*
X0206995Y0114033D03*
X0206995Y0113933D03*
X0206995Y0113833D03*
D401*
X0194445Y0115833D03*
X0194445Y0115933D03*
X0194445Y0116033D03*
X0194445Y0116133D03*
X0194445Y0119233D03*
X0194445Y0119333D03*
X0194445Y0119433D03*
X0194445Y0119533D03*
X0238445Y0121333D03*
X0238445Y0113933D03*
X0238445Y0113833D03*
X0250945Y0116833D03*
X0250945Y0122433D03*
X0266945Y0127833D03*
D402*
X0266895Y0127733D03*
X0265295Y0134233D03*
X0257895Y0118733D03*
X0257895Y0118633D03*
X0257895Y0118533D03*
X0257895Y0118433D03*
X0257895Y0118333D03*
X0257895Y0118233D03*
X0257895Y0118133D03*
X0257895Y0118033D03*
X0257895Y0117933D03*
X0257895Y0117833D03*
X0257895Y0117733D03*
X0257895Y0117633D03*
X0257895Y0117533D03*
X0257895Y0117433D03*
X0257895Y0117333D03*
X0257895Y0117233D03*
X0250995Y0116933D03*
X0238395Y0114033D03*
X0238395Y0121233D03*
X0194395Y0119133D03*
X0194395Y0119033D03*
X0194395Y0118933D03*
X0194395Y0118833D03*
X0194395Y0118733D03*
X0194395Y0118633D03*
X0194395Y0116733D03*
X0194395Y0116633D03*
X0194395Y0116533D03*
X0194395Y0116433D03*
X0194395Y0116333D03*
X0194395Y0116233D03*
X0191195Y0122833D03*
D403*
X0194345Y0118533D03*
X0194345Y0118433D03*
X0194345Y0118333D03*
X0194345Y0118233D03*
X0194345Y0118133D03*
X0194345Y0118033D03*
X0194345Y0117933D03*
X0194345Y0117833D03*
X0194345Y0117733D03*
X0194345Y0117633D03*
X0194345Y0117533D03*
X0194345Y0117433D03*
X0194345Y0117333D03*
X0194345Y0117233D03*
X0194345Y0117133D03*
X0194345Y0117033D03*
X0194345Y0116933D03*
X0194345Y0116833D03*
X0210445Y0122533D03*
X0238345Y0114233D03*
X0238345Y0114133D03*
X0251045Y0122333D03*
X0257945Y0122333D03*
X0257945Y0122233D03*
X0257945Y0122133D03*
X0257945Y0122033D03*
X0257945Y0121933D03*
X0257945Y0121833D03*
X0257945Y0121733D03*
X0257945Y0121633D03*
X0257945Y0121533D03*
X0257945Y0121433D03*
X0257945Y0121333D03*
X0257945Y0121233D03*
X0257945Y0121133D03*
X0257945Y0122433D03*
X0257945Y0122533D03*
X0257945Y0122633D03*
X0257945Y0122733D03*
X0265345Y0125233D03*
X0266845Y0127633D03*
D404*
X0270445Y0126033D03*
X0270445Y0125933D03*
X0270545Y0126133D03*
X0270545Y0126233D03*
X0270645Y0126433D03*
X0270645Y0126533D03*
X0270745Y0126733D03*
X0270745Y0126833D03*
X0270845Y0127233D03*
X0270845Y0129433D03*
X0270745Y0129833D03*
X0270645Y0130133D03*
X0270645Y0130233D03*
X0270545Y0130333D03*
X0270545Y0130433D03*
X0270445Y0130633D03*
X0270345Y0130833D03*
X0270245Y0131033D03*
X0265945Y0131833D03*
X0260245Y0130733D03*
X0260145Y0130633D03*
X0260145Y0130533D03*
X0260045Y0130433D03*
X0260045Y0130333D03*
X0260045Y0130233D03*
X0259945Y0130133D03*
X0259945Y0130033D03*
X0259845Y0129733D03*
X0259745Y0129233D03*
X0259845Y0126933D03*
X0259945Y0126633D03*
X0259945Y0126533D03*
X0260045Y0126333D03*
X0260045Y0126233D03*
X0260145Y0126133D03*
X0260145Y0126033D03*
X0260245Y0125833D03*
X0228945Y0120633D03*
X0225245Y0120133D03*
X0225245Y0120033D03*
X0225245Y0119933D03*
X0225245Y0119833D03*
X0222145Y0119933D03*
X0222145Y0120033D03*
X0222145Y0120133D03*
X0217845Y0119433D03*
X0217845Y0119333D03*
X0217845Y0119233D03*
X0217845Y0119133D03*
X0217845Y0119033D03*
X0217845Y0118933D03*
X0217845Y0118833D03*
X0217845Y0118733D03*
X0217845Y0118633D03*
X0217845Y0117033D03*
X0217845Y0116933D03*
X0217845Y0116833D03*
X0217845Y0116733D03*
X0217845Y0116633D03*
X0217845Y0116533D03*
X0217845Y0116433D03*
X0217845Y0116333D03*
X0217845Y0116233D03*
X0217845Y0116133D03*
X0220945Y0115433D03*
X0220945Y0115333D03*
X0220945Y0115233D03*
X0225245Y0115233D03*
X0225245Y0115333D03*
X0225245Y0115433D03*
X0225245Y0115533D03*
X0228945Y0114833D03*
X0213945Y0114833D03*
X0210345Y0114933D03*
X0210345Y0115033D03*
X0210245Y0115233D03*
X0210245Y0115333D03*
X0210245Y0115433D03*
X0210245Y0115533D03*
X0210145Y0115633D03*
X0210145Y0115733D03*
X0210145Y0115833D03*
X0210145Y0115933D03*
X0210045Y0116133D03*
X0210045Y0116233D03*
X0209945Y0118133D03*
X0210545Y0120733D03*
X0213945Y0120633D03*
X0206945Y0120633D03*
X0206945Y0120733D03*
X0206945Y0118933D03*
X0206945Y0118833D03*
X0206945Y0114933D03*
X0206945Y0114833D03*
X0206945Y0114733D03*
X0206945Y0114633D03*
X0206945Y0114533D03*
X0206945Y0114433D03*
X0206945Y0114333D03*
X0195845Y0121033D03*
D405*
X0213995Y0114333D03*
X0220395Y0118033D03*
X0220395Y0118133D03*
X0220395Y0118233D03*
X0220295Y0118433D03*
X0220295Y0118533D03*
X0222795Y0117033D03*
X0222795Y0116933D03*
X0222795Y0116833D03*
X0228995Y0114333D03*
X0240395Y0114433D03*
D406*
X0238295Y0114333D03*
X0251095Y0117033D03*
X0251095Y0122233D03*
X0265295Y0122433D03*
X0266695Y0127433D03*
X0266795Y0127533D03*
D407*
X0265645Y0132033D03*
X0228945Y0121033D03*
X0222445Y0118633D03*
X0222445Y0118533D03*
X0222445Y0118433D03*
X0220645Y0116833D03*
X0220645Y0116733D03*
X0213945Y0114433D03*
X0206645Y0116533D03*
X0206645Y0118333D03*
X0213945Y0121033D03*
X0228945Y0114433D03*
D408*
X0228945Y0114533D03*
X0222345Y0118933D03*
X0222345Y0119033D03*
X0222345Y0119133D03*
X0220745Y0116333D03*
X0220745Y0116233D03*
X0213945Y0114533D03*
X0210245Y0119033D03*
X0210245Y0119133D03*
X0210245Y0119233D03*
X0210345Y0119333D03*
X0210345Y0119433D03*
X0210345Y0119533D03*
X0210345Y0119633D03*
X0210345Y0119733D03*
X0213945Y0120933D03*
X0206745Y0118433D03*
X0206745Y0116333D03*
X0206745Y0116233D03*
X0228945Y0120933D03*
D409*
X0244545Y0115033D03*
X0210245Y0122733D03*
D410*
X0244495Y0115233D03*
X0244495Y0115133D03*
D411*
X0244545Y0115333D03*
X0244545Y0115433D03*
X0244545Y0115533D03*
X0251545Y0121233D03*
X0265345Y0122633D03*
D412*
X0265295Y0125633D03*
X0265395Y0125733D03*
X0265495Y0125833D03*
X0265595Y0125933D03*
X0265695Y0126033D03*
X0265795Y0126133D03*
X0265295Y0134033D03*
X0251495Y0121433D03*
X0251495Y0121333D03*
X0244495Y0115733D03*
X0244495Y0115633D03*
D413*
X0244545Y0115833D03*
X0244545Y0115933D03*
X0244545Y0116033D03*
X0251445Y0117833D03*
X0251445Y0117933D03*
X0251445Y0121533D03*
X0265845Y0126233D03*
X0265945Y0126333D03*
X0266045Y0126433D03*
D414*
X0225095Y0118333D03*
X0225095Y0118233D03*
X0225095Y0118133D03*
X0225095Y0118033D03*
X0225095Y0117933D03*
X0225095Y0117833D03*
X0225095Y0117733D03*
X0225095Y0117633D03*
X0225095Y0117533D03*
X0225095Y0117433D03*
X0225095Y0117333D03*
X0225095Y0117233D03*
X0225095Y0117133D03*
X0222295Y0119233D03*
X0222295Y0119333D03*
X0220795Y0116133D03*
X0220795Y0116033D03*
X0210195Y0118733D03*
X0210195Y0118833D03*
X0210195Y0118933D03*
X0210395Y0119833D03*
X0210395Y0119933D03*
X0210395Y0120033D03*
X0210395Y0120133D03*
X0206795Y0121033D03*
X0206795Y0118533D03*
X0206795Y0116133D03*
X0206795Y0116033D03*
X0195995Y0122133D03*
X0195995Y0122233D03*
X0195995Y0122333D03*
X0195995Y0122433D03*
X0195995Y0122533D03*
X0195995Y0122633D03*
D415*
X0244495Y0116133D03*
X0251395Y0117733D03*
X0251395Y0121633D03*
X0251395Y0121733D03*
X0265295Y0125533D03*
X0266095Y0126533D03*
X0266195Y0126633D03*
D416*
X0222895Y0116433D03*
X0222895Y0116333D03*
X0222895Y0116233D03*
X0220195Y0119033D03*
X0220195Y0119133D03*
X0220195Y0119233D03*
D417*
X0244545Y0116433D03*
X0244545Y0116333D03*
X0244545Y0116233D03*
X0251345Y0117533D03*
X0251345Y0117633D03*
X0251345Y0121833D03*
X0265345Y0122533D03*
X0266245Y0126733D03*
D418*
X0265295Y0122033D03*
X0240095Y0121133D03*
X0222395Y0118833D03*
X0222395Y0118733D03*
X0220695Y0116633D03*
X0220695Y0116533D03*
X0220695Y0116433D03*
X0206695Y0116433D03*
X0206695Y0121133D03*
D419*
X0194245Y0121133D03*
X0220245Y0118933D03*
X0220245Y0118833D03*
X0220245Y0118733D03*
X0220245Y0118633D03*
X0220345Y0118333D03*
X0222845Y0116733D03*
X0222845Y0116633D03*
X0222845Y0116533D03*
X0240345Y0121033D03*
D420*
X0222695Y0117433D03*
X0222595Y0117633D03*
X0222595Y0117733D03*
X0222595Y0117833D03*
X0220495Y0117733D03*
X0220495Y0117633D03*
X0220495Y0117533D03*
X0206495Y0116633D03*
X0265295Y0124533D03*
D421*
X0222495Y0118333D03*
X0222495Y0118233D03*
X0220595Y0117133D03*
X0220595Y0117033D03*
X0220595Y0116933D03*
D422*
X0220445Y0117833D03*
X0220445Y0117933D03*
X0222645Y0117533D03*
X0222745Y0117333D03*
X0222745Y0117233D03*
X0222745Y0117133D03*
X0228945Y0121133D03*
X0213945Y0121133D03*
X0206445Y0118233D03*
D423*
X0220545Y0117433D03*
X0220545Y0117333D03*
X0220545Y0117233D03*
X0222545Y0117933D03*
X0222545Y0118033D03*
X0222545Y0118133D03*
D424*
X0251195Y0117233D03*
X0251195Y0122133D03*
X0265295Y0125333D03*
X0266595Y0127233D03*
D425*
X0266545Y0127133D03*
X0266445Y0127033D03*
X0265345Y0134133D03*
X0251245Y0122033D03*
X0251245Y0117333D03*
D426*
X0251295Y0117433D03*
X0251295Y0121933D03*
X0265295Y0125433D03*
X0266295Y0126833D03*
X0266395Y0126933D03*
X0210395Y0122633D03*
D427*
X0265345Y0122733D03*
D428*
X0204195Y0122833D03*
D429*
X0265345Y0122833D03*
D430*
X0211145Y0122933D03*
D431*
X0265295Y0122933D03*
D432*
X0211145Y0123033D03*
D433*
X0265295Y0123033D03*
D434*
X0211145Y0123133D03*
D435*
X0265295Y0123133D03*
D436*
X0211145Y0123233D03*
D437*
X0265345Y0123233D03*
D438*
X0265345Y0133333D03*
D439*
X0265295Y0133433D03*
D440*
X0265345Y0133533D03*
D441*
X0265295Y0133633D03*
D442*
X0265345Y0133733D03*
D443*
X0265295Y0133833D03*
D444*
X0265295Y0133933D03*
M02*
