%
M48
M72
T01C0.0130
T02C0.0400
T03C0.0550
T04C0.0590
T05C0.0669
T06C0.1250
%
T01
X5510Y8393
X7710Y9843
X8210Y9843
X9510Y11593
X12910Y10843
X14010Y10843
X13760Y12493
X14760Y12493
X14010Y14393
X13010Y14393
X13310Y15393
X16610Y15343
X16610Y15993
X17860Y14843
X19160Y15843
X20160Y16093
X20360Y16293
X20710Y16293
X21560Y15993
X21760Y15593
X22260Y15143
X23060Y15093
X24510Y15143
X24510Y16843
X23760Y16993
X23360Y17093
X24410Y17543
X27810Y16643
X27710Y16243
X28710Y14843
X30210Y14843
X31110Y15143
X31610Y16093
X34260Y15143
X35510Y15143
X36260Y14643
X36760Y15143
X36760Y16143
X36760Y17143
X36760Y19143
X34610Y19443
X33710Y19543
X33110Y19993
X32860Y20693
X32860Y21393
X33860Y21393
X33960Y20693
X34610Y20443
X36760Y20743
X36760Y22643
X36510Y23643
X36010Y24393
X34010Y24393
X32310Y24243
X31260Y24393
X33810Y22993
X28860Y22893
X21910Y20343
X20510Y20393
X19710Y20143
X20910Y19143
X20110Y18093
X18760Y17093
X18560Y16893
X20160Y14643
X21010Y14443
X19710Y13243
X19160Y13293
X20360Y13043
X18460Y11693
X18060Y9593
X20060Y9593
X24110Y9593
X27460Y9593
X29010Y10243
X30460Y11393
X29260Y11493
X27510Y12743
X30910Y12943
X31210Y9193
X13660Y18143
X13310Y18143
X12310Y17693
X17410Y19943
X17410Y21543
X19510Y21393
X20960Y21393
X11710Y21043
X5510Y12643
T02
X11260Y6393
X12260Y6393
X13260Y6393
X14260Y6393
X15260Y6393
X16260Y6393
X17260Y6393
X18260Y6393
X19260Y6393
X20260Y6393
X21260Y6393
X22260Y6393
X23260Y6393
X24260Y6393
X25260Y6393
X26260Y6393
X27260Y6393
X28260Y6393
X29260Y6393
X30260Y6393
X31260Y6393
X32260Y6393
X33260Y6393
X33260Y7393
X32260Y7393
X31260Y7393
X30260Y7393
X29260Y7393
X28260Y7393
X27260Y7393
X26260Y7393
X25260Y7393
X24260Y7393
X23260Y7393
X22260Y7393
X21260Y7393
X20260Y7393
X19260Y7393
X18260Y7393
X17260Y7393
X16260Y7393
X15260Y7393
X14260Y7393
X13260Y7393
X12260Y7393
X11260Y7393
X12260Y8643
X13260Y8643
X14260Y8643
X15260Y8643
X15010Y15593
X15010Y16593
X15010Y17593
X15260Y25393
X14260Y25393
X13260Y25393
X12260Y25393
X11260Y25393
X11260Y26393
X12260Y26393
X13260Y26393
X14260Y26393
X15260Y26393
X16260Y26393
X17260Y26393
X18260Y26393
X19260Y26393
X20260Y26393
X21260Y26393
X22260Y26393
X23260Y26393
X24260Y26393
X25260Y26393
X26260Y26393
X27260Y26393
X28260Y26393
X29260Y26393
X30260Y26393
X31260Y26393
X32260Y26393
X33260Y26393
X33260Y25393
X32260Y25393
X31260Y25393
X30260Y25393
X29260Y25393
X28260Y25393
X27260Y25393
X26260Y25393
X25260Y25393
X24260Y25393
X23260Y25393
X22260Y25393
X21260Y25393
X20260Y25393
X19260Y25393
X18260Y25393
X17260Y25393
X16260Y25393
T03
X24010Y21893
T04
X25010Y22893
X23010Y22893
X23010Y20893
X25010Y20893
T05
X33102Y12336
X35858Y12336
T06
X35010Y8143
X9010Y6893
X35010Y24643
X9010Y25893
M30
