G75*
%MOIN*%
%OFA0B0*%
%FSLAX25Y25*%
%IPPOS*%
%LPD*%
%AMOC8*
5,1,8,0,0,1.08239X$1,22.5*
%
%ADD10R,0.04043X0.04437*%
%ADD11R,0.02665X0.05224*%
%ADD12R,0.06012X0.04634*%
%ADD13R,0.05224X0.02862*%
%ADD14R,0.03846X0.03846*%
%ADD15R,0.03650X0.07587*%
%ADD16R,0.04634X0.06012*%
%ADD17R,0.02469X0.04437*%
%ADD18R,0.20500X0.10000*%
%ADD19R,0.20500X0.09500*%
%ADD20R,0.06299X0.01575*%
%ADD21R,0.01575X0.06299*%
%ADD22R,0.03000X0.05500*%
%ADD23R,0.07900X0.07900*%
%ADD24C,0.07900*%
%ADD25R,0.04240X0.03256*%
%ADD26R,0.04437X0.04043*%
%ADD27R,0.09161X0.11524*%
%ADD28R,0.11524X0.11524*%
%ADD29C,0.07193*%
%ADD30R,0.02272X0.06406*%
%ADD31R,0.03400X0.11500*%
%ADD32C,0.13000*%
%ADD33C,0.08750*%
%ADD34C,0.09350*%
%ADD35R,0.05224X0.06012*%
%ADD36R,0.08374X0.02469*%
%ADD37R,0.09161X0.10343*%
%ADD38R,0.04831X0.02862*%
%ADD39C,0.02600*%
D10*
X0084946Y0115933D03*
X0091245Y0115933D03*
X0121946Y0158433D03*
X0128245Y0158433D03*
X0134446Y0158433D03*
X0140745Y0158433D03*
X0128745Y0181433D03*
X0122446Y0181433D03*
X0123245Y0214933D03*
X0116946Y0214933D03*
X0116946Y0221433D03*
X0123245Y0221433D03*
X0123245Y0227433D03*
X0116946Y0227433D03*
X0199446Y0213933D03*
X0205745Y0213933D03*
X0208946Y0203433D03*
X0215245Y0203433D03*
X0234446Y0150933D03*
X0240745Y0150933D03*
X0232245Y0144433D03*
X0225946Y0144433D03*
X0220245Y0144433D03*
X0213946Y0144433D03*
X0271946Y0111433D03*
X0278245Y0111433D03*
X0278245Y0105433D03*
X0271946Y0105433D03*
X0290446Y0090433D03*
X0296745Y0090433D03*
X0296745Y0084433D03*
X0290446Y0084433D03*
X0290946Y0127433D03*
X0285245Y0127433D03*
X0278946Y0127433D03*
X0297245Y0127433D03*
X0297745Y0148433D03*
X0291446Y0148433D03*
X0313946Y0233433D03*
X0320245Y0233433D03*
X0325946Y0233433D03*
X0332245Y0233433D03*
D11*
X0136835Y0175052D03*
X0129355Y0175052D03*
X0129355Y0164815D03*
X0133095Y0164815D03*
X0136835Y0164815D03*
D12*
X0123095Y0164693D03*
X0123095Y0172173D03*
X0174095Y0203693D03*
X0174095Y0211173D03*
D13*
X0089623Y0110173D03*
X0089623Y0106433D03*
X0089623Y0102693D03*
X0080568Y0102693D03*
X0080568Y0106433D03*
X0080568Y0110173D03*
D14*
X0120095Y0137339D03*
X0130095Y0137339D03*
X0140095Y0137339D03*
X0140095Y0150528D03*
X0130095Y0150528D03*
X0120095Y0150528D03*
D15*
X0271040Y0155469D03*
X0275371Y0155469D03*
X0279701Y0155469D03*
X0284032Y0155469D03*
X0288363Y0155469D03*
X0292694Y0155469D03*
X0297024Y0155469D03*
X0301355Y0155469D03*
X0316316Y0155469D03*
X0320646Y0155469D03*
X0324977Y0155469D03*
X0329308Y0155469D03*
X0333638Y0155469D03*
X0337969Y0155469D03*
X0337969Y0223185D03*
X0333638Y0223185D03*
X0329308Y0223185D03*
X0324977Y0223185D03*
X0320646Y0223185D03*
X0316316Y0223185D03*
X0301355Y0223185D03*
X0297024Y0223185D03*
X0292694Y0223185D03*
X0288363Y0223185D03*
X0284032Y0223185D03*
X0279701Y0223185D03*
X0275371Y0223185D03*
X0271040Y0223185D03*
D16*
X0318764Y0242433D03*
X0327426Y0242433D03*
X0297835Y0141433D03*
X0290355Y0141433D03*
D17*
X0323095Y0238496D03*
X0323095Y0246370D03*
D18*
X0362595Y0216683D03*
X0362595Y0182183D03*
D19*
X0362595Y0199433D03*
D20*
X0222536Y0188697D03*
X0222536Y0186728D03*
X0222536Y0184760D03*
X0222536Y0182791D03*
X0222536Y0180823D03*
X0222536Y0178854D03*
X0222536Y0176886D03*
X0222536Y0174917D03*
X0222536Y0172949D03*
X0222536Y0170980D03*
X0222536Y0169012D03*
X0222536Y0167043D03*
X0222536Y0165075D03*
X0222536Y0163106D03*
X0222536Y0161138D03*
X0222536Y0159169D03*
X0177654Y0159169D03*
X0177654Y0161138D03*
X0177654Y0163106D03*
X0177654Y0165075D03*
X0177654Y0167043D03*
X0177654Y0169012D03*
X0177654Y0170980D03*
X0177654Y0172949D03*
X0177654Y0174917D03*
X0177654Y0176886D03*
X0177654Y0178854D03*
X0177654Y0180823D03*
X0177654Y0182791D03*
X0177654Y0184760D03*
X0177654Y0186728D03*
X0177654Y0188697D03*
D21*
X0185331Y0196374D03*
X0187300Y0196374D03*
X0189268Y0196374D03*
X0191237Y0196374D03*
X0193205Y0196374D03*
X0195174Y0196374D03*
X0197142Y0196374D03*
X0199111Y0196374D03*
X0201079Y0196374D03*
X0203048Y0196374D03*
X0205016Y0196374D03*
X0206985Y0196374D03*
X0208953Y0196374D03*
X0210922Y0196374D03*
X0212890Y0196374D03*
X0214859Y0196374D03*
X0214859Y0151492D03*
X0212890Y0151492D03*
X0210922Y0151492D03*
X0208953Y0151492D03*
X0206985Y0151492D03*
X0205016Y0151492D03*
X0203048Y0151492D03*
X0201079Y0151492D03*
X0199111Y0151492D03*
X0197142Y0151492D03*
X0195174Y0151492D03*
X0193205Y0151492D03*
X0191237Y0151492D03*
X0189268Y0151492D03*
X0187300Y0151492D03*
X0185331Y0151492D03*
D22*
X0203895Y0136433D03*
X0207095Y0136433D03*
X0210295Y0136433D03*
D23*
X0112595Y0063933D03*
X0122595Y0086433D03*
X0150095Y0175933D03*
X0112595Y0253933D03*
D24*
X0122595Y0253933D03*
X0132595Y0253933D03*
X0142595Y0253933D03*
X0152595Y0253933D03*
X0152595Y0263933D03*
X0142595Y0263933D03*
X0132595Y0263933D03*
X0122595Y0263933D03*
X0112595Y0263933D03*
X0162595Y0263933D03*
X0172595Y0263933D03*
X0182595Y0263933D03*
X0192595Y0263933D03*
X0202595Y0263933D03*
X0212595Y0263933D03*
X0222595Y0263933D03*
X0222595Y0253933D03*
X0212595Y0253933D03*
X0202595Y0253933D03*
X0192595Y0253933D03*
X0182595Y0253933D03*
X0172595Y0253933D03*
X0162595Y0253933D03*
X0232595Y0253933D03*
X0242595Y0253933D03*
X0252595Y0253933D03*
X0262595Y0253933D03*
X0272595Y0253933D03*
X0282595Y0253933D03*
X0282595Y0263933D03*
X0272595Y0263933D03*
X0262595Y0263933D03*
X0252595Y0263933D03*
X0242595Y0263933D03*
X0232595Y0263933D03*
X0292595Y0263933D03*
X0302595Y0263933D03*
X0312595Y0263933D03*
X0322595Y0263933D03*
X0332595Y0263933D03*
X0332595Y0253933D03*
X0322595Y0253933D03*
X0312595Y0253933D03*
X0302595Y0253933D03*
X0292595Y0253933D03*
X0150095Y0165933D03*
X0150095Y0155933D03*
X0152595Y0086433D03*
X0142595Y0086433D03*
X0132595Y0086433D03*
X0132595Y0073933D03*
X0122595Y0073933D03*
X0112595Y0073933D03*
X0122595Y0063933D03*
X0132595Y0063933D03*
X0142595Y0063933D03*
X0152595Y0063933D03*
X0162595Y0063933D03*
X0172595Y0063933D03*
X0182595Y0063933D03*
X0192595Y0063933D03*
X0202595Y0063933D03*
X0212595Y0063933D03*
X0222595Y0063933D03*
X0232595Y0063933D03*
X0242595Y0063933D03*
X0252595Y0063933D03*
X0262595Y0063933D03*
X0272595Y0063933D03*
X0282595Y0063933D03*
X0292595Y0063933D03*
X0302595Y0063933D03*
X0312595Y0063933D03*
X0322595Y0063933D03*
X0332595Y0063933D03*
X0332595Y0073933D03*
X0322595Y0073933D03*
X0312595Y0073933D03*
X0302595Y0073933D03*
X0292595Y0073933D03*
X0282595Y0073933D03*
X0272595Y0073933D03*
X0262595Y0073933D03*
X0252595Y0073933D03*
X0242595Y0073933D03*
X0232595Y0073933D03*
X0222595Y0073933D03*
X0212595Y0073933D03*
X0202595Y0073933D03*
X0192595Y0073933D03*
X0182595Y0073933D03*
X0172595Y0073933D03*
X0162595Y0073933D03*
X0152595Y0073933D03*
X0142595Y0073933D03*
D25*
X0135942Y0214933D03*
X0129249Y0214933D03*
X0129249Y0221433D03*
X0129249Y0227433D03*
X0135942Y0227433D03*
X0135942Y0221433D03*
D26*
X0141595Y0235783D03*
X0147595Y0235783D03*
X0153595Y0235783D03*
X0153595Y0242083D03*
X0147595Y0242083D03*
X0141595Y0242083D03*
X0172595Y0242083D03*
X0172595Y0235783D03*
X0202595Y0235783D03*
X0202595Y0242083D03*
X0214095Y0228083D03*
X0220095Y0228083D03*
X0220095Y0221783D03*
X0214095Y0221783D03*
X0214095Y0216083D03*
X0220095Y0216083D03*
X0220095Y0209783D03*
X0214095Y0209783D03*
X0181095Y0209583D03*
X0181095Y0203283D03*
X0233595Y0181583D03*
X0239595Y0181583D03*
X0239595Y0175283D03*
X0233595Y0175283D03*
X0170595Y0160083D03*
X0170595Y0153783D03*
X0172595Y0092083D03*
X0172595Y0085783D03*
X0182595Y0085783D03*
X0182595Y0092083D03*
X0197595Y0092083D03*
X0203595Y0092083D03*
X0203595Y0085783D03*
X0197595Y0085783D03*
X0222595Y0085783D03*
X0222595Y0092083D03*
X0232595Y0092083D03*
X0241095Y0092083D03*
X0247095Y0092083D03*
X0253095Y0092083D03*
X0259095Y0092083D03*
X0265095Y0092083D03*
X0271095Y0092083D03*
X0277095Y0092083D03*
X0277095Y0085783D03*
X0271095Y0085783D03*
X0265095Y0085783D03*
X0259095Y0085783D03*
X0253095Y0085783D03*
X0247095Y0085783D03*
X0241095Y0085783D03*
X0232595Y0085783D03*
X0309095Y0119283D03*
X0309095Y0125583D03*
X0317595Y0092083D03*
X0317595Y0085783D03*
D27*
X0355036Y0108795D03*
X0362910Y0137929D03*
D28*
X0325902Y0137929D03*
D29*
X0331020Y0123362D03*
X0358579Y0123362D03*
D30*
X0300272Y0120350D03*
X0297713Y0120350D03*
X0295154Y0120350D03*
X0292595Y0120350D03*
X0290036Y0120350D03*
X0287477Y0120350D03*
X0284918Y0120350D03*
X0284918Y0097516D03*
X0287477Y0097516D03*
X0290036Y0097516D03*
X0292595Y0097516D03*
X0295154Y0097516D03*
X0297713Y0097516D03*
X0300272Y0097516D03*
D31*
X0147595Y0100933D03*
X0142595Y0100933D03*
X0137595Y0100933D03*
X0132595Y0100933D03*
X0127595Y0100933D03*
X0127595Y0116933D03*
X0132595Y0116933D03*
X0137595Y0116933D03*
X0142595Y0116933D03*
X0147595Y0116933D03*
D32*
X0090095Y0068933D03*
X0350095Y0081433D03*
X0350095Y0246433D03*
X0090095Y0258933D03*
D33*
X0240095Y0218933D03*
D34*
X0230095Y0228933D03*
X0250095Y0228933D03*
X0250095Y0208933D03*
X0230095Y0208933D03*
D35*
X0234249Y0165764D03*
X0240942Y0165764D03*
X0240942Y0157102D03*
X0234249Y0157102D03*
D36*
X0066729Y0111157D03*
X0066729Y0108008D03*
X0066729Y0104858D03*
X0066729Y0101709D03*
X0066729Y0098559D03*
D37*
X0065745Y0088323D03*
X0044879Y0088323D03*
X0044879Y0121394D03*
X0065745Y0121394D03*
D38*
X0197280Y0220193D03*
X0197280Y0223933D03*
X0197280Y0227673D03*
X0207910Y0227673D03*
X0207910Y0223933D03*
X0207910Y0220193D03*
D39*
X0209595Y0213933D03*
X0195095Y0213933D03*
X0205095Y0203933D03*
X0197095Y0201433D03*
X0209095Y0191433D03*
X0201095Y0180933D03*
X0187595Y0170933D03*
X0185595Y0168933D03*
X0191595Y0158433D03*
X0201595Y0160933D03*
X0203595Y0162933D03*
X0207095Y0162933D03*
X0215595Y0159933D03*
X0217595Y0155933D03*
X0222595Y0151433D03*
X0230595Y0150933D03*
X0245095Y0151433D03*
X0245095Y0168433D03*
X0237595Y0169933D03*
X0233595Y0170933D03*
X0244095Y0175433D03*
X0278095Y0166433D03*
X0277095Y0162433D03*
X0287095Y0148433D03*
X0302095Y0148433D03*
X0311095Y0151433D03*
X0316095Y0160933D03*
X0342595Y0151433D03*
X0355095Y0151433D03*
X0362595Y0146433D03*
X0367595Y0151433D03*
X0367595Y0161433D03*
X0367595Y0171433D03*
X0367595Y0191433D03*
X0346095Y0194433D03*
X0337095Y0195433D03*
X0331095Y0199933D03*
X0328595Y0206933D03*
X0328595Y0213933D03*
X0338595Y0213933D03*
X0339595Y0206933D03*
X0346095Y0204433D03*
X0367595Y0207433D03*
X0367595Y0226433D03*
X0365095Y0236433D03*
X0360095Y0243933D03*
X0340095Y0243933D03*
X0323095Y0242433D03*
X0312595Y0243933D03*
X0338095Y0229933D03*
X0288595Y0228933D03*
X0219095Y0203433D03*
X0174095Y0199433D03*
X0174095Y0215433D03*
X0136595Y0181433D03*
X0133095Y0181433D03*
X0123095Y0176933D03*
X0133095Y0153933D03*
X0130095Y0143933D03*
X0140095Y0143933D03*
X0166095Y0153433D03*
X0166095Y0159933D03*
X0178595Y0148433D03*
X0201595Y0146433D03*
X0210095Y0144433D03*
X0197095Y0132433D03*
X0191595Y0132933D03*
X0203595Y0130433D03*
X0184595Y0116933D03*
X0180595Y0095933D03*
X0200595Y0095933D03*
X0241095Y0095933D03*
X0274595Y0095933D03*
X0290095Y0102433D03*
X0304595Y0113933D03*
X0292595Y0114933D03*
X0275095Y0127433D03*
X0309095Y0129433D03*
X0312095Y0091933D03*
X0147595Y0124933D03*
X0137595Y0124933D03*
X0140095Y0108433D03*
X0129095Y0108433D03*
X0095095Y0115933D03*
X0082095Y0098433D03*
X0077095Y0098433D03*
X0055095Y0083933D03*
X0055095Y0126433D03*
X0117095Y0210433D03*
M02*
