G75*
%MOIN*%
%OFA0B0*%
%FSLAX25Y25*%
%IPPOS*%
%LPD*%
%AMOC8*
5,1,8,0,0,1.08239X$1,22.5*
%
%ADD10C,0.00000*%
%ADD11C,0.00500*%
D10*
X0083845Y0068933D02*
X0083847Y0069091D01*
X0083853Y0069248D01*
X0083863Y0069406D01*
X0083877Y0069563D01*
X0083895Y0069719D01*
X0083916Y0069876D01*
X0083942Y0070031D01*
X0083972Y0070186D01*
X0084005Y0070340D01*
X0084043Y0070493D01*
X0084084Y0070646D01*
X0084129Y0070797D01*
X0084178Y0070947D01*
X0084231Y0071095D01*
X0084287Y0071243D01*
X0084348Y0071388D01*
X0084411Y0071533D01*
X0084479Y0071675D01*
X0084550Y0071816D01*
X0084624Y0071955D01*
X0084702Y0072092D01*
X0084784Y0072227D01*
X0084868Y0072360D01*
X0084957Y0072491D01*
X0085048Y0072619D01*
X0085143Y0072746D01*
X0085240Y0072869D01*
X0085341Y0072991D01*
X0085445Y0073109D01*
X0085552Y0073225D01*
X0085662Y0073338D01*
X0085774Y0073449D01*
X0085890Y0073556D01*
X0086008Y0073661D01*
X0086128Y0073763D01*
X0086251Y0073861D01*
X0086377Y0073957D01*
X0086505Y0074049D01*
X0086635Y0074138D01*
X0086767Y0074224D01*
X0086902Y0074306D01*
X0087039Y0074385D01*
X0087177Y0074460D01*
X0087317Y0074532D01*
X0087460Y0074600D01*
X0087603Y0074665D01*
X0087749Y0074726D01*
X0087896Y0074783D01*
X0088044Y0074837D01*
X0088194Y0074887D01*
X0088344Y0074933D01*
X0088496Y0074975D01*
X0088649Y0075014D01*
X0088803Y0075048D01*
X0088958Y0075079D01*
X0089113Y0075105D01*
X0089269Y0075128D01*
X0089426Y0075147D01*
X0089583Y0075162D01*
X0089740Y0075173D01*
X0089898Y0075180D01*
X0090056Y0075183D01*
X0090213Y0075182D01*
X0090371Y0075177D01*
X0090528Y0075168D01*
X0090686Y0075155D01*
X0090842Y0075138D01*
X0090999Y0075117D01*
X0091154Y0075093D01*
X0091309Y0075064D01*
X0091464Y0075031D01*
X0091617Y0074995D01*
X0091770Y0074954D01*
X0091921Y0074910D01*
X0092071Y0074862D01*
X0092220Y0074811D01*
X0092368Y0074755D01*
X0092514Y0074696D01*
X0092659Y0074633D01*
X0092802Y0074566D01*
X0092943Y0074496D01*
X0093082Y0074423D01*
X0093220Y0074346D01*
X0093356Y0074265D01*
X0093489Y0074181D01*
X0093620Y0074094D01*
X0093749Y0074003D01*
X0093876Y0073909D01*
X0094001Y0073812D01*
X0094122Y0073712D01*
X0094242Y0073609D01*
X0094358Y0073503D01*
X0094472Y0073394D01*
X0094584Y0073282D01*
X0094692Y0073168D01*
X0094797Y0073050D01*
X0094900Y0072930D01*
X0094999Y0072808D01*
X0095095Y0072683D01*
X0095188Y0072555D01*
X0095278Y0072426D01*
X0095364Y0072294D01*
X0095448Y0072160D01*
X0095527Y0072024D01*
X0095604Y0071886D01*
X0095676Y0071746D01*
X0095745Y0071604D01*
X0095811Y0071461D01*
X0095873Y0071316D01*
X0095931Y0071169D01*
X0095986Y0071021D01*
X0096037Y0070872D01*
X0096084Y0070721D01*
X0096127Y0070570D01*
X0096166Y0070417D01*
X0096202Y0070263D01*
X0096233Y0070109D01*
X0096261Y0069954D01*
X0096285Y0069798D01*
X0096305Y0069641D01*
X0096321Y0069484D01*
X0096333Y0069327D01*
X0096341Y0069170D01*
X0096345Y0069012D01*
X0096345Y0068854D01*
X0096341Y0068696D01*
X0096333Y0068539D01*
X0096321Y0068382D01*
X0096305Y0068225D01*
X0096285Y0068068D01*
X0096261Y0067912D01*
X0096233Y0067757D01*
X0096202Y0067603D01*
X0096166Y0067449D01*
X0096127Y0067296D01*
X0096084Y0067145D01*
X0096037Y0066994D01*
X0095986Y0066845D01*
X0095931Y0066697D01*
X0095873Y0066550D01*
X0095811Y0066405D01*
X0095745Y0066262D01*
X0095676Y0066120D01*
X0095604Y0065980D01*
X0095527Y0065842D01*
X0095448Y0065706D01*
X0095364Y0065572D01*
X0095278Y0065440D01*
X0095188Y0065311D01*
X0095095Y0065183D01*
X0094999Y0065058D01*
X0094900Y0064936D01*
X0094797Y0064816D01*
X0094692Y0064698D01*
X0094584Y0064584D01*
X0094472Y0064472D01*
X0094358Y0064363D01*
X0094242Y0064257D01*
X0094122Y0064154D01*
X0094001Y0064054D01*
X0093876Y0063957D01*
X0093749Y0063863D01*
X0093620Y0063772D01*
X0093489Y0063685D01*
X0093356Y0063601D01*
X0093220Y0063520D01*
X0093082Y0063443D01*
X0092943Y0063370D01*
X0092802Y0063300D01*
X0092659Y0063233D01*
X0092514Y0063170D01*
X0092368Y0063111D01*
X0092220Y0063055D01*
X0092071Y0063004D01*
X0091921Y0062956D01*
X0091770Y0062912D01*
X0091617Y0062871D01*
X0091464Y0062835D01*
X0091309Y0062802D01*
X0091154Y0062773D01*
X0090999Y0062749D01*
X0090842Y0062728D01*
X0090686Y0062711D01*
X0090528Y0062698D01*
X0090371Y0062689D01*
X0090213Y0062684D01*
X0090056Y0062683D01*
X0089898Y0062686D01*
X0089740Y0062693D01*
X0089583Y0062704D01*
X0089426Y0062719D01*
X0089269Y0062738D01*
X0089113Y0062761D01*
X0088958Y0062787D01*
X0088803Y0062818D01*
X0088649Y0062852D01*
X0088496Y0062891D01*
X0088344Y0062933D01*
X0088194Y0062979D01*
X0088044Y0063029D01*
X0087896Y0063083D01*
X0087749Y0063140D01*
X0087603Y0063201D01*
X0087460Y0063266D01*
X0087317Y0063334D01*
X0087177Y0063406D01*
X0087039Y0063481D01*
X0086902Y0063560D01*
X0086767Y0063642D01*
X0086635Y0063728D01*
X0086505Y0063817D01*
X0086377Y0063909D01*
X0086251Y0064005D01*
X0086128Y0064103D01*
X0086008Y0064205D01*
X0085890Y0064310D01*
X0085774Y0064417D01*
X0085662Y0064528D01*
X0085552Y0064641D01*
X0085445Y0064757D01*
X0085341Y0064875D01*
X0085240Y0064997D01*
X0085143Y0065120D01*
X0085048Y0065247D01*
X0084957Y0065375D01*
X0084868Y0065506D01*
X0084784Y0065639D01*
X0084702Y0065774D01*
X0084624Y0065911D01*
X0084550Y0066050D01*
X0084479Y0066191D01*
X0084411Y0066333D01*
X0084348Y0066478D01*
X0084287Y0066623D01*
X0084231Y0066771D01*
X0084178Y0066919D01*
X0084129Y0067069D01*
X0084084Y0067220D01*
X0084043Y0067373D01*
X0084005Y0067526D01*
X0083972Y0067680D01*
X0083942Y0067835D01*
X0083916Y0067990D01*
X0083895Y0068147D01*
X0083877Y0068303D01*
X0083863Y0068460D01*
X0083853Y0068618D01*
X0083847Y0068775D01*
X0083845Y0068933D01*
X0327674Y0123362D02*
X0327676Y0123477D01*
X0327682Y0123593D01*
X0327692Y0123708D01*
X0327706Y0123823D01*
X0327724Y0123937D01*
X0327746Y0124050D01*
X0327771Y0124163D01*
X0327801Y0124274D01*
X0327834Y0124385D01*
X0327871Y0124494D01*
X0327912Y0124602D01*
X0327957Y0124709D01*
X0328005Y0124814D01*
X0328057Y0124917D01*
X0328113Y0125018D01*
X0328172Y0125118D01*
X0328234Y0125215D01*
X0328300Y0125310D01*
X0328368Y0125403D01*
X0328440Y0125493D01*
X0328515Y0125581D01*
X0328594Y0125666D01*
X0328675Y0125748D01*
X0328758Y0125828D01*
X0328845Y0125904D01*
X0328934Y0125978D01*
X0329025Y0126048D01*
X0329119Y0126116D01*
X0329215Y0126180D01*
X0329314Y0126240D01*
X0329414Y0126297D01*
X0329516Y0126351D01*
X0329620Y0126401D01*
X0329726Y0126448D01*
X0329833Y0126491D01*
X0329942Y0126530D01*
X0330052Y0126565D01*
X0330163Y0126596D01*
X0330275Y0126624D01*
X0330388Y0126648D01*
X0330502Y0126668D01*
X0330617Y0126684D01*
X0330732Y0126696D01*
X0330847Y0126704D01*
X0330962Y0126708D01*
X0331078Y0126708D01*
X0331193Y0126704D01*
X0331308Y0126696D01*
X0331423Y0126684D01*
X0331538Y0126668D01*
X0331652Y0126648D01*
X0331765Y0126624D01*
X0331877Y0126596D01*
X0331988Y0126565D01*
X0332098Y0126530D01*
X0332207Y0126491D01*
X0332314Y0126448D01*
X0332420Y0126401D01*
X0332524Y0126351D01*
X0332626Y0126297D01*
X0332726Y0126240D01*
X0332825Y0126180D01*
X0332921Y0126116D01*
X0333015Y0126048D01*
X0333106Y0125978D01*
X0333195Y0125904D01*
X0333282Y0125828D01*
X0333365Y0125748D01*
X0333446Y0125666D01*
X0333525Y0125581D01*
X0333600Y0125493D01*
X0333672Y0125403D01*
X0333740Y0125310D01*
X0333806Y0125215D01*
X0333868Y0125118D01*
X0333927Y0125018D01*
X0333983Y0124917D01*
X0334035Y0124814D01*
X0334083Y0124709D01*
X0334128Y0124602D01*
X0334169Y0124494D01*
X0334206Y0124385D01*
X0334239Y0124274D01*
X0334269Y0124163D01*
X0334294Y0124050D01*
X0334316Y0123937D01*
X0334334Y0123823D01*
X0334348Y0123708D01*
X0334358Y0123593D01*
X0334364Y0123477D01*
X0334366Y0123362D01*
X0334364Y0123247D01*
X0334358Y0123131D01*
X0334348Y0123016D01*
X0334334Y0122901D01*
X0334316Y0122787D01*
X0334294Y0122674D01*
X0334269Y0122561D01*
X0334239Y0122450D01*
X0334206Y0122339D01*
X0334169Y0122230D01*
X0334128Y0122122D01*
X0334083Y0122015D01*
X0334035Y0121910D01*
X0333983Y0121807D01*
X0333927Y0121706D01*
X0333868Y0121606D01*
X0333806Y0121509D01*
X0333740Y0121414D01*
X0333672Y0121321D01*
X0333600Y0121231D01*
X0333525Y0121143D01*
X0333446Y0121058D01*
X0333365Y0120976D01*
X0333282Y0120896D01*
X0333195Y0120820D01*
X0333106Y0120746D01*
X0333015Y0120676D01*
X0332921Y0120608D01*
X0332825Y0120544D01*
X0332726Y0120484D01*
X0332626Y0120427D01*
X0332524Y0120373D01*
X0332420Y0120323D01*
X0332314Y0120276D01*
X0332207Y0120233D01*
X0332098Y0120194D01*
X0331988Y0120159D01*
X0331877Y0120128D01*
X0331765Y0120100D01*
X0331652Y0120076D01*
X0331538Y0120056D01*
X0331423Y0120040D01*
X0331308Y0120028D01*
X0331193Y0120020D01*
X0331078Y0120016D01*
X0330962Y0120016D01*
X0330847Y0120020D01*
X0330732Y0120028D01*
X0330617Y0120040D01*
X0330502Y0120056D01*
X0330388Y0120076D01*
X0330275Y0120100D01*
X0330163Y0120128D01*
X0330052Y0120159D01*
X0329942Y0120194D01*
X0329833Y0120233D01*
X0329726Y0120276D01*
X0329620Y0120323D01*
X0329516Y0120373D01*
X0329414Y0120427D01*
X0329314Y0120484D01*
X0329215Y0120544D01*
X0329119Y0120608D01*
X0329025Y0120676D01*
X0328934Y0120746D01*
X0328845Y0120820D01*
X0328758Y0120896D01*
X0328675Y0120976D01*
X0328594Y0121058D01*
X0328515Y0121143D01*
X0328440Y0121231D01*
X0328368Y0121321D01*
X0328300Y0121414D01*
X0328234Y0121509D01*
X0328172Y0121606D01*
X0328113Y0121706D01*
X0328057Y0121807D01*
X0328005Y0121910D01*
X0327957Y0122015D01*
X0327912Y0122122D01*
X0327871Y0122230D01*
X0327834Y0122339D01*
X0327801Y0122450D01*
X0327771Y0122561D01*
X0327746Y0122674D01*
X0327724Y0122787D01*
X0327706Y0122901D01*
X0327692Y0123016D01*
X0327682Y0123131D01*
X0327676Y0123247D01*
X0327674Y0123362D01*
X0355233Y0123362D02*
X0355235Y0123477D01*
X0355241Y0123593D01*
X0355251Y0123708D01*
X0355265Y0123823D01*
X0355283Y0123937D01*
X0355305Y0124050D01*
X0355330Y0124163D01*
X0355360Y0124274D01*
X0355393Y0124385D01*
X0355430Y0124494D01*
X0355471Y0124602D01*
X0355516Y0124709D01*
X0355564Y0124814D01*
X0355616Y0124917D01*
X0355672Y0125018D01*
X0355731Y0125118D01*
X0355793Y0125215D01*
X0355859Y0125310D01*
X0355927Y0125403D01*
X0355999Y0125493D01*
X0356074Y0125581D01*
X0356153Y0125666D01*
X0356234Y0125748D01*
X0356317Y0125828D01*
X0356404Y0125904D01*
X0356493Y0125978D01*
X0356584Y0126048D01*
X0356678Y0126116D01*
X0356774Y0126180D01*
X0356873Y0126240D01*
X0356973Y0126297D01*
X0357075Y0126351D01*
X0357179Y0126401D01*
X0357285Y0126448D01*
X0357392Y0126491D01*
X0357501Y0126530D01*
X0357611Y0126565D01*
X0357722Y0126596D01*
X0357834Y0126624D01*
X0357947Y0126648D01*
X0358061Y0126668D01*
X0358176Y0126684D01*
X0358291Y0126696D01*
X0358406Y0126704D01*
X0358521Y0126708D01*
X0358637Y0126708D01*
X0358752Y0126704D01*
X0358867Y0126696D01*
X0358982Y0126684D01*
X0359097Y0126668D01*
X0359211Y0126648D01*
X0359324Y0126624D01*
X0359436Y0126596D01*
X0359547Y0126565D01*
X0359657Y0126530D01*
X0359766Y0126491D01*
X0359873Y0126448D01*
X0359979Y0126401D01*
X0360083Y0126351D01*
X0360185Y0126297D01*
X0360285Y0126240D01*
X0360384Y0126180D01*
X0360480Y0126116D01*
X0360574Y0126048D01*
X0360665Y0125978D01*
X0360754Y0125904D01*
X0360841Y0125828D01*
X0360924Y0125748D01*
X0361005Y0125666D01*
X0361084Y0125581D01*
X0361159Y0125493D01*
X0361231Y0125403D01*
X0361299Y0125310D01*
X0361365Y0125215D01*
X0361427Y0125118D01*
X0361486Y0125018D01*
X0361542Y0124917D01*
X0361594Y0124814D01*
X0361642Y0124709D01*
X0361687Y0124602D01*
X0361728Y0124494D01*
X0361765Y0124385D01*
X0361798Y0124274D01*
X0361828Y0124163D01*
X0361853Y0124050D01*
X0361875Y0123937D01*
X0361893Y0123823D01*
X0361907Y0123708D01*
X0361917Y0123593D01*
X0361923Y0123477D01*
X0361925Y0123362D01*
X0361923Y0123247D01*
X0361917Y0123131D01*
X0361907Y0123016D01*
X0361893Y0122901D01*
X0361875Y0122787D01*
X0361853Y0122674D01*
X0361828Y0122561D01*
X0361798Y0122450D01*
X0361765Y0122339D01*
X0361728Y0122230D01*
X0361687Y0122122D01*
X0361642Y0122015D01*
X0361594Y0121910D01*
X0361542Y0121807D01*
X0361486Y0121706D01*
X0361427Y0121606D01*
X0361365Y0121509D01*
X0361299Y0121414D01*
X0361231Y0121321D01*
X0361159Y0121231D01*
X0361084Y0121143D01*
X0361005Y0121058D01*
X0360924Y0120976D01*
X0360841Y0120896D01*
X0360754Y0120820D01*
X0360665Y0120746D01*
X0360574Y0120676D01*
X0360480Y0120608D01*
X0360384Y0120544D01*
X0360285Y0120484D01*
X0360185Y0120427D01*
X0360083Y0120373D01*
X0359979Y0120323D01*
X0359873Y0120276D01*
X0359766Y0120233D01*
X0359657Y0120194D01*
X0359547Y0120159D01*
X0359436Y0120128D01*
X0359324Y0120100D01*
X0359211Y0120076D01*
X0359097Y0120056D01*
X0358982Y0120040D01*
X0358867Y0120028D01*
X0358752Y0120020D01*
X0358637Y0120016D01*
X0358521Y0120016D01*
X0358406Y0120020D01*
X0358291Y0120028D01*
X0358176Y0120040D01*
X0358061Y0120056D01*
X0357947Y0120076D01*
X0357834Y0120100D01*
X0357722Y0120128D01*
X0357611Y0120159D01*
X0357501Y0120194D01*
X0357392Y0120233D01*
X0357285Y0120276D01*
X0357179Y0120323D01*
X0357075Y0120373D01*
X0356973Y0120427D01*
X0356873Y0120484D01*
X0356774Y0120544D01*
X0356678Y0120608D01*
X0356584Y0120676D01*
X0356493Y0120746D01*
X0356404Y0120820D01*
X0356317Y0120896D01*
X0356234Y0120976D01*
X0356153Y0121058D01*
X0356074Y0121143D01*
X0355999Y0121231D01*
X0355927Y0121321D01*
X0355859Y0121414D01*
X0355793Y0121509D01*
X0355731Y0121606D01*
X0355672Y0121706D01*
X0355616Y0121807D01*
X0355564Y0121910D01*
X0355516Y0122015D01*
X0355471Y0122122D01*
X0355430Y0122230D01*
X0355393Y0122339D01*
X0355360Y0122450D01*
X0355330Y0122561D01*
X0355305Y0122674D01*
X0355283Y0122787D01*
X0355265Y0122901D01*
X0355251Y0123016D01*
X0355241Y0123131D01*
X0355235Y0123247D01*
X0355233Y0123362D01*
X0343845Y0081433D02*
X0343847Y0081591D01*
X0343853Y0081748D01*
X0343863Y0081906D01*
X0343877Y0082063D01*
X0343895Y0082219D01*
X0343916Y0082376D01*
X0343942Y0082531D01*
X0343972Y0082686D01*
X0344005Y0082840D01*
X0344043Y0082993D01*
X0344084Y0083146D01*
X0344129Y0083297D01*
X0344178Y0083447D01*
X0344231Y0083595D01*
X0344287Y0083743D01*
X0344348Y0083888D01*
X0344411Y0084033D01*
X0344479Y0084175D01*
X0344550Y0084316D01*
X0344624Y0084455D01*
X0344702Y0084592D01*
X0344784Y0084727D01*
X0344868Y0084860D01*
X0344957Y0084991D01*
X0345048Y0085119D01*
X0345143Y0085246D01*
X0345240Y0085369D01*
X0345341Y0085491D01*
X0345445Y0085609D01*
X0345552Y0085725D01*
X0345662Y0085838D01*
X0345774Y0085949D01*
X0345890Y0086056D01*
X0346008Y0086161D01*
X0346128Y0086263D01*
X0346251Y0086361D01*
X0346377Y0086457D01*
X0346505Y0086549D01*
X0346635Y0086638D01*
X0346767Y0086724D01*
X0346902Y0086806D01*
X0347039Y0086885D01*
X0347177Y0086960D01*
X0347317Y0087032D01*
X0347460Y0087100D01*
X0347603Y0087165D01*
X0347749Y0087226D01*
X0347896Y0087283D01*
X0348044Y0087337D01*
X0348194Y0087387D01*
X0348344Y0087433D01*
X0348496Y0087475D01*
X0348649Y0087514D01*
X0348803Y0087548D01*
X0348958Y0087579D01*
X0349113Y0087605D01*
X0349269Y0087628D01*
X0349426Y0087647D01*
X0349583Y0087662D01*
X0349740Y0087673D01*
X0349898Y0087680D01*
X0350056Y0087683D01*
X0350213Y0087682D01*
X0350371Y0087677D01*
X0350528Y0087668D01*
X0350686Y0087655D01*
X0350842Y0087638D01*
X0350999Y0087617D01*
X0351154Y0087593D01*
X0351309Y0087564D01*
X0351464Y0087531D01*
X0351617Y0087495D01*
X0351770Y0087454D01*
X0351921Y0087410D01*
X0352071Y0087362D01*
X0352220Y0087311D01*
X0352368Y0087255D01*
X0352514Y0087196D01*
X0352659Y0087133D01*
X0352802Y0087066D01*
X0352943Y0086996D01*
X0353082Y0086923D01*
X0353220Y0086846D01*
X0353356Y0086765D01*
X0353489Y0086681D01*
X0353620Y0086594D01*
X0353749Y0086503D01*
X0353876Y0086409D01*
X0354001Y0086312D01*
X0354122Y0086212D01*
X0354242Y0086109D01*
X0354358Y0086003D01*
X0354472Y0085894D01*
X0354584Y0085782D01*
X0354692Y0085668D01*
X0354797Y0085550D01*
X0354900Y0085430D01*
X0354999Y0085308D01*
X0355095Y0085183D01*
X0355188Y0085055D01*
X0355278Y0084926D01*
X0355364Y0084794D01*
X0355448Y0084660D01*
X0355527Y0084524D01*
X0355604Y0084386D01*
X0355676Y0084246D01*
X0355745Y0084104D01*
X0355811Y0083961D01*
X0355873Y0083816D01*
X0355931Y0083669D01*
X0355986Y0083521D01*
X0356037Y0083372D01*
X0356084Y0083221D01*
X0356127Y0083070D01*
X0356166Y0082917D01*
X0356202Y0082763D01*
X0356233Y0082609D01*
X0356261Y0082454D01*
X0356285Y0082298D01*
X0356305Y0082141D01*
X0356321Y0081984D01*
X0356333Y0081827D01*
X0356341Y0081670D01*
X0356345Y0081512D01*
X0356345Y0081354D01*
X0356341Y0081196D01*
X0356333Y0081039D01*
X0356321Y0080882D01*
X0356305Y0080725D01*
X0356285Y0080568D01*
X0356261Y0080412D01*
X0356233Y0080257D01*
X0356202Y0080103D01*
X0356166Y0079949D01*
X0356127Y0079796D01*
X0356084Y0079645D01*
X0356037Y0079494D01*
X0355986Y0079345D01*
X0355931Y0079197D01*
X0355873Y0079050D01*
X0355811Y0078905D01*
X0355745Y0078762D01*
X0355676Y0078620D01*
X0355604Y0078480D01*
X0355527Y0078342D01*
X0355448Y0078206D01*
X0355364Y0078072D01*
X0355278Y0077940D01*
X0355188Y0077811D01*
X0355095Y0077683D01*
X0354999Y0077558D01*
X0354900Y0077436D01*
X0354797Y0077316D01*
X0354692Y0077198D01*
X0354584Y0077084D01*
X0354472Y0076972D01*
X0354358Y0076863D01*
X0354242Y0076757D01*
X0354122Y0076654D01*
X0354001Y0076554D01*
X0353876Y0076457D01*
X0353749Y0076363D01*
X0353620Y0076272D01*
X0353489Y0076185D01*
X0353356Y0076101D01*
X0353220Y0076020D01*
X0353082Y0075943D01*
X0352943Y0075870D01*
X0352802Y0075800D01*
X0352659Y0075733D01*
X0352514Y0075670D01*
X0352368Y0075611D01*
X0352220Y0075555D01*
X0352071Y0075504D01*
X0351921Y0075456D01*
X0351770Y0075412D01*
X0351617Y0075371D01*
X0351464Y0075335D01*
X0351309Y0075302D01*
X0351154Y0075273D01*
X0350999Y0075249D01*
X0350842Y0075228D01*
X0350686Y0075211D01*
X0350528Y0075198D01*
X0350371Y0075189D01*
X0350213Y0075184D01*
X0350056Y0075183D01*
X0349898Y0075186D01*
X0349740Y0075193D01*
X0349583Y0075204D01*
X0349426Y0075219D01*
X0349269Y0075238D01*
X0349113Y0075261D01*
X0348958Y0075287D01*
X0348803Y0075318D01*
X0348649Y0075352D01*
X0348496Y0075391D01*
X0348344Y0075433D01*
X0348194Y0075479D01*
X0348044Y0075529D01*
X0347896Y0075583D01*
X0347749Y0075640D01*
X0347603Y0075701D01*
X0347460Y0075766D01*
X0347317Y0075834D01*
X0347177Y0075906D01*
X0347039Y0075981D01*
X0346902Y0076060D01*
X0346767Y0076142D01*
X0346635Y0076228D01*
X0346505Y0076317D01*
X0346377Y0076409D01*
X0346251Y0076505D01*
X0346128Y0076603D01*
X0346008Y0076705D01*
X0345890Y0076810D01*
X0345774Y0076917D01*
X0345662Y0077028D01*
X0345552Y0077141D01*
X0345445Y0077257D01*
X0345341Y0077375D01*
X0345240Y0077497D01*
X0345143Y0077620D01*
X0345048Y0077747D01*
X0344957Y0077875D01*
X0344868Y0078006D01*
X0344784Y0078139D01*
X0344702Y0078274D01*
X0344624Y0078411D01*
X0344550Y0078550D01*
X0344479Y0078691D01*
X0344411Y0078833D01*
X0344348Y0078978D01*
X0344287Y0079123D01*
X0344231Y0079271D01*
X0344178Y0079419D01*
X0344129Y0079569D01*
X0344084Y0079720D01*
X0344043Y0079873D01*
X0344005Y0080026D01*
X0343972Y0080180D01*
X0343942Y0080335D01*
X0343916Y0080490D01*
X0343895Y0080647D01*
X0343877Y0080803D01*
X0343863Y0080960D01*
X0343853Y0081118D01*
X0343847Y0081275D01*
X0343845Y0081433D01*
X0343845Y0246433D02*
X0343847Y0246591D01*
X0343853Y0246748D01*
X0343863Y0246906D01*
X0343877Y0247063D01*
X0343895Y0247219D01*
X0343916Y0247376D01*
X0343942Y0247531D01*
X0343972Y0247686D01*
X0344005Y0247840D01*
X0344043Y0247993D01*
X0344084Y0248146D01*
X0344129Y0248297D01*
X0344178Y0248447D01*
X0344231Y0248595D01*
X0344287Y0248743D01*
X0344348Y0248888D01*
X0344411Y0249033D01*
X0344479Y0249175D01*
X0344550Y0249316D01*
X0344624Y0249455D01*
X0344702Y0249592D01*
X0344784Y0249727D01*
X0344868Y0249860D01*
X0344957Y0249991D01*
X0345048Y0250119D01*
X0345143Y0250246D01*
X0345240Y0250369D01*
X0345341Y0250491D01*
X0345445Y0250609D01*
X0345552Y0250725D01*
X0345662Y0250838D01*
X0345774Y0250949D01*
X0345890Y0251056D01*
X0346008Y0251161D01*
X0346128Y0251263D01*
X0346251Y0251361D01*
X0346377Y0251457D01*
X0346505Y0251549D01*
X0346635Y0251638D01*
X0346767Y0251724D01*
X0346902Y0251806D01*
X0347039Y0251885D01*
X0347177Y0251960D01*
X0347317Y0252032D01*
X0347460Y0252100D01*
X0347603Y0252165D01*
X0347749Y0252226D01*
X0347896Y0252283D01*
X0348044Y0252337D01*
X0348194Y0252387D01*
X0348344Y0252433D01*
X0348496Y0252475D01*
X0348649Y0252514D01*
X0348803Y0252548D01*
X0348958Y0252579D01*
X0349113Y0252605D01*
X0349269Y0252628D01*
X0349426Y0252647D01*
X0349583Y0252662D01*
X0349740Y0252673D01*
X0349898Y0252680D01*
X0350056Y0252683D01*
X0350213Y0252682D01*
X0350371Y0252677D01*
X0350528Y0252668D01*
X0350686Y0252655D01*
X0350842Y0252638D01*
X0350999Y0252617D01*
X0351154Y0252593D01*
X0351309Y0252564D01*
X0351464Y0252531D01*
X0351617Y0252495D01*
X0351770Y0252454D01*
X0351921Y0252410D01*
X0352071Y0252362D01*
X0352220Y0252311D01*
X0352368Y0252255D01*
X0352514Y0252196D01*
X0352659Y0252133D01*
X0352802Y0252066D01*
X0352943Y0251996D01*
X0353082Y0251923D01*
X0353220Y0251846D01*
X0353356Y0251765D01*
X0353489Y0251681D01*
X0353620Y0251594D01*
X0353749Y0251503D01*
X0353876Y0251409D01*
X0354001Y0251312D01*
X0354122Y0251212D01*
X0354242Y0251109D01*
X0354358Y0251003D01*
X0354472Y0250894D01*
X0354584Y0250782D01*
X0354692Y0250668D01*
X0354797Y0250550D01*
X0354900Y0250430D01*
X0354999Y0250308D01*
X0355095Y0250183D01*
X0355188Y0250055D01*
X0355278Y0249926D01*
X0355364Y0249794D01*
X0355448Y0249660D01*
X0355527Y0249524D01*
X0355604Y0249386D01*
X0355676Y0249246D01*
X0355745Y0249104D01*
X0355811Y0248961D01*
X0355873Y0248816D01*
X0355931Y0248669D01*
X0355986Y0248521D01*
X0356037Y0248372D01*
X0356084Y0248221D01*
X0356127Y0248070D01*
X0356166Y0247917D01*
X0356202Y0247763D01*
X0356233Y0247609D01*
X0356261Y0247454D01*
X0356285Y0247298D01*
X0356305Y0247141D01*
X0356321Y0246984D01*
X0356333Y0246827D01*
X0356341Y0246670D01*
X0356345Y0246512D01*
X0356345Y0246354D01*
X0356341Y0246196D01*
X0356333Y0246039D01*
X0356321Y0245882D01*
X0356305Y0245725D01*
X0356285Y0245568D01*
X0356261Y0245412D01*
X0356233Y0245257D01*
X0356202Y0245103D01*
X0356166Y0244949D01*
X0356127Y0244796D01*
X0356084Y0244645D01*
X0356037Y0244494D01*
X0355986Y0244345D01*
X0355931Y0244197D01*
X0355873Y0244050D01*
X0355811Y0243905D01*
X0355745Y0243762D01*
X0355676Y0243620D01*
X0355604Y0243480D01*
X0355527Y0243342D01*
X0355448Y0243206D01*
X0355364Y0243072D01*
X0355278Y0242940D01*
X0355188Y0242811D01*
X0355095Y0242683D01*
X0354999Y0242558D01*
X0354900Y0242436D01*
X0354797Y0242316D01*
X0354692Y0242198D01*
X0354584Y0242084D01*
X0354472Y0241972D01*
X0354358Y0241863D01*
X0354242Y0241757D01*
X0354122Y0241654D01*
X0354001Y0241554D01*
X0353876Y0241457D01*
X0353749Y0241363D01*
X0353620Y0241272D01*
X0353489Y0241185D01*
X0353356Y0241101D01*
X0353220Y0241020D01*
X0353082Y0240943D01*
X0352943Y0240870D01*
X0352802Y0240800D01*
X0352659Y0240733D01*
X0352514Y0240670D01*
X0352368Y0240611D01*
X0352220Y0240555D01*
X0352071Y0240504D01*
X0351921Y0240456D01*
X0351770Y0240412D01*
X0351617Y0240371D01*
X0351464Y0240335D01*
X0351309Y0240302D01*
X0351154Y0240273D01*
X0350999Y0240249D01*
X0350842Y0240228D01*
X0350686Y0240211D01*
X0350528Y0240198D01*
X0350371Y0240189D01*
X0350213Y0240184D01*
X0350056Y0240183D01*
X0349898Y0240186D01*
X0349740Y0240193D01*
X0349583Y0240204D01*
X0349426Y0240219D01*
X0349269Y0240238D01*
X0349113Y0240261D01*
X0348958Y0240287D01*
X0348803Y0240318D01*
X0348649Y0240352D01*
X0348496Y0240391D01*
X0348344Y0240433D01*
X0348194Y0240479D01*
X0348044Y0240529D01*
X0347896Y0240583D01*
X0347749Y0240640D01*
X0347603Y0240701D01*
X0347460Y0240766D01*
X0347317Y0240834D01*
X0347177Y0240906D01*
X0347039Y0240981D01*
X0346902Y0241060D01*
X0346767Y0241142D01*
X0346635Y0241228D01*
X0346505Y0241317D01*
X0346377Y0241409D01*
X0346251Y0241505D01*
X0346128Y0241603D01*
X0346008Y0241705D01*
X0345890Y0241810D01*
X0345774Y0241917D01*
X0345662Y0242028D01*
X0345552Y0242141D01*
X0345445Y0242257D01*
X0345341Y0242375D01*
X0345240Y0242497D01*
X0345143Y0242620D01*
X0345048Y0242747D01*
X0344957Y0242875D01*
X0344868Y0243006D01*
X0344784Y0243139D01*
X0344702Y0243274D01*
X0344624Y0243411D01*
X0344550Y0243550D01*
X0344479Y0243691D01*
X0344411Y0243833D01*
X0344348Y0243978D01*
X0344287Y0244123D01*
X0344231Y0244271D01*
X0344178Y0244419D01*
X0344129Y0244569D01*
X0344084Y0244720D01*
X0344043Y0244873D01*
X0344005Y0245026D01*
X0343972Y0245180D01*
X0343942Y0245335D01*
X0343916Y0245490D01*
X0343895Y0245647D01*
X0343877Y0245803D01*
X0343863Y0245960D01*
X0343853Y0246118D01*
X0343847Y0246275D01*
X0343845Y0246433D01*
X0083845Y0258933D02*
X0083847Y0259091D01*
X0083853Y0259248D01*
X0083863Y0259406D01*
X0083877Y0259563D01*
X0083895Y0259719D01*
X0083916Y0259876D01*
X0083942Y0260031D01*
X0083972Y0260186D01*
X0084005Y0260340D01*
X0084043Y0260493D01*
X0084084Y0260646D01*
X0084129Y0260797D01*
X0084178Y0260947D01*
X0084231Y0261095D01*
X0084287Y0261243D01*
X0084348Y0261388D01*
X0084411Y0261533D01*
X0084479Y0261675D01*
X0084550Y0261816D01*
X0084624Y0261955D01*
X0084702Y0262092D01*
X0084784Y0262227D01*
X0084868Y0262360D01*
X0084957Y0262491D01*
X0085048Y0262619D01*
X0085143Y0262746D01*
X0085240Y0262869D01*
X0085341Y0262991D01*
X0085445Y0263109D01*
X0085552Y0263225D01*
X0085662Y0263338D01*
X0085774Y0263449D01*
X0085890Y0263556D01*
X0086008Y0263661D01*
X0086128Y0263763D01*
X0086251Y0263861D01*
X0086377Y0263957D01*
X0086505Y0264049D01*
X0086635Y0264138D01*
X0086767Y0264224D01*
X0086902Y0264306D01*
X0087039Y0264385D01*
X0087177Y0264460D01*
X0087317Y0264532D01*
X0087460Y0264600D01*
X0087603Y0264665D01*
X0087749Y0264726D01*
X0087896Y0264783D01*
X0088044Y0264837D01*
X0088194Y0264887D01*
X0088344Y0264933D01*
X0088496Y0264975D01*
X0088649Y0265014D01*
X0088803Y0265048D01*
X0088958Y0265079D01*
X0089113Y0265105D01*
X0089269Y0265128D01*
X0089426Y0265147D01*
X0089583Y0265162D01*
X0089740Y0265173D01*
X0089898Y0265180D01*
X0090056Y0265183D01*
X0090213Y0265182D01*
X0090371Y0265177D01*
X0090528Y0265168D01*
X0090686Y0265155D01*
X0090842Y0265138D01*
X0090999Y0265117D01*
X0091154Y0265093D01*
X0091309Y0265064D01*
X0091464Y0265031D01*
X0091617Y0264995D01*
X0091770Y0264954D01*
X0091921Y0264910D01*
X0092071Y0264862D01*
X0092220Y0264811D01*
X0092368Y0264755D01*
X0092514Y0264696D01*
X0092659Y0264633D01*
X0092802Y0264566D01*
X0092943Y0264496D01*
X0093082Y0264423D01*
X0093220Y0264346D01*
X0093356Y0264265D01*
X0093489Y0264181D01*
X0093620Y0264094D01*
X0093749Y0264003D01*
X0093876Y0263909D01*
X0094001Y0263812D01*
X0094122Y0263712D01*
X0094242Y0263609D01*
X0094358Y0263503D01*
X0094472Y0263394D01*
X0094584Y0263282D01*
X0094692Y0263168D01*
X0094797Y0263050D01*
X0094900Y0262930D01*
X0094999Y0262808D01*
X0095095Y0262683D01*
X0095188Y0262555D01*
X0095278Y0262426D01*
X0095364Y0262294D01*
X0095448Y0262160D01*
X0095527Y0262024D01*
X0095604Y0261886D01*
X0095676Y0261746D01*
X0095745Y0261604D01*
X0095811Y0261461D01*
X0095873Y0261316D01*
X0095931Y0261169D01*
X0095986Y0261021D01*
X0096037Y0260872D01*
X0096084Y0260721D01*
X0096127Y0260570D01*
X0096166Y0260417D01*
X0096202Y0260263D01*
X0096233Y0260109D01*
X0096261Y0259954D01*
X0096285Y0259798D01*
X0096305Y0259641D01*
X0096321Y0259484D01*
X0096333Y0259327D01*
X0096341Y0259170D01*
X0096345Y0259012D01*
X0096345Y0258854D01*
X0096341Y0258696D01*
X0096333Y0258539D01*
X0096321Y0258382D01*
X0096305Y0258225D01*
X0096285Y0258068D01*
X0096261Y0257912D01*
X0096233Y0257757D01*
X0096202Y0257603D01*
X0096166Y0257449D01*
X0096127Y0257296D01*
X0096084Y0257145D01*
X0096037Y0256994D01*
X0095986Y0256845D01*
X0095931Y0256697D01*
X0095873Y0256550D01*
X0095811Y0256405D01*
X0095745Y0256262D01*
X0095676Y0256120D01*
X0095604Y0255980D01*
X0095527Y0255842D01*
X0095448Y0255706D01*
X0095364Y0255572D01*
X0095278Y0255440D01*
X0095188Y0255311D01*
X0095095Y0255183D01*
X0094999Y0255058D01*
X0094900Y0254936D01*
X0094797Y0254816D01*
X0094692Y0254698D01*
X0094584Y0254584D01*
X0094472Y0254472D01*
X0094358Y0254363D01*
X0094242Y0254257D01*
X0094122Y0254154D01*
X0094001Y0254054D01*
X0093876Y0253957D01*
X0093749Y0253863D01*
X0093620Y0253772D01*
X0093489Y0253685D01*
X0093356Y0253601D01*
X0093220Y0253520D01*
X0093082Y0253443D01*
X0092943Y0253370D01*
X0092802Y0253300D01*
X0092659Y0253233D01*
X0092514Y0253170D01*
X0092368Y0253111D01*
X0092220Y0253055D01*
X0092071Y0253004D01*
X0091921Y0252956D01*
X0091770Y0252912D01*
X0091617Y0252871D01*
X0091464Y0252835D01*
X0091309Y0252802D01*
X0091154Y0252773D01*
X0090999Y0252749D01*
X0090842Y0252728D01*
X0090686Y0252711D01*
X0090528Y0252698D01*
X0090371Y0252689D01*
X0090213Y0252684D01*
X0090056Y0252683D01*
X0089898Y0252686D01*
X0089740Y0252693D01*
X0089583Y0252704D01*
X0089426Y0252719D01*
X0089269Y0252738D01*
X0089113Y0252761D01*
X0088958Y0252787D01*
X0088803Y0252818D01*
X0088649Y0252852D01*
X0088496Y0252891D01*
X0088344Y0252933D01*
X0088194Y0252979D01*
X0088044Y0253029D01*
X0087896Y0253083D01*
X0087749Y0253140D01*
X0087603Y0253201D01*
X0087460Y0253266D01*
X0087317Y0253334D01*
X0087177Y0253406D01*
X0087039Y0253481D01*
X0086902Y0253560D01*
X0086767Y0253642D01*
X0086635Y0253728D01*
X0086505Y0253817D01*
X0086377Y0253909D01*
X0086251Y0254005D01*
X0086128Y0254103D01*
X0086008Y0254205D01*
X0085890Y0254310D01*
X0085774Y0254417D01*
X0085662Y0254528D01*
X0085552Y0254641D01*
X0085445Y0254757D01*
X0085341Y0254875D01*
X0085240Y0254997D01*
X0085143Y0255120D01*
X0085048Y0255247D01*
X0084957Y0255375D01*
X0084868Y0255506D01*
X0084784Y0255639D01*
X0084702Y0255774D01*
X0084624Y0255911D01*
X0084550Y0256050D01*
X0084479Y0256191D01*
X0084411Y0256333D01*
X0084348Y0256478D01*
X0084287Y0256623D01*
X0084231Y0256771D01*
X0084178Y0256919D01*
X0084129Y0257069D01*
X0084084Y0257220D01*
X0084043Y0257373D01*
X0084005Y0257526D01*
X0083972Y0257680D01*
X0083942Y0257835D01*
X0083916Y0257990D01*
X0083895Y0258147D01*
X0083877Y0258303D01*
X0083863Y0258460D01*
X0083853Y0258618D01*
X0083847Y0258775D01*
X0083845Y0258933D01*
D11*
X0057595Y0056433D02*
X0322595Y0056433D01*
X0323803Y0056448D01*
X0325011Y0056491D01*
X0326217Y0056564D01*
X0327421Y0056666D01*
X0328622Y0056798D01*
X0329819Y0056958D01*
X0331013Y0057147D01*
X0332201Y0057364D01*
X0333384Y0057611D01*
X0334561Y0057886D01*
X0335730Y0058189D01*
X0336892Y0058521D01*
X0338046Y0058880D01*
X0339190Y0059267D01*
X0340325Y0059682D01*
X0341450Y0060124D01*
X0342563Y0060593D01*
X0343665Y0061089D01*
X0344755Y0061612D01*
X0345831Y0062160D01*
X0346894Y0062735D01*
X0347943Y0063335D01*
X0348977Y0063960D01*
X0349996Y0064609D01*
X0350998Y0065284D01*
X0351984Y0065982D01*
X0352953Y0066704D01*
X0353904Y0067449D01*
X0354837Y0068217D01*
X0355751Y0069007D01*
X0356646Y0069820D01*
X0357521Y0070653D01*
X0358375Y0071507D01*
X0359208Y0072382D01*
X0360021Y0073277D01*
X0360811Y0074191D01*
X0361579Y0075124D01*
X0362324Y0076075D01*
X0363046Y0077044D01*
X0363744Y0078030D01*
X0364419Y0079032D01*
X0365068Y0080051D01*
X0365693Y0081085D01*
X0366293Y0082134D01*
X0366868Y0083197D01*
X0367416Y0084273D01*
X0367939Y0085363D01*
X0368435Y0086465D01*
X0368904Y0087578D01*
X0369346Y0088703D01*
X0369761Y0089838D01*
X0370148Y0090982D01*
X0370507Y0092136D01*
X0370839Y0093298D01*
X0371142Y0094467D01*
X0371417Y0095644D01*
X0371664Y0096827D01*
X0371881Y0098015D01*
X0372070Y0099209D01*
X0372230Y0100406D01*
X0372362Y0101607D01*
X0372464Y0102811D01*
X0372537Y0104017D01*
X0372580Y0105225D01*
X0372595Y0106433D01*
X0372595Y0221433D01*
X0372580Y0222641D01*
X0372537Y0223849D01*
X0372464Y0225055D01*
X0372362Y0226259D01*
X0372230Y0227460D01*
X0372070Y0228657D01*
X0371881Y0229851D01*
X0371664Y0231039D01*
X0371417Y0232222D01*
X0371142Y0233399D01*
X0370839Y0234568D01*
X0370507Y0235730D01*
X0370148Y0236884D01*
X0369761Y0238028D01*
X0369346Y0239163D01*
X0368904Y0240288D01*
X0368435Y0241401D01*
X0367939Y0242503D01*
X0367416Y0243593D01*
X0366868Y0244669D01*
X0366293Y0245732D01*
X0365693Y0246781D01*
X0365068Y0247815D01*
X0364419Y0248834D01*
X0363744Y0249836D01*
X0363046Y0250822D01*
X0362324Y0251791D01*
X0361579Y0252742D01*
X0360811Y0253675D01*
X0360021Y0254589D01*
X0359208Y0255484D01*
X0358375Y0256359D01*
X0357521Y0257213D01*
X0356646Y0258046D01*
X0355751Y0258859D01*
X0354837Y0259649D01*
X0353904Y0260417D01*
X0352953Y0261162D01*
X0351984Y0261884D01*
X0350998Y0262582D01*
X0349996Y0263257D01*
X0348977Y0263906D01*
X0347943Y0264531D01*
X0346894Y0265131D01*
X0345831Y0265706D01*
X0344755Y0266254D01*
X0343665Y0266777D01*
X0342563Y0267273D01*
X0341450Y0267742D01*
X0340325Y0268184D01*
X0339190Y0268599D01*
X0338046Y0268986D01*
X0336892Y0269345D01*
X0335730Y0269677D01*
X0334561Y0269980D01*
X0333384Y0270255D01*
X0332201Y0270502D01*
X0331013Y0270719D01*
X0329819Y0270908D01*
X0328622Y0271068D01*
X0327421Y0271200D01*
X0326217Y0271302D01*
X0325011Y0271375D01*
X0323803Y0271418D01*
X0322595Y0271433D01*
X0055095Y0271433D01*
X0055095Y0208933D01*
X0112595Y0208933D01*
X0112595Y0138933D01*
X0032595Y0138933D01*
X0032595Y0081433D01*
X0032602Y0080829D01*
X0032624Y0080225D01*
X0032661Y0079622D01*
X0032712Y0079020D01*
X0032777Y0078420D01*
X0032857Y0077821D01*
X0032952Y0077224D01*
X0033061Y0076630D01*
X0033184Y0076038D01*
X0033321Y0075450D01*
X0033473Y0074865D01*
X0033639Y0074284D01*
X0033819Y0073708D01*
X0034012Y0073135D01*
X0034220Y0072568D01*
X0034441Y0072006D01*
X0034675Y0071449D01*
X0034923Y0070898D01*
X0035184Y0070353D01*
X0035459Y0069815D01*
X0035746Y0069283D01*
X0036046Y0068759D01*
X0036358Y0068242D01*
X0036683Y0067733D01*
X0037020Y0067231D01*
X0037370Y0066738D01*
X0037731Y0066254D01*
X0038103Y0065778D01*
X0038487Y0065312D01*
X0038882Y0064855D01*
X0039288Y0064408D01*
X0039705Y0063970D01*
X0040132Y0063543D01*
X0040570Y0063126D01*
X0041017Y0062720D01*
X0041474Y0062325D01*
X0041940Y0061941D01*
X0042416Y0061569D01*
X0042900Y0061208D01*
X0043393Y0060858D01*
X0043895Y0060521D01*
X0044404Y0060196D01*
X0044921Y0059884D01*
X0045445Y0059584D01*
X0045977Y0059297D01*
X0046515Y0059022D01*
X0047060Y0058761D01*
X0047611Y0058513D01*
X0048168Y0058279D01*
X0048730Y0058058D01*
X0049297Y0057850D01*
X0049870Y0057657D01*
X0050446Y0057477D01*
X0051027Y0057311D01*
X0051612Y0057159D01*
X0052200Y0057022D01*
X0052792Y0056899D01*
X0053386Y0056790D01*
X0053983Y0056695D01*
X0054582Y0056615D01*
X0055182Y0056550D01*
X0055784Y0056499D01*
X0056387Y0056462D01*
X0056991Y0056440D01*
X0057595Y0056433D01*
M02*
