G75*
%MOIN*%
%OFA0B0*%
%FSLAX25Y25*%
%IPPOS*%
%LPD*%
%AMOC8*
5,1,8,0,0,1.08239X$1,22.5*
%
%ADD10C,0.06000*%
%ADD11C,0.08250*%
%ADD12C,0.08850*%
%ADD13C,0.02100*%
%ADD14C,0.01200*%
%ADD15C,0.01000*%
D10*
X0112595Y0063933D03*
X0122595Y0063933D03*
X0132595Y0063933D03*
X0142595Y0063933D03*
X0152595Y0063933D03*
X0162595Y0063933D03*
X0172595Y0063933D03*
X0182595Y0063933D03*
X0192595Y0063933D03*
X0202595Y0063933D03*
X0212595Y0063933D03*
X0222595Y0063933D03*
X0232595Y0063933D03*
X0242595Y0063933D03*
X0252595Y0063933D03*
X0262595Y0063933D03*
X0272595Y0063933D03*
X0282595Y0063933D03*
X0292595Y0063933D03*
X0302595Y0063933D03*
X0312595Y0063933D03*
X0322595Y0063933D03*
X0332595Y0063933D03*
X0332595Y0073933D03*
X0322595Y0073933D03*
X0312595Y0073933D03*
X0302595Y0073933D03*
X0292595Y0073933D03*
X0282595Y0073933D03*
X0272595Y0073933D03*
X0262595Y0073933D03*
X0252595Y0073933D03*
X0242595Y0073933D03*
X0232595Y0073933D03*
X0222595Y0073933D03*
X0212595Y0073933D03*
X0202595Y0073933D03*
X0192595Y0073933D03*
X0182595Y0073933D03*
X0172595Y0073933D03*
X0162595Y0073933D03*
X0152595Y0073933D03*
X0142595Y0073933D03*
X0132595Y0073933D03*
X0122595Y0073933D03*
X0112595Y0073933D03*
X0122595Y0086433D03*
X0132595Y0086433D03*
X0142595Y0086433D03*
X0152595Y0086433D03*
X0150095Y0155933D03*
X0150095Y0165933D03*
X0150095Y0175933D03*
X0152595Y0253933D03*
X0142595Y0253933D03*
X0132595Y0253933D03*
X0122595Y0253933D03*
X0112595Y0253933D03*
X0112595Y0263933D03*
X0122595Y0263933D03*
X0132595Y0263933D03*
X0142595Y0263933D03*
X0152595Y0263933D03*
X0162595Y0263933D03*
X0172595Y0263933D03*
X0182595Y0263933D03*
X0192595Y0263933D03*
X0202595Y0263933D03*
X0212595Y0263933D03*
X0222595Y0263933D03*
X0222595Y0253933D03*
X0212595Y0253933D03*
X0202595Y0253933D03*
X0192595Y0253933D03*
X0182595Y0253933D03*
X0172595Y0253933D03*
X0162595Y0253933D03*
X0232595Y0253933D03*
X0242595Y0253933D03*
X0252595Y0253933D03*
X0262595Y0253933D03*
X0272595Y0253933D03*
X0282595Y0253933D03*
X0282595Y0263933D03*
X0272595Y0263933D03*
X0262595Y0263933D03*
X0252595Y0263933D03*
X0242595Y0263933D03*
X0232595Y0263933D03*
X0292595Y0263933D03*
X0302595Y0263933D03*
X0312595Y0263933D03*
X0322595Y0263933D03*
X0332595Y0263933D03*
X0332595Y0253933D03*
X0322595Y0253933D03*
X0312595Y0253933D03*
X0302595Y0253933D03*
X0292595Y0253933D03*
D11*
X0240095Y0218933D03*
D12*
X0230095Y0228933D03*
X0250095Y0228933D03*
X0250095Y0208933D03*
X0230095Y0208933D03*
D13*
X0219095Y0203433D03*
X0205095Y0203933D03*
X0197095Y0201433D03*
X0209095Y0191433D03*
X0201095Y0180933D03*
X0187595Y0170933D03*
X0185595Y0168933D03*
X0191595Y0158433D03*
X0201595Y0160933D03*
X0203595Y0162933D03*
X0207095Y0162933D03*
X0215595Y0159933D03*
X0217595Y0155933D03*
X0222595Y0151433D03*
X0230595Y0150933D03*
X0245095Y0151433D03*
X0245095Y0168433D03*
X0237595Y0169933D03*
X0233595Y0170933D03*
X0244095Y0175433D03*
X0278095Y0166433D03*
X0277095Y0162433D03*
X0287095Y0148433D03*
X0302095Y0148433D03*
X0311095Y0151433D03*
X0316095Y0160933D03*
X0342595Y0151433D03*
X0355095Y0151433D03*
X0362595Y0146433D03*
X0367595Y0151433D03*
X0367595Y0161433D03*
X0367595Y0171433D03*
X0367595Y0191433D03*
X0346095Y0194433D03*
X0337095Y0195433D03*
X0331095Y0199933D03*
X0328595Y0206933D03*
X0328595Y0213933D03*
X0338595Y0213933D03*
X0339595Y0206933D03*
X0346095Y0204433D03*
X0367595Y0207433D03*
X0367595Y0226433D03*
X0365095Y0236433D03*
X0360095Y0243933D03*
X0340095Y0243933D03*
X0323095Y0242433D03*
X0312595Y0243933D03*
X0338095Y0229933D03*
X0288595Y0228933D03*
X0209595Y0213933D03*
X0195095Y0213933D03*
X0174095Y0215433D03*
X0174095Y0199433D03*
X0136595Y0181433D03*
X0133095Y0181433D03*
X0123095Y0176933D03*
X0133095Y0153933D03*
X0130095Y0143933D03*
X0140095Y0143933D03*
X0166095Y0153433D03*
X0166095Y0159933D03*
X0178595Y0148433D03*
X0201595Y0146433D03*
X0210095Y0144433D03*
X0197095Y0132433D03*
X0191595Y0132933D03*
X0203595Y0130433D03*
X0184595Y0116933D03*
X0180595Y0095933D03*
X0200595Y0095933D03*
X0241095Y0095933D03*
X0274595Y0095933D03*
X0290095Y0102433D03*
X0304595Y0113933D03*
X0292595Y0114933D03*
X0275095Y0127433D03*
X0309095Y0129433D03*
X0312095Y0091933D03*
X0147595Y0124933D03*
X0137595Y0124933D03*
X0140095Y0108433D03*
X0129095Y0108433D03*
X0095095Y0115933D03*
X0082095Y0098433D03*
X0077095Y0098433D03*
X0055095Y0083933D03*
X0055095Y0126433D03*
X0117095Y0210433D03*
D14*
X0130095Y0143933D02*
X0115095Y0128933D01*
X0115095Y0083933D01*
X0119595Y0079433D01*
X0137095Y0079433D01*
X0142595Y0073933D01*
X0142595Y0071433D02*
X0142595Y0063933D01*
X0152595Y0086433D02*
X0152595Y0131433D01*
X0140095Y0143933D01*
D15*
X0050081Y0059960D02*
X0045491Y0062170D01*
X0041508Y0065346D01*
X0038332Y0069329D01*
X0036122Y0073919D01*
X0034988Y0078886D01*
X0034845Y0081433D01*
X0034845Y0136683D01*
X0113527Y0136683D01*
X0114845Y0138001D01*
X0114845Y0209865D01*
X0113527Y0211183D01*
X0057345Y0211183D01*
X0057345Y0269183D01*
X0322595Y0269183D01*
X0326342Y0269036D01*
X0332673Y0268033D01*
X0331780Y0268033D01*
X0330273Y0267409D01*
X0329119Y0266256D01*
X0328495Y0264749D01*
X0328495Y0263118D01*
X0329119Y0261611D01*
X0330273Y0260457D01*
X0331780Y0259833D01*
X0333411Y0259833D01*
X0334918Y0260457D01*
X0336071Y0261611D01*
X0336695Y0263118D01*
X0336695Y0264749D01*
X0336071Y0266256D01*
X0334918Y0267409D01*
X0334101Y0267747D01*
X0340868Y0265548D01*
X0347544Y0262147D01*
X0353606Y0257742D01*
X0358905Y0252444D01*
X0363309Y0246382D01*
X0366710Y0239706D01*
X0369026Y0232580D01*
X0370198Y0225179D01*
X0370345Y0221433D01*
X0370345Y0106433D01*
X0370198Y0102687D01*
X0369026Y0095286D01*
X0366710Y0088160D01*
X0363309Y0081484D01*
X0358905Y0075422D01*
X0353606Y0070124D01*
X0347544Y0065719D01*
X0340868Y0062318D01*
X0334101Y0060119D01*
X0334918Y0060457D01*
X0336071Y0061611D01*
X0336695Y0063118D01*
X0336695Y0064749D01*
X0336071Y0066256D01*
X0334918Y0067409D01*
X0333411Y0068033D01*
X0331780Y0068033D01*
X0330273Y0067409D01*
X0329119Y0066256D01*
X0328495Y0064749D01*
X0328495Y0063118D01*
X0329119Y0061611D01*
X0330273Y0060457D01*
X0331780Y0059833D01*
X0332673Y0059833D01*
X0326342Y0058830D01*
X0322595Y0058683D01*
X0057595Y0058683D01*
X0055048Y0058826D01*
X0050081Y0059960D01*
X0049111Y0060427D02*
X0110345Y0060427D01*
X0110273Y0060457D02*
X0111780Y0059833D01*
X0113411Y0059833D01*
X0114918Y0060457D01*
X0116071Y0061611D01*
X0116695Y0063118D01*
X0116695Y0064749D01*
X0116071Y0066256D01*
X0114918Y0067409D01*
X0113411Y0068033D01*
X0111780Y0068033D01*
X0110273Y0067409D01*
X0109119Y0066256D01*
X0108495Y0064749D01*
X0108495Y0063118D01*
X0109119Y0061611D01*
X0110273Y0060457D01*
X0109304Y0061426D02*
X0093529Y0061426D01*
X0094768Y0061939D02*
X0097089Y0064260D01*
X0098345Y0067292D01*
X0098345Y0070574D01*
X0097089Y0073606D01*
X0094768Y0075927D01*
X0091736Y0077183D01*
X0088454Y0077183D01*
X0085422Y0075927D01*
X0083101Y0073606D01*
X0081845Y0070574D01*
X0081845Y0067292D01*
X0083101Y0064260D01*
X0085422Y0061939D01*
X0088454Y0060683D01*
X0091736Y0060683D01*
X0094768Y0061939D01*
X0095253Y0062424D02*
X0108782Y0062424D01*
X0108495Y0063423D02*
X0096252Y0063423D01*
X0097156Y0064421D02*
X0108495Y0064421D01*
X0108773Y0065420D02*
X0097570Y0065420D01*
X0097983Y0066418D02*
X0109282Y0066418D01*
X0110292Y0067417D02*
X0098345Y0067417D01*
X0098345Y0068415D02*
X0140895Y0068415D01*
X0140895Y0067667D02*
X0140895Y0070199D01*
X0140273Y0070457D01*
X0139119Y0071611D01*
X0138495Y0073118D01*
X0138495Y0074749D01*
X0138753Y0075371D01*
X0136391Y0077733D01*
X0134135Y0077733D01*
X0134918Y0077409D01*
X0136071Y0076256D01*
X0136695Y0074749D01*
X0136695Y0073118D01*
X0136071Y0071611D01*
X0134918Y0070457D01*
X0133411Y0069833D01*
X0131780Y0069833D01*
X0130273Y0070457D01*
X0129119Y0071611D01*
X0128495Y0073118D01*
X0128495Y0074749D01*
X0129119Y0076256D01*
X0130273Y0077409D01*
X0131055Y0077733D01*
X0124135Y0077733D01*
X0124918Y0077409D01*
X0126071Y0076256D01*
X0126695Y0074749D01*
X0126695Y0073118D01*
X0126071Y0071611D01*
X0124918Y0070457D01*
X0123411Y0069833D01*
X0121780Y0069833D01*
X0120273Y0070457D01*
X0119119Y0071611D01*
X0118495Y0073118D01*
X0118495Y0074749D01*
X0119119Y0076256D01*
X0120273Y0077409D01*
X0121055Y0077733D01*
X0118891Y0077733D01*
X0114391Y0082233D01*
X0113395Y0083229D01*
X0113395Y0129637D01*
X0127945Y0144187D01*
X0127945Y0144824D01*
X0129205Y0146083D01*
X0130986Y0146083D01*
X0132245Y0144824D01*
X0132245Y0143043D01*
X0130986Y0141783D01*
X0130349Y0141783D01*
X0116795Y0128229D01*
X0116795Y0084637D01*
X0120299Y0081133D01*
X0137799Y0081133D01*
X0138795Y0080137D01*
X0141157Y0077775D01*
X0141780Y0078033D01*
X0143411Y0078033D01*
X0144918Y0077409D01*
X0146071Y0076256D01*
X0146695Y0074749D01*
X0146695Y0073118D01*
X0146071Y0071611D01*
X0144918Y0070457D01*
X0144295Y0070199D01*
X0144295Y0067667D01*
X0144918Y0067409D01*
X0146071Y0066256D01*
X0146695Y0064749D01*
X0146695Y0063118D01*
X0146071Y0061611D01*
X0144918Y0060457D01*
X0143411Y0059833D01*
X0141780Y0059833D01*
X0140273Y0060457D01*
X0139119Y0061611D01*
X0138495Y0063118D01*
X0138495Y0064749D01*
X0139119Y0066256D01*
X0140273Y0067409D01*
X0140895Y0067667D01*
X0140292Y0067417D02*
X0134899Y0067417D01*
X0134918Y0067409D02*
X0133411Y0068033D01*
X0131780Y0068033D01*
X0130273Y0067409D01*
X0129119Y0066256D01*
X0128495Y0064749D01*
X0128495Y0063118D01*
X0129119Y0061611D01*
X0130273Y0060457D01*
X0131780Y0059833D01*
X0133411Y0059833D01*
X0134918Y0060457D01*
X0136071Y0061611D01*
X0136695Y0063118D01*
X0136695Y0064749D01*
X0136071Y0066256D01*
X0134918Y0067409D01*
X0135908Y0066418D02*
X0139282Y0066418D01*
X0138773Y0065420D02*
X0136417Y0065420D01*
X0136695Y0064421D02*
X0138495Y0064421D01*
X0138495Y0063423D02*
X0136695Y0063423D01*
X0136408Y0062424D02*
X0138782Y0062424D01*
X0139304Y0061426D02*
X0135886Y0061426D01*
X0134845Y0060427D02*
X0140345Y0060427D01*
X0144845Y0060427D02*
X0150345Y0060427D01*
X0150273Y0060457D02*
X0151780Y0059833D01*
X0153411Y0059833D01*
X0154918Y0060457D01*
X0156071Y0061611D01*
X0156695Y0063118D01*
X0156695Y0064749D01*
X0156071Y0066256D01*
X0154918Y0067409D01*
X0153411Y0068033D01*
X0151780Y0068033D01*
X0150273Y0067409D01*
X0149119Y0066256D01*
X0148495Y0064749D01*
X0148495Y0063118D01*
X0149119Y0061611D01*
X0150273Y0060457D01*
X0149304Y0061426D02*
X0145886Y0061426D01*
X0146408Y0062424D02*
X0148782Y0062424D01*
X0148495Y0063423D02*
X0146695Y0063423D01*
X0146695Y0064421D02*
X0148495Y0064421D01*
X0148773Y0065420D02*
X0146417Y0065420D01*
X0145908Y0066418D02*
X0149282Y0066418D01*
X0150292Y0067417D02*
X0144899Y0067417D01*
X0144295Y0068415D02*
X0351255Y0068415D01*
X0352629Y0069414D02*
X0144295Y0069414D01*
X0144809Y0070412D02*
X0150381Y0070412D01*
X0150273Y0070457D02*
X0151780Y0069833D01*
X0153411Y0069833D01*
X0154918Y0070457D01*
X0156071Y0071611D01*
X0156695Y0073118D01*
X0156695Y0074749D01*
X0156071Y0076256D01*
X0154918Y0077409D01*
X0153411Y0078033D01*
X0151780Y0078033D01*
X0150273Y0077409D01*
X0149119Y0076256D01*
X0148495Y0074749D01*
X0148495Y0073118D01*
X0149119Y0071611D01*
X0150273Y0070457D01*
X0149319Y0071411D02*
X0145871Y0071411D01*
X0146402Y0072409D02*
X0148789Y0072409D01*
X0148495Y0073408D02*
X0146695Y0073408D01*
X0146695Y0074406D02*
X0148495Y0074406D01*
X0148767Y0075405D02*
X0146423Y0075405D01*
X0145923Y0076403D02*
X0149267Y0076403D01*
X0150266Y0077402D02*
X0144925Y0077402D01*
X0140532Y0078400D02*
X0342422Y0078400D01*
X0342835Y0077402D02*
X0334925Y0077402D01*
X0334918Y0077409D02*
X0333411Y0078033D01*
X0331780Y0078033D01*
X0330273Y0077409D01*
X0329119Y0076256D01*
X0328495Y0074749D01*
X0328495Y0073118D01*
X0329119Y0071611D01*
X0330273Y0070457D01*
X0331780Y0069833D01*
X0333411Y0069833D01*
X0334918Y0070457D01*
X0336071Y0071611D01*
X0336695Y0073118D01*
X0336695Y0074749D01*
X0336071Y0076256D01*
X0334918Y0077409D01*
X0335923Y0076403D02*
X0343458Y0076403D01*
X0343101Y0076760D02*
X0345422Y0074439D01*
X0348454Y0073183D01*
X0351736Y0073183D01*
X0354768Y0074439D01*
X0357089Y0076760D01*
X0358345Y0079792D01*
X0358345Y0083074D01*
X0357089Y0086106D01*
X0354768Y0088427D01*
X0351736Y0089683D01*
X0348454Y0089683D01*
X0345422Y0088427D01*
X0343101Y0086106D01*
X0341845Y0083074D01*
X0341845Y0079792D01*
X0343101Y0076760D01*
X0344456Y0075405D02*
X0336423Y0075405D01*
X0336695Y0074406D02*
X0345501Y0074406D01*
X0347912Y0073408D02*
X0336695Y0073408D01*
X0336402Y0072409D02*
X0355892Y0072409D01*
X0354893Y0071411D02*
X0335871Y0071411D01*
X0334809Y0070412D02*
X0353895Y0070412D01*
X0352279Y0073408D02*
X0356890Y0073408D01*
X0357889Y0074406D02*
X0354689Y0074406D01*
X0355734Y0075405D02*
X0358887Y0075405D01*
X0359618Y0076403D02*
X0356733Y0076403D01*
X0357355Y0077402D02*
X0360343Y0077402D01*
X0361068Y0078400D02*
X0357769Y0078400D01*
X0358182Y0079399D02*
X0361794Y0079399D01*
X0362519Y0080397D02*
X0358345Y0080397D01*
X0358345Y0081396D02*
X0363245Y0081396D01*
X0363773Y0082394D02*
X0358345Y0082394D01*
X0358213Y0083393D02*
X0364281Y0083393D01*
X0364790Y0084391D02*
X0357799Y0084391D01*
X0357386Y0085390D02*
X0365299Y0085390D01*
X0365808Y0086388D02*
X0356807Y0086388D01*
X0355809Y0087387D02*
X0366317Y0087387D01*
X0366784Y0088385D02*
X0354810Y0088385D01*
X0352458Y0089384D02*
X0367108Y0089384D01*
X0367433Y0090382D02*
X0313585Y0090382D01*
X0312986Y0089783D02*
X0314245Y0091043D01*
X0314245Y0092824D01*
X0312986Y0094083D01*
X0311205Y0094083D01*
X0309945Y0092824D01*
X0309945Y0091043D01*
X0311205Y0089783D01*
X0312986Y0089783D01*
X0314245Y0091381D02*
X0367757Y0091381D01*
X0368081Y0092379D02*
X0314245Y0092379D01*
X0313691Y0093378D02*
X0368406Y0093378D01*
X0368730Y0094377D02*
X0276079Y0094377D01*
X0275486Y0093783D02*
X0276745Y0095043D01*
X0276745Y0096824D01*
X0275486Y0098083D01*
X0273705Y0098083D01*
X0272445Y0096824D01*
X0272445Y0095043D01*
X0273705Y0093783D01*
X0275486Y0093783D01*
X0276745Y0095375D02*
X0369040Y0095375D01*
X0369198Y0096374D02*
X0276745Y0096374D01*
X0276197Y0097372D02*
X0369356Y0097372D01*
X0369514Y0098371D02*
X0154295Y0098371D01*
X0154295Y0099369D02*
X0369672Y0099369D01*
X0369831Y0100368D02*
X0291070Y0100368D01*
X0290986Y0100283D02*
X0292245Y0101543D01*
X0292245Y0103324D01*
X0290986Y0104583D01*
X0289205Y0104583D01*
X0287945Y0103324D01*
X0287945Y0101543D01*
X0289205Y0100283D01*
X0290986Y0100283D01*
X0292069Y0101366D02*
X0369989Y0101366D01*
X0370147Y0102365D02*
X0292245Y0102365D01*
X0292206Y0103363D02*
X0370225Y0103363D01*
X0370264Y0104362D02*
X0291207Y0104362D01*
X0288983Y0104362D02*
X0154295Y0104362D01*
X0154295Y0105360D02*
X0370303Y0105360D01*
X0370342Y0106359D02*
X0154295Y0106359D01*
X0154295Y0107357D02*
X0370345Y0107357D01*
X0370345Y0108356D02*
X0154295Y0108356D01*
X0154295Y0109354D02*
X0370345Y0109354D01*
X0370345Y0110353D02*
X0154295Y0110353D01*
X0154295Y0111351D02*
X0370345Y0111351D01*
X0370345Y0112350D02*
X0154295Y0112350D01*
X0154295Y0113348D02*
X0291139Y0113348D01*
X0291705Y0112783D02*
X0293486Y0112783D01*
X0294745Y0114043D01*
X0294745Y0115824D01*
X0293486Y0117083D01*
X0291705Y0117083D01*
X0290445Y0115824D01*
X0290445Y0114043D01*
X0291705Y0112783D01*
X0290445Y0114347D02*
X0154295Y0114347D01*
X0154295Y0115345D02*
X0183142Y0115345D01*
X0183705Y0114783D02*
X0185486Y0114783D01*
X0186745Y0116043D01*
X0186745Y0117824D01*
X0185486Y0119083D01*
X0183705Y0119083D01*
X0182445Y0117824D01*
X0182445Y0116043D01*
X0183705Y0114783D01*
X0182445Y0116344D02*
X0154295Y0116344D01*
X0154295Y0117342D02*
X0182445Y0117342D01*
X0182962Y0118341D02*
X0154295Y0118341D01*
X0154295Y0119339D02*
X0327482Y0119339D01*
X0327992Y0118830D02*
X0329957Y0118016D01*
X0332084Y0118016D01*
X0334049Y0118830D01*
X0335553Y0120334D01*
X0336367Y0122299D01*
X0336367Y0124426D01*
X0335553Y0126391D01*
X0334049Y0127895D01*
X0332084Y0128709D01*
X0329957Y0128709D01*
X0327992Y0127895D01*
X0326488Y0126391D01*
X0325674Y0124426D01*
X0325674Y0122299D01*
X0326488Y0120334D01*
X0327992Y0118830D01*
X0329172Y0118341D02*
X0186228Y0118341D01*
X0186745Y0117342D02*
X0370345Y0117342D01*
X0370345Y0116344D02*
X0294225Y0116344D01*
X0294745Y0115345D02*
X0370345Y0115345D01*
X0370345Y0114347D02*
X0294745Y0114347D01*
X0294051Y0113348D02*
X0370345Y0113348D01*
X0370345Y0118341D02*
X0360428Y0118341D01*
X0359643Y0118016D02*
X0361608Y0118830D01*
X0363112Y0120334D01*
X0363926Y0122299D01*
X0363926Y0124426D01*
X0363112Y0126391D01*
X0361608Y0127895D01*
X0359643Y0128709D01*
X0357516Y0128709D01*
X0355551Y0127895D01*
X0354047Y0126391D01*
X0353233Y0124426D01*
X0353233Y0122299D01*
X0354047Y0120334D01*
X0355551Y0118830D01*
X0357516Y0118016D01*
X0359643Y0118016D01*
X0362117Y0119339D02*
X0370345Y0119339D01*
X0370345Y0120338D02*
X0363114Y0120338D01*
X0363527Y0121336D02*
X0370345Y0121336D01*
X0370345Y0122335D02*
X0363926Y0122335D01*
X0363926Y0123333D02*
X0370345Y0123333D01*
X0370345Y0124332D02*
X0363926Y0124332D01*
X0363551Y0125330D02*
X0370345Y0125330D01*
X0370345Y0126329D02*
X0363138Y0126329D01*
X0362175Y0127327D02*
X0370345Y0127327D01*
X0370345Y0128326D02*
X0360567Y0128326D01*
X0356592Y0128326D02*
X0333008Y0128326D01*
X0334616Y0127327D02*
X0354984Y0127327D01*
X0354021Y0126329D02*
X0335578Y0126329D01*
X0335992Y0125330D02*
X0353608Y0125330D01*
X0353233Y0124332D02*
X0336367Y0124332D01*
X0336367Y0123333D02*
X0353233Y0123333D01*
X0353233Y0122335D02*
X0336367Y0122335D01*
X0335968Y0121336D02*
X0353632Y0121336D01*
X0354045Y0120338D02*
X0335555Y0120338D01*
X0334558Y0119339D02*
X0355041Y0119339D01*
X0356731Y0118341D02*
X0332868Y0118341D01*
X0326486Y0120338D02*
X0154295Y0120338D01*
X0154295Y0121336D02*
X0326073Y0121336D01*
X0325674Y0122335D02*
X0154295Y0122335D01*
X0154295Y0123333D02*
X0325674Y0123333D01*
X0325674Y0124332D02*
X0154295Y0124332D01*
X0154295Y0125330D02*
X0274157Y0125330D01*
X0274205Y0125283D02*
X0275986Y0125283D01*
X0277245Y0126543D01*
X0277245Y0128324D01*
X0275986Y0129583D01*
X0274205Y0129583D01*
X0272945Y0128324D01*
X0272945Y0126543D01*
X0274205Y0125283D01*
X0273159Y0126329D02*
X0154295Y0126329D01*
X0154295Y0127327D02*
X0272945Y0127327D01*
X0272947Y0128326D02*
X0204529Y0128326D01*
X0204486Y0128283D02*
X0205745Y0129543D01*
X0205745Y0131324D01*
X0204486Y0132583D01*
X0202705Y0132583D01*
X0201445Y0131324D01*
X0201445Y0129543D01*
X0202705Y0128283D01*
X0204486Y0128283D01*
X0205527Y0129324D02*
X0273946Y0129324D01*
X0276244Y0129324D02*
X0306945Y0129324D01*
X0306945Y0128543D02*
X0308205Y0127283D01*
X0309986Y0127283D01*
X0311245Y0128543D01*
X0311245Y0130324D01*
X0309986Y0131583D01*
X0308205Y0131583D01*
X0306945Y0130324D01*
X0306945Y0128543D01*
X0307162Y0128326D02*
X0277243Y0128326D01*
X0277245Y0127327D02*
X0308160Y0127327D01*
X0310030Y0127327D02*
X0327424Y0127327D01*
X0326462Y0126329D02*
X0277031Y0126329D01*
X0276033Y0125330D02*
X0326049Y0125330D01*
X0329033Y0128326D02*
X0311029Y0128326D01*
X0311245Y0129324D02*
X0370345Y0129324D01*
X0370345Y0130323D02*
X0311245Y0130323D01*
X0310247Y0131321D02*
X0370345Y0131321D01*
X0370345Y0132320D02*
X0204749Y0132320D01*
X0205745Y0131321D02*
X0307943Y0131321D01*
X0306945Y0130323D02*
X0205745Y0130323D01*
X0202662Y0128326D02*
X0154295Y0128326D01*
X0154295Y0129324D02*
X0201663Y0129324D01*
X0201445Y0130323D02*
X0198026Y0130323D01*
X0197986Y0130283D02*
X0199245Y0131543D01*
X0199245Y0133324D01*
X0197986Y0134583D01*
X0196205Y0134583D01*
X0194945Y0133324D01*
X0194945Y0131543D01*
X0196205Y0130283D01*
X0197986Y0130283D01*
X0199024Y0131321D02*
X0201445Y0131321D01*
X0202441Y0132320D02*
X0199245Y0132320D01*
X0199245Y0133318D02*
X0370345Y0133318D01*
X0370345Y0134317D02*
X0198252Y0134317D01*
X0195938Y0134317D02*
X0193252Y0134317D01*
X0193745Y0133824D02*
X0192486Y0135083D01*
X0190705Y0135083D01*
X0189445Y0133824D01*
X0189445Y0132043D01*
X0190705Y0130783D01*
X0192486Y0130783D01*
X0193745Y0132043D01*
X0193745Y0133824D01*
X0193745Y0133318D02*
X0194945Y0133318D01*
X0194945Y0132320D02*
X0193745Y0132320D01*
X0193024Y0131321D02*
X0195166Y0131321D01*
X0196165Y0130323D02*
X0154295Y0130323D01*
X0154295Y0131321D02*
X0190166Y0131321D01*
X0189445Y0132320D02*
X0154112Y0132320D01*
X0154295Y0132137D02*
X0142245Y0144187D01*
X0142245Y0144824D01*
X0140986Y0146083D01*
X0139205Y0146083D01*
X0137945Y0144824D01*
X0137945Y0143043D01*
X0139205Y0141783D01*
X0139841Y0141783D01*
X0150895Y0130729D01*
X0150895Y0090167D01*
X0150273Y0089909D01*
X0149119Y0088756D01*
X0148495Y0087249D01*
X0148495Y0085618D01*
X0149119Y0084111D01*
X0150273Y0082957D01*
X0151780Y0082333D01*
X0153411Y0082333D01*
X0154918Y0082957D01*
X0156071Y0084111D01*
X0156695Y0085618D01*
X0156695Y0087249D01*
X0156071Y0088756D01*
X0154918Y0089909D01*
X0154295Y0090167D01*
X0154295Y0132137D01*
X0153114Y0133318D02*
X0189445Y0133318D01*
X0189938Y0134317D02*
X0152115Y0134317D01*
X0151117Y0135315D02*
X0370345Y0135315D01*
X0370345Y0136314D02*
X0150118Y0136314D01*
X0149120Y0137312D02*
X0370345Y0137312D01*
X0370345Y0138311D02*
X0148121Y0138311D01*
X0147123Y0139310D02*
X0370345Y0139310D01*
X0370345Y0140308D02*
X0146124Y0140308D01*
X0145126Y0141307D02*
X0370345Y0141307D01*
X0370345Y0142305D02*
X0211008Y0142305D01*
X0210986Y0142283D02*
X0212245Y0143543D01*
X0212245Y0145324D01*
X0210986Y0146583D01*
X0209205Y0146583D01*
X0207945Y0145324D01*
X0207945Y0143543D01*
X0209205Y0142283D01*
X0210986Y0142283D01*
X0212006Y0143304D02*
X0370345Y0143304D01*
X0370345Y0144302D02*
X0363505Y0144302D01*
X0363486Y0144283D02*
X0364745Y0145543D01*
X0364745Y0147324D01*
X0363486Y0148583D01*
X0361705Y0148583D01*
X0360445Y0147324D01*
X0360445Y0145543D01*
X0361705Y0144283D01*
X0363486Y0144283D01*
X0364503Y0145301D02*
X0370345Y0145301D01*
X0370345Y0146299D02*
X0364745Y0146299D01*
X0364745Y0147298D02*
X0370345Y0147298D01*
X0370345Y0148296D02*
X0363773Y0148296D01*
X0361418Y0148296D02*
X0304245Y0148296D01*
X0304245Y0147543D02*
X0302986Y0146283D01*
X0301205Y0146283D01*
X0299945Y0147543D01*
X0299945Y0149324D01*
X0301205Y0150583D01*
X0302986Y0150583D01*
X0304245Y0149324D01*
X0304245Y0147543D01*
X0304000Y0147298D02*
X0360445Y0147298D01*
X0360445Y0146299D02*
X0303002Y0146299D01*
X0301189Y0146299D02*
X0211270Y0146299D01*
X0212245Y0145301D02*
X0360687Y0145301D01*
X0361686Y0144302D02*
X0212245Y0144302D01*
X0209183Y0142305D02*
X0144127Y0142305D01*
X0143129Y0143304D02*
X0208184Y0143304D01*
X0207945Y0144302D02*
X0202505Y0144302D01*
X0202486Y0144283D02*
X0203745Y0145543D01*
X0203745Y0147324D01*
X0202486Y0148583D01*
X0200705Y0148583D01*
X0199445Y0147324D01*
X0199445Y0145543D01*
X0200705Y0144283D01*
X0202486Y0144283D01*
X0203503Y0145301D02*
X0207945Y0145301D01*
X0208921Y0146299D02*
X0203745Y0146299D01*
X0203745Y0147298D02*
X0300190Y0147298D01*
X0299945Y0148296D02*
X0202773Y0148296D01*
X0200418Y0148296D02*
X0180745Y0148296D01*
X0180745Y0147543D02*
X0179486Y0146283D01*
X0177705Y0146283D01*
X0176445Y0147543D01*
X0176445Y0149324D01*
X0177705Y0150583D01*
X0179486Y0150583D01*
X0180745Y0149324D01*
X0180745Y0147543D01*
X0180500Y0147298D02*
X0199445Y0147298D01*
X0199445Y0146299D02*
X0179502Y0146299D01*
X0177689Y0146299D02*
X0114845Y0146299D01*
X0114845Y0145301D02*
X0128422Y0145301D01*
X0127945Y0144302D02*
X0114845Y0144302D01*
X0114845Y0143304D02*
X0127061Y0143304D01*
X0126063Y0142305D02*
X0114845Y0142305D01*
X0114845Y0141307D02*
X0125064Y0141307D01*
X0124066Y0140308D02*
X0114845Y0140308D01*
X0114845Y0139310D02*
X0123067Y0139310D01*
X0122069Y0138311D02*
X0114845Y0138311D01*
X0114157Y0137312D02*
X0121070Y0137312D01*
X0120072Y0136314D02*
X0034845Y0136314D01*
X0034845Y0135315D02*
X0119073Y0135315D01*
X0118075Y0134317D02*
X0034845Y0134317D01*
X0034845Y0133318D02*
X0117076Y0133318D01*
X0116078Y0132320D02*
X0034845Y0132320D01*
X0034845Y0131321D02*
X0115079Y0131321D01*
X0114081Y0130323D02*
X0034845Y0130323D01*
X0034845Y0129324D02*
X0113395Y0129324D01*
X0113395Y0128326D02*
X0056243Y0128326D01*
X0055986Y0128583D02*
X0054205Y0128583D01*
X0052945Y0127324D01*
X0052945Y0125543D01*
X0054205Y0124283D01*
X0055986Y0124283D01*
X0057245Y0125543D01*
X0057245Y0127324D01*
X0055986Y0128583D01*
X0057241Y0127327D02*
X0113395Y0127327D01*
X0113395Y0126329D02*
X0057245Y0126329D01*
X0057033Y0125330D02*
X0113395Y0125330D01*
X0113395Y0124332D02*
X0056034Y0124332D01*
X0054156Y0124332D02*
X0034845Y0124332D01*
X0034845Y0125330D02*
X0053157Y0125330D01*
X0052945Y0126329D02*
X0034845Y0126329D01*
X0034845Y0127327D02*
X0052949Y0127327D01*
X0053947Y0128326D02*
X0034845Y0128326D01*
X0034845Y0123333D02*
X0113395Y0123333D01*
X0113395Y0122335D02*
X0034845Y0122335D01*
X0034845Y0121336D02*
X0113395Y0121336D01*
X0113395Y0120338D02*
X0034845Y0120338D01*
X0034845Y0119339D02*
X0113395Y0119339D01*
X0113395Y0118341D02*
X0034845Y0118341D01*
X0034845Y0117342D02*
X0093464Y0117342D01*
X0092945Y0116824D02*
X0092945Y0115043D01*
X0094205Y0113783D01*
X0095986Y0113783D01*
X0097245Y0115043D01*
X0097245Y0116824D01*
X0095986Y0118083D01*
X0094205Y0118083D01*
X0092945Y0116824D01*
X0092945Y0116344D02*
X0034845Y0116344D01*
X0034845Y0115345D02*
X0092945Y0115345D01*
X0093641Y0114347D02*
X0034845Y0114347D01*
X0034845Y0113348D02*
X0113395Y0113348D01*
X0113395Y0112350D02*
X0034845Y0112350D01*
X0034845Y0111351D02*
X0113395Y0111351D01*
X0113395Y0110353D02*
X0034845Y0110353D01*
X0034845Y0109354D02*
X0113395Y0109354D01*
X0113395Y0108356D02*
X0034845Y0108356D01*
X0034845Y0107357D02*
X0113395Y0107357D01*
X0113395Y0106359D02*
X0034845Y0106359D01*
X0034845Y0105360D02*
X0113395Y0105360D01*
X0113395Y0104362D02*
X0034845Y0104362D01*
X0034845Y0103363D02*
X0113395Y0103363D01*
X0113395Y0102365D02*
X0034845Y0102365D01*
X0034845Y0101366D02*
X0113395Y0101366D01*
X0113395Y0100368D02*
X0083201Y0100368D01*
X0082986Y0100583D02*
X0081205Y0100583D01*
X0079945Y0099324D01*
X0079945Y0097543D01*
X0081205Y0096283D01*
X0082986Y0096283D01*
X0084245Y0097543D01*
X0084245Y0099324D01*
X0082986Y0100583D01*
X0084200Y0099369D02*
X0113395Y0099369D01*
X0113395Y0098371D02*
X0084245Y0098371D01*
X0084075Y0097372D02*
X0113395Y0097372D01*
X0113395Y0096374D02*
X0083076Y0096374D01*
X0081114Y0096374D02*
X0078076Y0096374D01*
X0077986Y0096283D02*
X0079245Y0097543D01*
X0079245Y0099324D01*
X0077986Y0100583D01*
X0076205Y0100583D01*
X0074945Y0099324D01*
X0074945Y0097543D01*
X0076205Y0096283D01*
X0077986Y0096283D01*
X0079075Y0097372D02*
X0080116Y0097372D01*
X0079945Y0098371D02*
X0079245Y0098371D01*
X0079200Y0099369D02*
X0079991Y0099369D01*
X0080989Y0100368D02*
X0078201Y0100368D01*
X0075989Y0100368D02*
X0034845Y0100368D01*
X0034845Y0099369D02*
X0074991Y0099369D01*
X0074945Y0098371D02*
X0034845Y0098371D01*
X0034845Y0097372D02*
X0075116Y0097372D01*
X0076114Y0096374D02*
X0034845Y0096374D01*
X0034845Y0095375D02*
X0113395Y0095375D01*
X0113395Y0094377D02*
X0034845Y0094377D01*
X0034845Y0093378D02*
X0113395Y0093378D01*
X0113395Y0092379D02*
X0034845Y0092379D01*
X0034845Y0091381D02*
X0113395Y0091381D01*
X0113395Y0090382D02*
X0034845Y0090382D01*
X0034845Y0089384D02*
X0113395Y0089384D01*
X0113395Y0088385D02*
X0034845Y0088385D01*
X0034845Y0087387D02*
X0113395Y0087387D01*
X0113395Y0086388D02*
X0034845Y0086388D01*
X0034845Y0085390D02*
X0053511Y0085390D01*
X0052945Y0084824D02*
X0052945Y0083043D01*
X0054205Y0081783D01*
X0055986Y0081783D01*
X0057245Y0083043D01*
X0057245Y0084824D01*
X0055986Y0086083D01*
X0054205Y0086083D01*
X0052945Y0084824D01*
X0052945Y0084391D02*
X0034845Y0084391D01*
X0034845Y0083393D02*
X0052945Y0083393D01*
X0053593Y0082394D02*
X0034845Y0082394D01*
X0034847Y0081396D02*
X0115228Y0081396D01*
X0114230Y0082394D02*
X0056597Y0082394D01*
X0057245Y0083393D02*
X0113395Y0083393D01*
X0113395Y0084391D02*
X0057245Y0084391D01*
X0056679Y0085390D02*
X0113395Y0085390D01*
X0116795Y0085390D02*
X0118589Y0085390D01*
X0118495Y0085618D02*
X0119119Y0084111D01*
X0120273Y0082957D01*
X0121780Y0082333D01*
X0123411Y0082333D01*
X0124918Y0082957D01*
X0126071Y0084111D01*
X0126695Y0085618D01*
X0126695Y0087249D01*
X0126071Y0088756D01*
X0124918Y0089909D01*
X0123411Y0090533D01*
X0121780Y0090533D01*
X0120273Y0089909D01*
X0119119Y0088756D01*
X0118495Y0087249D01*
X0118495Y0085618D01*
X0118495Y0086388D02*
X0116795Y0086388D01*
X0116795Y0087387D02*
X0118552Y0087387D01*
X0118966Y0088385D02*
X0116795Y0088385D01*
X0116795Y0089384D02*
X0119748Y0089384D01*
X0121416Y0090382D02*
X0116795Y0090382D01*
X0116795Y0091381D02*
X0150895Y0091381D01*
X0150895Y0092379D02*
X0116795Y0092379D01*
X0116795Y0093378D02*
X0150895Y0093378D01*
X0150895Y0094377D02*
X0116795Y0094377D01*
X0116795Y0095375D02*
X0150895Y0095375D01*
X0150895Y0096374D02*
X0116795Y0096374D01*
X0116795Y0097372D02*
X0150895Y0097372D01*
X0150895Y0098371D02*
X0116795Y0098371D01*
X0116795Y0099369D02*
X0150895Y0099369D01*
X0150895Y0100368D02*
X0116795Y0100368D01*
X0116795Y0101366D02*
X0150895Y0101366D01*
X0150895Y0102365D02*
X0116795Y0102365D01*
X0116795Y0103363D02*
X0150895Y0103363D01*
X0150895Y0104362D02*
X0116795Y0104362D01*
X0116795Y0105360D02*
X0150895Y0105360D01*
X0150895Y0106359D02*
X0141061Y0106359D01*
X0140986Y0106283D02*
X0142245Y0107543D01*
X0142245Y0109324D01*
X0140986Y0110583D01*
X0139205Y0110583D01*
X0137945Y0109324D01*
X0137945Y0107543D01*
X0139205Y0106283D01*
X0140986Y0106283D01*
X0142060Y0107357D02*
X0150895Y0107357D01*
X0150895Y0108356D02*
X0142245Y0108356D01*
X0142215Y0109354D02*
X0150895Y0109354D01*
X0150895Y0110353D02*
X0141216Y0110353D01*
X0138974Y0110353D02*
X0130216Y0110353D01*
X0129986Y0110583D02*
X0128205Y0110583D01*
X0126945Y0109324D01*
X0126945Y0107543D01*
X0128205Y0106283D01*
X0129986Y0106283D01*
X0131245Y0107543D01*
X0131245Y0109324D01*
X0129986Y0110583D01*
X0131215Y0109354D02*
X0137976Y0109354D01*
X0137945Y0108356D02*
X0131245Y0108356D01*
X0131060Y0107357D02*
X0138130Y0107357D01*
X0139129Y0106359D02*
X0130061Y0106359D01*
X0128129Y0106359D02*
X0116795Y0106359D01*
X0116795Y0107357D02*
X0127130Y0107357D01*
X0126945Y0108356D02*
X0116795Y0108356D01*
X0116795Y0109354D02*
X0126976Y0109354D01*
X0127974Y0110353D02*
X0116795Y0110353D01*
X0116795Y0111351D02*
X0150895Y0111351D01*
X0150895Y0112350D02*
X0116795Y0112350D01*
X0116795Y0113348D02*
X0150895Y0113348D01*
X0150895Y0114347D02*
X0116795Y0114347D01*
X0116795Y0115345D02*
X0150895Y0115345D01*
X0150895Y0116344D02*
X0116795Y0116344D01*
X0116795Y0117342D02*
X0150895Y0117342D01*
X0150895Y0118341D02*
X0116795Y0118341D01*
X0116795Y0119339D02*
X0150895Y0119339D01*
X0150895Y0120338D02*
X0116795Y0120338D01*
X0116795Y0121336D02*
X0150895Y0121336D01*
X0150895Y0122335D02*
X0116795Y0122335D01*
X0116795Y0123333D02*
X0136154Y0123333D01*
X0136705Y0122783D02*
X0135445Y0124043D01*
X0135445Y0125824D01*
X0136705Y0127083D01*
X0138486Y0127083D01*
X0139745Y0125824D01*
X0139745Y0124043D01*
X0138486Y0122783D01*
X0136705Y0122783D01*
X0135445Y0124332D02*
X0116795Y0124332D01*
X0116795Y0125330D02*
X0135445Y0125330D01*
X0135950Y0126329D02*
X0116795Y0126329D01*
X0116795Y0127327D02*
X0150895Y0127327D01*
X0150895Y0126329D02*
X0139240Y0126329D01*
X0139745Y0125330D02*
X0150895Y0125330D01*
X0150895Y0124332D02*
X0139745Y0124332D01*
X0139036Y0123333D02*
X0150895Y0123333D01*
X0150895Y0128326D02*
X0116892Y0128326D01*
X0117891Y0129324D02*
X0150895Y0129324D01*
X0150895Y0130323D02*
X0118889Y0130323D01*
X0119888Y0131321D02*
X0150303Y0131321D01*
X0149304Y0132320D02*
X0120886Y0132320D01*
X0121885Y0133318D02*
X0148306Y0133318D01*
X0147307Y0134317D02*
X0122883Y0134317D01*
X0123882Y0135315D02*
X0146309Y0135315D01*
X0145310Y0136314D02*
X0124880Y0136314D01*
X0125879Y0137312D02*
X0144312Y0137312D01*
X0143313Y0138311D02*
X0126877Y0138311D01*
X0127876Y0139310D02*
X0142315Y0139310D01*
X0141316Y0140308D02*
X0128874Y0140308D01*
X0129873Y0141307D02*
X0140318Y0141307D01*
X0138683Y0142305D02*
X0131508Y0142305D01*
X0132245Y0143304D02*
X0137945Y0143304D01*
X0137945Y0144302D02*
X0132245Y0144302D01*
X0131768Y0145301D02*
X0138422Y0145301D01*
X0141768Y0145301D02*
X0199687Y0145301D01*
X0200686Y0144302D02*
X0142245Y0144302D01*
X0147773Y0152457D02*
X0149280Y0151833D01*
X0150911Y0151833D01*
X0152418Y0152457D01*
X0153571Y0153611D01*
X0154195Y0155118D01*
X0154195Y0156749D01*
X0153571Y0158256D01*
X0152418Y0159409D01*
X0150911Y0160033D01*
X0149280Y0160033D01*
X0147773Y0159409D01*
X0146619Y0158256D01*
X0145995Y0156749D01*
X0145995Y0155118D01*
X0146619Y0153611D01*
X0147773Y0152457D01*
X0148176Y0152290D02*
X0134493Y0152290D01*
X0133986Y0151783D02*
X0135245Y0153043D01*
X0135245Y0154824D01*
X0133986Y0156083D01*
X0132205Y0156083D01*
X0130945Y0154824D01*
X0130945Y0153043D01*
X0132205Y0151783D01*
X0133986Y0151783D01*
X0135245Y0153289D02*
X0146941Y0153289D01*
X0146339Y0154287D02*
X0135245Y0154287D01*
X0134783Y0155286D02*
X0145995Y0155286D01*
X0145995Y0156284D02*
X0114845Y0156284D01*
X0114845Y0155286D02*
X0131407Y0155286D01*
X0130945Y0154287D02*
X0114845Y0154287D01*
X0114845Y0153289D02*
X0130945Y0153289D01*
X0131697Y0152290D02*
X0114845Y0152290D01*
X0114845Y0151292D02*
X0242945Y0151292D01*
X0242945Y0150543D02*
X0244205Y0149283D01*
X0245986Y0149283D01*
X0247245Y0150543D01*
X0247245Y0152324D01*
X0245986Y0153583D01*
X0244205Y0153583D01*
X0242945Y0152324D01*
X0242945Y0150543D01*
X0243195Y0150293D02*
X0179776Y0150293D01*
X0180745Y0149295D02*
X0244193Y0149295D01*
X0245997Y0149295D02*
X0299945Y0149295D01*
X0300915Y0150293D02*
X0246996Y0150293D01*
X0247245Y0151292D02*
X0308945Y0151292D01*
X0308945Y0150543D02*
X0310205Y0149283D01*
X0311986Y0149283D01*
X0313245Y0150543D01*
X0313245Y0152324D01*
X0311986Y0153583D01*
X0310205Y0153583D01*
X0308945Y0152324D01*
X0308945Y0150543D01*
X0309195Y0150293D02*
X0303276Y0150293D01*
X0304245Y0149295D02*
X0310193Y0149295D01*
X0311997Y0149295D02*
X0341693Y0149295D01*
X0341705Y0149283D02*
X0343486Y0149283D01*
X0344745Y0150543D01*
X0344745Y0152324D01*
X0343486Y0153583D01*
X0341705Y0153583D01*
X0340445Y0152324D01*
X0340445Y0150543D01*
X0341705Y0149283D01*
X0340695Y0150293D02*
X0312996Y0150293D01*
X0313245Y0151292D02*
X0340445Y0151292D01*
X0340445Y0152290D02*
X0313245Y0152290D01*
X0312280Y0153289D02*
X0341410Y0153289D01*
X0343780Y0153289D02*
X0353910Y0153289D01*
X0354205Y0153583D02*
X0352945Y0152324D01*
X0352945Y0150543D01*
X0354205Y0149283D01*
X0355986Y0149283D01*
X0357245Y0150543D01*
X0357245Y0152324D01*
X0355986Y0153583D01*
X0354205Y0153583D01*
X0352945Y0152290D02*
X0344745Y0152290D01*
X0344745Y0151292D02*
X0352945Y0151292D01*
X0353195Y0150293D02*
X0344496Y0150293D01*
X0343497Y0149295D02*
X0354193Y0149295D01*
X0355997Y0149295D02*
X0366693Y0149295D01*
X0366705Y0149283D02*
X0368486Y0149283D01*
X0369745Y0150543D01*
X0369745Y0152324D01*
X0368486Y0153583D01*
X0366705Y0153583D01*
X0365445Y0152324D01*
X0365445Y0150543D01*
X0366705Y0149283D01*
X0365695Y0150293D02*
X0356996Y0150293D01*
X0357245Y0151292D02*
X0365445Y0151292D01*
X0365445Y0152290D02*
X0357245Y0152290D01*
X0356280Y0153289D02*
X0366410Y0153289D01*
X0368780Y0153289D02*
X0370345Y0153289D01*
X0370345Y0154287D02*
X0218990Y0154287D01*
X0218486Y0153783D02*
X0219745Y0155043D01*
X0219745Y0156824D01*
X0218486Y0158083D01*
X0216786Y0158083D01*
X0217745Y0159043D01*
X0217745Y0160824D01*
X0216486Y0162083D01*
X0214705Y0162083D01*
X0213445Y0160824D01*
X0213445Y0159043D01*
X0214705Y0157783D01*
X0216405Y0157783D01*
X0215445Y0156824D01*
X0215445Y0155043D01*
X0216705Y0153783D01*
X0218486Y0153783D01*
X0219745Y0155286D02*
X0370345Y0155286D01*
X0370345Y0156284D02*
X0219745Y0156284D01*
X0219286Y0157283D02*
X0370345Y0157283D01*
X0370345Y0158281D02*
X0216984Y0158281D01*
X0217745Y0159280D02*
X0314708Y0159280D01*
X0315205Y0158783D02*
X0316986Y0158783D01*
X0318245Y0160043D01*
X0318245Y0161824D01*
X0316986Y0163083D01*
X0315205Y0163083D01*
X0313945Y0161824D01*
X0313945Y0160043D01*
X0315205Y0158783D01*
X0313945Y0160278D02*
X0217745Y0160278D01*
X0217292Y0161277D02*
X0275211Y0161277D01*
X0274945Y0161543D02*
X0276205Y0160283D01*
X0277986Y0160283D01*
X0279245Y0161543D01*
X0279245Y0163324D01*
X0278286Y0164283D01*
X0278986Y0164283D01*
X0280245Y0165543D01*
X0280245Y0167324D01*
X0278986Y0168583D01*
X0277205Y0168583D01*
X0275945Y0167324D01*
X0275945Y0165543D01*
X0276905Y0164583D01*
X0276205Y0164583D01*
X0274945Y0163324D01*
X0274945Y0161543D01*
X0274945Y0162275D02*
X0209245Y0162275D01*
X0209245Y0162043D02*
X0207986Y0160783D01*
X0206205Y0160783D01*
X0205345Y0161643D01*
X0204486Y0160783D01*
X0203745Y0160783D01*
X0203745Y0160043D01*
X0202486Y0158783D01*
X0200705Y0158783D01*
X0199445Y0160043D01*
X0199445Y0161824D01*
X0200705Y0163083D01*
X0201445Y0163083D01*
X0201445Y0163824D01*
X0202705Y0165083D01*
X0204486Y0165083D01*
X0205345Y0164224D01*
X0206205Y0165083D01*
X0207986Y0165083D01*
X0209245Y0163824D01*
X0209245Y0162043D01*
X0208479Y0161277D02*
X0213898Y0161277D01*
X0213445Y0160278D02*
X0203745Y0160278D01*
X0202982Y0159280D02*
X0213445Y0159280D01*
X0214206Y0158281D02*
X0193745Y0158281D01*
X0193745Y0157543D02*
X0192486Y0156283D01*
X0190705Y0156283D01*
X0189445Y0157543D01*
X0189445Y0159324D01*
X0190705Y0160583D01*
X0192486Y0160583D01*
X0193745Y0159324D01*
X0193745Y0157543D01*
X0193485Y0157283D02*
X0215904Y0157283D01*
X0215445Y0156284D02*
X0192487Y0156284D01*
X0190703Y0156284D02*
X0154195Y0156284D01*
X0154195Y0155286D02*
X0215445Y0155286D01*
X0216200Y0154287D02*
X0153851Y0154287D01*
X0153249Y0153289D02*
X0243910Y0153289D01*
X0242945Y0152290D02*
X0152014Y0152290D01*
X0153974Y0157283D02*
X0189705Y0157283D01*
X0189445Y0158281D02*
X0167484Y0158281D01*
X0166986Y0157783D02*
X0168245Y0159043D01*
X0168245Y0160824D01*
X0166986Y0162083D01*
X0165205Y0162083D01*
X0163945Y0160824D01*
X0163945Y0159043D01*
X0165205Y0157783D01*
X0166986Y0157783D01*
X0168245Y0159280D02*
X0189445Y0159280D01*
X0190400Y0160278D02*
X0168245Y0160278D01*
X0167792Y0161277D02*
X0199445Y0161277D01*
X0199445Y0160278D02*
X0192791Y0160278D01*
X0193745Y0159280D02*
X0200208Y0159280D01*
X0199897Y0162275D02*
X0151978Y0162275D01*
X0152418Y0162457D02*
X0153571Y0163611D01*
X0154195Y0165118D01*
X0154195Y0166749D01*
X0153571Y0168256D01*
X0152418Y0169409D01*
X0150911Y0170033D01*
X0149280Y0170033D01*
X0147773Y0169409D01*
X0146619Y0168256D01*
X0145995Y0166749D01*
X0145995Y0165118D01*
X0146619Y0163611D01*
X0147773Y0162457D01*
X0149280Y0161833D01*
X0150911Y0161833D01*
X0152418Y0162457D01*
X0153234Y0163274D02*
X0201445Y0163274D01*
X0201894Y0164272D02*
X0153845Y0164272D01*
X0154195Y0165271D02*
X0276217Y0165271D01*
X0275945Y0166269D02*
X0154195Y0166269D01*
X0153980Y0167268D02*
X0184220Y0167268D01*
X0184705Y0166783D02*
X0186486Y0166783D01*
X0187745Y0168043D01*
X0187745Y0168783D01*
X0188486Y0168783D01*
X0189745Y0170043D01*
X0189745Y0171824D01*
X0188486Y0173083D01*
X0186705Y0173083D01*
X0185445Y0171824D01*
X0185445Y0171083D01*
X0184705Y0171083D01*
X0183445Y0169824D01*
X0183445Y0168043D01*
X0184705Y0166783D01*
X0183445Y0168266D02*
X0153560Y0168266D01*
X0152562Y0169265D02*
X0183445Y0169265D01*
X0183885Y0170263D02*
X0114845Y0170263D01*
X0114845Y0169265D02*
X0147629Y0169265D01*
X0146630Y0168266D02*
X0114845Y0168266D01*
X0114845Y0167268D02*
X0146210Y0167268D01*
X0145995Y0166269D02*
X0114845Y0166269D01*
X0114845Y0165271D02*
X0145995Y0165271D01*
X0146345Y0164272D02*
X0114845Y0164272D01*
X0114845Y0163274D02*
X0146956Y0163274D01*
X0148212Y0162275D02*
X0114845Y0162275D01*
X0114845Y0161277D02*
X0164398Y0161277D01*
X0163945Y0160278D02*
X0114845Y0160278D01*
X0114845Y0159280D02*
X0147644Y0159280D01*
X0146645Y0158281D02*
X0114845Y0158281D01*
X0114845Y0157283D02*
X0146216Y0157283D01*
X0152547Y0159280D02*
X0163945Y0159280D01*
X0164706Y0158281D02*
X0153545Y0158281D01*
X0150911Y0171833D02*
X0152418Y0172457D01*
X0153571Y0173611D01*
X0154195Y0175118D01*
X0154195Y0176749D01*
X0153571Y0178256D01*
X0152418Y0179409D01*
X0150911Y0180033D01*
X0149280Y0180033D01*
X0147773Y0179409D01*
X0146619Y0178256D01*
X0145995Y0176749D01*
X0145995Y0175118D01*
X0146619Y0173611D01*
X0147773Y0172457D01*
X0149280Y0171833D01*
X0150911Y0171833D01*
X0151942Y0172260D02*
X0185882Y0172260D01*
X0185445Y0171262D02*
X0114845Y0171262D01*
X0114845Y0172260D02*
X0148248Y0172260D01*
X0146971Y0173259D02*
X0114845Y0173259D01*
X0114845Y0174257D02*
X0146351Y0174257D01*
X0145995Y0175256D02*
X0124459Y0175256D01*
X0123986Y0174783D02*
X0125245Y0176043D01*
X0125245Y0177824D01*
X0123986Y0179083D01*
X0122205Y0179083D01*
X0120945Y0177824D01*
X0120945Y0176043D01*
X0122205Y0174783D01*
X0123986Y0174783D01*
X0125245Y0176254D02*
X0145995Y0176254D01*
X0146204Y0177253D02*
X0125245Y0177253D01*
X0124817Y0178251D02*
X0146618Y0178251D01*
X0147614Y0179250D02*
X0114845Y0179250D01*
X0114845Y0180248D02*
X0198945Y0180248D01*
X0198945Y0180043D02*
X0198945Y0181824D01*
X0200205Y0183083D01*
X0201986Y0183083D01*
X0203245Y0181824D01*
X0203245Y0180043D01*
X0201986Y0178783D01*
X0200205Y0178783D01*
X0198945Y0180043D01*
X0199738Y0179250D02*
X0152577Y0179250D01*
X0153573Y0178251D02*
X0370345Y0178251D01*
X0370345Y0177253D02*
X0153986Y0177253D01*
X0154195Y0176254D02*
X0370345Y0176254D01*
X0370345Y0175256D02*
X0154195Y0175256D01*
X0153839Y0174257D02*
X0370345Y0174257D01*
X0370345Y0173259D02*
X0368810Y0173259D01*
X0368486Y0173583D02*
X0366705Y0173583D01*
X0365445Y0172324D01*
X0365445Y0170543D01*
X0366705Y0169283D01*
X0368486Y0169283D01*
X0369745Y0170543D01*
X0369745Y0172324D01*
X0368486Y0173583D01*
X0369745Y0172260D02*
X0370345Y0172260D01*
X0370345Y0171262D02*
X0369745Y0171262D01*
X0369466Y0170263D02*
X0370345Y0170263D01*
X0370345Y0169265D02*
X0247245Y0169265D01*
X0247245Y0169324D02*
X0245986Y0170583D01*
X0244205Y0170583D01*
X0242945Y0169324D01*
X0242945Y0167543D01*
X0244205Y0166283D01*
X0245986Y0166283D01*
X0247245Y0167543D01*
X0247245Y0169324D01*
X0247245Y0168266D02*
X0276888Y0168266D01*
X0275945Y0167268D02*
X0246970Y0167268D01*
X0246305Y0170263D02*
X0365724Y0170263D01*
X0365445Y0171262D02*
X0239307Y0171262D01*
X0239745Y0170824D02*
X0238486Y0172083D01*
X0236705Y0172083D01*
X0235745Y0171124D01*
X0235745Y0171824D01*
X0234486Y0173083D01*
X0232705Y0173083D01*
X0231445Y0171824D01*
X0231445Y0170043D01*
X0232705Y0168783D01*
X0234486Y0168783D01*
X0235445Y0169743D01*
X0235445Y0169043D01*
X0236705Y0167783D01*
X0238486Y0167783D01*
X0239745Y0169043D01*
X0239745Y0170824D01*
X0239745Y0170263D02*
X0243885Y0170263D01*
X0242945Y0169265D02*
X0239745Y0169265D01*
X0238969Y0168266D02*
X0242945Y0168266D01*
X0243220Y0167268D02*
X0186970Y0167268D01*
X0187745Y0168266D02*
X0236221Y0168266D01*
X0235445Y0169265D02*
X0234967Y0169265D01*
X0235745Y0171262D02*
X0235883Y0171262D01*
X0235308Y0172260D02*
X0365445Y0172260D01*
X0366380Y0173259D02*
X0153219Y0173259D01*
X0121732Y0175256D02*
X0114845Y0175256D01*
X0114845Y0176254D02*
X0120945Y0176254D01*
X0120945Y0177253D02*
X0114845Y0177253D01*
X0114845Y0178251D02*
X0121373Y0178251D01*
X0114845Y0181247D02*
X0198945Y0181247D01*
X0199367Y0182245D02*
X0114845Y0182245D01*
X0114845Y0183244D02*
X0370345Y0183244D01*
X0370345Y0182245D02*
X0202823Y0182245D01*
X0203245Y0181247D02*
X0370345Y0181247D01*
X0370345Y0180248D02*
X0203245Y0180248D01*
X0202453Y0179250D02*
X0370345Y0179250D01*
X0370345Y0184243D02*
X0114845Y0184243D01*
X0114845Y0185241D02*
X0370345Y0185241D01*
X0370345Y0186240D02*
X0114845Y0186240D01*
X0114845Y0187238D02*
X0370345Y0187238D01*
X0370345Y0188237D02*
X0114845Y0188237D01*
X0114845Y0189235D02*
X0370345Y0189235D01*
X0370345Y0190234D02*
X0369436Y0190234D01*
X0369745Y0190543D02*
X0368486Y0189283D01*
X0366705Y0189283D01*
X0365445Y0190543D01*
X0365445Y0192324D01*
X0366705Y0193583D01*
X0368486Y0193583D01*
X0369745Y0192324D01*
X0369745Y0190543D01*
X0369745Y0191232D02*
X0370345Y0191232D01*
X0370345Y0192231D02*
X0369745Y0192231D01*
X0370345Y0193229D02*
X0368840Y0193229D01*
X0370345Y0194228D02*
X0348245Y0194228D01*
X0348245Y0193543D02*
X0348245Y0195324D01*
X0346986Y0196583D01*
X0345205Y0196583D01*
X0343945Y0195324D01*
X0343945Y0193543D01*
X0345205Y0192283D01*
X0346986Y0192283D01*
X0348245Y0193543D01*
X0347932Y0193229D02*
X0366351Y0193229D01*
X0365445Y0192231D02*
X0211245Y0192231D01*
X0211245Y0192324D02*
X0209986Y0193583D01*
X0208205Y0193583D01*
X0206945Y0192324D01*
X0206945Y0190543D01*
X0208205Y0189283D01*
X0209986Y0189283D01*
X0211245Y0190543D01*
X0211245Y0192324D01*
X0211245Y0191232D02*
X0365445Y0191232D01*
X0365754Y0190234D02*
X0210936Y0190234D01*
X0210340Y0193229D02*
X0344259Y0193229D01*
X0343945Y0194228D02*
X0338930Y0194228D01*
X0339245Y0194543D02*
X0337986Y0193283D01*
X0336205Y0193283D01*
X0334945Y0194543D01*
X0334945Y0196324D01*
X0336205Y0197583D01*
X0337986Y0197583D01*
X0339245Y0196324D01*
X0339245Y0194543D01*
X0339245Y0195226D02*
X0343945Y0195226D01*
X0344846Y0196225D02*
X0339245Y0196225D01*
X0338346Y0197223D02*
X0370345Y0197223D01*
X0370345Y0196225D02*
X0347344Y0196225D01*
X0348245Y0195226D02*
X0370345Y0195226D01*
X0370345Y0198222D02*
X0332424Y0198222D01*
X0331986Y0197783D02*
X0333245Y0199043D01*
X0333245Y0200824D01*
X0331986Y0202083D01*
X0330205Y0202083D01*
X0328945Y0200824D01*
X0328945Y0199043D01*
X0330205Y0197783D01*
X0331986Y0197783D01*
X0333245Y0199220D02*
X0370345Y0199220D01*
X0370345Y0200219D02*
X0333245Y0200219D01*
X0332852Y0201217D02*
X0370345Y0201217D01*
X0370345Y0202216D02*
X0220918Y0202216D01*
X0221245Y0202543D02*
X0219986Y0201283D01*
X0218205Y0201283D01*
X0216945Y0202543D01*
X0216945Y0204324D01*
X0218205Y0205583D01*
X0219986Y0205583D01*
X0221245Y0204324D01*
X0221245Y0202543D01*
X0221245Y0203214D02*
X0344273Y0203214D01*
X0343945Y0203543D02*
X0345205Y0202283D01*
X0346986Y0202283D01*
X0348245Y0203543D01*
X0348245Y0205324D01*
X0346986Y0206583D01*
X0345205Y0206583D01*
X0343945Y0205324D01*
X0343945Y0203543D01*
X0343945Y0204213D02*
X0253137Y0204213D01*
X0253225Y0204249D02*
X0254779Y0205803D01*
X0255620Y0207834D01*
X0255620Y0210032D01*
X0254779Y0212063D01*
X0253225Y0213617D01*
X0251194Y0214458D01*
X0248996Y0214458D01*
X0246965Y0213617D01*
X0245411Y0212063D01*
X0244570Y0210032D01*
X0244570Y0207834D01*
X0245411Y0205803D01*
X0246965Y0204249D01*
X0248996Y0203408D01*
X0251194Y0203408D01*
X0253225Y0204249D01*
X0254187Y0205211D02*
X0327276Y0205211D01*
X0327705Y0204783D02*
X0329486Y0204783D01*
X0330745Y0206043D01*
X0330745Y0207824D01*
X0329486Y0209083D01*
X0327705Y0209083D01*
X0326445Y0207824D01*
X0326445Y0206043D01*
X0327705Y0204783D01*
X0326445Y0206210D02*
X0254947Y0206210D01*
X0255361Y0207208D02*
X0326445Y0207208D01*
X0326828Y0208207D02*
X0255620Y0208207D01*
X0255620Y0209205D02*
X0366327Y0209205D01*
X0366705Y0209583D02*
X0365445Y0208324D01*
X0365445Y0206543D01*
X0366705Y0205283D01*
X0368486Y0205283D01*
X0369745Y0206543D01*
X0369745Y0208324D01*
X0368486Y0209583D01*
X0366705Y0209583D01*
X0365445Y0208207D02*
X0341362Y0208207D01*
X0341745Y0207824D02*
X0340486Y0209083D01*
X0338705Y0209083D01*
X0337445Y0207824D01*
X0337445Y0206043D01*
X0338705Y0204783D01*
X0340486Y0204783D01*
X0341745Y0206043D01*
X0341745Y0207824D01*
X0341745Y0207208D02*
X0365445Y0207208D01*
X0365778Y0206210D02*
X0347359Y0206210D01*
X0348245Y0205211D02*
X0370345Y0205211D01*
X0370345Y0204213D02*
X0348245Y0204213D01*
X0347917Y0203214D02*
X0370345Y0203214D01*
X0370345Y0206210D02*
X0369412Y0206210D01*
X0369745Y0207208D02*
X0370345Y0207208D01*
X0370345Y0208207D02*
X0369745Y0208207D01*
X0370345Y0209205D02*
X0368863Y0209205D01*
X0370345Y0210204D02*
X0255549Y0210204D01*
X0255135Y0211202D02*
X0370345Y0211202D01*
X0370345Y0212201D02*
X0339903Y0212201D01*
X0339486Y0211783D02*
X0340745Y0213043D01*
X0340745Y0214824D01*
X0339486Y0216083D01*
X0337705Y0216083D01*
X0336445Y0214824D01*
X0336445Y0213043D01*
X0337705Y0211783D01*
X0339486Y0211783D01*
X0340745Y0213199D02*
X0370345Y0213199D01*
X0370345Y0214198D02*
X0340745Y0214198D01*
X0340372Y0215196D02*
X0370345Y0215196D01*
X0370345Y0216195D02*
X0244616Y0216195D01*
X0244525Y0215973D02*
X0245320Y0217894D01*
X0245320Y0219972D01*
X0244525Y0221893D01*
X0243055Y0223363D01*
X0241134Y0224158D01*
X0239056Y0224158D01*
X0237135Y0223363D01*
X0235666Y0221893D01*
X0234870Y0219972D01*
X0234870Y0217894D01*
X0235666Y0215973D01*
X0237135Y0214504D01*
X0239056Y0213708D01*
X0241134Y0213708D01*
X0243055Y0214504D01*
X0244525Y0215973D01*
X0243748Y0215196D02*
X0326818Y0215196D01*
X0326445Y0214824D02*
X0326445Y0213043D01*
X0327705Y0211783D01*
X0329486Y0211783D01*
X0330745Y0213043D01*
X0330745Y0214824D01*
X0329486Y0216083D01*
X0327705Y0216083D01*
X0326445Y0214824D01*
X0326445Y0214198D02*
X0251822Y0214198D01*
X0253642Y0213199D02*
X0326445Y0213199D01*
X0327287Y0212201D02*
X0254641Y0212201D01*
X0248368Y0214198D02*
X0242317Y0214198D01*
X0245549Y0212201D02*
X0234641Y0212201D01*
X0234779Y0212063D02*
X0233225Y0213617D01*
X0231194Y0214458D01*
X0228996Y0214458D01*
X0226965Y0213617D01*
X0225411Y0212063D01*
X0224570Y0210032D01*
X0224570Y0207834D01*
X0225411Y0205803D01*
X0226965Y0204249D01*
X0228996Y0203408D01*
X0231194Y0203408D01*
X0233225Y0204249D01*
X0234779Y0205803D01*
X0235620Y0207834D01*
X0235620Y0210032D01*
X0234779Y0212063D01*
X0235135Y0211202D02*
X0245055Y0211202D01*
X0244641Y0210204D02*
X0235549Y0210204D01*
X0235620Y0209205D02*
X0244570Y0209205D01*
X0244570Y0208207D02*
X0235620Y0208207D01*
X0235361Y0207208D02*
X0244829Y0207208D01*
X0245243Y0206210D02*
X0234947Y0206210D01*
X0234187Y0205211D02*
X0246003Y0205211D01*
X0247053Y0204213D02*
X0233137Y0204213D01*
X0227053Y0204213D02*
X0221245Y0204213D01*
X0220357Y0205211D02*
X0226003Y0205211D01*
X0225243Y0206210D02*
X0114845Y0206210D01*
X0114845Y0207208D02*
X0224829Y0207208D01*
X0224570Y0208207D02*
X0114845Y0208207D01*
X0114845Y0209205D02*
X0224570Y0209205D01*
X0224641Y0210204D02*
X0114506Y0210204D01*
X0114845Y0205211D02*
X0217833Y0205211D01*
X0216945Y0204213D02*
X0114845Y0204213D01*
X0114845Y0203214D02*
X0195836Y0203214D01*
X0196205Y0203583D02*
X0194945Y0202324D01*
X0194945Y0200543D01*
X0196205Y0199283D01*
X0197986Y0199283D01*
X0199245Y0200543D01*
X0199245Y0202324D01*
X0197986Y0203583D01*
X0196205Y0203583D01*
X0194945Y0202216D02*
X0114845Y0202216D01*
X0114845Y0201217D02*
X0194945Y0201217D01*
X0195269Y0200219D02*
X0114845Y0200219D01*
X0114845Y0199220D02*
X0328945Y0199220D01*
X0328945Y0200219D02*
X0198921Y0200219D01*
X0199245Y0201217D02*
X0329339Y0201217D01*
X0329766Y0198222D02*
X0114845Y0198222D01*
X0114845Y0197223D02*
X0335845Y0197223D01*
X0334945Y0196225D02*
X0114845Y0196225D01*
X0114845Y0195226D02*
X0334945Y0195226D01*
X0335260Y0194228D02*
X0114845Y0194228D01*
X0114845Y0193229D02*
X0207851Y0193229D01*
X0206945Y0192231D02*
X0114845Y0192231D01*
X0114845Y0191232D02*
X0206945Y0191232D01*
X0207254Y0190234D02*
X0114845Y0190234D01*
X0057345Y0211202D02*
X0225055Y0211202D01*
X0225549Y0212201D02*
X0210903Y0212201D01*
X0210486Y0211783D02*
X0211745Y0213043D01*
X0211745Y0214824D01*
X0210486Y0216083D01*
X0208705Y0216083D01*
X0207445Y0214824D01*
X0207445Y0213043D01*
X0208705Y0211783D01*
X0210486Y0211783D01*
X0211745Y0213199D02*
X0226548Y0213199D01*
X0228368Y0214198D02*
X0211745Y0214198D01*
X0211372Y0215196D02*
X0236443Y0215196D01*
X0235574Y0216195D02*
X0176245Y0216195D01*
X0176245Y0216324D02*
X0174986Y0217583D01*
X0173205Y0217583D01*
X0171945Y0216324D01*
X0171945Y0214543D01*
X0173205Y0213283D01*
X0174986Y0213283D01*
X0176245Y0214543D01*
X0176245Y0216324D01*
X0176245Y0215196D02*
X0207818Y0215196D01*
X0207445Y0214198D02*
X0175900Y0214198D01*
X0175375Y0217193D02*
X0235160Y0217193D01*
X0234870Y0218192D02*
X0057345Y0218192D01*
X0057345Y0219190D02*
X0234870Y0219190D01*
X0234960Y0220189D02*
X0057345Y0220189D01*
X0057345Y0221187D02*
X0235373Y0221187D01*
X0235959Y0222186D02*
X0057345Y0222186D01*
X0057345Y0223184D02*
X0236957Y0223184D01*
X0234779Y0225803D02*
X0235620Y0227834D01*
X0235620Y0230032D01*
X0234779Y0232063D01*
X0233225Y0233617D01*
X0231194Y0234458D01*
X0228996Y0234458D01*
X0226965Y0233617D01*
X0225411Y0232063D01*
X0224570Y0230032D01*
X0224570Y0227834D01*
X0225411Y0225803D01*
X0226965Y0224249D01*
X0228996Y0223408D01*
X0231194Y0223408D01*
X0233225Y0224249D01*
X0234779Y0225803D01*
X0234935Y0226180D02*
X0245255Y0226180D01*
X0245411Y0225803D02*
X0246965Y0224249D01*
X0248996Y0223408D01*
X0251194Y0223408D01*
X0253225Y0224249D01*
X0254779Y0225803D01*
X0255620Y0227834D01*
X0255620Y0230032D01*
X0254779Y0232063D01*
X0253225Y0233617D01*
X0251194Y0234458D01*
X0248996Y0234458D01*
X0246965Y0233617D01*
X0245411Y0232063D01*
X0244570Y0230032D01*
X0244570Y0227834D01*
X0245411Y0225803D01*
X0246033Y0225181D02*
X0234157Y0225181D01*
X0233065Y0224183D02*
X0247125Y0224183D01*
X0244232Y0222186D02*
X0370316Y0222186D01*
X0370345Y0221187D02*
X0244817Y0221187D01*
X0245230Y0220189D02*
X0370345Y0220189D01*
X0370345Y0219190D02*
X0245320Y0219190D01*
X0245320Y0218192D02*
X0370345Y0218192D01*
X0370345Y0217193D02*
X0245030Y0217193D01*
X0246548Y0213199D02*
X0233642Y0213199D01*
X0231822Y0214198D02*
X0237873Y0214198D01*
X0243233Y0223184D02*
X0370276Y0223184D01*
X0370237Y0224183D02*
X0253065Y0224183D01*
X0254157Y0225181D02*
X0365806Y0225181D01*
X0365445Y0225543D02*
X0366705Y0224283D01*
X0368486Y0224283D01*
X0369745Y0225543D01*
X0369745Y0227324D01*
X0368486Y0228583D01*
X0366705Y0228583D01*
X0365445Y0227324D01*
X0365445Y0225543D01*
X0365445Y0226180D02*
X0254935Y0226180D01*
X0255349Y0227179D02*
X0287309Y0227179D01*
X0287705Y0226783D02*
X0286445Y0228043D01*
X0286445Y0229824D01*
X0287705Y0231083D01*
X0289486Y0231083D01*
X0290745Y0229824D01*
X0290745Y0228043D01*
X0289486Y0226783D01*
X0287705Y0226783D01*
X0286445Y0228177D02*
X0255620Y0228177D01*
X0255620Y0229176D02*
X0286445Y0229176D01*
X0286796Y0230174D02*
X0255561Y0230174D01*
X0255148Y0231173D02*
X0336294Y0231173D01*
X0335945Y0230824D02*
X0335945Y0229043D01*
X0337205Y0227783D01*
X0338986Y0227783D01*
X0340245Y0229043D01*
X0340245Y0230824D01*
X0338986Y0232083D01*
X0337205Y0232083D01*
X0335945Y0230824D01*
X0335945Y0230174D02*
X0290395Y0230174D01*
X0290745Y0229176D02*
X0335945Y0229176D01*
X0336811Y0228177D02*
X0290745Y0228177D01*
X0289881Y0227179D02*
X0365445Y0227179D01*
X0366299Y0228177D02*
X0339380Y0228177D01*
X0340245Y0229176D02*
X0369565Y0229176D01*
X0369407Y0230174D02*
X0340245Y0230174D01*
X0339896Y0231173D02*
X0369249Y0231173D01*
X0369091Y0232171D02*
X0254671Y0232171D01*
X0253672Y0233170D02*
X0368834Y0233170D01*
X0368510Y0234168D02*
X0251894Y0234168D01*
X0248296Y0234168D02*
X0231894Y0234168D01*
X0233672Y0233170D02*
X0246518Y0233170D01*
X0245520Y0232171D02*
X0234671Y0232171D01*
X0235148Y0231173D02*
X0245043Y0231173D01*
X0244629Y0230174D02*
X0235561Y0230174D01*
X0235620Y0229176D02*
X0244570Y0229176D01*
X0244570Y0228177D02*
X0235620Y0228177D01*
X0235349Y0227179D02*
X0244842Y0227179D01*
X0228296Y0234168D02*
X0057345Y0234168D01*
X0057345Y0233170D02*
X0226518Y0233170D01*
X0225520Y0232171D02*
X0057345Y0232171D01*
X0057345Y0231173D02*
X0225043Y0231173D01*
X0224629Y0230174D02*
X0057345Y0230174D01*
X0057345Y0229176D02*
X0224570Y0229176D01*
X0224570Y0228177D02*
X0057345Y0228177D01*
X0057345Y0227179D02*
X0224842Y0227179D01*
X0225255Y0226180D02*
X0057345Y0226180D01*
X0057345Y0225181D02*
X0226033Y0225181D01*
X0227125Y0224183D02*
X0057345Y0224183D01*
X0057345Y0217193D02*
X0172815Y0217193D01*
X0171945Y0216195D02*
X0057345Y0216195D01*
X0057345Y0215196D02*
X0171945Y0215196D01*
X0172290Y0214198D02*
X0057345Y0214198D01*
X0057345Y0213199D02*
X0207445Y0213199D01*
X0208287Y0212201D02*
X0057345Y0212201D01*
X0057345Y0235167D02*
X0363321Y0235167D01*
X0362945Y0235543D02*
X0364205Y0234283D01*
X0365986Y0234283D01*
X0367245Y0235543D01*
X0367245Y0237324D01*
X0365986Y0238583D01*
X0364205Y0238583D01*
X0362945Y0237324D01*
X0362945Y0235543D01*
X0362945Y0236165D02*
X0057345Y0236165D01*
X0057345Y0237164D02*
X0362945Y0237164D01*
X0363784Y0238162D02*
X0057345Y0238162D01*
X0057345Y0239161D02*
X0346094Y0239161D01*
X0345422Y0239439D02*
X0348454Y0238183D01*
X0351736Y0238183D01*
X0354768Y0239439D01*
X0357089Y0241760D01*
X0357945Y0243826D01*
X0357945Y0243043D01*
X0359205Y0241783D01*
X0360986Y0241783D01*
X0362245Y0243043D01*
X0362245Y0244824D01*
X0360986Y0246083D01*
X0359205Y0246083D01*
X0358345Y0245224D01*
X0358345Y0248074D01*
X0357089Y0251106D01*
X0354768Y0253427D01*
X0351736Y0254683D01*
X0348454Y0254683D01*
X0345422Y0253427D01*
X0343101Y0251106D01*
X0341845Y0248074D01*
X0341845Y0245224D01*
X0340986Y0246083D01*
X0339205Y0246083D01*
X0337945Y0244824D01*
X0337945Y0243043D01*
X0339205Y0241783D01*
X0340986Y0241783D01*
X0342245Y0243043D01*
X0342245Y0243826D01*
X0343101Y0241760D01*
X0345422Y0239439D01*
X0344702Y0240159D02*
X0057345Y0240159D01*
X0057345Y0241158D02*
X0321330Y0241158D01*
X0320945Y0241543D02*
X0322205Y0240283D01*
X0323986Y0240283D01*
X0325245Y0241543D01*
X0325245Y0243324D01*
X0323986Y0244583D01*
X0322205Y0244583D01*
X0320945Y0243324D01*
X0320945Y0241543D01*
X0320945Y0242156D02*
X0313859Y0242156D01*
X0313486Y0241783D02*
X0314745Y0243043D01*
X0314745Y0244824D01*
X0313486Y0246083D01*
X0311705Y0246083D01*
X0310445Y0244824D01*
X0310445Y0243043D01*
X0311705Y0241783D01*
X0313486Y0241783D01*
X0314745Y0243155D02*
X0320945Y0243155D01*
X0321775Y0244153D02*
X0314745Y0244153D01*
X0314417Y0245152D02*
X0338273Y0245152D01*
X0337945Y0244153D02*
X0324416Y0244153D01*
X0325245Y0243155D02*
X0337945Y0243155D01*
X0338831Y0242156D02*
X0325245Y0242156D01*
X0324860Y0241158D02*
X0343703Y0241158D01*
X0342937Y0242156D02*
X0341359Y0242156D01*
X0342245Y0243155D02*
X0342523Y0243155D01*
X0341845Y0246150D02*
X0057345Y0246150D01*
X0057345Y0245152D02*
X0310773Y0245152D01*
X0310445Y0244153D02*
X0057345Y0244153D01*
X0057345Y0243155D02*
X0310445Y0243155D01*
X0311331Y0242156D02*
X0057345Y0242156D01*
X0057345Y0247149D02*
X0341845Y0247149D01*
X0341875Y0248147D02*
X0057345Y0248147D01*
X0057345Y0249146D02*
X0342289Y0249146D01*
X0342703Y0250144D02*
X0334162Y0250144D01*
X0333411Y0249833D02*
X0334918Y0250457D01*
X0336071Y0251611D01*
X0336695Y0253118D01*
X0336695Y0254749D01*
X0336071Y0256256D01*
X0334918Y0257409D01*
X0333411Y0258033D01*
X0331780Y0258033D01*
X0330273Y0257409D01*
X0329119Y0256256D01*
X0328495Y0254749D01*
X0328495Y0253118D01*
X0329119Y0251611D01*
X0330273Y0250457D01*
X0331780Y0249833D01*
X0333411Y0249833D01*
X0331028Y0250144D02*
X0324162Y0250144D01*
X0323411Y0249833D02*
X0324918Y0250457D01*
X0326071Y0251611D01*
X0326695Y0253118D01*
X0326695Y0254749D01*
X0326071Y0256256D01*
X0324918Y0257409D01*
X0323411Y0258033D01*
X0321780Y0258033D01*
X0320273Y0257409D01*
X0319119Y0256256D01*
X0318495Y0254749D01*
X0318495Y0253118D01*
X0319119Y0251611D01*
X0320273Y0250457D01*
X0321780Y0249833D01*
X0323411Y0249833D01*
X0321028Y0250144D02*
X0314162Y0250144D01*
X0313411Y0249833D02*
X0314918Y0250457D01*
X0316071Y0251611D01*
X0316695Y0253118D01*
X0316695Y0254749D01*
X0316071Y0256256D01*
X0314918Y0257409D01*
X0313411Y0258033D01*
X0311780Y0258033D01*
X0310273Y0257409D01*
X0309119Y0256256D01*
X0308495Y0254749D01*
X0308495Y0253118D01*
X0309119Y0251611D01*
X0310273Y0250457D01*
X0311780Y0249833D01*
X0313411Y0249833D01*
X0311028Y0250144D02*
X0304162Y0250144D01*
X0303411Y0249833D02*
X0304918Y0250457D01*
X0306071Y0251611D01*
X0306695Y0253118D01*
X0306695Y0254749D01*
X0306071Y0256256D01*
X0304918Y0257409D01*
X0303411Y0258033D01*
X0301780Y0258033D01*
X0300273Y0257409D01*
X0299119Y0256256D01*
X0298495Y0254749D01*
X0298495Y0253118D01*
X0299119Y0251611D01*
X0300273Y0250457D01*
X0301780Y0249833D01*
X0303411Y0249833D01*
X0301028Y0250144D02*
X0294162Y0250144D01*
X0293411Y0249833D02*
X0294918Y0250457D01*
X0296071Y0251611D01*
X0296695Y0253118D01*
X0296695Y0254749D01*
X0296071Y0256256D01*
X0294918Y0257409D01*
X0293411Y0258033D01*
X0291780Y0258033D01*
X0290273Y0257409D01*
X0289119Y0256256D01*
X0288495Y0254749D01*
X0288495Y0253118D01*
X0289119Y0251611D01*
X0290273Y0250457D01*
X0291780Y0249833D01*
X0293411Y0249833D01*
X0291028Y0250144D02*
X0284162Y0250144D01*
X0283411Y0249833D02*
X0284918Y0250457D01*
X0286071Y0251611D01*
X0286695Y0253118D01*
X0286695Y0254749D01*
X0286071Y0256256D01*
X0284918Y0257409D01*
X0283411Y0258033D01*
X0281780Y0258033D01*
X0280273Y0257409D01*
X0279119Y0256256D01*
X0278495Y0254749D01*
X0278495Y0253118D01*
X0279119Y0251611D01*
X0280273Y0250457D01*
X0281780Y0249833D01*
X0283411Y0249833D01*
X0281028Y0250144D02*
X0274162Y0250144D01*
X0273411Y0249833D02*
X0274918Y0250457D01*
X0276071Y0251611D01*
X0276695Y0253118D01*
X0276695Y0254749D01*
X0276071Y0256256D01*
X0274918Y0257409D01*
X0273411Y0258033D01*
X0271780Y0258033D01*
X0270273Y0257409D01*
X0269119Y0256256D01*
X0268495Y0254749D01*
X0268495Y0253118D01*
X0269119Y0251611D01*
X0270273Y0250457D01*
X0271780Y0249833D01*
X0273411Y0249833D01*
X0271028Y0250144D02*
X0264162Y0250144D01*
X0263411Y0249833D02*
X0264918Y0250457D01*
X0266071Y0251611D01*
X0266695Y0253118D01*
X0266695Y0254749D01*
X0266071Y0256256D01*
X0264918Y0257409D01*
X0263411Y0258033D01*
X0261780Y0258033D01*
X0260273Y0257409D01*
X0259119Y0256256D01*
X0258495Y0254749D01*
X0258495Y0253118D01*
X0259119Y0251611D01*
X0260273Y0250457D01*
X0261780Y0249833D01*
X0263411Y0249833D01*
X0261028Y0250144D02*
X0254162Y0250144D01*
X0253411Y0249833D02*
X0254918Y0250457D01*
X0256071Y0251611D01*
X0256695Y0253118D01*
X0256695Y0254749D01*
X0256071Y0256256D01*
X0254918Y0257409D01*
X0253411Y0258033D01*
X0251780Y0258033D01*
X0250273Y0257409D01*
X0249119Y0256256D01*
X0248495Y0254749D01*
X0248495Y0253118D01*
X0249119Y0251611D01*
X0250273Y0250457D01*
X0251780Y0249833D01*
X0253411Y0249833D01*
X0251028Y0250144D02*
X0244162Y0250144D01*
X0243411Y0249833D02*
X0244918Y0250457D01*
X0246071Y0251611D01*
X0246695Y0253118D01*
X0246695Y0254749D01*
X0246071Y0256256D01*
X0244918Y0257409D01*
X0243411Y0258033D01*
X0241780Y0258033D01*
X0240273Y0257409D01*
X0239119Y0256256D01*
X0238495Y0254749D01*
X0238495Y0253118D01*
X0239119Y0251611D01*
X0240273Y0250457D01*
X0241780Y0249833D01*
X0243411Y0249833D01*
X0241028Y0250144D02*
X0234162Y0250144D01*
X0233411Y0249833D02*
X0234918Y0250457D01*
X0236071Y0251611D01*
X0236695Y0253118D01*
X0236695Y0254749D01*
X0236071Y0256256D01*
X0234918Y0257409D01*
X0233411Y0258033D01*
X0231780Y0258033D01*
X0230273Y0257409D01*
X0229119Y0256256D01*
X0228495Y0254749D01*
X0228495Y0253118D01*
X0229119Y0251611D01*
X0230273Y0250457D01*
X0231780Y0249833D01*
X0233411Y0249833D01*
X0231028Y0250144D02*
X0224162Y0250144D01*
X0223411Y0249833D02*
X0224918Y0250457D01*
X0226071Y0251611D01*
X0226695Y0253118D01*
X0226695Y0254749D01*
X0226071Y0256256D01*
X0224918Y0257409D01*
X0223411Y0258033D01*
X0221780Y0258033D01*
X0220273Y0257409D01*
X0219119Y0256256D01*
X0218495Y0254749D01*
X0218495Y0253118D01*
X0219119Y0251611D01*
X0220273Y0250457D01*
X0221780Y0249833D01*
X0223411Y0249833D01*
X0221028Y0250144D02*
X0214162Y0250144D01*
X0213411Y0249833D02*
X0214918Y0250457D01*
X0216071Y0251611D01*
X0216695Y0253118D01*
X0216695Y0254749D01*
X0216071Y0256256D01*
X0214918Y0257409D01*
X0213411Y0258033D01*
X0211780Y0258033D01*
X0210273Y0257409D01*
X0209119Y0256256D01*
X0208495Y0254749D01*
X0208495Y0253118D01*
X0209119Y0251611D01*
X0210273Y0250457D01*
X0211780Y0249833D01*
X0213411Y0249833D01*
X0211028Y0250144D02*
X0204162Y0250144D01*
X0203411Y0249833D02*
X0204918Y0250457D01*
X0206071Y0251611D01*
X0206695Y0253118D01*
X0206695Y0254749D01*
X0206071Y0256256D01*
X0204918Y0257409D01*
X0203411Y0258033D01*
X0201780Y0258033D01*
X0200273Y0257409D01*
X0199119Y0256256D01*
X0198495Y0254749D01*
X0198495Y0253118D01*
X0199119Y0251611D01*
X0200273Y0250457D01*
X0201780Y0249833D01*
X0203411Y0249833D01*
X0201028Y0250144D02*
X0194162Y0250144D01*
X0193411Y0249833D02*
X0194918Y0250457D01*
X0196071Y0251611D01*
X0196695Y0253118D01*
X0196695Y0254749D01*
X0196071Y0256256D01*
X0194918Y0257409D01*
X0193411Y0258033D01*
X0191780Y0258033D01*
X0190273Y0257409D01*
X0189119Y0256256D01*
X0188495Y0254749D01*
X0188495Y0253118D01*
X0189119Y0251611D01*
X0190273Y0250457D01*
X0191780Y0249833D01*
X0193411Y0249833D01*
X0191028Y0250144D02*
X0184162Y0250144D01*
X0183411Y0249833D02*
X0184918Y0250457D01*
X0186071Y0251611D01*
X0186695Y0253118D01*
X0186695Y0254749D01*
X0186071Y0256256D01*
X0184918Y0257409D01*
X0183411Y0258033D01*
X0181780Y0258033D01*
X0180273Y0257409D01*
X0179119Y0256256D01*
X0178495Y0254749D01*
X0178495Y0253118D01*
X0179119Y0251611D01*
X0180273Y0250457D01*
X0181780Y0249833D01*
X0183411Y0249833D01*
X0181028Y0250144D02*
X0174162Y0250144D01*
X0173411Y0249833D02*
X0174918Y0250457D01*
X0176071Y0251611D01*
X0176695Y0253118D01*
X0176695Y0254749D01*
X0176071Y0256256D01*
X0174918Y0257409D01*
X0173411Y0258033D01*
X0171780Y0258033D01*
X0170273Y0257409D01*
X0169119Y0256256D01*
X0168495Y0254749D01*
X0168495Y0253118D01*
X0169119Y0251611D01*
X0170273Y0250457D01*
X0171780Y0249833D01*
X0173411Y0249833D01*
X0171028Y0250144D02*
X0164162Y0250144D01*
X0163411Y0249833D02*
X0164918Y0250457D01*
X0166071Y0251611D01*
X0166695Y0253118D01*
X0166695Y0254749D01*
X0166071Y0256256D01*
X0164918Y0257409D01*
X0163411Y0258033D01*
X0161780Y0258033D01*
X0160273Y0257409D01*
X0159119Y0256256D01*
X0158495Y0254749D01*
X0158495Y0253118D01*
X0159119Y0251611D01*
X0160273Y0250457D01*
X0161780Y0249833D01*
X0163411Y0249833D01*
X0161028Y0250144D02*
X0154162Y0250144D01*
X0153411Y0249833D02*
X0154918Y0250457D01*
X0156071Y0251611D01*
X0156695Y0253118D01*
X0156695Y0254749D01*
X0156071Y0256256D01*
X0154918Y0257409D01*
X0153411Y0258033D01*
X0151780Y0258033D01*
X0150273Y0257409D01*
X0149119Y0256256D01*
X0148495Y0254749D01*
X0148495Y0253118D01*
X0149119Y0251611D01*
X0150273Y0250457D01*
X0151780Y0249833D01*
X0153411Y0249833D01*
X0151028Y0250144D02*
X0144162Y0250144D01*
X0143411Y0249833D02*
X0144918Y0250457D01*
X0146071Y0251611D01*
X0146695Y0253118D01*
X0146695Y0254749D01*
X0146071Y0256256D01*
X0144918Y0257409D01*
X0143411Y0258033D01*
X0141780Y0258033D01*
X0140273Y0257409D01*
X0139119Y0256256D01*
X0138495Y0254749D01*
X0138495Y0253118D01*
X0139119Y0251611D01*
X0140273Y0250457D01*
X0141780Y0249833D01*
X0143411Y0249833D01*
X0141028Y0250144D02*
X0134162Y0250144D01*
X0133411Y0249833D02*
X0134918Y0250457D01*
X0136071Y0251611D01*
X0136695Y0253118D01*
X0136695Y0254749D01*
X0136071Y0256256D01*
X0134918Y0257409D01*
X0133411Y0258033D01*
X0131780Y0258033D01*
X0130273Y0257409D01*
X0129119Y0256256D01*
X0128495Y0254749D01*
X0128495Y0253118D01*
X0129119Y0251611D01*
X0130273Y0250457D01*
X0131780Y0249833D01*
X0133411Y0249833D01*
X0131028Y0250144D02*
X0124162Y0250144D01*
X0123411Y0249833D02*
X0124918Y0250457D01*
X0126071Y0251611D01*
X0126695Y0253118D01*
X0126695Y0254749D01*
X0126071Y0256256D01*
X0124918Y0257409D01*
X0123411Y0258033D01*
X0121780Y0258033D01*
X0120273Y0257409D01*
X0119119Y0256256D01*
X0118495Y0254749D01*
X0118495Y0253118D01*
X0119119Y0251611D01*
X0120273Y0250457D01*
X0121780Y0249833D01*
X0123411Y0249833D01*
X0121028Y0250144D02*
X0114162Y0250144D01*
X0113411Y0249833D02*
X0114918Y0250457D01*
X0116071Y0251611D01*
X0116695Y0253118D01*
X0116695Y0254749D01*
X0116071Y0256256D01*
X0114918Y0257409D01*
X0113411Y0258033D01*
X0111780Y0258033D01*
X0110273Y0257409D01*
X0109119Y0256256D01*
X0108495Y0254749D01*
X0108495Y0253118D01*
X0109119Y0251611D01*
X0110273Y0250457D01*
X0111780Y0249833D01*
X0113411Y0249833D01*
X0111028Y0250144D02*
X0057345Y0250144D01*
X0057345Y0251143D02*
X0087344Y0251143D01*
X0088454Y0250683D02*
X0085422Y0251939D01*
X0083101Y0254260D01*
X0081845Y0257292D01*
X0081845Y0260574D01*
X0083101Y0263606D01*
X0085422Y0265927D01*
X0088454Y0267183D01*
X0091736Y0267183D01*
X0094768Y0265927D01*
X0097089Y0263606D01*
X0098345Y0260574D01*
X0098345Y0257292D01*
X0097089Y0254260D01*
X0094768Y0251939D01*
X0091736Y0250683D01*
X0088454Y0250683D01*
X0085220Y0252141D02*
X0057345Y0252141D01*
X0057345Y0253140D02*
X0084221Y0253140D01*
X0083223Y0254138D02*
X0057345Y0254138D01*
X0057345Y0255137D02*
X0082738Y0255137D01*
X0082324Y0256135D02*
X0057345Y0256135D01*
X0057345Y0257134D02*
X0081911Y0257134D01*
X0081845Y0258132D02*
X0057345Y0258132D01*
X0057345Y0259131D02*
X0081845Y0259131D01*
X0081845Y0260129D02*
X0057345Y0260129D01*
X0057345Y0261128D02*
X0082075Y0261128D01*
X0082488Y0262126D02*
X0057345Y0262126D01*
X0057345Y0263125D02*
X0082902Y0263125D01*
X0083618Y0264123D02*
X0057345Y0264123D01*
X0057345Y0265122D02*
X0084617Y0265122D01*
X0085889Y0266120D02*
X0057345Y0266120D01*
X0057345Y0267119D02*
X0088299Y0267119D01*
X0091891Y0267119D02*
X0109983Y0267119D01*
X0110273Y0267409D02*
X0109119Y0266256D01*
X0108495Y0264749D01*
X0108495Y0263118D01*
X0109119Y0261611D01*
X0110273Y0260457D01*
X0111780Y0259833D01*
X0113411Y0259833D01*
X0114918Y0260457D01*
X0116071Y0261611D01*
X0116695Y0263118D01*
X0116695Y0264749D01*
X0116071Y0266256D01*
X0114918Y0267409D01*
X0113411Y0268033D01*
X0111780Y0268033D01*
X0110273Y0267409D01*
X0109063Y0266120D02*
X0094302Y0266120D01*
X0095574Y0265122D02*
X0108650Y0265122D01*
X0108495Y0264123D02*
X0096572Y0264123D01*
X0097289Y0263125D02*
X0108495Y0263125D01*
X0108906Y0262126D02*
X0097702Y0262126D01*
X0098116Y0261128D02*
X0109602Y0261128D01*
X0111064Y0260129D02*
X0098345Y0260129D01*
X0098345Y0259131D02*
X0351695Y0259131D01*
X0350321Y0260129D02*
X0334126Y0260129D01*
X0335588Y0261128D02*
X0348947Y0261128D01*
X0347572Y0262126D02*
X0336285Y0262126D01*
X0336695Y0263125D02*
X0345624Y0263125D01*
X0343665Y0264123D02*
X0336695Y0264123D01*
X0336541Y0265122D02*
X0341705Y0265122D01*
X0339107Y0266120D02*
X0336127Y0266120D01*
X0336034Y0267119D02*
X0335208Y0267119D01*
X0332140Y0268117D02*
X0057345Y0268117D01*
X0057345Y0269116D02*
X0324303Y0269116D01*
X0323411Y0268033D02*
X0321780Y0268033D01*
X0320273Y0267409D01*
X0319119Y0266256D01*
X0318495Y0264749D01*
X0318495Y0263118D01*
X0319119Y0261611D01*
X0320273Y0260457D01*
X0321780Y0259833D01*
X0323411Y0259833D01*
X0324918Y0260457D01*
X0326071Y0261611D01*
X0326695Y0263118D01*
X0326695Y0264749D01*
X0326071Y0266256D01*
X0324918Y0267409D01*
X0323411Y0268033D01*
X0325208Y0267119D02*
X0329983Y0267119D01*
X0329063Y0266120D02*
X0326127Y0266120D01*
X0326541Y0265122D02*
X0328650Y0265122D01*
X0328495Y0264123D02*
X0326695Y0264123D01*
X0326695Y0263125D02*
X0328495Y0263125D01*
X0328906Y0262126D02*
X0326285Y0262126D01*
X0325588Y0261128D02*
X0329602Y0261128D01*
X0331064Y0260129D02*
X0324126Y0260129D01*
X0321064Y0260129D02*
X0314126Y0260129D01*
X0313411Y0259833D02*
X0314918Y0260457D01*
X0316071Y0261611D01*
X0316695Y0263118D01*
X0316695Y0264749D01*
X0316071Y0266256D01*
X0314918Y0267409D01*
X0313411Y0268033D01*
X0311780Y0268033D01*
X0310273Y0267409D01*
X0309119Y0266256D01*
X0308495Y0264749D01*
X0308495Y0263118D01*
X0309119Y0261611D01*
X0310273Y0260457D01*
X0311780Y0259833D01*
X0313411Y0259833D01*
X0311064Y0260129D02*
X0304126Y0260129D01*
X0303411Y0259833D02*
X0304918Y0260457D01*
X0306071Y0261611D01*
X0306695Y0263118D01*
X0306695Y0264749D01*
X0306071Y0266256D01*
X0304918Y0267409D01*
X0303411Y0268033D01*
X0301780Y0268033D01*
X0300273Y0267409D01*
X0299119Y0266256D01*
X0298495Y0264749D01*
X0298495Y0263118D01*
X0299119Y0261611D01*
X0300273Y0260457D01*
X0301780Y0259833D01*
X0303411Y0259833D01*
X0301064Y0260129D02*
X0294126Y0260129D01*
X0293411Y0259833D02*
X0294918Y0260457D01*
X0296071Y0261611D01*
X0296695Y0263118D01*
X0296695Y0264749D01*
X0296071Y0266256D01*
X0294918Y0267409D01*
X0293411Y0268033D01*
X0291780Y0268033D01*
X0290273Y0267409D01*
X0289119Y0266256D01*
X0288495Y0264749D01*
X0288495Y0263118D01*
X0289119Y0261611D01*
X0290273Y0260457D01*
X0291780Y0259833D01*
X0293411Y0259833D01*
X0291064Y0260129D02*
X0284126Y0260129D01*
X0283411Y0259833D02*
X0284918Y0260457D01*
X0286071Y0261611D01*
X0286695Y0263118D01*
X0286695Y0264749D01*
X0286071Y0266256D01*
X0284918Y0267409D01*
X0283411Y0268033D01*
X0281780Y0268033D01*
X0280273Y0267409D01*
X0279119Y0266256D01*
X0278495Y0264749D01*
X0278495Y0263118D01*
X0279119Y0261611D01*
X0280273Y0260457D01*
X0281780Y0259833D01*
X0283411Y0259833D01*
X0281064Y0260129D02*
X0274126Y0260129D01*
X0273411Y0259833D02*
X0274918Y0260457D01*
X0276071Y0261611D01*
X0276695Y0263118D01*
X0276695Y0264749D01*
X0276071Y0266256D01*
X0274918Y0267409D01*
X0273411Y0268033D01*
X0271780Y0268033D01*
X0270273Y0267409D01*
X0269119Y0266256D01*
X0268495Y0264749D01*
X0268495Y0263118D01*
X0269119Y0261611D01*
X0270273Y0260457D01*
X0271780Y0259833D01*
X0273411Y0259833D01*
X0271064Y0260129D02*
X0264126Y0260129D01*
X0263411Y0259833D02*
X0264918Y0260457D01*
X0266071Y0261611D01*
X0266695Y0263118D01*
X0266695Y0264749D01*
X0266071Y0266256D01*
X0264918Y0267409D01*
X0263411Y0268033D01*
X0261780Y0268033D01*
X0260273Y0267409D01*
X0259119Y0266256D01*
X0258495Y0264749D01*
X0258495Y0263118D01*
X0259119Y0261611D01*
X0260273Y0260457D01*
X0261780Y0259833D01*
X0263411Y0259833D01*
X0261064Y0260129D02*
X0254126Y0260129D01*
X0253411Y0259833D02*
X0254918Y0260457D01*
X0256071Y0261611D01*
X0256695Y0263118D01*
X0256695Y0264749D01*
X0256071Y0266256D01*
X0254918Y0267409D01*
X0253411Y0268033D01*
X0251780Y0268033D01*
X0250273Y0267409D01*
X0249119Y0266256D01*
X0248495Y0264749D01*
X0248495Y0263118D01*
X0249119Y0261611D01*
X0250273Y0260457D01*
X0251780Y0259833D01*
X0253411Y0259833D01*
X0251064Y0260129D02*
X0244126Y0260129D01*
X0243411Y0259833D02*
X0244918Y0260457D01*
X0246071Y0261611D01*
X0246695Y0263118D01*
X0246695Y0264749D01*
X0246071Y0266256D01*
X0244918Y0267409D01*
X0243411Y0268033D01*
X0241780Y0268033D01*
X0240273Y0267409D01*
X0239119Y0266256D01*
X0238495Y0264749D01*
X0238495Y0263118D01*
X0239119Y0261611D01*
X0240273Y0260457D01*
X0241780Y0259833D01*
X0243411Y0259833D01*
X0241064Y0260129D02*
X0234126Y0260129D01*
X0233411Y0259833D02*
X0234918Y0260457D01*
X0236071Y0261611D01*
X0236695Y0263118D01*
X0236695Y0264749D01*
X0236071Y0266256D01*
X0234918Y0267409D01*
X0233411Y0268033D01*
X0231780Y0268033D01*
X0230273Y0267409D01*
X0229119Y0266256D01*
X0228495Y0264749D01*
X0228495Y0263118D01*
X0229119Y0261611D01*
X0230273Y0260457D01*
X0231780Y0259833D01*
X0233411Y0259833D01*
X0231064Y0260129D02*
X0224126Y0260129D01*
X0223411Y0259833D02*
X0224918Y0260457D01*
X0226071Y0261611D01*
X0226695Y0263118D01*
X0226695Y0264749D01*
X0226071Y0266256D01*
X0224918Y0267409D01*
X0223411Y0268033D01*
X0221780Y0268033D01*
X0220273Y0267409D01*
X0219119Y0266256D01*
X0218495Y0264749D01*
X0218495Y0263118D01*
X0219119Y0261611D01*
X0220273Y0260457D01*
X0221780Y0259833D01*
X0223411Y0259833D01*
X0221064Y0260129D02*
X0214126Y0260129D01*
X0213411Y0259833D02*
X0214918Y0260457D01*
X0216071Y0261611D01*
X0216695Y0263118D01*
X0216695Y0264749D01*
X0216071Y0266256D01*
X0214918Y0267409D01*
X0213411Y0268033D01*
X0211780Y0268033D01*
X0210273Y0267409D01*
X0209119Y0266256D01*
X0208495Y0264749D01*
X0208495Y0263118D01*
X0209119Y0261611D01*
X0210273Y0260457D01*
X0211780Y0259833D01*
X0213411Y0259833D01*
X0211064Y0260129D02*
X0204126Y0260129D01*
X0203411Y0259833D02*
X0204918Y0260457D01*
X0206071Y0261611D01*
X0206695Y0263118D01*
X0206695Y0264749D01*
X0206071Y0266256D01*
X0204918Y0267409D01*
X0203411Y0268033D01*
X0201780Y0268033D01*
X0200273Y0267409D01*
X0199119Y0266256D01*
X0198495Y0264749D01*
X0198495Y0263118D01*
X0199119Y0261611D01*
X0200273Y0260457D01*
X0201780Y0259833D01*
X0203411Y0259833D01*
X0201064Y0260129D02*
X0194126Y0260129D01*
X0193411Y0259833D02*
X0194918Y0260457D01*
X0196071Y0261611D01*
X0196695Y0263118D01*
X0196695Y0264749D01*
X0196071Y0266256D01*
X0194918Y0267409D01*
X0193411Y0268033D01*
X0191780Y0268033D01*
X0190273Y0267409D01*
X0189119Y0266256D01*
X0188495Y0264749D01*
X0188495Y0263118D01*
X0189119Y0261611D01*
X0190273Y0260457D01*
X0191780Y0259833D01*
X0193411Y0259833D01*
X0191064Y0260129D02*
X0184126Y0260129D01*
X0183411Y0259833D02*
X0184918Y0260457D01*
X0186071Y0261611D01*
X0186695Y0263118D01*
X0186695Y0264749D01*
X0186071Y0266256D01*
X0184918Y0267409D01*
X0183411Y0268033D01*
X0181780Y0268033D01*
X0180273Y0267409D01*
X0179119Y0266256D01*
X0178495Y0264749D01*
X0178495Y0263118D01*
X0179119Y0261611D01*
X0180273Y0260457D01*
X0181780Y0259833D01*
X0183411Y0259833D01*
X0181064Y0260129D02*
X0174126Y0260129D01*
X0173411Y0259833D02*
X0174918Y0260457D01*
X0176071Y0261611D01*
X0176695Y0263118D01*
X0176695Y0264749D01*
X0176071Y0266256D01*
X0174918Y0267409D01*
X0173411Y0268033D01*
X0171780Y0268033D01*
X0170273Y0267409D01*
X0169119Y0266256D01*
X0168495Y0264749D01*
X0168495Y0263118D01*
X0169119Y0261611D01*
X0170273Y0260457D01*
X0171780Y0259833D01*
X0173411Y0259833D01*
X0171064Y0260129D02*
X0164126Y0260129D01*
X0163411Y0259833D02*
X0164918Y0260457D01*
X0166071Y0261611D01*
X0166695Y0263118D01*
X0166695Y0264749D01*
X0166071Y0266256D01*
X0164918Y0267409D01*
X0163411Y0268033D01*
X0161780Y0268033D01*
X0160273Y0267409D01*
X0159119Y0266256D01*
X0158495Y0264749D01*
X0158495Y0263118D01*
X0159119Y0261611D01*
X0160273Y0260457D01*
X0161780Y0259833D01*
X0163411Y0259833D01*
X0161064Y0260129D02*
X0154126Y0260129D01*
X0153411Y0259833D02*
X0154918Y0260457D01*
X0156071Y0261611D01*
X0156695Y0263118D01*
X0156695Y0264749D01*
X0156071Y0266256D01*
X0154918Y0267409D01*
X0153411Y0268033D01*
X0151780Y0268033D01*
X0150273Y0267409D01*
X0149119Y0266256D01*
X0148495Y0264749D01*
X0148495Y0263118D01*
X0149119Y0261611D01*
X0150273Y0260457D01*
X0151780Y0259833D01*
X0153411Y0259833D01*
X0151064Y0260129D02*
X0144126Y0260129D01*
X0143411Y0259833D02*
X0144918Y0260457D01*
X0146071Y0261611D01*
X0146695Y0263118D01*
X0146695Y0264749D01*
X0146071Y0266256D01*
X0144918Y0267409D01*
X0143411Y0268033D01*
X0141780Y0268033D01*
X0140273Y0267409D01*
X0139119Y0266256D01*
X0138495Y0264749D01*
X0138495Y0263118D01*
X0139119Y0261611D01*
X0140273Y0260457D01*
X0141780Y0259833D01*
X0143411Y0259833D01*
X0141064Y0260129D02*
X0134126Y0260129D01*
X0133411Y0259833D02*
X0134918Y0260457D01*
X0136071Y0261611D01*
X0136695Y0263118D01*
X0136695Y0264749D01*
X0136071Y0266256D01*
X0134918Y0267409D01*
X0133411Y0268033D01*
X0131780Y0268033D01*
X0130273Y0267409D01*
X0129119Y0266256D01*
X0128495Y0264749D01*
X0128495Y0263118D01*
X0129119Y0261611D01*
X0130273Y0260457D01*
X0131780Y0259833D01*
X0133411Y0259833D01*
X0131064Y0260129D02*
X0124126Y0260129D01*
X0123411Y0259833D02*
X0124918Y0260457D01*
X0126071Y0261611D01*
X0126695Y0263118D01*
X0126695Y0264749D01*
X0126071Y0266256D01*
X0124918Y0267409D01*
X0123411Y0268033D01*
X0121780Y0268033D01*
X0120273Y0267409D01*
X0119119Y0266256D01*
X0118495Y0264749D01*
X0118495Y0263118D01*
X0119119Y0261611D01*
X0120273Y0260457D01*
X0121780Y0259833D01*
X0123411Y0259833D01*
X0121064Y0260129D02*
X0114126Y0260129D01*
X0115588Y0261128D02*
X0119602Y0261128D01*
X0118906Y0262126D02*
X0116285Y0262126D01*
X0116695Y0263125D02*
X0118495Y0263125D01*
X0118495Y0264123D02*
X0116695Y0264123D01*
X0116541Y0265122D02*
X0118650Y0265122D01*
X0119063Y0266120D02*
X0116127Y0266120D01*
X0115208Y0267119D02*
X0119983Y0267119D01*
X0125208Y0267119D02*
X0129983Y0267119D01*
X0129063Y0266120D02*
X0126127Y0266120D01*
X0126541Y0265122D02*
X0128650Y0265122D01*
X0128495Y0264123D02*
X0126695Y0264123D01*
X0126695Y0263125D02*
X0128495Y0263125D01*
X0128906Y0262126D02*
X0126285Y0262126D01*
X0125588Y0261128D02*
X0129602Y0261128D01*
X0129998Y0257134D02*
X0125193Y0257134D01*
X0126121Y0256135D02*
X0129070Y0256135D01*
X0128656Y0255137D02*
X0126534Y0255137D01*
X0126695Y0254138D02*
X0128495Y0254138D01*
X0128495Y0253140D02*
X0126695Y0253140D01*
X0126291Y0252141D02*
X0128900Y0252141D01*
X0129587Y0251143D02*
X0125603Y0251143D01*
X0119587Y0251143D02*
X0115603Y0251143D01*
X0116291Y0252141D02*
X0118900Y0252141D01*
X0118495Y0253140D02*
X0116695Y0253140D01*
X0116695Y0254138D02*
X0118495Y0254138D01*
X0118656Y0255137D02*
X0116534Y0255137D01*
X0116121Y0256135D02*
X0119070Y0256135D01*
X0119998Y0257134D02*
X0115193Y0257134D01*
X0109998Y0257134D02*
X0098280Y0257134D01*
X0098345Y0258132D02*
X0353070Y0258132D01*
X0354215Y0257134D02*
X0335193Y0257134D01*
X0336121Y0256135D02*
X0355213Y0256135D01*
X0356212Y0255137D02*
X0336534Y0255137D01*
X0336695Y0254138D02*
X0347139Y0254138D01*
X0345135Y0253140D02*
X0336695Y0253140D01*
X0336291Y0252141D02*
X0344136Y0252141D01*
X0343138Y0251143D02*
X0335603Y0251143D01*
X0329587Y0251143D02*
X0325603Y0251143D01*
X0326291Y0252141D02*
X0328900Y0252141D01*
X0328495Y0253140D02*
X0326695Y0253140D01*
X0326695Y0254138D02*
X0328495Y0254138D01*
X0328656Y0255137D02*
X0326534Y0255137D01*
X0326121Y0256135D02*
X0329070Y0256135D01*
X0329998Y0257134D02*
X0325193Y0257134D01*
X0319998Y0257134D02*
X0315193Y0257134D01*
X0316121Y0256135D02*
X0319070Y0256135D01*
X0318656Y0255137D02*
X0316534Y0255137D01*
X0316695Y0254138D02*
X0318495Y0254138D01*
X0318495Y0253140D02*
X0316695Y0253140D01*
X0316291Y0252141D02*
X0318900Y0252141D01*
X0319587Y0251143D02*
X0315603Y0251143D01*
X0309587Y0251143D02*
X0305603Y0251143D01*
X0306291Y0252141D02*
X0308900Y0252141D01*
X0308495Y0253140D02*
X0306695Y0253140D01*
X0306695Y0254138D02*
X0308495Y0254138D01*
X0308656Y0255137D02*
X0306534Y0255137D01*
X0306121Y0256135D02*
X0309070Y0256135D01*
X0309998Y0257134D02*
X0305193Y0257134D01*
X0305588Y0261128D02*
X0309602Y0261128D01*
X0308906Y0262126D02*
X0306285Y0262126D01*
X0306695Y0263125D02*
X0308495Y0263125D01*
X0308495Y0264123D02*
X0306695Y0264123D01*
X0306541Y0265122D02*
X0308650Y0265122D01*
X0309063Y0266120D02*
X0306127Y0266120D01*
X0305208Y0267119D02*
X0309983Y0267119D01*
X0315208Y0267119D02*
X0319983Y0267119D01*
X0319063Y0266120D02*
X0316127Y0266120D01*
X0316541Y0265122D02*
X0318650Y0265122D01*
X0318495Y0264123D02*
X0316695Y0264123D01*
X0316695Y0263125D02*
X0318495Y0263125D01*
X0318906Y0262126D02*
X0316285Y0262126D01*
X0315588Y0261128D02*
X0319602Y0261128D01*
X0299602Y0261128D02*
X0295588Y0261128D01*
X0296285Y0262126D02*
X0298906Y0262126D01*
X0298495Y0263125D02*
X0296695Y0263125D01*
X0296695Y0264123D02*
X0298495Y0264123D01*
X0298650Y0265122D02*
X0296541Y0265122D01*
X0296127Y0266120D02*
X0299063Y0266120D01*
X0299983Y0267119D02*
X0295208Y0267119D01*
X0289983Y0267119D02*
X0285208Y0267119D01*
X0286127Y0266120D02*
X0289063Y0266120D01*
X0288650Y0265122D02*
X0286541Y0265122D01*
X0286695Y0264123D02*
X0288495Y0264123D01*
X0288495Y0263125D02*
X0286695Y0263125D01*
X0286285Y0262126D02*
X0288906Y0262126D01*
X0289602Y0261128D02*
X0285588Y0261128D01*
X0285193Y0257134D02*
X0289998Y0257134D01*
X0289070Y0256135D02*
X0286121Y0256135D01*
X0286534Y0255137D02*
X0288656Y0255137D01*
X0288495Y0254138D02*
X0286695Y0254138D01*
X0286695Y0253140D02*
X0288495Y0253140D01*
X0288900Y0252141D02*
X0286291Y0252141D01*
X0285603Y0251143D02*
X0289587Y0251143D01*
X0295603Y0251143D02*
X0299587Y0251143D01*
X0298900Y0252141D02*
X0296291Y0252141D01*
X0296695Y0253140D02*
X0298495Y0253140D01*
X0298495Y0254138D02*
X0296695Y0254138D01*
X0296534Y0255137D02*
X0298656Y0255137D01*
X0299070Y0256135D02*
X0296121Y0256135D01*
X0295193Y0257134D02*
X0299998Y0257134D01*
X0279998Y0257134D02*
X0275193Y0257134D01*
X0276121Y0256135D02*
X0279070Y0256135D01*
X0278656Y0255137D02*
X0276534Y0255137D01*
X0276695Y0254138D02*
X0278495Y0254138D01*
X0278495Y0253140D02*
X0276695Y0253140D01*
X0276291Y0252141D02*
X0278900Y0252141D01*
X0279587Y0251143D02*
X0275603Y0251143D01*
X0269587Y0251143D02*
X0265603Y0251143D01*
X0266291Y0252141D02*
X0268900Y0252141D01*
X0268495Y0253140D02*
X0266695Y0253140D01*
X0266695Y0254138D02*
X0268495Y0254138D01*
X0268656Y0255137D02*
X0266534Y0255137D01*
X0266121Y0256135D02*
X0269070Y0256135D01*
X0269998Y0257134D02*
X0265193Y0257134D01*
X0265588Y0261128D02*
X0269602Y0261128D01*
X0268906Y0262126D02*
X0266285Y0262126D01*
X0266695Y0263125D02*
X0268495Y0263125D01*
X0268495Y0264123D02*
X0266695Y0264123D01*
X0266541Y0265122D02*
X0268650Y0265122D01*
X0269063Y0266120D02*
X0266127Y0266120D01*
X0265208Y0267119D02*
X0269983Y0267119D01*
X0275208Y0267119D02*
X0279983Y0267119D01*
X0279063Y0266120D02*
X0276127Y0266120D01*
X0276541Y0265122D02*
X0278650Y0265122D01*
X0278495Y0264123D02*
X0276695Y0264123D01*
X0276695Y0263125D02*
X0278495Y0263125D01*
X0278906Y0262126D02*
X0276285Y0262126D01*
X0275588Y0261128D02*
X0279602Y0261128D01*
X0259998Y0257134D02*
X0255193Y0257134D01*
X0256121Y0256135D02*
X0259070Y0256135D01*
X0258656Y0255137D02*
X0256534Y0255137D01*
X0256695Y0254138D02*
X0258495Y0254138D01*
X0258495Y0253140D02*
X0256695Y0253140D01*
X0256291Y0252141D02*
X0258900Y0252141D01*
X0259587Y0251143D02*
X0255603Y0251143D01*
X0249587Y0251143D02*
X0245603Y0251143D01*
X0246291Y0252141D02*
X0248900Y0252141D01*
X0248495Y0253140D02*
X0246695Y0253140D01*
X0246695Y0254138D02*
X0248495Y0254138D01*
X0248656Y0255137D02*
X0246534Y0255137D01*
X0246121Y0256135D02*
X0249070Y0256135D01*
X0249998Y0257134D02*
X0245193Y0257134D01*
X0245588Y0261128D02*
X0249602Y0261128D01*
X0248906Y0262126D02*
X0246285Y0262126D01*
X0246695Y0263125D02*
X0248495Y0263125D01*
X0248495Y0264123D02*
X0246695Y0264123D01*
X0246541Y0265122D02*
X0248650Y0265122D01*
X0249063Y0266120D02*
X0246127Y0266120D01*
X0245208Y0267119D02*
X0249983Y0267119D01*
X0255208Y0267119D02*
X0259983Y0267119D01*
X0259063Y0266120D02*
X0256127Y0266120D01*
X0256541Y0265122D02*
X0258650Y0265122D01*
X0258495Y0264123D02*
X0256695Y0264123D01*
X0256695Y0263125D02*
X0258495Y0263125D01*
X0258906Y0262126D02*
X0256285Y0262126D01*
X0255588Y0261128D02*
X0259602Y0261128D01*
X0239602Y0261128D02*
X0235588Y0261128D01*
X0236285Y0262126D02*
X0238906Y0262126D01*
X0238495Y0263125D02*
X0236695Y0263125D01*
X0236695Y0264123D02*
X0238495Y0264123D01*
X0238650Y0265122D02*
X0236541Y0265122D01*
X0236127Y0266120D02*
X0239063Y0266120D01*
X0239983Y0267119D02*
X0235208Y0267119D01*
X0229983Y0267119D02*
X0225208Y0267119D01*
X0226127Y0266120D02*
X0229063Y0266120D01*
X0228650Y0265122D02*
X0226541Y0265122D01*
X0226695Y0264123D02*
X0228495Y0264123D01*
X0228495Y0263125D02*
X0226695Y0263125D01*
X0226285Y0262126D02*
X0228906Y0262126D01*
X0229602Y0261128D02*
X0225588Y0261128D01*
X0225193Y0257134D02*
X0229998Y0257134D01*
X0229070Y0256135D02*
X0226121Y0256135D01*
X0226534Y0255137D02*
X0228656Y0255137D01*
X0228495Y0254138D02*
X0226695Y0254138D01*
X0226695Y0253140D02*
X0228495Y0253140D01*
X0228900Y0252141D02*
X0226291Y0252141D01*
X0225603Y0251143D02*
X0229587Y0251143D01*
X0235603Y0251143D02*
X0239587Y0251143D01*
X0238900Y0252141D02*
X0236291Y0252141D01*
X0236695Y0253140D02*
X0238495Y0253140D01*
X0238495Y0254138D02*
X0236695Y0254138D01*
X0236534Y0255137D02*
X0238656Y0255137D01*
X0239070Y0256135D02*
X0236121Y0256135D01*
X0235193Y0257134D02*
X0239998Y0257134D01*
X0219998Y0257134D02*
X0215193Y0257134D01*
X0216121Y0256135D02*
X0219070Y0256135D01*
X0218656Y0255137D02*
X0216534Y0255137D01*
X0216695Y0254138D02*
X0218495Y0254138D01*
X0218495Y0253140D02*
X0216695Y0253140D01*
X0216291Y0252141D02*
X0218900Y0252141D01*
X0219587Y0251143D02*
X0215603Y0251143D01*
X0209587Y0251143D02*
X0205603Y0251143D01*
X0206291Y0252141D02*
X0208900Y0252141D01*
X0208495Y0253140D02*
X0206695Y0253140D01*
X0206695Y0254138D02*
X0208495Y0254138D01*
X0208656Y0255137D02*
X0206534Y0255137D01*
X0206121Y0256135D02*
X0209070Y0256135D01*
X0209998Y0257134D02*
X0205193Y0257134D01*
X0205588Y0261128D02*
X0209602Y0261128D01*
X0208906Y0262126D02*
X0206285Y0262126D01*
X0206695Y0263125D02*
X0208495Y0263125D01*
X0208495Y0264123D02*
X0206695Y0264123D01*
X0206541Y0265122D02*
X0208650Y0265122D01*
X0209063Y0266120D02*
X0206127Y0266120D01*
X0205208Y0267119D02*
X0209983Y0267119D01*
X0215208Y0267119D02*
X0219983Y0267119D01*
X0219063Y0266120D02*
X0216127Y0266120D01*
X0216541Y0265122D02*
X0218650Y0265122D01*
X0218495Y0264123D02*
X0216695Y0264123D01*
X0216695Y0263125D02*
X0218495Y0263125D01*
X0218906Y0262126D02*
X0216285Y0262126D01*
X0215588Y0261128D02*
X0219602Y0261128D01*
X0199602Y0261128D02*
X0195588Y0261128D01*
X0196285Y0262126D02*
X0198906Y0262126D01*
X0198495Y0263125D02*
X0196695Y0263125D01*
X0196695Y0264123D02*
X0198495Y0264123D01*
X0198650Y0265122D02*
X0196541Y0265122D01*
X0196127Y0266120D02*
X0199063Y0266120D01*
X0199983Y0267119D02*
X0195208Y0267119D01*
X0189983Y0267119D02*
X0185208Y0267119D01*
X0186127Y0266120D02*
X0189063Y0266120D01*
X0188650Y0265122D02*
X0186541Y0265122D01*
X0186695Y0264123D02*
X0188495Y0264123D01*
X0188495Y0263125D02*
X0186695Y0263125D01*
X0186285Y0262126D02*
X0188906Y0262126D01*
X0189602Y0261128D02*
X0185588Y0261128D01*
X0185193Y0257134D02*
X0189998Y0257134D01*
X0189070Y0256135D02*
X0186121Y0256135D01*
X0186534Y0255137D02*
X0188656Y0255137D01*
X0188495Y0254138D02*
X0186695Y0254138D01*
X0186695Y0253140D02*
X0188495Y0253140D01*
X0188900Y0252141D02*
X0186291Y0252141D01*
X0185603Y0251143D02*
X0189587Y0251143D01*
X0195603Y0251143D02*
X0199587Y0251143D01*
X0198900Y0252141D02*
X0196291Y0252141D01*
X0196695Y0253140D02*
X0198495Y0253140D01*
X0198495Y0254138D02*
X0196695Y0254138D01*
X0196534Y0255137D02*
X0198656Y0255137D01*
X0199070Y0256135D02*
X0196121Y0256135D01*
X0195193Y0257134D02*
X0199998Y0257134D01*
X0179998Y0257134D02*
X0175193Y0257134D01*
X0176121Y0256135D02*
X0179070Y0256135D01*
X0178656Y0255137D02*
X0176534Y0255137D01*
X0176695Y0254138D02*
X0178495Y0254138D01*
X0178495Y0253140D02*
X0176695Y0253140D01*
X0176291Y0252141D02*
X0178900Y0252141D01*
X0179587Y0251143D02*
X0175603Y0251143D01*
X0169587Y0251143D02*
X0165603Y0251143D01*
X0166291Y0252141D02*
X0168900Y0252141D01*
X0168495Y0253140D02*
X0166695Y0253140D01*
X0166695Y0254138D02*
X0168495Y0254138D01*
X0168656Y0255137D02*
X0166534Y0255137D01*
X0166121Y0256135D02*
X0169070Y0256135D01*
X0169998Y0257134D02*
X0165193Y0257134D01*
X0165588Y0261128D02*
X0169602Y0261128D01*
X0168906Y0262126D02*
X0166285Y0262126D01*
X0166695Y0263125D02*
X0168495Y0263125D01*
X0168495Y0264123D02*
X0166695Y0264123D01*
X0166541Y0265122D02*
X0168650Y0265122D01*
X0169063Y0266120D02*
X0166127Y0266120D01*
X0165208Y0267119D02*
X0169983Y0267119D01*
X0175208Y0267119D02*
X0179983Y0267119D01*
X0179063Y0266120D02*
X0176127Y0266120D01*
X0176541Y0265122D02*
X0178650Y0265122D01*
X0178495Y0264123D02*
X0176695Y0264123D01*
X0176695Y0263125D02*
X0178495Y0263125D01*
X0178906Y0262126D02*
X0176285Y0262126D01*
X0175588Y0261128D02*
X0179602Y0261128D01*
X0159602Y0261128D02*
X0155588Y0261128D01*
X0156285Y0262126D02*
X0158906Y0262126D01*
X0158495Y0263125D02*
X0156695Y0263125D01*
X0156695Y0264123D02*
X0158495Y0264123D01*
X0158650Y0265122D02*
X0156541Y0265122D01*
X0156127Y0266120D02*
X0159063Y0266120D01*
X0159983Y0267119D02*
X0155208Y0267119D01*
X0149983Y0267119D02*
X0145208Y0267119D01*
X0146127Y0266120D02*
X0149063Y0266120D01*
X0148650Y0265122D02*
X0146541Y0265122D01*
X0146695Y0264123D02*
X0148495Y0264123D01*
X0148495Y0263125D02*
X0146695Y0263125D01*
X0146285Y0262126D02*
X0148906Y0262126D01*
X0149602Y0261128D02*
X0145588Y0261128D01*
X0145193Y0257134D02*
X0149998Y0257134D01*
X0149070Y0256135D02*
X0146121Y0256135D01*
X0146534Y0255137D02*
X0148656Y0255137D01*
X0148495Y0254138D02*
X0146695Y0254138D01*
X0146695Y0253140D02*
X0148495Y0253140D01*
X0148900Y0252141D02*
X0146291Y0252141D01*
X0145603Y0251143D02*
X0149587Y0251143D01*
X0155603Y0251143D02*
X0159587Y0251143D01*
X0158900Y0252141D02*
X0156291Y0252141D01*
X0156695Y0253140D02*
X0158495Y0253140D01*
X0158495Y0254138D02*
X0156695Y0254138D01*
X0156534Y0255137D02*
X0158656Y0255137D01*
X0159070Y0256135D02*
X0156121Y0256135D01*
X0155193Y0257134D02*
X0159998Y0257134D01*
X0139998Y0257134D02*
X0135193Y0257134D01*
X0136121Y0256135D02*
X0139070Y0256135D01*
X0138656Y0255137D02*
X0136534Y0255137D01*
X0136695Y0254138D02*
X0138495Y0254138D01*
X0138495Y0253140D02*
X0136695Y0253140D01*
X0136291Y0252141D02*
X0138900Y0252141D01*
X0139587Y0251143D02*
X0135603Y0251143D01*
X0135588Y0261128D02*
X0139602Y0261128D01*
X0138906Y0262126D02*
X0136285Y0262126D01*
X0136695Y0263125D02*
X0138495Y0263125D01*
X0138495Y0264123D02*
X0136695Y0264123D01*
X0136541Y0265122D02*
X0138650Y0265122D01*
X0139063Y0266120D02*
X0136127Y0266120D01*
X0135208Y0267119D02*
X0139983Y0267119D01*
X0109070Y0256135D02*
X0097866Y0256135D01*
X0097452Y0255137D02*
X0108656Y0255137D01*
X0108495Y0254138D02*
X0096968Y0254138D01*
X0095969Y0253140D02*
X0108495Y0253140D01*
X0108900Y0252141D02*
X0094971Y0252141D01*
X0092846Y0251143D02*
X0109587Y0251143D01*
X0198355Y0203214D02*
X0216945Y0203214D01*
X0217272Y0202216D02*
X0199245Y0202216D01*
X0189308Y0172260D02*
X0231882Y0172260D01*
X0231445Y0171262D02*
X0189745Y0171262D01*
X0189745Y0170263D02*
X0231445Y0170263D01*
X0232223Y0169265D02*
X0188967Y0169265D01*
X0205296Y0164272D02*
X0205394Y0164272D01*
X0205711Y0161277D02*
X0204979Y0161277D01*
X0209245Y0163274D02*
X0274945Y0163274D01*
X0275894Y0164272D02*
X0208796Y0164272D01*
X0177415Y0150293D02*
X0114845Y0150293D01*
X0114845Y0149295D02*
X0176445Y0149295D01*
X0176445Y0148296D02*
X0114845Y0148296D01*
X0114845Y0147298D02*
X0176690Y0147298D01*
X0186745Y0116344D02*
X0290965Y0116344D01*
X0290445Y0115345D02*
X0186048Y0115345D01*
X0181486Y0098083D02*
X0179705Y0098083D01*
X0178445Y0096824D01*
X0178445Y0095043D01*
X0179705Y0093783D01*
X0181486Y0093783D01*
X0182745Y0095043D01*
X0182745Y0096824D01*
X0181486Y0098083D01*
X0182197Y0097372D02*
X0239494Y0097372D01*
X0238945Y0096824D02*
X0238945Y0095043D01*
X0240205Y0093783D01*
X0241986Y0093783D01*
X0243245Y0095043D01*
X0243245Y0096824D01*
X0241986Y0098083D01*
X0240205Y0098083D01*
X0238945Y0096824D01*
X0238945Y0096374D02*
X0182745Y0096374D01*
X0182745Y0095375D02*
X0238945Y0095375D01*
X0239611Y0094377D02*
X0182079Y0094377D01*
X0179111Y0094377D02*
X0154295Y0094377D01*
X0154295Y0095375D02*
X0178445Y0095375D01*
X0178445Y0096374D02*
X0154295Y0096374D01*
X0154295Y0097372D02*
X0178994Y0097372D01*
X0156224Y0088385D02*
X0345380Y0088385D01*
X0344382Y0087387D02*
X0156638Y0087387D01*
X0156695Y0086388D02*
X0343383Y0086388D01*
X0342804Y0085390D02*
X0156601Y0085390D01*
X0156187Y0084391D02*
X0342391Y0084391D01*
X0341977Y0083393D02*
X0155353Y0083393D01*
X0153559Y0082394D02*
X0341845Y0082394D01*
X0341845Y0081396D02*
X0120037Y0081396D01*
X0119038Y0082394D02*
X0121632Y0082394D01*
X0123559Y0082394D02*
X0131632Y0082394D01*
X0131780Y0082333D02*
X0133411Y0082333D01*
X0134918Y0082957D01*
X0136071Y0084111D01*
X0136695Y0085618D01*
X0136695Y0087249D01*
X0136071Y0088756D01*
X0134918Y0089909D01*
X0133411Y0090533D01*
X0131780Y0090533D01*
X0130273Y0089909D01*
X0129119Y0088756D01*
X0128495Y0087249D01*
X0128495Y0085618D01*
X0129119Y0084111D01*
X0130273Y0082957D01*
X0131780Y0082333D01*
X0133559Y0082394D02*
X0141632Y0082394D01*
X0141780Y0082333D02*
X0143411Y0082333D01*
X0144918Y0082957D01*
X0146071Y0084111D01*
X0146695Y0085618D01*
X0146695Y0087249D01*
X0146071Y0088756D01*
X0144918Y0089909D01*
X0143411Y0090533D01*
X0141780Y0090533D01*
X0140273Y0089909D01*
X0139119Y0088756D01*
X0138495Y0087249D01*
X0138495Y0085618D01*
X0139119Y0084111D01*
X0140273Y0082957D01*
X0141780Y0082333D01*
X0143559Y0082394D02*
X0151632Y0082394D01*
X0149837Y0083393D02*
X0145353Y0083393D01*
X0146187Y0084391D02*
X0149003Y0084391D01*
X0148589Y0085390D02*
X0146601Y0085390D01*
X0146695Y0086388D02*
X0148495Y0086388D01*
X0148552Y0087387D02*
X0146638Y0087387D01*
X0146224Y0088385D02*
X0148966Y0088385D01*
X0149748Y0089384D02*
X0145443Y0089384D01*
X0143774Y0090382D02*
X0150895Y0090382D01*
X0154295Y0090382D02*
X0310605Y0090382D01*
X0309945Y0091381D02*
X0154295Y0091381D01*
X0154295Y0092379D02*
X0309945Y0092379D01*
X0310500Y0093378D02*
X0154295Y0093378D01*
X0155443Y0089384D02*
X0347732Y0089384D01*
X0341845Y0080397D02*
X0138535Y0080397D01*
X0139534Y0079399D02*
X0342008Y0079399D01*
X0330266Y0077402D02*
X0324925Y0077402D01*
X0324918Y0077409D02*
X0323411Y0078033D01*
X0321780Y0078033D01*
X0320273Y0077409D01*
X0319119Y0076256D01*
X0318495Y0074749D01*
X0318495Y0073118D01*
X0319119Y0071611D01*
X0320273Y0070457D01*
X0321780Y0069833D01*
X0323411Y0069833D01*
X0324918Y0070457D01*
X0326071Y0071611D01*
X0326695Y0073118D01*
X0326695Y0074749D01*
X0326071Y0076256D01*
X0324918Y0077409D01*
X0325923Y0076403D02*
X0329267Y0076403D01*
X0328767Y0075405D02*
X0326423Y0075405D01*
X0326695Y0074406D02*
X0328495Y0074406D01*
X0328495Y0073408D02*
X0326695Y0073408D01*
X0326402Y0072409D02*
X0328789Y0072409D01*
X0329319Y0071411D02*
X0325871Y0071411D01*
X0324809Y0070412D02*
X0330381Y0070412D01*
X0330292Y0067417D02*
X0324899Y0067417D01*
X0324918Y0067409D02*
X0323411Y0068033D01*
X0321780Y0068033D01*
X0320273Y0067409D01*
X0319119Y0066256D01*
X0318495Y0064749D01*
X0318495Y0063118D01*
X0319119Y0061611D01*
X0320273Y0060457D01*
X0321780Y0059833D01*
X0323411Y0059833D01*
X0324918Y0060457D01*
X0326071Y0061611D01*
X0326695Y0063118D01*
X0326695Y0064749D01*
X0326071Y0066256D01*
X0324918Y0067409D01*
X0325908Y0066418D02*
X0329282Y0066418D01*
X0328773Y0065420D02*
X0326417Y0065420D01*
X0326695Y0064421D02*
X0328495Y0064421D01*
X0328495Y0063423D02*
X0326695Y0063423D01*
X0326408Y0062424D02*
X0328782Y0062424D01*
X0329304Y0061426D02*
X0325886Y0061426D01*
X0324845Y0060427D02*
X0330345Y0060427D01*
X0330119Y0059429D02*
X0052408Y0059429D01*
X0047037Y0061426D02*
X0086661Y0061426D01*
X0084937Y0062424D02*
X0045173Y0062424D01*
X0043921Y0063423D02*
X0083938Y0063423D01*
X0083034Y0064421D02*
X0042669Y0064421D01*
X0041450Y0065420D02*
X0082621Y0065420D01*
X0082207Y0066418D02*
X0040654Y0066418D01*
X0039857Y0067417D02*
X0081845Y0067417D01*
X0081845Y0068415D02*
X0039061Y0068415D01*
X0038292Y0069414D02*
X0081845Y0069414D01*
X0081845Y0070412D02*
X0037811Y0070412D01*
X0037330Y0071411D02*
X0082192Y0071411D01*
X0082605Y0072409D02*
X0036849Y0072409D01*
X0036368Y0073408D02*
X0083019Y0073408D01*
X0083901Y0074406D02*
X0036011Y0074406D01*
X0035783Y0075405D02*
X0084900Y0075405D01*
X0086572Y0076403D02*
X0035555Y0076403D01*
X0035327Y0077402D02*
X0110266Y0077402D01*
X0110273Y0077409D02*
X0109119Y0076256D01*
X0108495Y0074749D01*
X0108495Y0073118D01*
X0109119Y0071611D01*
X0110273Y0070457D01*
X0111780Y0069833D01*
X0113411Y0069833D01*
X0114918Y0070457D01*
X0116071Y0071611D01*
X0116695Y0073118D01*
X0116695Y0074749D01*
X0116071Y0076256D01*
X0114918Y0077409D01*
X0113411Y0078033D01*
X0111780Y0078033D01*
X0110273Y0077409D01*
X0109267Y0076403D02*
X0093619Y0076403D01*
X0095291Y0075405D02*
X0108767Y0075405D01*
X0108495Y0074406D02*
X0096289Y0074406D01*
X0097171Y0073408D02*
X0108495Y0073408D01*
X0108789Y0072409D02*
X0097585Y0072409D01*
X0097999Y0071411D02*
X0109319Y0071411D01*
X0110381Y0070412D02*
X0098345Y0070412D01*
X0098345Y0069414D02*
X0140895Y0069414D01*
X0140381Y0070412D02*
X0134809Y0070412D01*
X0135871Y0071411D02*
X0139319Y0071411D01*
X0138789Y0072409D02*
X0136402Y0072409D01*
X0136695Y0073408D02*
X0138495Y0073408D01*
X0138495Y0074406D02*
X0136695Y0074406D01*
X0136423Y0075405D02*
X0138719Y0075405D01*
X0137721Y0076403D02*
X0135923Y0076403D01*
X0136722Y0077402D02*
X0134925Y0077402D01*
X0130266Y0077402D02*
X0124925Y0077402D01*
X0125923Y0076403D02*
X0129267Y0076403D01*
X0128767Y0075405D02*
X0126423Y0075405D01*
X0126695Y0074406D02*
X0128495Y0074406D01*
X0128495Y0073408D02*
X0126695Y0073408D01*
X0126402Y0072409D02*
X0128789Y0072409D01*
X0129319Y0071411D02*
X0125871Y0071411D01*
X0124809Y0070412D02*
X0130381Y0070412D01*
X0130292Y0067417D02*
X0124899Y0067417D01*
X0124918Y0067409D02*
X0123411Y0068033D01*
X0121780Y0068033D01*
X0120273Y0067409D01*
X0119119Y0066256D01*
X0118495Y0064749D01*
X0118495Y0063118D01*
X0119119Y0061611D01*
X0120273Y0060457D01*
X0121780Y0059833D01*
X0123411Y0059833D01*
X0124918Y0060457D01*
X0126071Y0061611D01*
X0126695Y0063118D01*
X0126695Y0064749D01*
X0126071Y0066256D01*
X0124918Y0067409D01*
X0125908Y0066418D02*
X0129282Y0066418D01*
X0128773Y0065420D02*
X0126417Y0065420D01*
X0126695Y0064421D02*
X0128495Y0064421D01*
X0128495Y0063423D02*
X0126695Y0063423D01*
X0126408Y0062424D02*
X0128782Y0062424D01*
X0129304Y0061426D02*
X0125886Y0061426D01*
X0124845Y0060427D02*
X0130345Y0060427D01*
X0120345Y0060427D02*
X0114845Y0060427D01*
X0115886Y0061426D02*
X0119304Y0061426D01*
X0118782Y0062424D02*
X0116408Y0062424D01*
X0116695Y0063423D02*
X0118495Y0063423D01*
X0118495Y0064421D02*
X0116695Y0064421D01*
X0116417Y0065420D02*
X0118773Y0065420D01*
X0119282Y0066418D02*
X0115908Y0066418D01*
X0114899Y0067417D02*
X0120292Y0067417D01*
X0120381Y0070412D02*
X0114809Y0070412D01*
X0115871Y0071411D02*
X0119319Y0071411D01*
X0118789Y0072409D02*
X0116402Y0072409D01*
X0116695Y0073408D02*
X0118495Y0073408D01*
X0118495Y0074406D02*
X0116695Y0074406D01*
X0116423Y0075405D02*
X0118767Y0075405D01*
X0119267Y0076403D02*
X0115923Y0076403D01*
X0114925Y0077402D02*
X0120266Y0077402D01*
X0118224Y0078400D02*
X0035099Y0078400D01*
X0034959Y0079399D02*
X0117225Y0079399D01*
X0116227Y0080397D02*
X0034903Y0080397D01*
X0096549Y0114347D02*
X0113395Y0114347D01*
X0113395Y0115345D02*
X0097245Y0115345D01*
X0097245Y0116344D02*
X0113395Y0116344D01*
X0113395Y0117342D02*
X0096726Y0117342D01*
X0123774Y0090382D02*
X0131416Y0090382D01*
X0129748Y0089384D02*
X0125443Y0089384D01*
X0126224Y0088385D02*
X0128966Y0088385D01*
X0128552Y0087387D02*
X0126638Y0087387D01*
X0126695Y0086388D02*
X0128495Y0086388D01*
X0128589Y0085390D02*
X0126601Y0085390D01*
X0126187Y0084391D02*
X0129003Y0084391D01*
X0129837Y0083393D02*
X0125353Y0083393D01*
X0119837Y0083393D02*
X0118039Y0083393D01*
X0119003Y0084391D02*
X0117041Y0084391D01*
X0133774Y0090382D02*
X0141416Y0090382D01*
X0139748Y0089384D02*
X0135443Y0089384D01*
X0136224Y0088385D02*
X0138966Y0088385D01*
X0138552Y0087387D02*
X0136638Y0087387D01*
X0136695Y0086388D02*
X0138495Y0086388D01*
X0138589Y0085390D02*
X0136601Y0085390D01*
X0136187Y0084391D02*
X0139003Y0084391D01*
X0139837Y0083393D02*
X0135353Y0083393D01*
X0154925Y0077402D02*
X0160266Y0077402D01*
X0160273Y0077409D02*
X0159119Y0076256D01*
X0158495Y0074749D01*
X0158495Y0073118D01*
X0159119Y0071611D01*
X0160273Y0070457D01*
X0161780Y0069833D01*
X0163411Y0069833D01*
X0164918Y0070457D01*
X0166071Y0071611D01*
X0166695Y0073118D01*
X0166695Y0074749D01*
X0166071Y0076256D01*
X0164918Y0077409D01*
X0163411Y0078033D01*
X0161780Y0078033D01*
X0160273Y0077409D01*
X0159267Y0076403D02*
X0155923Y0076403D01*
X0156423Y0075405D02*
X0158767Y0075405D01*
X0158495Y0074406D02*
X0156695Y0074406D01*
X0156695Y0073408D02*
X0158495Y0073408D01*
X0158789Y0072409D02*
X0156402Y0072409D01*
X0155871Y0071411D02*
X0159319Y0071411D01*
X0160381Y0070412D02*
X0154809Y0070412D01*
X0154899Y0067417D02*
X0160292Y0067417D01*
X0160273Y0067409D02*
X0159119Y0066256D01*
X0158495Y0064749D01*
X0158495Y0063118D01*
X0159119Y0061611D01*
X0160273Y0060457D01*
X0161780Y0059833D01*
X0163411Y0059833D01*
X0164918Y0060457D01*
X0166071Y0061611D01*
X0166695Y0063118D01*
X0166695Y0064749D01*
X0166071Y0066256D01*
X0164918Y0067409D01*
X0163411Y0068033D01*
X0161780Y0068033D01*
X0160273Y0067409D01*
X0159282Y0066418D02*
X0155908Y0066418D01*
X0156417Y0065420D02*
X0158773Y0065420D01*
X0158495Y0064421D02*
X0156695Y0064421D01*
X0156695Y0063423D02*
X0158495Y0063423D01*
X0158782Y0062424D02*
X0156408Y0062424D01*
X0155886Y0061426D02*
X0159304Y0061426D01*
X0160345Y0060427D02*
X0154845Y0060427D01*
X0164845Y0060427D02*
X0170345Y0060427D01*
X0170273Y0060457D02*
X0171780Y0059833D01*
X0173411Y0059833D01*
X0174918Y0060457D01*
X0176071Y0061611D01*
X0176695Y0063118D01*
X0176695Y0064749D01*
X0176071Y0066256D01*
X0174918Y0067409D01*
X0173411Y0068033D01*
X0171780Y0068033D01*
X0170273Y0067409D01*
X0169119Y0066256D01*
X0168495Y0064749D01*
X0168495Y0063118D01*
X0169119Y0061611D01*
X0170273Y0060457D01*
X0169304Y0061426D02*
X0165886Y0061426D01*
X0166408Y0062424D02*
X0168782Y0062424D01*
X0168495Y0063423D02*
X0166695Y0063423D01*
X0166695Y0064421D02*
X0168495Y0064421D01*
X0168773Y0065420D02*
X0166417Y0065420D01*
X0165908Y0066418D02*
X0169282Y0066418D01*
X0170292Y0067417D02*
X0164899Y0067417D01*
X0164809Y0070412D02*
X0170381Y0070412D01*
X0170273Y0070457D02*
X0171780Y0069833D01*
X0173411Y0069833D01*
X0174918Y0070457D01*
X0176071Y0071611D01*
X0176695Y0073118D01*
X0176695Y0074749D01*
X0176071Y0076256D01*
X0174918Y0077409D01*
X0173411Y0078033D01*
X0171780Y0078033D01*
X0170273Y0077409D01*
X0169119Y0076256D01*
X0168495Y0074749D01*
X0168495Y0073118D01*
X0169119Y0071611D01*
X0170273Y0070457D01*
X0169319Y0071411D02*
X0165871Y0071411D01*
X0166402Y0072409D02*
X0168789Y0072409D01*
X0168495Y0073408D02*
X0166695Y0073408D01*
X0166695Y0074406D02*
X0168495Y0074406D01*
X0168767Y0075405D02*
X0166423Y0075405D01*
X0165923Y0076403D02*
X0169267Y0076403D01*
X0170266Y0077402D02*
X0164925Y0077402D01*
X0174925Y0077402D02*
X0180266Y0077402D01*
X0180273Y0077409D02*
X0179119Y0076256D01*
X0178495Y0074749D01*
X0178495Y0073118D01*
X0179119Y0071611D01*
X0180273Y0070457D01*
X0181780Y0069833D01*
X0183411Y0069833D01*
X0184918Y0070457D01*
X0186071Y0071611D01*
X0186695Y0073118D01*
X0186695Y0074749D01*
X0186071Y0076256D01*
X0184918Y0077409D01*
X0183411Y0078033D01*
X0181780Y0078033D01*
X0180273Y0077409D01*
X0179267Y0076403D02*
X0175923Y0076403D01*
X0176423Y0075405D02*
X0178767Y0075405D01*
X0178495Y0074406D02*
X0176695Y0074406D01*
X0176695Y0073408D02*
X0178495Y0073408D01*
X0178789Y0072409D02*
X0176402Y0072409D01*
X0175871Y0071411D02*
X0179319Y0071411D01*
X0180381Y0070412D02*
X0174809Y0070412D01*
X0174899Y0067417D02*
X0180292Y0067417D01*
X0180273Y0067409D02*
X0179119Y0066256D01*
X0178495Y0064749D01*
X0178495Y0063118D01*
X0179119Y0061611D01*
X0180273Y0060457D01*
X0181780Y0059833D01*
X0183411Y0059833D01*
X0184918Y0060457D01*
X0186071Y0061611D01*
X0186695Y0063118D01*
X0186695Y0064749D01*
X0186071Y0066256D01*
X0184918Y0067409D01*
X0183411Y0068033D01*
X0181780Y0068033D01*
X0180273Y0067409D01*
X0179282Y0066418D02*
X0175908Y0066418D01*
X0176417Y0065420D02*
X0178773Y0065420D01*
X0178495Y0064421D02*
X0176695Y0064421D01*
X0176695Y0063423D02*
X0178495Y0063423D01*
X0178782Y0062424D02*
X0176408Y0062424D01*
X0175886Y0061426D02*
X0179304Y0061426D01*
X0180345Y0060427D02*
X0174845Y0060427D01*
X0184845Y0060427D02*
X0190345Y0060427D01*
X0190273Y0060457D02*
X0191780Y0059833D01*
X0193411Y0059833D01*
X0194918Y0060457D01*
X0196071Y0061611D01*
X0196695Y0063118D01*
X0196695Y0064749D01*
X0196071Y0066256D01*
X0194918Y0067409D01*
X0193411Y0068033D01*
X0191780Y0068033D01*
X0190273Y0067409D01*
X0189119Y0066256D01*
X0188495Y0064749D01*
X0188495Y0063118D01*
X0189119Y0061611D01*
X0190273Y0060457D01*
X0189304Y0061426D02*
X0185886Y0061426D01*
X0186408Y0062424D02*
X0188782Y0062424D01*
X0188495Y0063423D02*
X0186695Y0063423D01*
X0186695Y0064421D02*
X0188495Y0064421D01*
X0188773Y0065420D02*
X0186417Y0065420D01*
X0185908Y0066418D02*
X0189282Y0066418D01*
X0190292Y0067417D02*
X0184899Y0067417D01*
X0184809Y0070412D02*
X0190381Y0070412D01*
X0190273Y0070457D02*
X0191780Y0069833D01*
X0193411Y0069833D01*
X0194918Y0070457D01*
X0196071Y0071611D01*
X0196695Y0073118D01*
X0196695Y0074749D01*
X0196071Y0076256D01*
X0194918Y0077409D01*
X0193411Y0078033D01*
X0191780Y0078033D01*
X0190273Y0077409D01*
X0189119Y0076256D01*
X0188495Y0074749D01*
X0188495Y0073118D01*
X0189119Y0071611D01*
X0190273Y0070457D01*
X0189319Y0071411D02*
X0185871Y0071411D01*
X0186402Y0072409D02*
X0188789Y0072409D01*
X0188495Y0073408D02*
X0186695Y0073408D01*
X0186695Y0074406D02*
X0188495Y0074406D01*
X0188767Y0075405D02*
X0186423Y0075405D01*
X0185923Y0076403D02*
X0189267Y0076403D01*
X0190266Y0077402D02*
X0184925Y0077402D01*
X0194925Y0077402D02*
X0200266Y0077402D01*
X0200273Y0077409D02*
X0199119Y0076256D01*
X0198495Y0074749D01*
X0198495Y0073118D01*
X0199119Y0071611D01*
X0200273Y0070457D01*
X0201780Y0069833D01*
X0203411Y0069833D01*
X0204918Y0070457D01*
X0206071Y0071611D01*
X0206695Y0073118D01*
X0206695Y0074749D01*
X0206071Y0076256D01*
X0204918Y0077409D01*
X0203411Y0078033D01*
X0201780Y0078033D01*
X0200273Y0077409D01*
X0199267Y0076403D02*
X0195923Y0076403D01*
X0196423Y0075405D02*
X0198767Y0075405D01*
X0198495Y0074406D02*
X0196695Y0074406D01*
X0196695Y0073408D02*
X0198495Y0073408D01*
X0198789Y0072409D02*
X0196402Y0072409D01*
X0195871Y0071411D02*
X0199319Y0071411D01*
X0200381Y0070412D02*
X0194809Y0070412D01*
X0194899Y0067417D02*
X0200292Y0067417D01*
X0200273Y0067409D02*
X0199119Y0066256D01*
X0198495Y0064749D01*
X0198495Y0063118D01*
X0199119Y0061611D01*
X0200273Y0060457D01*
X0201780Y0059833D01*
X0203411Y0059833D01*
X0204918Y0060457D01*
X0206071Y0061611D01*
X0206695Y0063118D01*
X0206695Y0064749D01*
X0206071Y0066256D01*
X0204918Y0067409D01*
X0203411Y0068033D01*
X0201780Y0068033D01*
X0200273Y0067409D01*
X0199282Y0066418D02*
X0195908Y0066418D01*
X0196417Y0065420D02*
X0198773Y0065420D01*
X0198495Y0064421D02*
X0196695Y0064421D01*
X0196695Y0063423D02*
X0198495Y0063423D01*
X0198782Y0062424D02*
X0196408Y0062424D01*
X0195886Y0061426D02*
X0199304Y0061426D01*
X0200345Y0060427D02*
X0194845Y0060427D01*
X0204845Y0060427D02*
X0210345Y0060427D01*
X0210273Y0060457D02*
X0211780Y0059833D01*
X0213411Y0059833D01*
X0214918Y0060457D01*
X0216071Y0061611D01*
X0216695Y0063118D01*
X0216695Y0064749D01*
X0216071Y0066256D01*
X0214918Y0067409D01*
X0213411Y0068033D01*
X0211780Y0068033D01*
X0210273Y0067409D01*
X0209119Y0066256D01*
X0208495Y0064749D01*
X0208495Y0063118D01*
X0209119Y0061611D01*
X0210273Y0060457D01*
X0209304Y0061426D02*
X0205886Y0061426D01*
X0206408Y0062424D02*
X0208782Y0062424D01*
X0208495Y0063423D02*
X0206695Y0063423D01*
X0206695Y0064421D02*
X0208495Y0064421D01*
X0208773Y0065420D02*
X0206417Y0065420D01*
X0205908Y0066418D02*
X0209282Y0066418D01*
X0210292Y0067417D02*
X0204899Y0067417D01*
X0204809Y0070412D02*
X0210381Y0070412D01*
X0210273Y0070457D02*
X0211780Y0069833D01*
X0213411Y0069833D01*
X0214918Y0070457D01*
X0216071Y0071611D01*
X0216695Y0073118D01*
X0216695Y0074749D01*
X0216071Y0076256D01*
X0214918Y0077409D01*
X0213411Y0078033D01*
X0211780Y0078033D01*
X0210273Y0077409D01*
X0209119Y0076256D01*
X0208495Y0074749D01*
X0208495Y0073118D01*
X0209119Y0071611D01*
X0210273Y0070457D01*
X0209319Y0071411D02*
X0205871Y0071411D01*
X0206402Y0072409D02*
X0208789Y0072409D01*
X0208495Y0073408D02*
X0206695Y0073408D01*
X0206695Y0074406D02*
X0208495Y0074406D01*
X0208767Y0075405D02*
X0206423Y0075405D01*
X0205923Y0076403D02*
X0209267Y0076403D01*
X0210266Y0077402D02*
X0204925Y0077402D01*
X0214925Y0077402D02*
X0220266Y0077402D01*
X0220273Y0077409D02*
X0219119Y0076256D01*
X0218495Y0074749D01*
X0218495Y0073118D01*
X0219119Y0071611D01*
X0220273Y0070457D01*
X0221780Y0069833D01*
X0223411Y0069833D01*
X0224918Y0070457D01*
X0226071Y0071611D01*
X0226695Y0073118D01*
X0226695Y0074749D01*
X0226071Y0076256D01*
X0224918Y0077409D01*
X0223411Y0078033D01*
X0221780Y0078033D01*
X0220273Y0077409D01*
X0219267Y0076403D02*
X0215923Y0076403D01*
X0216423Y0075405D02*
X0218767Y0075405D01*
X0218495Y0074406D02*
X0216695Y0074406D01*
X0216695Y0073408D02*
X0218495Y0073408D01*
X0218789Y0072409D02*
X0216402Y0072409D01*
X0215871Y0071411D02*
X0219319Y0071411D01*
X0220381Y0070412D02*
X0214809Y0070412D01*
X0214899Y0067417D02*
X0220292Y0067417D01*
X0220273Y0067409D02*
X0219119Y0066256D01*
X0218495Y0064749D01*
X0218495Y0063118D01*
X0219119Y0061611D01*
X0220273Y0060457D01*
X0221780Y0059833D01*
X0223411Y0059833D01*
X0224918Y0060457D01*
X0226071Y0061611D01*
X0226695Y0063118D01*
X0226695Y0064749D01*
X0226071Y0066256D01*
X0224918Y0067409D01*
X0223411Y0068033D01*
X0221780Y0068033D01*
X0220273Y0067409D01*
X0219282Y0066418D02*
X0215908Y0066418D01*
X0216417Y0065420D02*
X0218773Y0065420D01*
X0218495Y0064421D02*
X0216695Y0064421D01*
X0216695Y0063423D02*
X0218495Y0063423D01*
X0218782Y0062424D02*
X0216408Y0062424D01*
X0215886Y0061426D02*
X0219304Y0061426D01*
X0220345Y0060427D02*
X0214845Y0060427D01*
X0224845Y0060427D02*
X0230345Y0060427D01*
X0230273Y0060457D02*
X0231780Y0059833D01*
X0233411Y0059833D01*
X0234918Y0060457D01*
X0236071Y0061611D01*
X0236695Y0063118D01*
X0236695Y0064749D01*
X0236071Y0066256D01*
X0234918Y0067409D01*
X0233411Y0068033D01*
X0231780Y0068033D01*
X0230273Y0067409D01*
X0229119Y0066256D01*
X0228495Y0064749D01*
X0228495Y0063118D01*
X0229119Y0061611D01*
X0230273Y0060457D01*
X0229304Y0061426D02*
X0225886Y0061426D01*
X0226408Y0062424D02*
X0228782Y0062424D01*
X0228495Y0063423D02*
X0226695Y0063423D01*
X0226695Y0064421D02*
X0228495Y0064421D01*
X0228773Y0065420D02*
X0226417Y0065420D01*
X0225908Y0066418D02*
X0229282Y0066418D01*
X0230292Y0067417D02*
X0224899Y0067417D01*
X0224809Y0070412D02*
X0230381Y0070412D01*
X0230273Y0070457D02*
X0231780Y0069833D01*
X0233411Y0069833D01*
X0234918Y0070457D01*
X0236071Y0071611D01*
X0236695Y0073118D01*
X0236695Y0074749D01*
X0236071Y0076256D01*
X0234918Y0077409D01*
X0233411Y0078033D01*
X0231780Y0078033D01*
X0230273Y0077409D01*
X0229119Y0076256D01*
X0228495Y0074749D01*
X0228495Y0073118D01*
X0229119Y0071611D01*
X0230273Y0070457D01*
X0229319Y0071411D02*
X0225871Y0071411D01*
X0226402Y0072409D02*
X0228789Y0072409D01*
X0228495Y0073408D02*
X0226695Y0073408D01*
X0226695Y0074406D02*
X0228495Y0074406D01*
X0228767Y0075405D02*
X0226423Y0075405D01*
X0225923Y0076403D02*
X0229267Y0076403D01*
X0230266Y0077402D02*
X0224925Y0077402D01*
X0234925Y0077402D02*
X0240266Y0077402D01*
X0240273Y0077409D02*
X0239119Y0076256D01*
X0238495Y0074749D01*
X0238495Y0073118D01*
X0239119Y0071611D01*
X0240273Y0070457D01*
X0241780Y0069833D01*
X0243411Y0069833D01*
X0244918Y0070457D01*
X0246071Y0071611D01*
X0246695Y0073118D01*
X0246695Y0074749D01*
X0246071Y0076256D01*
X0244918Y0077409D01*
X0243411Y0078033D01*
X0241780Y0078033D01*
X0240273Y0077409D01*
X0239267Y0076403D02*
X0235923Y0076403D01*
X0236423Y0075405D02*
X0238767Y0075405D01*
X0238495Y0074406D02*
X0236695Y0074406D01*
X0236695Y0073408D02*
X0238495Y0073408D01*
X0238789Y0072409D02*
X0236402Y0072409D01*
X0235871Y0071411D02*
X0239319Y0071411D01*
X0240381Y0070412D02*
X0234809Y0070412D01*
X0234899Y0067417D02*
X0240292Y0067417D01*
X0240273Y0067409D02*
X0239119Y0066256D01*
X0238495Y0064749D01*
X0238495Y0063118D01*
X0239119Y0061611D01*
X0240273Y0060457D01*
X0241780Y0059833D01*
X0243411Y0059833D01*
X0244918Y0060457D01*
X0246071Y0061611D01*
X0246695Y0063118D01*
X0246695Y0064749D01*
X0246071Y0066256D01*
X0244918Y0067409D01*
X0243411Y0068033D01*
X0241780Y0068033D01*
X0240273Y0067409D01*
X0239282Y0066418D02*
X0235908Y0066418D01*
X0236417Y0065420D02*
X0238773Y0065420D01*
X0238495Y0064421D02*
X0236695Y0064421D01*
X0236695Y0063423D02*
X0238495Y0063423D01*
X0238782Y0062424D02*
X0236408Y0062424D01*
X0235886Y0061426D02*
X0239304Y0061426D01*
X0240345Y0060427D02*
X0234845Y0060427D01*
X0244845Y0060427D02*
X0250345Y0060427D01*
X0250273Y0060457D02*
X0251780Y0059833D01*
X0253411Y0059833D01*
X0254918Y0060457D01*
X0256071Y0061611D01*
X0256695Y0063118D01*
X0256695Y0064749D01*
X0256071Y0066256D01*
X0254918Y0067409D01*
X0253411Y0068033D01*
X0251780Y0068033D01*
X0250273Y0067409D01*
X0249119Y0066256D01*
X0248495Y0064749D01*
X0248495Y0063118D01*
X0249119Y0061611D01*
X0250273Y0060457D01*
X0249304Y0061426D02*
X0245886Y0061426D01*
X0246408Y0062424D02*
X0248782Y0062424D01*
X0248495Y0063423D02*
X0246695Y0063423D01*
X0246695Y0064421D02*
X0248495Y0064421D01*
X0248773Y0065420D02*
X0246417Y0065420D01*
X0245908Y0066418D02*
X0249282Y0066418D01*
X0250292Y0067417D02*
X0244899Y0067417D01*
X0244809Y0070412D02*
X0250381Y0070412D01*
X0250273Y0070457D02*
X0251780Y0069833D01*
X0253411Y0069833D01*
X0254918Y0070457D01*
X0256071Y0071611D01*
X0256695Y0073118D01*
X0256695Y0074749D01*
X0256071Y0076256D01*
X0254918Y0077409D01*
X0253411Y0078033D01*
X0251780Y0078033D01*
X0250273Y0077409D01*
X0249119Y0076256D01*
X0248495Y0074749D01*
X0248495Y0073118D01*
X0249119Y0071611D01*
X0250273Y0070457D01*
X0249319Y0071411D02*
X0245871Y0071411D01*
X0246402Y0072409D02*
X0248789Y0072409D01*
X0248495Y0073408D02*
X0246695Y0073408D01*
X0246695Y0074406D02*
X0248495Y0074406D01*
X0248767Y0075405D02*
X0246423Y0075405D01*
X0245923Y0076403D02*
X0249267Y0076403D01*
X0250266Y0077402D02*
X0244925Y0077402D01*
X0254925Y0077402D02*
X0260266Y0077402D01*
X0260273Y0077409D02*
X0259119Y0076256D01*
X0258495Y0074749D01*
X0258495Y0073118D01*
X0259119Y0071611D01*
X0260273Y0070457D01*
X0261780Y0069833D01*
X0263411Y0069833D01*
X0264918Y0070457D01*
X0266071Y0071611D01*
X0266695Y0073118D01*
X0266695Y0074749D01*
X0266071Y0076256D01*
X0264918Y0077409D01*
X0263411Y0078033D01*
X0261780Y0078033D01*
X0260273Y0077409D01*
X0259267Y0076403D02*
X0255923Y0076403D01*
X0256423Y0075405D02*
X0258767Y0075405D01*
X0258495Y0074406D02*
X0256695Y0074406D01*
X0256695Y0073408D02*
X0258495Y0073408D01*
X0258789Y0072409D02*
X0256402Y0072409D01*
X0255871Y0071411D02*
X0259319Y0071411D01*
X0260381Y0070412D02*
X0254809Y0070412D01*
X0254899Y0067417D02*
X0260292Y0067417D01*
X0260273Y0067409D02*
X0259119Y0066256D01*
X0258495Y0064749D01*
X0258495Y0063118D01*
X0259119Y0061611D01*
X0260273Y0060457D01*
X0261780Y0059833D01*
X0263411Y0059833D01*
X0264918Y0060457D01*
X0266071Y0061611D01*
X0266695Y0063118D01*
X0266695Y0064749D01*
X0266071Y0066256D01*
X0264918Y0067409D01*
X0263411Y0068033D01*
X0261780Y0068033D01*
X0260273Y0067409D01*
X0259282Y0066418D02*
X0255908Y0066418D01*
X0256417Y0065420D02*
X0258773Y0065420D01*
X0258495Y0064421D02*
X0256695Y0064421D01*
X0256695Y0063423D02*
X0258495Y0063423D01*
X0258782Y0062424D02*
X0256408Y0062424D01*
X0255886Y0061426D02*
X0259304Y0061426D01*
X0260345Y0060427D02*
X0254845Y0060427D01*
X0264845Y0060427D02*
X0270345Y0060427D01*
X0270273Y0060457D02*
X0271780Y0059833D01*
X0273411Y0059833D01*
X0274918Y0060457D01*
X0276071Y0061611D01*
X0276695Y0063118D01*
X0276695Y0064749D01*
X0276071Y0066256D01*
X0274918Y0067409D01*
X0273411Y0068033D01*
X0271780Y0068033D01*
X0270273Y0067409D01*
X0269119Y0066256D01*
X0268495Y0064749D01*
X0268495Y0063118D01*
X0269119Y0061611D01*
X0270273Y0060457D01*
X0269304Y0061426D02*
X0265886Y0061426D01*
X0266408Y0062424D02*
X0268782Y0062424D01*
X0268495Y0063423D02*
X0266695Y0063423D01*
X0266695Y0064421D02*
X0268495Y0064421D01*
X0268773Y0065420D02*
X0266417Y0065420D01*
X0265908Y0066418D02*
X0269282Y0066418D01*
X0270292Y0067417D02*
X0264899Y0067417D01*
X0264809Y0070412D02*
X0270381Y0070412D01*
X0270273Y0070457D02*
X0271780Y0069833D01*
X0273411Y0069833D01*
X0274918Y0070457D01*
X0276071Y0071611D01*
X0276695Y0073118D01*
X0276695Y0074749D01*
X0276071Y0076256D01*
X0274918Y0077409D01*
X0273411Y0078033D01*
X0271780Y0078033D01*
X0270273Y0077409D01*
X0269119Y0076256D01*
X0268495Y0074749D01*
X0268495Y0073118D01*
X0269119Y0071611D01*
X0270273Y0070457D01*
X0269319Y0071411D02*
X0265871Y0071411D01*
X0266402Y0072409D02*
X0268789Y0072409D01*
X0268495Y0073408D02*
X0266695Y0073408D01*
X0266695Y0074406D02*
X0268495Y0074406D01*
X0268767Y0075405D02*
X0266423Y0075405D01*
X0265923Y0076403D02*
X0269267Y0076403D01*
X0270266Y0077402D02*
X0264925Y0077402D01*
X0274925Y0077402D02*
X0280266Y0077402D01*
X0280273Y0077409D02*
X0279119Y0076256D01*
X0278495Y0074749D01*
X0278495Y0073118D01*
X0279119Y0071611D01*
X0280273Y0070457D01*
X0281780Y0069833D01*
X0283411Y0069833D01*
X0284918Y0070457D01*
X0286071Y0071611D01*
X0286695Y0073118D01*
X0286695Y0074749D01*
X0286071Y0076256D01*
X0284918Y0077409D01*
X0283411Y0078033D01*
X0281780Y0078033D01*
X0280273Y0077409D01*
X0279267Y0076403D02*
X0275923Y0076403D01*
X0276423Y0075405D02*
X0278767Y0075405D01*
X0278495Y0074406D02*
X0276695Y0074406D01*
X0276695Y0073408D02*
X0278495Y0073408D01*
X0278789Y0072409D02*
X0276402Y0072409D01*
X0275871Y0071411D02*
X0279319Y0071411D01*
X0280381Y0070412D02*
X0274809Y0070412D01*
X0274899Y0067417D02*
X0280292Y0067417D01*
X0280273Y0067409D02*
X0279119Y0066256D01*
X0278495Y0064749D01*
X0278495Y0063118D01*
X0279119Y0061611D01*
X0280273Y0060457D01*
X0281780Y0059833D01*
X0283411Y0059833D01*
X0284918Y0060457D01*
X0286071Y0061611D01*
X0286695Y0063118D01*
X0286695Y0064749D01*
X0286071Y0066256D01*
X0284918Y0067409D01*
X0283411Y0068033D01*
X0281780Y0068033D01*
X0280273Y0067409D01*
X0279282Y0066418D02*
X0275908Y0066418D01*
X0276417Y0065420D02*
X0278773Y0065420D01*
X0278495Y0064421D02*
X0276695Y0064421D01*
X0276695Y0063423D02*
X0278495Y0063423D01*
X0278782Y0062424D02*
X0276408Y0062424D01*
X0275886Y0061426D02*
X0279304Y0061426D01*
X0280345Y0060427D02*
X0274845Y0060427D01*
X0284845Y0060427D02*
X0290345Y0060427D01*
X0290273Y0060457D02*
X0291780Y0059833D01*
X0293411Y0059833D01*
X0294918Y0060457D01*
X0296071Y0061611D01*
X0296695Y0063118D01*
X0296695Y0064749D01*
X0296071Y0066256D01*
X0294918Y0067409D01*
X0293411Y0068033D01*
X0291780Y0068033D01*
X0290273Y0067409D01*
X0289119Y0066256D01*
X0288495Y0064749D01*
X0288495Y0063118D01*
X0289119Y0061611D01*
X0290273Y0060457D01*
X0289304Y0061426D02*
X0285886Y0061426D01*
X0286408Y0062424D02*
X0288782Y0062424D01*
X0288495Y0063423D02*
X0286695Y0063423D01*
X0286695Y0064421D02*
X0288495Y0064421D01*
X0288773Y0065420D02*
X0286417Y0065420D01*
X0285908Y0066418D02*
X0289282Y0066418D01*
X0290292Y0067417D02*
X0284899Y0067417D01*
X0284809Y0070412D02*
X0290381Y0070412D01*
X0290273Y0070457D02*
X0291780Y0069833D01*
X0293411Y0069833D01*
X0294918Y0070457D01*
X0296071Y0071611D01*
X0296695Y0073118D01*
X0296695Y0074749D01*
X0296071Y0076256D01*
X0294918Y0077409D01*
X0293411Y0078033D01*
X0291780Y0078033D01*
X0290273Y0077409D01*
X0289119Y0076256D01*
X0288495Y0074749D01*
X0288495Y0073118D01*
X0289119Y0071611D01*
X0290273Y0070457D01*
X0289319Y0071411D02*
X0285871Y0071411D01*
X0286402Y0072409D02*
X0288789Y0072409D01*
X0288495Y0073408D02*
X0286695Y0073408D01*
X0286695Y0074406D02*
X0288495Y0074406D01*
X0288767Y0075405D02*
X0286423Y0075405D01*
X0285923Y0076403D02*
X0289267Y0076403D01*
X0290266Y0077402D02*
X0284925Y0077402D01*
X0294925Y0077402D02*
X0300266Y0077402D01*
X0300273Y0077409D02*
X0299119Y0076256D01*
X0298495Y0074749D01*
X0298495Y0073118D01*
X0299119Y0071611D01*
X0300273Y0070457D01*
X0301780Y0069833D01*
X0303411Y0069833D01*
X0304918Y0070457D01*
X0306071Y0071611D01*
X0306695Y0073118D01*
X0306695Y0074749D01*
X0306071Y0076256D01*
X0304918Y0077409D01*
X0303411Y0078033D01*
X0301780Y0078033D01*
X0300273Y0077409D01*
X0299267Y0076403D02*
X0295923Y0076403D01*
X0296423Y0075405D02*
X0298767Y0075405D01*
X0298495Y0074406D02*
X0296695Y0074406D01*
X0296695Y0073408D02*
X0298495Y0073408D01*
X0298789Y0072409D02*
X0296402Y0072409D01*
X0295871Y0071411D02*
X0299319Y0071411D01*
X0300381Y0070412D02*
X0294809Y0070412D01*
X0294899Y0067417D02*
X0300292Y0067417D01*
X0300273Y0067409D02*
X0299119Y0066256D01*
X0298495Y0064749D01*
X0298495Y0063118D01*
X0299119Y0061611D01*
X0300273Y0060457D01*
X0301780Y0059833D01*
X0303411Y0059833D01*
X0304918Y0060457D01*
X0306071Y0061611D01*
X0306695Y0063118D01*
X0306695Y0064749D01*
X0306071Y0066256D01*
X0304918Y0067409D01*
X0303411Y0068033D01*
X0301780Y0068033D01*
X0300273Y0067409D01*
X0299282Y0066418D02*
X0295908Y0066418D01*
X0296417Y0065420D02*
X0298773Y0065420D01*
X0298495Y0064421D02*
X0296695Y0064421D01*
X0296695Y0063423D02*
X0298495Y0063423D01*
X0298782Y0062424D02*
X0296408Y0062424D01*
X0295886Y0061426D02*
X0299304Y0061426D01*
X0300345Y0060427D02*
X0294845Y0060427D01*
X0304845Y0060427D02*
X0310345Y0060427D01*
X0310273Y0060457D02*
X0311780Y0059833D01*
X0313411Y0059833D01*
X0314918Y0060457D01*
X0316071Y0061611D01*
X0316695Y0063118D01*
X0316695Y0064749D01*
X0316071Y0066256D01*
X0314918Y0067409D01*
X0313411Y0068033D01*
X0311780Y0068033D01*
X0310273Y0067409D01*
X0309119Y0066256D01*
X0308495Y0064749D01*
X0308495Y0063118D01*
X0309119Y0061611D01*
X0310273Y0060457D01*
X0309304Y0061426D02*
X0305886Y0061426D01*
X0306408Y0062424D02*
X0308782Y0062424D01*
X0308495Y0063423D02*
X0306695Y0063423D01*
X0306695Y0064421D02*
X0308495Y0064421D01*
X0308773Y0065420D02*
X0306417Y0065420D01*
X0305908Y0066418D02*
X0309282Y0066418D01*
X0310292Y0067417D02*
X0304899Y0067417D01*
X0304809Y0070412D02*
X0310381Y0070412D01*
X0310273Y0070457D02*
X0311780Y0069833D01*
X0313411Y0069833D01*
X0314918Y0070457D01*
X0316071Y0071611D01*
X0316695Y0073118D01*
X0316695Y0074749D01*
X0316071Y0076256D01*
X0314918Y0077409D01*
X0313411Y0078033D01*
X0311780Y0078033D01*
X0310273Y0077409D01*
X0309119Y0076256D01*
X0308495Y0074749D01*
X0308495Y0073118D01*
X0309119Y0071611D01*
X0310273Y0070457D01*
X0309319Y0071411D02*
X0305871Y0071411D01*
X0306402Y0072409D02*
X0308789Y0072409D01*
X0308495Y0073408D02*
X0306695Y0073408D01*
X0306695Y0074406D02*
X0308495Y0074406D01*
X0308767Y0075405D02*
X0306423Y0075405D01*
X0305923Y0076403D02*
X0309267Y0076403D01*
X0310266Y0077402D02*
X0304925Y0077402D01*
X0314925Y0077402D02*
X0320266Y0077402D01*
X0319267Y0076403D02*
X0315923Y0076403D01*
X0316423Y0075405D02*
X0318767Y0075405D01*
X0318495Y0074406D02*
X0316695Y0074406D01*
X0316695Y0073408D02*
X0318495Y0073408D01*
X0318789Y0072409D02*
X0316402Y0072409D01*
X0315871Y0071411D02*
X0319319Y0071411D01*
X0320381Y0070412D02*
X0314809Y0070412D01*
X0314899Y0067417D02*
X0320292Y0067417D01*
X0319282Y0066418D02*
X0315908Y0066418D01*
X0316417Y0065420D02*
X0318773Y0065420D01*
X0318495Y0064421D02*
X0316695Y0064421D01*
X0316695Y0063423D02*
X0318495Y0063423D01*
X0318782Y0062424D02*
X0316408Y0062424D01*
X0315886Y0061426D02*
X0319304Y0061426D01*
X0320345Y0060427D02*
X0314845Y0060427D01*
X0334845Y0060427D02*
X0335049Y0060427D01*
X0335886Y0061426D02*
X0338122Y0061426D01*
X0336408Y0062424D02*
X0341077Y0062424D01*
X0343037Y0063423D02*
X0336695Y0063423D01*
X0336695Y0064421D02*
X0344996Y0064421D01*
X0346956Y0065420D02*
X0336417Y0065420D01*
X0335908Y0066418D02*
X0348506Y0066418D01*
X0349880Y0067417D02*
X0334899Y0067417D01*
X0289120Y0100368D02*
X0154295Y0100368D01*
X0154295Y0101366D02*
X0288122Y0101366D01*
X0287945Y0102365D02*
X0154295Y0102365D01*
X0154295Y0103363D02*
X0287985Y0103363D01*
X0272994Y0097372D02*
X0242697Y0097372D01*
X0243245Y0096374D02*
X0272445Y0096374D01*
X0272445Y0095375D02*
X0243245Y0095375D01*
X0242579Y0094377D02*
X0273111Y0094377D01*
X0247245Y0152290D02*
X0308945Y0152290D01*
X0309910Y0153289D02*
X0246280Y0153289D01*
X0278296Y0164272D02*
X0370345Y0164272D01*
X0370345Y0163274D02*
X0368795Y0163274D01*
X0368486Y0163583D02*
X0366705Y0163583D01*
X0365445Y0162324D01*
X0365445Y0160543D01*
X0366705Y0159283D01*
X0368486Y0159283D01*
X0369745Y0160543D01*
X0369745Y0162324D01*
X0368486Y0163583D01*
X0369745Y0162275D02*
X0370345Y0162275D01*
X0370345Y0161277D02*
X0369745Y0161277D01*
X0369481Y0160278D02*
X0370345Y0160278D01*
X0370345Y0159280D02*
X0317482Y0159280D01*
X0318245Y0160278D02*
X0365709Y0160278D01*
X0365445Y0161277D02*
X0318245Y0161277D01*
X0317793Y0162275D02*
X0365445Y0162275D01*
X0366395Y0163274D02*
X0279245Y0163274D01*
X0279245Y0162275D02*
X0314397Y0162275D01*
X0313945Y0161277D02*
X0278979Y0161277D01*
X0279973Y0165271D02*
X0370345Y0165271D01*
X0370345Y0166269D02*
X0280245Y0166269D01*
X0280245Y0167268D02*
X0370345Y0167268D01*
X0370345Y0168266D02*
X0279302Y0168266D01*
X0329914Y0205211D02*
X0338276Y0205211D01*
X0337445Y0206210D02*
X0330745Y0206210D01*
X0330745Y0207208D02*
X0337445Y0207208D01*
X0337828Y0208207D02*
X0330362Y0208207D01*
X0329903Y0212201D02*
X0337287Y0212201D01*
X0336445Y0213199D02*
X0330745Y0213199D01*
X0330745Y0214198D02*
X0336445Y0214198D01*
X0336818Y0215196D02*
X0330372Y0215196D01*
X0341745Y0206210D02*
X0344831Y0206210D01*
X0343945Y0205211D02*
X0340914Y0205211D01*
X0369384Y0225181D02*
X0370198Y0225181D01*
X0370039Y0226180D02*
X0369745Y0226180D01*
X0369745Y0227179D02*
X0369881Y0227179D01*
X0369723Y0228177D02*
X0368892Y0228177D01*
X0368185Y0235167D02*
X0366869Y0235167D01*
X0367245Y0236165D02*
X0367861Y0236165D01*
X0367537Y0237164D02*
X0367245Y0237164D01*
X0367212Y0238162D02*
X0366407Y0238162D01*
X0366888Y0239161D02*
X0354096Y0239161D01*
X0355488Y0240159D02*
X0366480Y0240159D01*
X0365971Y0241158D02*
X0356487Y0241158D01*
X0357253Y0242156D02*
X0358831Y0242156D01*
X0357945Y0243155D02*
X0357667Y0243155D01*
X0358345Y0246150D02*
X0363427Y0246150D01*
X0363936Y0245152D02*
X0361917Y0245152D01*
X0362245Y0244153D02*
X0364445Y0244153D01*
X0364953Y0243155D02*
X0362245Y0243155D01*
X0361359Y0242156D02*
X0365462Y0242156D01*
X0362752Y0247149D02*
X0358345Y0247149D01*
X0358315Y0248147D02*
X0362026Y0248147D01*
X0361301Y0249146D02*
X0357901Y0249146D01*
X0357488Y0250144D02*
X0360576Y0250144D01*
X0359850Y0251143D02*
X0357053Y0251143D01*
X0356054Y0252141D02*
X0359125Y0252141D01*
X0358905Y0252444D02*
X0358905Y0252444D01*
X0358209Y0253140D02*
X0355056Y0253140D01*
X0353051Y0254138D02*
X0357210Y0254138D01*
X0369745Y0152290D02*
X0370345Y0152290D01*
X0370345Y0151292D02*
X0369745Y0151292D01*
X0369496Y0150293D02*
X0370345Y0150293D01*
X0370345Y0149295D02*
X0368497Y0149295D01*
M02*
