G75*
%MOIN*%
%OFA0B0*%
%FSLAX25Y25*%
%IPPOS*%
%LPD*%
%AMOC8*
5,1,8,0,0,1.08239X$1,22.5*
%
%ADD10C,0.00800*%
%ADD11C,0.00600*%
D10*
X0097992Y0066431D02*
X0097992Y0067832D01*
X0098692Y0068533D01*
X0099393Y0068533D01*
X0100093Y0067832D01*
X0100093Y0065731D01*
X0098692Y0065731D02*
X0097992Y0066431D01*
X0098692Y0065731D02*
X0101495Y0065731D01*
X0102195Y0066431D01*
X0102195Y0067832D01*
X0101495Y0068533D01*
X0100093Y0070335D02*
X0100794Y0071035D01*
X0100794Y0073137D01*
X0102195Y0073137D02*
X0097992Y0073137D01*
X0097992Y0071035D01*
X0098692Y0070335D01*
X0100093Y0070335D01*
X0107195Y0253033D02*
X0107195Y0255835D01*
X0107195Y0254434D02*
X0102992Y0254434D01*
X0104393Y0255835D01*
X0102195Y0256431D02*
X0102195Y0257832D01*
X0101495Y0258533D01*
X0100794Y0258533D01*
X0100093Y0257832D01*
X0100093Y0256431D01*
X0100794Y0255731D01*
X0101495Y0255731D01*
X0102195Y0256431D01*
X0100093Y0256431D02*
X0099393Y0255731D01*
X0098692Y0255731D01*
X0097992Y0256431D01*
X0097992Y0257832D01*
X0098692Y0258533D01*
X0099393Y0258533D01*
X0100093Y0257832D01*
X0100093Y0260335D02*
X0100794Y0261035D01*
X0100794Y0263137D01*
X0102195Y0263137D02*
X0097992Y0263137D01*
X0097992Y0261035D01*
X0098692Y0260335D01*
X0100093Y0260335D01*
D11*
X0103892Y0064340D02*
X0107295Y0064340D01*
X0107295Y0063206D02*
X0107295Y0065475D01*
X0105027Y0065475D02*
X0103892Y0064340D01*
X0104459Y0073206D02*
X0103892Y0073773D01*
X0103892Y0074907D01*
X0104459Y0075475D01*
X0104459Y0073206D02*
X0105027Y0073206D01*
X0107295Y0075475D01*
X0107295Y0073206D01*
X0338892Y0071364D02*
X0339459Y0072499D01*
X0340594Y0073633D01*
X0340594Y0071932D01*
X0341161Y0071364D01*
X0341728Y0071364D01*
X0342295Y0071932D01*
X0342295Y0073066D01*
X0341728Y0073633D01*
X0340594Y0073633D01*
X0340594Y0075048D02*
X0340594Y0077316D01*
X0338892Y0075615D01*
X0342295Y0075615D01*
X0340594Y0067316D02*
X0340594Y0065048D01*
X0340594Y0063633D02*
X0340027Y0062499D01*
X0340027Y0061932D01*
X0340594Y0061364D01*
X0341728Y0061364D01*
X0342295Y0061932D01*
X0342295Y0063066D01*
X0341728Y0063633D01*
X0340594Y0063633D02*
X0338892Y0063633D01*
X0338892Y0061364D01*
X0338892Y0065615D02*
X0340594Y0067316D01*
X0342295Y0065615D02*
X0338892Y0065615D01*
X0338892Y0251364D02*
X0338892Y0253633D01*
X0340594Y0253633D01*
X0340027Y0252499D01*
X0340027Y0251932D01*
X0340594Y0251364D01*
X0341728Y0251364D01*
X0342295Y0251932D01*
X0342295Y0253066D01*
X0341728Y0253633D01*
X0340594Y0255048D02*
X0340594Y0257316D01*
X0338892Y0255615D01*
X0342295Y0255615D01*
X0341728Y0261364D02*
X0341161Y0261364D01*
X0340594Y0261932D01*
X0340594Y0263633D01*
X0341728Y0263633D01*
X0342295Y0263066D01*
X0342295Y0261932D01*
X0341728Y0261364D01*
X0339459Y0262499D02*
X0338892Y0261364D01*
X0339459Y0262499D02*
X0340594Y0263633D01*
X0340594Y0265048D02*
X0340594Y0267316D01*
X0338892Y0265615D01*
X0342295Y0265615D01*
X0107295Y0265475D02*
X0107295Y0263206D01*
X0105027Y0263206D02*
X0107295Y0265475D01*
X0104459Y0265475D02*
X0103892Y0264907D01*
X0103892Y0263773D01*
X0104459Y0263206D01*
X0105027Y0263206D01*
M02*
